<svg width="220" height="114" viewBox="0 0 220 114" fill="none" xmlns="http://www.w3.org/2000/svg">
<rect width="220" height="114" fill="white"/>
<g clip-path="url(#clip0_245_88)">
<path fill-rule="evenodd" clip-rule="evenodd" d="M38.4536 77.2129H48.5517V80.8785H33.6963V58.7921H38.4536V77.2129ZM61.004 79.2165C59.8727 80.5316 58.3088 81.1894 56.3119 81.1894C54.4718 81.1894 53.0701 80.6816 52.1018 79.6725C51.133 78.6627 50.6403 77.1818 50.6188 75.2301V64.4766H55.2024V75.085C55.2024 76.7934 56.0143 77.6482 57.6434 77.6482C59.1962 77.6482 60.2624 77.1304 60.8472 76.0998V64.4766H65.4412V80.8785H61.1283L61.004 79.2165ZM73.1047 64.4766L73.2509 66.372C74.4739 64.9011 76.1187 64.1661 78.1808 64.1661C79.999 64.1661 81.352 64.6789 82.2398 65.6984C83.1269 66.7186 83.5813 68.2459 83.6032 70.2755V80.8785H79.0195V70.3634C79.0195 69.4365 78.8082 68.7583 78.3864 68.3391C77.9641 67.9196 77.2608 67.7073 76.2759 67.7073C74.9878 67.7073 74.019 68.2355 73.3751 69.2864V80.8785H68.7915V64.4766H73.1047ZM94.1994 77.6482C95.0435 77.6482 95.7311 77.4252 96.2611 76.9803C96.7919 76.5401 97.0622 75.9501 97.0841 75.2097H101.381C101.37 76.3224 101.056 77.3427 100.428 78.2692C99.8058 79.1958 98.9564 79.9105 97.8687 80.4229C96.7861 80.9357 95.59 81.1894 94.2807 81.1894C91.829 81.1894 89.8919 80.444 88.4737 78.9528C87.0612 77.4616 86.3525 75.4009 86.3525 72.7708V72.4807C86.3525 69.9493 87.0559 67.9353 88.4629 66.4284C89.8646 64.9219 91.7967 64.1661 94.2481 64.1661C96.3915 64.1661 98.1119 64.7514 99.4055 65.916C100.704 67.0863 101.359 68.6393 101.381 70.5861H97.0841C97.0622 69.732 96.7919 69.0381 96.2611 68.5049C95.7311 67.9714 95.0327 67.7073 94.1672 67.7073C93.101 67.7073 92.2945 68.0804 91.7477 68.8205C91.2069 69.5662 90.9362 70.7722 90.9362 72.4446V72.8952C90.9362 74.5883 91.2012 75.7997 91.7426 76.5401C92.2838 77.2805 93.101 77.6482 94.1994 77.6482ZM108.486 66.2576C109.698 64.8651 111.23 64.1661 113.065 64.1661C116.788 64.1661 118.677 66.2319 118.725 70.3688V80.8785H114.147V70.4724C114.147 69.5298 113.936 68.8362 113.508 68.3856C113.086 67.9353 112.382 67.7073 111.403 67.7073C110.061 67.7073 109.087 68.2044 108.486 69.1985V80.8785H103.902V57.5807H108.486V66.2576Z" fill="#4BB1B5"/>
<path fill-rule="evenodd" clip-rule="evenodd" d="M163.706 22.8572C163.803 23.3725 164.038 24.2197 164.134 25.1713C164.232 26.1226 164.192 27.1785 164.028 28.1641C163.865 29.1496 163.577 30.0647 163.33 30.7605C163.082 31.4562 162.876 31.9315 162.571 32.4214C162.266 32.9102 161.862 33.4127 161.487 34.2006C161.112 34.9885 160.766 36.0616 160.563 36.8839C160.36 37.7068 160.299 38.28 160.273 38.8274C160.247 39.3745 160.256 39.8962 160.334 40.3325C160.412 40.7681 160.559 41.1187 160.708 41.3935C160.857 41.6683 161.009 41.867 161.203 42.0853C161.398 42.3036 161.635 42.542 161.884 42.7707C162.134 42.999 162.396 43.2184 162.631 43.421C162.867 43.624 163.077 43.812 163.296 43.9763C163.514 44.1414 163.74 44.2826 163.88 44.3512C164.019 44.4198 164.073 44.413 164.171 44.3215C164.269 44.23 164.411 44.0524 164.587 43.7909C164.764 43.5289 164.974 43.1823 165.172 42.8075C165.372 42.4323 165.559 42.0285 165.744 41.6043C165.93 41.1794 166.113 40.7335 166.328 40.211C166.543 39.689 166.79 39.0904 166.932 38.6652C167.074 38.24 167.111 37.9877 167.173 37.6386C167.234 37.2898 167.32 36.8435 167.403 36.479C167.487 36.1138 167.569 35.8297 167.625 35.5245C167.68 35.219 167.708 34.8924 167.732 34.6208C167.757 34.3482 167.775 34.1306 167.801 33.9419C167.826 33.7532 167.857 33.5935 167.887 33.5306C167.918 33.4677 167.949 33.5023 167.958 33.5577C167.967 33.6135 167.954 33.6907 167.97 33.8879C167.987 34.0859 168.032 34.4039 168.088 34.8074C168.143 35.2111 168.209 35.6996 168.233 36.1177C168.258 36.5354 168.242 36.8821 168.206 37.3387C168.17 37.7954 168.114 38.3625 168.059 39.0072C168.003 39.6522 167.948 40.3751 167.843 41.1062C167.737 41.8377 167.58 42.577 167.454 43.1652C167.328 43.753 167.23 44.1897 167.149 44.5327C167.068 44.8761 167.004 45.1252 166.998 45.3628C166.992 45.6012 167.044 45.827 167.126 46.0282C167.207 46.2297 167.319 46.4062 167.486 46.5252C167.653 46.6442 167.876 46.7057 168.167 46.7007C168.458 46.6957 168.817 46.6239 169.373 46.393C169.928 46.1618 170.679 45.7716 171.449 45.3146C172.22 44.8582 173.01 44.3347 173.948 43.8212C174.885 43.3085 175.969 42.8064 177.195 42.3161C178.421 41.8248 179.789 41.3456 180.941 40.995C182.094 40.6441 183.03 40.4226 183.642 40.2557C184.252 40.0885 184.537 39.9759 184.753 39.8333C184.97 39.6911 185.119 39.5185 185.208 39.3334C185.299 39.1483 185.331 38.9507 185.278 38.6173C185.225 38.2832 185.086 37.8133 184.871 37.3845C184.657 36.9553 184.365 36.5669 184.009 36.2049C183.653 35.8426 183.232 35.506 182.822 35.2708C182.413 35.0353 182.014 34.9013 181.557 34.9138C181.099 34.9267 180.582 35.0861 179.96 35.3755C179.338 35.665 178.613 36.0845 177.926 36.5455C177.239 37.0068 176.593 37.5092 175.835 38.0831C175.078 38.657 174.209 39.3027 173.531 39.8923C172.854 40.4812 172.367 41.0151 172.086 41.3288C171.805 41.6429 171.729 41.7372 171.669 41.7326C171.609 41.729 171.565 41.6258 171.65 41.4171C171.735 41.2084 171.949 40.8936 172.177 40.3672C172.405 39.8408 172.648 39.1029 172.762 38.0634C172.876 37.0239 172.863 35.6828 172.759 34.5461C172.655 33.4098 172.46 32.4771 172.12 31.5498C171.78 30.6222 171.294 29.7003 170.779 28.8812C170.264 28.0619 169.72 27.3454 168.999 26.5843C168.277 25.8228 167.378 25.0159 166.731 24.4459C166.085 23.8756 165.691 23.5415 165.385 23.2871C165.078 23.0323 164.859 22.8568 164.655 22.6935C164.45 22.5302 164.261 22.3787 164.125 22.2697C163.988 22.1607 163.905 22.0943 163.841 22.0525C163.777 22.0114 163.732 21.9949 163.689 22.0775C163.648 22.16 163.609 22.3426 163.706 22.8572ZM133.237 57.457V66.1561C134.689 64.424 136.429 63.5553 138.447 63.5553C139.485 63.5553 140.42 63.7462 141.253 64.1289C142.084 64.5169 142.709 65.0029 143.134 65.6043C143.558 66.1997 143.846 66.8607 143.998 67.5876C144.156 68.3144 144.233 69.44 144.233 70.9648V80.9313H139.762V71.9589C139.762 70.1779 139.676 69.0466 139.507 68.5656C139.333 68.085 139.029 67.7023 138.593 67.4239C138.158 67.1395 137.615 66.9976 136.957 66.9976C136.206 66.9976 135.538 67.1781 134.945 67.544C134.352 67.9049 133.922 68.4509 133.65 69.1831C133.373 69.9099 133.237 70.9919 133.237 72.4181V80.9313H128.768V57.457H133.237ZM158.049 80.9313V78.3849C157.429 79.2922 156.619 80.0133 155.613 80.5543C154.607 81.09 153.547 81.3576 152.432 81.3576C151.29 81.3576 150.267 81.1061 149.365 80.6037C148.457 80.1009 147.804 79.3905 147.402 78.4836C146.994 77.5709 146.793 76.3142 146.793 74.7076V63.9155H151.263V71.7516C151.263 74.1501 151.345 75.6148 151.513 76.1559C151.676 76.6965 151.975 77.1285 152.415 77.4398C152.85 77.7567 153.405 77.9154 154.079 77.9154C154.846 77.9154 155.531 77.7021 156.14 77.2811C156.749 76.8605 157.163 76.336 157.385 75.7077C157.608 75.0792 157.723 73.5491 157.723 71.1066V63.9155H162.192V80.9313H158.049ZM164.688 80.9313V57.457H169.157V65.9266C170.539 64.3476 172.17 63.5553 174.062 63.5553C176.123 63.5553 177.825 64.3036 179.174 65.8062C180.522 67.3088 181.196 69.4672 181.196 72.2816C181.196 75.1882 180.511 77.4287 179.135 79.0024C177.76 80.5708 176.085 81.3576 174.122 81.3576C173.154 81.3576 172.202 81.1061 171.262 80.609C170.321 80.1062 169.511 79.3851 168.831 78.4343V80.9313H164.688ZM169.092 72.0958C169.092 73.8607 169.37 75.1721 169.924 76.0136C170.702 77.2157 171.729 77.8168 173.018 77.8168C174.008 77.8168 174.85 77.3905 175.552 76.5382C176.248 75.6856 176.596 74.3413 176.596 72.511C176.596 70.5603 176.243 69.1559 175.541 68.2926C174.84 67.4293 173.943 66.9976 172.844 66.9976C171.767 66.9976 170.876 67.4182 170.164 68.2597C169.451 69.1013 169.092 70.3798 169.092 72.0958ZM153.416 47.0891C170.848 47.2206 184.904 57.3844 184.81 69.7913C184.78 73.7474 183.313 77.4537 180.766 80.6626C179.211 81.7689 177.109 82.6827 174.989 83.6686C172.869 84.6545 171.509 85.0372 169.892 85.6857C168.275 86.334 167.097 86.6248 166.19 86.816C165.283 87.0072 164.343 87.099 163.358 87.1737C162.373 87.248 161.344 87.3056 160.448 87.3134C159.552 87.3216 158.79 87.2802 158.141 87.2248C157.492 87.1701 156.958 87.1012 156.68 87.059C156.402 87.0172 156.38 87.0015 156.356 86.9068C156.331 86.8117 156.303 86.6373 156.203 86.3733C156.102 86.1092 155.929 85.7554 155.706 85.4395C155.484 85.1236 155.212 84.846 154.935 84.6194C154.658 84.3925 154.376 84.2171 154.024 84.047C153.672 83.8769 153.252 83.7125 152.684 83.5099C152.117 83.3077 151.403 83.0672 150.666 82.8145C149.928 82.5622 149.168 82.2982 148.67 82.1266C148.172 81.9551 147.936 81.8758 147.717 81.864C147.498 81.8518 147.295 81.9062 147.149 81.9851C147.003 82.0645 146.913 82.1681 146.894 82.3428C146.875 82.5172 146.927 82.7631 147.058 82.9768C147.189 83.1908 147.398 83.3734 147.798 83.5724C148.197 83.7722 148.786 83.9887 149.543 84.2385C150.301 84.4887 151.226 84.7724 151.761 84.9518C152.296 85.1315 152.439 85.2069 152.544 85.337C152.647 85.4671 152.712 85.6518 152.7 85.8147C152.687 85.9781 152.596 86.1192 152.325 86.1782C152.053 86.2371 151.6 86.2139 150.664 85.9505C149.728 85.6872 148.309 85.183 147.526 84.9196C146.742 84.6555 146.593 84.6316 146.441 84.6534C146.288 84.6748 146.131 84.742 146.018 84.8478C145.905 84.9536 145.835 85.0976 145.825 85.2534C145.815 85.4088 145.865 85.5753 146.016 85.7565C146.167 85.938 146.42 86.1339 146.795 86.33C147.171 86.5259 147.668 86.7217 148.161 86.905C148.654 87.089 149.142 87.2602 149.668 87.4435C150.194 87.6272 150.758 87.8226 151.087 87.9634C151.417 88.1046 151.513 88.1911 151.538 88.3372C151.562 88.4834 151.515 88.6888 151.408 88.8461C151.301 89.0036 151.134 89.1133 150.78 89.0873C150.426 89.0615 149.884 88.9 149.114 88.6331C148.345 88.3661 147.346 87.9931 146.699 87.768C146.051 87.5425 145.754 87.4646 145.51 87.5128C145.265 87.5611 145.073 87.7351 144.973 87.8544C144.874 87.9742 144.867 88.0388 144.924 88.1735C144.98 88.3079 145.1 88.5123 145.455 88.7553C145.81 88.9979 146.4 89.2795 147.276 89.5922C148.153 89.9052 149.316 90.2497 150.276 90.4598C151.235 90.6696 151.991 90.7446 152.556 90.7289C153.121 90.7139 153.496 90.6085 153.889 90.4151C154.283 90.2215 154.697 89.9399 154.944 89.7687C155.191 89.5979 155.272 89.5375 155.34 89.5046C155.409 89.4718 155.464 89.466 155.836 89.565C156.208 89.664 156.895 89.868 158.3 90.0785C159.705 90.2894 161.826 90.507 163.73 90.6292L164.233 90.6596C160.76 91.5647 157 92.0478 153.076 92.0182C135.644 91.8867 121.589 81.7225 121.682 69.3153C121.777 56.9088 135.984 46.9576 153.416 47.0891Z" fill="#4BB1B5"/>
</g>
<defs>
<clipPath id="clip0_245_88">
<rect width="175" height="70" fill="white" transform="translate(22.5 22)"/>
</clipPath>
</defs>
</svg>
