<svg width="220" height="136" viewBox="0 0 220 136" fill="none" xmlns="http://www.w3.org/2000/svg">
<rect width="219.961" height="136" transform="translate(0.0385742)" fill="white"/>
<path d="M152.321 56L158.405 68.9956L147.499 82.6667H141.371L152.172 69.1289L146.017 56H152.321ZM90.9508 61.9556C90.8719 64.2667 90.5913 66.5689 90.1267 68.8356C89.776 71.1734 89.2324 73.4756 88.5135 75.7245C88.0641 77.0263 87.1337 78.1003 85.9185 78.72C84.6911 79.3423 82.7974 79.6534 80.2286 79.6534C77.6686 79.6534 75.8889 79.3423 74.8982 78.72C74.4057 78.3974 74.0055 77.9492 73.7378 77.4203C73.4701 76.8914 73.3442 76.3005 73.3727 75.7067C73.4428 73.4045 73.7059 71.1111 74.1705 68.8534C74.522 66.5184 75.0645 64.2171 75.7924 61.9734C76.2469 60.6702 77.1752 59.5923 78.3875 58.96C79.5974 58.3378 81.4911 58.0267 84.0774 58.0267C86.6549 58.0267 88.4434 58.3378 89.4253 58.96C89.9164 59.2813 90.3152 59.7283 90.5815 60.2558C90.8478 60.7833 90.9722 61.3727 90.942 61.9645L90.9508 61.9556ZM85.7256 63.9645L85.6905 63.9823C85.7343 63.1467 85.5941 62.6045 85.2522 62.3823C84.5686 62.0909 83.8255 61.9719 83.0867 62.0356C82.3064 61.9823 81.5261 62.0978 80.7985 62.3823C80.2724 62.7645 79.913 63.3334 79.7902 63.9823C79.536 64.8267 79.2028 66.4711 78.7733 68.9067C78.3349 71.3423 78.1157 72.9778 78.0631 73.8223C78.0105 74.6667 78.1596 75.2 78.5015 75.4223C79.1853 75.7067 79.9305 75.8223 80.6757 75.76C81.456 75.8134 82.2363 75.6978 82.9639 75.4223C83.49 75.04 83.8494 74.4623 83.9722 73.8223C84.2089 72.9956 84.5596 71.3511 85.0242 68.8889C85.3398 67.2623 85.5853 65.6178 85.7343 63.9645H85.7256ZM103.181 68.5956L107.398 79.6534H102.155L98.9815 70.9334H97.7015L96.176 79.6534H91.4505L95.1502 58.5245H99.8757L98.4116 66.9067H99.6916L105.943 58.5245H111.036L103.172 68.6045L103.181 68.5956ZM126.493 79.6445H121.25L118.076 70.9245H116.796L115.271 79.6445H110.545L114.245 58.5156H118.971L117.506 66.8978H118.786L125.037 58.5156H130.131L122.267 68.5956L126.493 79.6445ZM72.0927 65.3689C71.8823 66.6934 71.4878 67.9823 70.9267 69.1911C70.428 70.2328 69.5749 71.0567 68.5245 71.5111L70.0324 79.6534H65.0352L63.8867 72.2489H60.8269L59.5382 79.6534H54.7864L56.7765 68.32H63.913C64.5657 68.3469 65.2187 68.275 65.8505 68.1067C66.2363 67.9823 66.5606 67.6978 66.7448 67.3245C66.999 66.7023 67.1743 66.0534 67.262 65.3778C67.4023 64.7378 67.4549 64.0889 67.4374 63.4311C67.4111 63.0756 67.1743 62.7734 66.8412 62.6578C66.2291 62.4968 65.5969 62.4279 64.965 62.4534H57.8111L58.5124 58.5156H67.1831C68.9102 58.5156 70.1815 58.7734 70.9617 59.2978C71.3413 59.5385 71.6617 59.8637 71.8987 60.2488C72.1357 60.6339 72.283 61.0686 72.3294 61.52C72.4434 62.8089 72.3645 64.0978 72.1015 65.36L72.0927 65.3689ZM136.47 62.4711L135.663 66.9867H142.537L141.826 70.9511H134.953L134.12 75.68H142.133L141.432 79.6445H128.614L132.367 58.5156H145.184L144.483 62.4711H136.47Z" fill="#FE2041"/>
<path d="M160.667 65.8223L168.759 56H162.64L158.396 61.1467L160.667 65.8223ZM155.635 77.2356L157.984 82.6667H163.929L159.378 72.1423L155.635 77.2356Z" fill="#242B34"/>
</svg>
