<svg width="220" height="114" viewBox="0 0 220 114" fill="none" xmlns="http://www.w3.org/2000/svg">
<rect width="220" height="114" fill="white"/>
<g clip-path="url(#clip0_239_57)">
<path fill-rule="evenodd" clip-rule="evenodd" d="M173.744 48.8423V44.5668H156.099V48.8423H173.744Z" fill="#3061FA"/>
<path fill-rule="evenodd" clip-rule="evenodd" d="M166.882 58.5353V54.2589H156.119V58.5353H166.882Z" fill="#3061FA"/>
<path fill-rule="evenodd" clip-rule="evenodd" d="M158.48 63.4438C160.098 63.4438 161.411 64.7499 161.411 66.3621C161.411 67.9733 160.099 69.2805 158.48 69.2805C156.862 69.2805 155.549 67.9742 155.549 66.3621C155.549 64.7507 156.862 63.4438 158.48 63.4438Z" fill="#3061FA"/>
<path d="M56.5426 64.2694C56.5426 63.8683 56.442 63.5063 56.2406 63.1831C56.0392 62.849 55.6532 62.5481 55.0826 62.2807C54.5232 62.0133 53.6953 61.7682 52.5988 61.5454C51.6367 61.3337 50.7528 61.0831 49.9473 60.7934C49.1529 60.4926 48.4704 60.1305 47.8998 59.7072C47.3293 59.2839 46.8873 58.7825 46.5741 58.2032C46.2608 57.6239 46.1042 56.9554 46.1042 56.1978C46.1042 55.4626 46.2664 54.7663 46.5908 54.109C46.9153 53.4516 47.3796 52.8723 47.9838 52.371C48.5879 51.8697 49.3207 51.4742 50.1822 51.1845C51.0549 50.8948 52.0283 50.75 53.1023 50.75C54.6239 50.75 55.9273 51.0062 57.0125 51.5187C58.109 52.0201 58.9481 52.7052 59.5299 53.5742C60.1116 54.432 60.4025 55.4012 60.4025 56.482H56.3581C56.3581 56.0029 56.235 55.5573 55.9888 55.1451C55.7539 54.7217 55.3959 54.3819 54.9148 54.1257C54.4337 53.8583 53.8295 53.7246 53.1023 53.7246C52.4086 53.7246 51.8325 53.836 51.3738 54.0588C50.9262 54.2705 50.5906 54.549 50.3668 54.8944C50.1542 55.2398 50.048 55.6185 50.048 56.0307C50.048 56.3316 50.1039 56.6045 50.2158 56.8496C50.3389 57.0835 50.5402 57.3008 50.8199 57.5014C51.0996 57.6907 51.48 57.869 51.9611 58.0361C52.4534 58.2032 53.0688 58.3648 53.8072 58.5207C55.1945 58.8104 56.386 59.1836 57.3817 59.6404C58.3887 60.086 59.1607 60.6653 59.6977 61.3783C60.2347 62.0802 60.5032 62.9715 60.5032 64.0522C60.5032 64.8543 60.3298 65.5896 59.983 66.258C59.6473 66.9153 59.1551 67.4891 58.5061 67.9793C57.8573 68.4583 57.0797 68.8316 56.1734 69.099C55.2784 69.3664 54.2715 69.5 53.1527 69.5C51.508 69.5 50.1151 69.2103 48.9739 68.631C47.8327 68.0405 46.9656 67.2885 46.3727 66.375C45.7909 65.4503 45.5 64.4922 45.5 63.5006H49.4102C49.455 64.2471 49.662 64.8431 50.0312 65.2887C50.4116 65.7232 50.8815 66.0407 51.4409 66.2414C52.0115 66.4307 52.5988 66.5254 53.203 66.5254C53.9302 66.5254 54.54 66.4307 55.0323 66.2414C55.5245 66.0407 55.8993 65.7734 56.1566 65.4392C56.414 65.0939 56.5426 64.7039 56.5426 64.2694Z" fill="#3061FA"/>
<path d="M68.0884 54.7607V69.1657H64.0439V51.0842H67.8535L68.0884 54.7607ZM67.4339 59.4566L66.0578 59.4398C66.0578 58.1921 66.2145 57.039 66.5277 55.9806C66.841 54.9222 67.2996 54.0031 67.9039 53.2233C68.508 52.4323 69.2576 51.8251 70.1526 51.4017C71.0588 50.9672 72.105 50.75 73.291 50.75C74.1188 50.75 74.874 50.8726 75.5565 51.1176C76.2502 51.3516 76.8488 51.7248 77.3522 52.2373C77.8668 52.7498 78.2584 53.4071 78.5269 54.2092C78.8066 55.0114 78.9465 55.9806 78.9465 57.117V69.1657H74.902V57.4679C74.902 56.5878 74.7677 55.8971 74.4992 55.3957C74.2419 54.8944 73.8671 54.5379 73.3748 54.3262C72.8938 54.1034 72.3175 53.992 71.6463 53.992C70.8854 53.992 70.2366 54.1368 69.6996 54.4265C69.1737 54.7161 68.743 55.1117 68.4073 55.6129C68.0717 56.1143 67.8255 56.6936 67.6688 57.3509C67.5123 58.0082 67.4339 58.7101 67.4339 59.4566ZM78.6948 58.3871L76.7984 58.8048C76.7984 57.713 76.9495 56.6825 77.2515 55.7132C77.5648 54.7328 78.0179 53.875 78.6109 53.1397C79.215 52.3933 79.959 51.8084 80.8429 51.385C81.7267 50.9617 82.7393 50.75 83.8804 50.75C84.8091 50.75 85.637 50.8781 86.3642 51.1344C87.1026 51.3795 87.7292 51.7694 88.2438 52.3041C88.7585 52.8389 89.15 53.5352 89.4186 54.3931C89.6871 55.2398 89.8214 56.2647 89.8214 57.4679V69.1657H85.7601V57.4512C85.7601 56.5376 85.6257 55.8302 85.3572 55.3289C85.1 54.8275 84.7308 54.4822 84.2496 54.2928C83.7686 54.0922 83.1923 53.992 82.5211 53.992C81.8945 53.992 81.3408 54.109 80.8596 54.3429C80.3898 54.5657 79.9926 54.8832 79.6681 55.2954C79.3437 55.6966 79.0975 56.1589 78.9297 56.6825C78.773 57.2061 78.6948 57.7743 78.6948 58.3871Z" fill="#3061FA"/>
<path d="M101.988 69.5C100.646 69.5 99.4319 69.2827 98.3466 68.8482C97.2726 68.4026 96.3552 67.7843 95.5944 66.9933C94.8448 66.2023 94.2686 65.2721 93.8658 64.2025C93.463 63.133 93.2617 61.9799 93.2617 60.7433V60.0749C93.2617 58.66 93.4686 57.3787 93.8826 56.2312C94.2965 55.0837 94.8728 54.1034 95.6112 53.2901C96.3496 52.4657 97.2222 51.8362 98.2292 51.4017C99.2361 50.9672 100.327 50.75 101.502 50.75C102.8 50.75 103.935 50.9672 104.908 51.4017C105.882 51.8362 106.687 52.449 107.325 53.24C107.974 54.0198 108.455 54.9501 108.768 56.0307C109.093 57.1115 109.255 58.3034 109.255 59.607V61.3282H95.2252V58.4372H105.261V58.1197C105.239 57.3955 105.093 56.7159 104.825 56.0808C104.567 55.4458 104.17 54.9333 103.633 54.5434C103.096 54.1535 102.38 53.9586 101.485 53.9586C100.814 53.9586 100.215 54.1034 99.6892 54.3931C99.1746 54.6716 98.7438 55.0782 98.397 55.6129C98.0502 56.1477 97.7817 56.7939 97.5914 57.5515C97.4125 58.2979 97.3229 59.1391 97.3229 60.0749V60.7433C97.3229 61.5343 97.4293 62.2696 97.6418 62.9492C97.8656 63.6176 98.19 64.2025 98.6152 64.7039C99.0403 65.2052 99.5549 65.6007 100.159 65.8904C100.763 66.1689 101.451 66.3081 102.223 66.3081C103.197 66.3081 104.064 66.1132 104.825 65.7232C105.585 65.3333 106.245 64.7819 106.805 64.0689L108.936 66.1244C108.545 66.6925 108.036 67.2384 107.409 67.7621C106.782 68.2745 106.016 68.6923 105.11 69.0154C104.215 69.3384 103.174 69.5 101.988 69.5Z" fill="#3061FA"/>
<path d="M131.576 56.7326V66.0241C131.229 66.4808 130.686 66.9822 129.948 67.5281C129.221 68.0628 128.253 68.5252 127.044 68.9151C125.836 69.305 124.331 69.5 122.53 69.5C120.997 69.5 119.593 69.2437 118.318 68.7312C117.042 68.2077 115.94 67.4445 115.012 66.4419C114.094 65.4392 113.384 64.2193 112.88 62.7821C112.377 61.3337 112.125 59.6849 112.125 57.8355V56.1477C112.125 54.3095 112.354 52.6718 112.813 51.2346C113.283 49.7863 113.954 48.5608 114.827 47.5582C115.7 46.5555 116.751 45.7979 117.982 45.2854C119.224 44.7618 120.628 44.5 122.194 44.5C124.197 44.5 125.853 44.8342 127.162 45.5027C128.482 46.16 129.5 47.0735 130.216 48.2433C130.932 49.4131 131.385 50.75 131.576 52.254H127.447C127.313 51.4073 127.05 50.6497 126.658 49.9813C126.278 49.3128 125.73 48.7892 125.014 48.4104C124.309 48.0205 123.392 47.8255 122.262 47.8255C121.288 47.8255 120.432 48.0094 119.694 48.377C118.956 48.7447 118.34 49.285 117.848 49.998C117.367 50.711 117.003 51.58 116.757 52.6049C116.511 53.6299 116.388 54.7997 116.388 56.1143V57.8355C116.388 59.1725 116.528 60.359 116.807 61.3951C117.098 62.4311 117.512 63.3057 118.049 64.0187C118.597 64.7318 119.263 65.2721 120.046 65.6397C120.829 65.9962 121.713 66.1745 122.698 66.1745C123.66 66.1745 124.449 66.0965 125.064 65.9405C125.68 65.7734 126.166 65.5784 126.524 65.3556C126.893 65.1217 127.179 64.8989 127.38 64.6872V59.8576H122.295V56.7326H131.576Z" fill="#3061FA"/>
<path d="M135.066 60.3255V59.9411C135.066 58.6377 135.257 57.429 135.637 56.3148C136.017 55.1896 136.566 54.2148 137.281 53.3904C138.009 52.5548 138.893 51.9086 139.933 51.4519C140.985 50.984 142.171 50.75 143.491 50.75C144.822 50.75 146.008 50.984 147.049 51.4519C148.1 51.9086 148.99 52.5548 149.717 53.3904C150.445 54.2148 150.998 55.1896 151.379 56.3148C151.759 57.429 151.949 58.6377 151.949 59.9411V60.3255C151.949 61.629 151.759 62.8378 151.379 63.9519C150.998 65.0659 150.445 66.0407 149.717 66.8764C148.99 67.7007 148.106 68.3469 147.066 68.8148C146.025 69.2716 144.845 69.5 143.524 69.5C142.193 69.5 141.002 69.2716 139.95 68.8148C138.909 68.3469 138.026 67.7007 137.298 66.8764C136.571 66.0407 136.017 65.0659 135.637 63.9519C135.257 62.8378 135.066 61.629 135.066 60.3255ZM139.111 59.9411V60.3255C139.111 61.1389 139.195 61.9075 139.363 62.6317C139.53 63.3558 139.793 63.9908 140.151 64.5368C140.509 65.0827 140.968 65.5116 141.527 65.8235C142.087 66.1355 142.753 66.2915 143.524 66.2915C144.274 66.2915 144.923 66.1355 145.471 65.8235C146.031 65.5116 146.489 65.0827 146.847 64.5368C147.205 63.9908 147.468 63.3558 147.636 62.6317C147.815 61.9075 147.905 61.1389 147.905 60.3255V59.9411C147.905 59.1391 147.815 58.3815 147.636 57.6684C147.468 56.9443 147.2 56.3037 146.831 55.7467C146.473 55.1896 146.014 54.7551 145.454 54.4432C144.906 54.1201 144.252 53.9586 143.491 53.9586C142.73 53.9586 142.07 54.1201 141.511 54.4432C140.962 54.7551 140.509 55.1896 140.151 55.7467C139.793 56.3037 139.53 56.9443 139.363 57.6684C139.195 58.3815 139.111 59.1391 139.111 59.9411Z" fill="#3061FA"/>
</g>
<defs>
<clipPath id="clip0_239_57">
<rect width="129" height="25" fill="white" transform="translate(45.5 44.5)"/>
</clipPath>
</defs>
</svg>
