<svg width="255" height="255" viewBox="0 0 255 255" fill="none" xmlns="http://www.w3.org/2000/svg">
<g clip-path="url(#clip0_254_267)">
<path d="M255 194.642H0.5V194.769H255V194.642Z" fill="#E0E0E0"/>
<path d="M206.758 198.51H193.233V198.637H206.758V198.51Z" fill="#E0E0E0"/>
<path d="M227.3 201.055H215.644V201.182H227.3V201.055Z" fill="#E0E0E0"/>
<path d="M126 200.678H117.805V200.806H126V200.678Z" fill="#E0E0E0"/>
<path d="M114.872 200.678H84.2861V200.806H114.872V200.678Z" fill="#E0E0E0"/>
<path d="M71.5919 199.874H52.1328V200.001H71.5919V199.874Z" fill="#E0E0E0"/>
<path d="M184.682 197.777H140.587V197.904H184.682V197.777Z" fill="#E0E0E0"/>
<path d="M46.3654 199.813H33.5488V199.94H46.3654V199.813Z" fill="#E0E0E0"/>
<path d="M121.133 171.94H22.8505C22.0806 171.939 21.3426 171.632 20.7987 171.087C20.2547 170.542 19.9492 169.804 19.9492 169.034V30.876C19.9559 30.1104 20.2644 29.3785 20.8076 28.839C21.3508 28.2996 22.085 27.9963 22.8505 27.995H121.133C121.904 27.995 122.643 28.3012 123.188 28.8463C123.734 29.3913 124.04 30.1306 124.04 30.9014V169.034C124.04 169.805 123.734 170.544 123.188 171.089C122.643 171.634 121.904 171.94 121.133 171.94ZM22.8505 28.0968C22.1143 28.0982 21.4087 28.3916 20.8887 28.9126C20.3686 29.4336 20.0765 30.1398 20.0765 30.876V169.034C20.0765 169.77 20.3686 170.476 20.8887 170.997C21.4087 171.518 22.1143 171.812 22.8505 171.813H121.133C121.87 171.812 122.576 171.518 123.097 170.997C123.618 170.477 123.911 169.77 123.912 169.034V30.876C123.911 30.1393 123.618 29.4332 123.097 28.9123C122.576 28.3914 121.87 28.0982 121.133 28.0968H22.8505Z" fill="#E0E0E0"/>
<path d="M231.234 171.94H132.946C132.176 171.939 131.438 171.632 130.893 171.087C130.348 170.543 130.041 169.804 130.04 169.034V30.876C130.048 30.11 130.358 29.378 130.902 28.8387C131.446 28.2994 132.18 27.9963 132.946 27.995H231.234C231.999 27.9977 232.732 28.3016 233.274 28.8408C233.816 29.3801 234.124 30.1113 234.131 30.876V169.034C234.131 169.803 233.826 170.541 233.283 171.085C232.74 171.63 232.003 171.938 231.234 171.94ZM132.946 28.0968C132.21 28.0982 131.504 28.3914 130.983 28.9123C130.462 29.4332 130.169 30.1393 130.167 30.876V169.034C130.169 169.77 130.462 170.477 130.983 170.997C131.504 171.518 132.21 171.812 132.946 171.813H231.234C231.971 171.812 232.677 171.518 233.198 170.997C233.719 170.477 234.012 169.77 234.013 169.034V30.876C234.012 30.1393 233.719 29.4332 233.198 28.9123C232.677 28.3914 231.971 28.0982 231.234 28.0968H132.946Z" fill="#E0E0E0"/>
<path d="M160.275 194.637H170.099V130.599H160.275V194.637Z" fill="#EBEBEB"/>
<path d="M164.534 175.892L166.058 175.161L152.999 147.965L151.475 148.697L164.534 175.892Z" fill="#EBEBEB"/>
<path d="M161.304 151.794C161.304 151.794 163.106 160.661 172.7 158.05C176.894 156.904 177.79 153.754 177.597 150.74C181.475 153.504 187.309 155.754 186.759 143.64C186.759 143.64 199.255 153.163 203.444 139.471C207.633 125.779 196.415 124.491 196.415 124.491C196.415 124.491 212.194 111.456 206.808 100.772C200.991 89.2633 190.867 95.2135 190.867 95.2135C190.867 95.2135 192.959 79.9435 181.674 80.6103C180.251 80.6985 178.909 81.3051 177.902 82.3155C174.039 80.2795 169.163 86.53 169.163 86.53C169.163 86.53 168.191 78.8543 160.51 81.6232C157.155 82.8347 156.28 85.6443 156.29 88.2759C153.384 86.0464 148.91 84.3718 148.747 94.959C148.747 94.959 139.402 87.2375 135.421 99.4484C131.441 111.659 140.196 112.224 140.196 112.224C140.196 112.224 127.135 124.44 130.835 133.536C134.815 143.334 143.051 137.608 143.051 137.608C143.051 137.608 141.04 148.903 147.53 149.931C147.312 151.064 147.446 152.236 147.912 153.292C148.379 154.347 149.157 155.234 150.141 155.835C155.323 158.869 161.304 151.794 161.304 151.794Z" fill="#EBEBEB"/>
<path d="M219.854 132.294V194.642H37.7588V132.07L116.18 121.452L219.854 132.294Z" fill="#FAFAFA"/>
<path d="M116.18 121.452L37.7588 132.07V194.642H116.18V121.452Z" fill="#EBEBEB"/>
<path d="M124.416 194.642H161.817V146.679H124.416V194.642Z" fill="#E0E0E0"/>
<path d="M160.057 194.642V148.297H126.188V194.642H160.057Z" fill="#EBEBEB"/>
<path d="M143.265 194.642V148.297H142.98V194.642H143.265Z" fill="#E0E0E0"/>
<path d="M226.908 134.564L116.2 122.99L30.7492 134.559L30.3369 131.536L116.154 119.915L116.338 119.936L227.228 131.531L226.908 134.564Z" fill="#E0E0E0"/>
<path d="M219.014 61.8486C221.966 55.4708 219.624 50.9255 212.397 50.9255C207.872 50.9255 202.257 52.7171 196.796 55.6235C196.175 53.9642 194.439 52.9716 191.64 52.9716C186.717 52.9716 179.933 56.0256 174.608 60.3776C173.321 59.4105 171.458 58.8201 169.06 58.7233C164.347 58.5299 158.641 60.2961 153.683 63.1669C153.093 62.6138 152.308 62.3172 151.5 62.3423C148.782 62.2304 145.107 64.0118 143.279 66.3176L142.964 66.7401H222.673C225.198 64.4801 222.424 61.9606 219.014 61.8486Z" fill="#FAFAFA"/>
<path d="M106.76 44.792C106.558 44.7715 106.356 44.7614 106.154 44.7615C106.342 42.6746 105.263 41.341 102.952 41.341C101.288 41.341 99.2417 42.0383 97.1599 43.2141C97.7554 39.1421 95.8466 36.5309 91.5252 36.5309C88.0335 36.5309 83.6205 38.2463 79.2583 41.0356C78.8766 39.4475 77.5939 38.4906 75.4357 38.4906C71.6437 38.4906 66.2737 41.4326 61.932 45.586C60.9954 44.6597 59.5957 44.059 57.7531 43.9929C54.1392 43.8096 49.6549 45.5199 45.6796 48.2532C45.4914 47.9978 45.2438 47.792 44.9582 47.6536C44.6727 47.5153 44.3577 47.4485 44.0406 47.4592C42.0657 47.3574 39.3425 48.8793 37.7646 50.9102H109.936C111.631 47.846 110.282 45.1483 106.76 44.792Z" fill="#FAFAFA"/>
<path d="M33.5851 194.642H25.8432C25.8432 194.642 21.0739 190.402 19.5215 184.716C18.8089 182.1 22.326 180.288 24.4537 182.171C29.4419 186.543 33.5851 194.642 33.5851 194.642Z" fill="#FAFAFA"/>
<path d="M36.8527 194.642H29.1058C29.1058 194.642 24.6724 185.541 26.3877 178.914C26.5179 178.39 26.7885 177.912 27.1704 177.531C27.5524 177.15 28.0311 176.881 28.5549 176.752C29.0787 176.623 29.6278 176.639 30.1429 176.8C30.658 176.96 31.1195 177.258 31.4777 177.661C37.321 184.11 36.8527 194.642 36.8527 194.642Z" fill="#FAFAFA"/>
<path d="M36.8623 194.642H41.8658C41.8658 194.642 45.0012 189.109 47.9738 182.314C50.7224 175.971 46.0396 173.325 43.0976 179.555C39.331 187.48 36.8623 194.642 36.8623 194.642Z" fill="#FAFAFA"/>
<path d="M38.2324 194.642H45.9794C45.9794 194.642 53.7824 190.951 53.3446 183.953C53.2327 182.125 51.1407 180.934 49.2726 181.647C40.9759 184.843 38.2324 194.642 38.2324 194.642Z" fill="#FAFAFA"/>
<path d="M33.8802 194.642H41.6323C41.6323 194.642 43.9737 181.713 41.22 173.569C40.3903 171.136 37.4432 170.708 36.0842 172.826C31.0094 180.695 33.8802 194.642 33.8802 194.642Z" fill="#FAFAFA"/>
<path d="M97.3474 138.814H56.5918V180.608H97.3474V138.814Z" fill="#E0E0E0"/>
<path d="M95.4336 178.46V140.968H58.5056V178.46H95.4336Z" fill="#FAFAFA"/>
<path d="M96.5535 158.268H57.3809V161.154H96.5535V158.268Z" fill="#E0E0E0"/>
<path d="M78.4131 179.855V139.578H75.5271V179.855H78.4131Z" fill="#E0E0E0"/>
<path d="M219.854 180.608H173.637V139.573H219.854" fill="#E0E0E0"/>
<path d="M219.854 178.501V141.69H175.515V178.501H219.854Z" fill="#FAFAFA"/>
<path d="M148.628 137.075C149.35 134.033 147.469 130.982 144.428 130.261C141.386 129.539 138.335 131.419 137.614 134.461C136.892 137.502 138.772 140.553 141.814 141.275C144.855 141.997 147.906 140.116 148.628 137.075Z" fill="white"/>
<path d="M169.228 193.196H88.3838V194.647H169.228V193.196Z" fill="#E0E0E0"/>
<path d="M127.749 217.628C182.254 217.628 226.439 215.048 226.439 211.866C226.439 208.684 182.254 206.104 127.749 206.104C73.2436 206.104 29.0586 208.684 29.0586 211.866C29.0586 215.048 73.2436 217.628 127.749 217.628Z" fill="#F5F5F5"/>
<path d="M81.2272 88.057C81.1407 89.5076 80.9727 90.8412 80.7844 92.2206C80.5961 93.6 80.3365 94.9488 80.0464 96.2926C79.4796 99.0469 78.6583 101.743 77.593 104.345L77.1552 105.322L77.0433 105.567L76.9873 105.689C76.9873 105.729 76.9567 105.76 76.916 105.847C76.7603 106.156 76.5671 106.445 76.3408 106.707C75.8046 107.322 75.0593 107.718 74.2488 107.816C73.645 107.882 73.0341 107.818 72.4572 107.628C71.6479 107.353 70.8845 106.958 70.1921 106.457C69.5923 106.028 69.0179 105.564 68.4717 105.068C66.4409 103.173 64.6154 101.069 63.0254 98.7918L64.7153 97.3615C65.6569 98.2472 66.6444 99.143 67.6268 99.9981C68.6091 100.853 69.622 101.668 70.6349 102.396C71.1257 102.749 71.6355 103.075 72.1619 103.373C72.5794 103.623 73.03 103.813 73.5006 103.938C73.6584 103.968 73.7602 103.938 73.6889 103.938C73.5492 103.952 73.4183 104.013 73.3174 104.111C73.2817 104.141 73.2767 104.146 73.2817 104.111L73.4344 103.709L73.7653 102.833C74.5968 100.418 75.2467 97.9443 75.7097 95.4324C75.9642 94.1701 76.1423 92.8874 76.3357 91.6047C76.5292 90.322 76.6615 89.0088 76.7735 87.7923L81.2272 88.057Z" fill="#EEC1BB"/>
<path d="M78.1888 82.743C76.3869 83.2011 75.1348 90.6071 75.1348 90.6071L80.0924 93.9817C80.0924 93.9817 84.8414 86.53 83.4671 84.5296C82.0928 82.5292 80.8101 82.0762 78.1888 82.743Z" fill="#459BDD"/>
<path opacity="0.3" d="M78.1888 82.743C76.3869 83.2011 75.1348 90.6071 75.1348 90.6071L80.0924 93.9817C80.0924 93.9817 84.8414 86.53 83.4671 84.5296C82.0928 82.5292 80.8101 82.0762 78.1888 82.743Z" fill="black"/>
<path d="M78.3462 84.3973L76.9668 91.8643L79.751 93.7527L78.3462 84.3973Z" fill="#459BDD"/>
<path opacity="0.5" d="M78.3462 84.3973L76.9668 91.8643L79.751 93.7527L78.3462 84.3973Z" fill="black"/>
<path d="M64.7657 97.0714L62.4039 93.3455L61.0703 97.5804C61.0703 97.5804 63.0045 99.6164 64.7555 99.1074L64.7657 97.0714Z" fill="#EEC1BB"/>
<path d="M58.9481 92.1137L58.0166 95.7174L61.0655 97.5804L62.4042 93.3455L58.9481 92.1137Z" fill="#EEC1BB"/>
<path d="M87.9251 207.407H83.5579L83.2627 197.293H87.6299L87.9251 207.407Z" fill="#EEC1BB"/>
<path d="M126.457 187.124L123.128 189.949L115.514 183.148L118.843 180.323L126.457 187.124Z" fill="#EEC1BB"/>
<path d="M122.216 189.613L125.443 185.917C125.497 185.852 125.573 185.809 125.657 185.797C125.741 185.785 125.826 185.804 125.896 185.851L129.189 187.984C129.267 188.04 129.333 188.112 129.382 188.195C129.431 188.278 129.462 188.37 129.473 188.466C129.485 188.562 129.476 188.659 129.449 188.751C129.421 188.843 129.374 188.929 129.311 189.002C128.166 190.269 127.55 190.824 126.13 192.448C125.255 193.466 124.094 194.993 122.878 196.377C121.661 197.762 120.241 196.642 120.623 195.96C122.318 192.906 121.911 191.822 121.936 190.315C121.948 190.056 122.046 189.809 122.216 189.613Z" fill="#263238"/>
<path d="M83.4056 206.898H88.3124C88.3973 206.897 88.4797 206.927 88.5443 206.983C88.6089 207.038 88.6513 207.115 88.6636 207.199L89.2184 211.082C89.23 211.18 89.2206 211.28 89.1907 211.374C89.1608 211.468 89.1112 211.554 89.0452 211.627C88.9791 211.701 88.8982 211.759 88.8078 211.798C88.7174 211.838 88.6197 211.857 88.5211 211.856C86.8108 211.825 85.9761 211.729 83.8281 211.729C82.4996 211.729 79.7561 211.866 77.9237 211.866C76.0913 211.866 75.9895 210.054 76.753 209.886C80.1785 209.153 81.5223 208.135 82.6777 207.168C82.8818 206.997 83.1391 206.901 83.4056 206.898Z" fill="#263238"/>
<path d="M83.2627 197.299L83.4154 202.511H87.7826L87.635 197.299H83.2627Z" fill="#DB9792"/>
<path d="M118.843 180.323L115.514 183.153L119.443 186.655L122.772 183.825L118.843 180.323Z" fill="#DB9792"/>
<path d="M81.3186 63.0295C84.2658 58.647 91.3307 57.1912 95.7284 61.1207C101.327 66.1242 97.9324 75.9326 106.54 73.3367C115.147 70.7408 123.209 71.3618 123.255 75.8155C123.301 80.2693 128.559 74.6143 134.748 79.1851C147.28 88.4336 137.695 112.219 126.676 103.134C119.448 97.1783 116.918 94.6231 113.314 99.1634C109.711 103.704 96.8788 101.561 95.7284 95.8345C94.5781 90.1083 86.3934 92.8925 81.9396 87.889C77.4859 82.8855 75.0325 72.3696 81.3186 63.0295Z" fill="#263238"/>
<path d="M78.1888 82.743C78.1888 82.743 76.1069 83.476 80.2757 109.099H98.0092C97.7089 101.881 97.7038 97.4328 101.155 82.6311C98.6708 82.1212 96.1532 81.7912 93.6216 81.6436C90.941 81.45 88.2499 81.45 85.5693 81.6436C82.1081 81.949 78.1888 82.743 78.1888 82.743Z" fill="#459BDD"/>
<path opacity="0.3" d="M78.1888 82.743C78.1888 82.743 76.1069 83.476 80.2757 109.099H98.0092C97.7089 101.881 97.7038 97.4328 101.155 82.6311C98.6708 82.1212 96.1532 81.7912 93.6216 81.6436C90.941 81.45 88.2499 81.45 85.5693 81.6436C82.1081 81.949 78.1888 82.743 78.1888 82.743Z" fill="black"/>
<path d="M92.8227 72.5579C92.3137 75.1487 91.8047 79.8977 93.6218 81.6283C93.6218 81.6283 92.9143 84.2547 88.0991 84.2547C82.8055 84.2547 85.5541 81.6283 85.5541 81.6283C88.4402 80.9361 88.3689 78.7932 87.865 76.7775L92.8227 72.5579Z" fill="#EEC1BB"/>
<path d="M90.8066 74.2784L87.8799 76.7775C88.0073 77.2455 88.0908 77.7244 88.1293 78.2078C89.2338 78.045 90.7506 76.8335 90.8677 75.6628C90.9306 75.2014 90.9099 74.7324 90.8066 74.2784Z" fill="#DB9792"/>
<path d="M95.555 67.8039C94.537 72.0184 94.201 73.8253 91.6611 75.6272C87.8436 78.3453 82.8911 76.1718 82.6264 71.7435C82.3872 67.753 84.0923 61.533 88.5613 60.5761C89.5458 60.3601 90.5692 60.3995 91.5341 60.6906C92.4991 60.9817 93.3736 61.5147 94.0744 62.239C94.7753 62.9633 95.2792 63.8549 95.5384 64.8289C95.7975 65.8029 95.8032 66.827 95.555 67.8039Z" fill="#EEC1BB"/>
<path d="M80.2743 109.099C80.2743 109.099 76.8284 142.739 77.1134 156.054C77.4137 169.909 82.4885 201.498 82.4885 201.498H88.3929C88.3929 201.498 87.4563 170.719 87.9806 157.113C88.5507 142.286 93.2589 109.099 93.2589 109.099H80.2743Z" fill="#459BDD"/>
<path opacity="0.5" d="M80.2743 109.099C80.2743 109.099 76.8284 142.739 77.1134 156.054C77.4137 169.909 82.4885 201.498 82.4885 201.498H88.3929C88.3929 201.498 87.4563 170.719 87.9806 157.113C88.5507 142.286 93.2589 109.099 93.2589 109.099H80.2743Z" fill="black"/>
<path d="M88.9033 201.712H81.9758L81.4668 199.503L89.229 199.233L88.9033 201.712Z" fill="#459BDD"/>
<path opacity="0.3" d="M88.9033 201.712H81.9758L81.4668 199.503L89.229 199.233L88.9033 201.712Z" fill="white"/>
<path d="M87.9203 117.472C83.5683 126.232 87.0499 142.22 88.5871 148.165C89.3811 139.237 90.7096 128.314 91.748 120.297C91.1015 115.762 89.9308 113.431 87.9203 117.472Z" fill="#459BDD"/>
<path opacity="0.6" d="M87.9203 117.472C83.5683 126.232 87.0499 142.22 88.5871 148.165C89.3811 139.237 90.7096 128.314 91.748 120.297C91.1015 115.762 89.9308 113.431 87.9203 117.472Z" fill="black"/>
<path d="M84.958 109.099C84.958 109.099 88.974 144.072 92.0077 155.301C95.6114 168.632 117.967 186.569 117.967 186.569L122.502 182.716C122.502 182.716 106.285 163.226 103.531 156.207C97.6525 141.217 102.686 118.882 97.9884 109.099H84.958Z" fill="#459BDD"/>
<path opacity="0.5" d="M84.958 109.099C84.958 109.099 88.974 144.072 92.0077 155.301C95.6114 168.632 117.967 186.569 117.967 186.569L122.502 182.716C122.502 182.716 106.285 163.226 103.531 156.207C97.6525 141.217 102.686 118.882 97.9884 109.099H84.958Z" fill="black"/>
<path d="M123.25 182.507L117.616 187.292L115.514 186.029L121.881 180.105L123.25 182.507Z" fill="#459BDD"/>
<path opacity="0.3" d="M123.25 182.507L117.616 187.292L115.514 186.029L121.881 180.105L123.25 182.507Z" fill="white"/>
<path d="M88.8772 67.8417C88.9385 67.4957 88.8042 67.1826 88.5772 67.1424C88.3502 67.1022 88.1165 67.3502 88.0553 67.6962C87.994 68.0422 88.1283 68.3553 88.3553 68.3954C88.5823 68.4356 88.816 68.1877 88.8772 67.8417Z" fill="#263238"/>
<path d="M84.9628 67.1574C84.9018 67.5036 84.6676 67.753 84.4538 67.7122C84.2401 67.6715 84.0925 67.3559 84.1535 67.0098C84.2146 66.6637 84.4488 66.4143 84.6625 66.455C84.8763 66.4957 85.0239 66.8113 84.9628 67.1574Z" fill="#263238"/>
<path d="M84.7596 66.4907L83.9707 66.1038C83.9707 66.1038 84.2812 66.8317 84.7596 66.4907Z" fill="#263238"/>
<path d="M85.8944 67.9362C85.4449 68.6724 84.8969 69.3437 84.2656 69.9315C84.4208 70.0881 84.6081 70.2092 84.8146 70.2865C85.0211 70.3639 85.2419 70.3955 85.4618 70.3794L85.8944 67.9362Z" fill="#D4827D"/>
<path d="M87.0298 72.0184C86.8316 72.0189 86.6339 72.0002 86.4393 71.9624C86.4131 71.9574 86.3899 71.9424 86.3747 71.9205C86.3595 71.8986 86.3534 71.8716 86.3579 71.8453C86.3629 71.8188 86.3777 71.7951 86.3994 71.7791C86.4211 71.763 86.4481 71.7558 86.475 71.7588C86.9052 71.8441 87.3494 71.8272 87.772 71.7097C88.1945 71.5921 88.5836 71.3771 88.908 71.0818C88.927 71.0632 88.9526 71.0527 88.9792 71.0527C89.0059 71.0527 89.0315 71.0632 89.0505 71.0818C89.0605 71.0913 89.0685 71.1028 89.0739 71.1155C89.0794 71.1282 89.0822 71.1418 89.0822 71.1556C89.0822 71.1694 89.0794 71.1831 89.0739 71.1958C89.0685 71.2085 89.0605 71.2199 89.0505 71.2294C88.5057 71.7461 87.7805 72.0293 87.0298 72.0184Z" fill="#263238"/>
<path d="M88.7348 60.2198C86.7853 61.3396 91.5953 71.9268 95.1125 70.4405C98.6297 68.9542 97.4896 63.0447 95.7488 61.5584C94.008 60.0722 91.4376 58.6724 88.7348 60.2198Z" fill="#263238"/>
<path d="M87.6401 59.721C87.6401 59.721 85.2936 60.062 83.7259 62.9887C82.1581 65.9155 91.1674 60.1282 89.8949 59.721C89.1631 59.4768 88.3719 59.4768 87.6401 59.721Z" fill="#263238"/>
<path d="M95.7334 70.98C95.5744 71.3635 95.3409 71.7117 95.0464 72.0044C94.752 72.297 94.4025 72.5284 94.018 72.6852C93 73.1026 92.3536 72.2118 92.5369 71.1582C92.7048 70.2267 93.4378 68.888 94.522 68.9135C94.7606 68.9223 94.9931 68.9912 95.1981 69.1137C95.403 69.2362 95.5738 69.4085 95.6945 69.6145C95.8153 69.8205 95.8822 70.0536 95.889 70.2923C95.8957 70.531 95.8422 70.7675 95.7334 70.98Z" fill="#EEC1BB"/>
<path d="M89.9562 65.5694C89.9009 65.5688 89.848 65.5469 89.8086 65.5083C89.6361 65.3135 89.4195 65.1629 89.1768 65.069C88.9342 64.9751 88.6726 64.9407 88.4139 64.9687C88.36 64.9776 88.3047 64.965 88.26 64.9336C88.2152 64.9022 88.1846 64.8545 88.1747 64.8008C88.1695 64.7744 88.1696 64.7472 88.1751 64.7208C88.1805 64.6944 88.1911 64.6694 88.2062 64.6472C88.2213 64.6249 88.2408 64.6059 88.2633 64.5912C88.2858 64.5765 88.3111 64.5664 88.3376 64.5615C88.6643 64.5203 88.9962 64.559 89.3047 64.6743C89.6132 64.7895 89.8892 64.9779 90.1089 65.2232C90.1465 65.2622 90.1675 65.3142 90.1675 65.3683C90.1675 65.4224 90.1465 65.4745 90.1089 65.5134C90.089 65.5332 90.0651 65.5485 90.0387 65.5582C90.0123 65.5679 89.9842 65.5717 89.9562 65.5694Z" fill="#263238"/>
<path d="M83.5371 65.04C83.5105 65.0399 83.4841 65.0344 83.4596 65.0239C83.4352 65.0135 83.413 64.9981 83.3946 64.9789C83.357 64.94 83.3359 64.888 83.3359 64.8339C83.3359 64.7797 83.357 64.7277 83.3946 64.6888C83.6148 64.4444 83.891 64.257 84.1995 64.1426C84.508 64.0283 84.8396 63.9904 85.1659 64.0322C85.2145 64.0476 85.2558 64.0802 85.2819 64.124C85.3081 64.1677 85.3174 64.2195 85.308 64.2696C85.2986 64.3197 85.2712 64.3646 85.2309 64.3959C85.1907 64.4271 85.1404 64.4426 85.0896 64.4394C84.8314 64.412 84.5705 64.4462 84.328 64.5391C84.0856 64.632 83.8687 64.781 83.6949 64.9738C83.6744 64.9949 83.6499 65.0116 83.6227 65.023C83.5956 65.0343 83.5665 65.0401 83.5371 65.04Z" fill="#263238"/>
<path d="M103.069 87.2833C104.025 89.6116 104.852 91.9905 105.548 94.4093C106.28 96.8593 106.819 99.3627 107.161 101.897C107.228 102.553 107.304 103.2 107.324 103.882V104.391C107.348 104.732 107.322 105.075 107.248 105.409C107.179 105.689 107.067 105.956 106.917 106.203C106.743 106.484 106.517 106.73 106.25 106.926C105.845 107.217 105.368 107.393 104.871 107.435C104.569 107.464 104.265 107.455 103.965 107.409C103.738 107.378 103.514 107.332 103.293 107.272C102.923 107.169 102.559 107.043 102.204 106.895C101.58 106.63 100.974 106.327 100.387 105.989C98.202 104.705 96.1388 103.224 94.2227 101.566L95.4748 99.7385C97.6177 100.823 99.7962 101.953 101.929 102.823C102.438 103.042 102.993 103.23 103.481 103.378C103.7 103.444 103.923 103.497 104.148 103.536C104.226 103.542 104.304 103.542 104.382 103.536C104.433 103.536 104.459 103.536 104.382 103.536C104.196 103.555 104.019 103.627 103.873 103.744C103.624 103.934 103.445 104.201 103.364 104.503C103.313 104.671 103.334 104.813 103.313 104.589L103.268 104.177C103.222 103.632 103.12 103.072 103.028 102.513C102.825 101.383 102.58 100.248 102.27 99.1125C101.959 97.9774 101.649 96.8372 101.298 95.7022C100.57 93.4473 99.7708 91.1466 98.936 88.9681L103.069 87.2833Z" fill="#EEC1BB"/>
<path d="M101.154 82.6158C102.931 83.1604 105.063 89.2786 105.063 89.2786L98.1714 94.2057C98.1714 94.2057 95.6569 89.1157 96.4001 86.7997C97.1788 84.4074 99.1232 81.9999 101.154 82.6158Z" fill="#459BDD"/>
<path opacity="0.3" d="M101.154 82.6158C102.931 83.1604 105.063 89.2786 105.063 89.2786L98.1714 94.2057C98.1714 94.2057 95.6569 89.1157 96.4001 86.7997C97.1788 84.4074 99.1232 81.9999 101.154 82.6158Z" fill="black"/>
<path d="M121.026 191.72C120.936 191.717 120.847 191.694 120.767 191.653C120.687 191.611 120.617 191.553 120.563 191.481C120.519 191.436 120.488 191.38 120.474 191.319C120.46 191.258 120.462 191.194 120.481 191.135C120.639 190.6 122.156 190.167 122.329 190.117C122.348 190.112 122.368 190.113 122.387 190.119C122.406 190.125 122.423 190.137 122.436 190.152C122.447 190.169 122.453 190.188 122.453 190.208C122.453 190.228 122.447 190.248 122.436 190.264C122.161 190.773 121.626 191.654 121.072 191.715L121.026 191.72ZM122.146 190.391C121.545 190.58 120.761 190.9 120.68 191.196C120.669 191.222 120.667 191.251 120.675 191.279C120.682 191.306 120.698 191.331 120.72 191.348C120.759 191.403 120.812 191.446 120.872 191.475C120.933 191.503 121 191.516 121.067 191.511C121.362 191.476 121.759 191.063 122.151 190.391H122.146Z" fill="#459BDD"/>
<path d="M121.667 190.407C121.216 190.451 120.764 190.326 120.4 190.056C120.349 189.991 120.321 189.911 120.321 189.829C120.321 189.747 120.349 189.667 120.4 189.602C120.442 189.535 120.499 189.478 120.567 189.436C120.635 189.395 120.712 189.37 120.792 189.363C121.418 189.277 122.369 190.106 122.41 190.142C122.423 190.154 122.434 190.169 122.44 190.186C122.446 190.203 122.448 190.221 122.446 190.239C122.441 190.256 122.433 190.273 122.42 190.286C122.408 190.3 122.392 190.31 122.375 190.315C122.144 190.38 121.906 190.411 121.667 190.407ZM120.898 189.562H120.832C120.782 189.568 120.734 189.585 120.691 189.611C120.648 189.637 120.611 189.673 120.583 189.714C120.512 189.821 120.537 189.882 120.583 189.923C120.766 190.167 121.626 190.259 122.151 190.162C121.795 189.853 121.362 189.645 120.898 189.562Z" fill="#459BDD"/>
<path d="M81.7662 207.672C81.3935 207.706 81.0204 207.612 80.7074 207.407C80.6376 207.344 80.5841 207.264 80.5513 207.176C80.5186 207.087 80.5075 206.992 80.5191 206.898C80.5224 206.841 80.5406 206.785 80.5718 206.737C80.603 206.689 80.6463 206.65 80.6973 206.623C81.2317 206.328 82.9725 207.219 83.171 207.321C83.1901 207.33 83.2055 207.346 83.2147 207.366C83.2239 207.385 83.2265 207.407 83.2219 207.428C83.2191 207.449 83.2097 207.469 83.1951 207.484C83.1805 207.5 83.1614 207.51 83.1405 207.514C82.6881 207.608 82.2281 207.661 81.7662 207.672ZM80.9874 206.771C80.9211 206.768 80.8549 206.78 80.794 206.807C80.7746 206.818 80.7583 206.835 80.7468 206.854C80.7353 206.874 80.7287 206.896 80.7278 206.919C80.7176 206.979 80.723 207.041 80.7435 207.099C80.764 207.157 80.7989 207.209 80.8449 207.25C81.1096 207.489 81.8272 207.529 82.7994 207.372C82.2349 207.066 81.622 206.859 80.9874 206.761V206.771Z" fill="#459BDD"/>
<path d="M83.1207 207.509C83.1076 207.514 83.0931 207.514 83.08 207.509C82.571 207.275 81.5276 206.333 81.609 205.84C81.609 205.723 81.7108 205.575 81.9958 205.549C82.0989 205.536 82.2035 205.546 82.3027 205.576C82.4019 205.607 82.4934 205.659 82.571 205.728C83.1207 206.181 83.2225 207.356 83.2225 207.407C83.2254 207.425 83.223 207.443 83.2158 207.459C83.2086 207.475 83.1968 207.489 83.1818 207.499C83.1631 207.509 83.1417 207.512 83.1207 207.509ZM82.1027 205.738H82.0416C81.8482 205.738 81.838 205.834 81.8329 205.855C81.7871 206.155 82.4845 206.873 83.0138 207.219C82.9745 206.722 82.7804 206.251 82.459 205.87C82.4084 205.824 82.3489 205.788 82.2842 205.765C82.2195 205.743 82.1508 205.733 82.0824 205.738H82.1027Z" fill="#459BDD"/>
<path d="M98.2738 108.061L98.7268 109.649C98.7878 109.771 98.6453 109.898 98.4366 109.898H80.1839C80.0261 109.898 79.8938 109.817 79.8836 109.72L79.7207 108.132C79.7207 108.02 79.848 107.928 80.0261 107.928H97.9836C98.0393 107.923 98.0954 107.933 98.1463 107.956C98.1972 107.979 98.2411 108.015 98.2738 108.061Z" fill="#459BDD"/>
<path opacity="0.6" d="M98.2738 108.061L98.7268 109.649C98.7878 109.771 98.6453 109.898 98.4366 109.898H80.1839C80.0261 109.898 79.8938 109.817 79.8836 109.72L79.7207 108.132C79.7207 108.02 79.848 107.928 80.0261 107.928H97.9836C98.0393 107.923 98.0954 107.933 98.1463 107.956C98.1972 107.979 98.2411 108.015 98.2738 108.061Z" fill="white"/>
<path d="M95.8607 110.066H96.3697C96.4614 110.066 96.5377 110.02 96.5326 109.959L96.3036 107.898C96.3036 107.837 96.2119 107.786 96.1203 107.786H95.6368C95.5401 107.786 95.4688 107.837 95.4739 107.898L95.6826 109.944C95.6826 110.02 95.764 110.066 95.8607 110.066Z" fill="#459BDD"/>
<path opacity="0.5" d="M95.8607 110.066H96.3697C96.4614 110.066 96.5377 110.02 96.5326 109.959L96.3036 107.898C96.3036 107.837 96.2119 107.786 96.1203 107.786H95.6368C95.5401 107.786 95.4688 107.837 95.4739 107.898L95.6826 109.944C95.6826 110.02 95.764 110.066 95.8607 110.066Z" fill="black"/>
<path d="M81.5372 110.066H82.0157C82.1124 110.066 82.1887 110.02 82.1785 109.959L81.9393 107.908C81.9393 107.847 81.8477 107.796 81.751 107.796H81.2725C81.1758 107.796 81.1045 107.847 81.1096 107.908L81.3336 109.969C81.359 110.02 81.4303 110.066 81.5372 110.066Z" fill="#459BDD"/>
<path opacity="0.5" d="M81.5372 110.066H82.0157C82.1124 110.066 82.1887 110.02 82.1785 109.959L81.9393 107.908C81.9393 107.847 81.8477 107.796 81.751 107.796H81.2725C81.1758 107.796 81.1045 107.847 81.1096 107.908L81.3336 109.969C81.359 110.02 81.4303 110.066 81.5372 110.066Z" fill="black"/>
<path d="M88.6987 110.066H89.1822C89.2738 110.066 89.3502 110.02 89.34 109.959L89.1161 107.908C89.1161 107.847 89.0244 107.796 88.9277 107.796H88.4493C88.3526 107.796 88.2813 107.847 88.2864 107.908L88.5104 109.969C88.5205 110.02 88.602 110.066 88.6987 110.066Z" fill="#459BDD"/>
<path opacity="0.5" d="M88.6987 110.066H89.1822C89.2738 110.066 89.3502 110.02 89.34 109.959L89.1161 107.908C89.1161 107.847 89.0244 107.796 88.9277 107.796H88.4493C88.3526 107.796 88.2813 107.847 88.2864 107.908L88.5104 109.969C88.5205 110.02 88.602 110.066 88.6987 110.066Z" fill="black"/>
<path d="M96.0739 100.207L94.608 95.7225L92.2666 99.4993C92.2666 99.4993 93.646 101.943 95.458 101.907L96.0739 100.207Z" fill="#EEC1BB"/>
<path d="M93.0508 90.602L91.9004 105.485C91.8692 105.873 91.6857 106.233 91.39 106.485C91.0943 106.738 90.7104 106.864 90.3225 106.834L61.9916 104.65C61.6034 104.619 61.2433 104.436 60.9897 104.14C60.7361 103.845 60.6095 103.461 60.6376 103.072L61.788 88.1893C61.8055 87.9911 61.8632 87.7986 61.9578 87.6236C62.0523 87.4485 62.1816 87.2946 62.3377 87.1713C62.6259 86.9425 62.9884 86.8283 63.3557 86.8507L91.6866 89.0394C92.0753 89.0693 92.4363 89.2523 92.6901 89.5481C92.944 89.844 93.0701 90.2285 93.0406 90.6173L93.0508 90.602Z" fill="#459BDD"/>
<path opacity="0.8" d="M93.0508 90.602L91.9004 105.485C91.8692 105.873 91.6857 106.233 91.39 106.485C91.0943 106.738 90.7104 106.864 90.3225 106.834L61.9916 104.65C61.6034 104.619 61.2433 104.436 60.9897 104.14C60.7361 103.845 60.6095 103.461 60.6376 103.072L61.788 88.1893C61.8055 87.9911 61.8632 87.7986 61.9578 87.6236C62.0523 87.4485 62.1816 87.2946 62.3377 87.1713C62.6259 86.9425 62.9884 86.8283 63.3557 86.8507L91.6866 89.0394C92.0753 89.0693 92.4363 89.2523 92.6901 89.5481C92.944 89.844 93.0701 90.2285 93.0406 90.6173L93.0508 90.602Z" fill="white"/>
<path d="M92.6641 89.472L80.5296 97.7738C79.4065 98.5445 78.0544 98.9095 76.6961 98.8086C75.3377 98.7078 74.0543 98.1471 73.0574 97.219L62.3379 87.156C62.626 86.9272 62.9886 86.813 63.3559 86.8354L91.6868 89.0241C92.0568 89.0472 92.4051 89.2068 92.6641 89.472Z" fill="#459BDD"/>
<path opacity="0.6" d="M92.6641 89.472L80.5296 97.7738C79.4065 98.5445 78.0544 98.9095 76.6961 98.8086C75.3377 98.7078 74.0543 98.1471 73.0574 97.219L62.3379 87.156C62.626 86.9272 62.9886 86.813 63.3559 86.8354L91.6868 89.0241C92.0568 89.0472 92.4051 89.2068 92.6641 89.472Z" fill="white"/>
<path d="M91.56 93.6814L89.7734 96.9441L92.6646 100.095L94.6089 95.7225L91.56 93.6814Z" fill="#EEC1BB"/>
<path d="M88.6837 67.188L87.8896 66.8011C87.8896 66.8011 88.2052 67.5239 88.6837 67.188Z" fill="#263238"/>
<path d="M170.144 127.25H163.903V211.866H170.144V127.25Z" fill="#459BDD"/>
<path opacity="0.6" d="M170.144 127.25H163.903V211.866H170.144V127.25Z" fill="white"/>
<path d="M163.903 127.25H170.144V133.49L163.903 131.195V127.25Z" fill="#459BDD"/>
<path opacity="0.4" d="M163.903 127.25H170.144V133.49L163.903 131.195V127.25Z" fill="white"/>
<path d="M157.169 106.951C157.206 104.967 156.847 102.996 156.113 101.152C155.379 99.3083 154.285 97.6294 152.895 96.2133C151.505 94.7973 149.846 93.6725 148.016 92.9046C146.187 92.1368 144.222 91.7413 142.238 91.7413C140.253 91.7413 138.289 92.1368 136.459 92.9046C134.629 93.6725 132.971 94.7973 131.581 96.2133C130.191 97.6294 129.097 99.3083 128.363 101.152C127.629 102.996 127.27 104.967 127.306 106.951V127.25H157.169V106.951Z" fill="#459BDD"/>
<path opacity="0.3" d="M157.169 106.951C157.206 104.967 156.847 102.996 156.113 101.152C155.379 99.3083 154.285 97.6294 152.895 96.2133C151.505 94.7973 149.846 93.6725 148.016 92.9046C146.187 92.1368 144.222 91.7413 142.238 91.7413C140.253 91.7413 138.289 92.1368 136.459 92.9046C134.629 93.6725 132.971 94.7973 131.581 96.2133C130.191 97.6294 129.097 99.3083 128.363 101.152C127.629 102.996 127.27 104.967 127.306 106.951V127.25H157.169V106.951Z" fill="black"/>
<path d="M124.475 135.959C122.48 144.205 127.529 150.888 135.796 150.888C144.062 150.888 152.343 144.205 154.338 135.959L156.415 127.372C156.444 127.256 156.446 127.136 156.421 127.019C156.396 126.903 156.344 126.793 156.271 126.7C156.197 126.606 156.103 126.53 155.996 126.478C155.889 126.426 155.771 126.4 155.652 126.4H127.407C127.231 126.401 127.059 126.461 126.921 126.571C126.782 126.681 126.685 126.834 126.644 127.006L124.475 135.959Z" fill="#459BDD"/>
<path opacity="0.4" d="M124.475 135.959C122.48 144.205 127.529 150.888 135.796 150.888C144.062 150.888 152.343 144.205 154.338 135.959L156.415 127.372C156.444 127.256 156.446 127.136 156.421 127.019C156.396 126.903 156.344 126.793 156.271 126.7C156.197 126.606 156.103 126.53 155.996 126.478C155.889 126.426 155.771 126.4 155.652 126.4H127.407C127.231 126.401 127.059 126.461 126.921 126.571C126.782 126.681 126.685 126.834 126.644 127.006L124.475 135.959Z" fill="white"/>
<path d="M123.274 135.959C121.279 144.205 126.328 150.888 134.594 150.888C142.861 150.888 151.142 144.205 153.137 135.959L155.234 127.372C155.263 127.256 155.265 127.136 155.24 127.019C155.215 126.903 155.164 126.793 155.09 126.7C155.016 126.606 154.922 126.53 154.815 126.478C154.708 126.426 154.59 126.4 154.471 126.4H126.221C126.045 126.401 125.873 126.461 125.735 126.571C125.596 126.681 125.499 126.834 125.458 127.006L123.274 135.959Z" fill="#459BDD"/>
<path opacity="0.5" d="M123.274 135.959C121.279 144.205 126.328 150.888 134.594 150.888C142.861 150.888 151.142 144.205 153.137 135.959L155.234 127.372C155.263 127.256 155.265 127.136 155.24 127.019C155.215 126.903 155.164 126.793 155.09 126.7C155.016 126.606 154.922 126.53 154.815 126.478C154.708 126.426 154.59 126.4 154.471 126.4H126.221C126.045 126.401 125.873 126.461 125.735 126.571C125.596 126.681 125.499 126.834 125.458 127.006L123.274 135.959Z" fill="white"/>
<path d="M192.311 106.946V127.25H157.19V106.946C157.188 102.987 155.615 99.1905 152.816 96.3911C150.016 93.5917 146.22 92.0184 142.261 92.017H177.407C181.366 92.0184 185.163 93.5917 187.962 96.3911C190.762 99.1905 192.335 102.987 192.336 106.946H192.311Z" fill="#459BDD"/>
<path opacity="0.5" d="M192.311 106.946V127.25H157.19V106.946C157.188 102.987 155.615 99.1905 152.816 96.3911C150.016 93.5917 146.22 92.0184 142.261 92.017H177.407C181.366 92.0184 185.163 93.5917 187.962 96.3911C190.762 99.1905 192.335 102.987 192.336 106.946H192.311Z" fill="white"/>
<path d="M192.31 106.946V112.377H157.189V106.946C157.195 103.626 156.088 100.4 154.043 97.784H189.189C191.225 100.403 192.324 103.629 192.31 106.946Z" fill="#459BDD"/>
<path opacity="0.7" d="M192.31 106.946V112.377H157.189V106.946C157.195 103.626 156.088 100.4 154.043 97.784H189.189C191.225 100.403 192.324 103.629 192.31 106.946Z" fill="white"/>
<path d="M162.061 114.993V84.9623C162.06 84.6946 162.118 84.4299 162.23 84.1867C162.342 83.9436 162.506 83.7278 162.709 83.5543C162.913 83.3809 163.153 83.254 163.411 83.1824C163.669 83.1109 163.939 83.0964 164.203 83.1401L171.401 84.3311C171.659 84.3735 171.893 84.5064 172.062 84.706C172.231 84.9057 172.323 85.1589 172.322 85.4204V87.2833C172.322 87.5763 172.206 87.8572 171.998 88.0644C171.791 88.2715 171.51 88.3879 171.217 88.3879H164.351V114.983C164.351 115.287 164.23 115.578 164.016 115.793C163.801 116.008 163.51 116.128 163.206 116.128C162.904 116.128 162.614 116.009 162.4 115.797C162.185 115.584 162.063 115.295 162.061 114.993Z" fill="#459BDD"/>
<path opacity="0.3" d="M162.061 114.993V84.9623C162.06 84.6946 162.118 84.4299 162.23 84.1867C162.342 83.9436 162.506 83.7278 162.709 83.5543C162.913 83.3809 163.153 83.254 163.411 83.1824C163.669 83.1109 163.939 83.0964 164.203 83.1401L171.401 84.3311C171.659 84.3735 171.893 84.5064 172.062 84.706C172.231 84.9057 172.323 85.1589 172.322 85.4204V87.2833C172.322 87.5763 172.206 87.8572 171.998 88.0644C171.791 88.2715 171.51 88.3879 171.217 88.3879H164.351V114.983C164.351 115.287 164.23 115.578 164.016 115.793C163.801 116.008 163.51 116.128 163.206 116.128C162.904 116.128 162.614 116.009 162.4 115.797C162.185 115.584 162.063 115.295 162.061 114.993Z" fill="black"/>
<path d="M142.235 95.9821V110.906C142.234 111.295 142.079 111.667 141.805 111.943C141.53 112.218 141.158 112.374 140.769 112.377H112.352C111.963 112.374 111.591 112.218 111.316 111.943C111.042 111.667 110.887 111.295 110.886 110.906V95.9821C110.887 95.5933 111.042 95.2207 111.316 94.9452C111.591 94.6698 111.963 94.5138 112.352 94.5111H140.769C141.158 94.5138 141.53 94.6698 141.805 94.9452C142.079 95.2207 142.234 95.5933 142.235 95.9821Z" fill="#459BDD"/>
<path opacity="0.8" d="M142.235 95.9821V110.906C142.234 111.295 142.079 111.667 141.805 111.943C141.53 112.218 141.158 112.374 140.769 112.377H112.352C111.963 112.374 111.591 112.218 111.316 111.943C111.042 111.667 110.887 111.295 110.886 110.906V95.9821C110.887 95.5933 111.042 95.2207 111.316 94.9452C111.591 94.6698 111.963 94.5138 112.352 94.5111H140.769C141.158 94.5138 141.53 94.6698 141.805 94.9452C142.079 95.2207 142.234 95.5933 142.235 95.9821Z" fill="white"/>
<path d="M141.767 94.9081L130.294 104.116C129.23 104.968 127.908 105.432 126.545 105.432C125.182 105.432 123.86 104.968 122.796 104.116L111.339 94.9081C111.615 94.65 111.979 94.5078 112.357 94.5111H140.774C141.143 94.5143 141.498 94.656 141.767 94.9081Z" fill="#459BDD"/>
<path opacity="0.6" d="M141.767 94.9081L130.294 104.116C129.23 104.968 127.908 105.432 126.545 105.432C125.182 105.432 123.86 104.968 122.796 104.116L111.339 94.9081C111.615 94.65 111.979 94.5078 112.357 94.5111H140.774C141.143 94.5143 141.498 94.656 141.767 94.9081Z" fill="white"/>
<path d="M120.46 118.393V133.322C120.46 133.712 120.306 134.085 120.031 134.361C119.756 134.636 119.383 134.792 118.994 134.793H90.5919C90.2031 134.791 89.831 134.635 89.5565 134.359C89.282 134.084 89.1273 133.711 89.126 133.322V118.393C89.126 118.005 89.2804 117.632 89.5553 117.357C89.8302 117.082 90.2031 116.927 90.5919 116.927H118.994C119.383 116.927 119.756 117.082 120.031 117.357C120.306 117.632 120.46 118.005 120.46 118.393Z" fill="#459BDD"/>
<path opacity="0.8" d="M120.46 118.393V133.322C120.46 133.712 120.306 134.085 120.031 134.361C119.756 134.636 119.383 134.792 118.994 134.793H90.5919C90.2031 134.791 89.831 134.635 89.5565 134.359C89.282 134.084 89.1273 133.711 89.126 133.322V118.393C89.126 118.005 89.2804 117.632 89.5553 117.357C89.8302 117.082 90.2031 116.927 90.5919 116.927H118.994C119.383 116.927 119.756 117.082 120.031 117.357C120.306 117.632 120.46 118.005 120.46 118.393Z" fill="white"/>
<path d="M119.992 117.319L108.534 126.527C107.472 127.382 106.149 127.848 104.786 127.848C103.422 127.848 102.099 127.382 101.037 126.527L89.5742 117.319C89.8505 117.063 90.2151 116.922 90.5922 116.927H118.994C119.365 116.926 119.722 117.066 119.992 117.319Z" fill="#459BDD"/>
<path opacity="0.6" d="M119.992 117.319L108.534 126.527C107.472 127.382 106.149 127.848 104.786 127.848C103.422 127.848 102.099 127.382 101.037 126.527L89.5742 117.319C89.8505 117.063 90.2151 116.922 90.5922 116.927H118.994C119.365 116.926 119.722 117.066 119.992 117.319Z" fill="white"/>
<path d="M157.169 107.206V125.072H146.551C146.161 125.07 145.788 124.915 145.512 124.639C145.237 124.364 145.081 123.99 145.08 123.6V108.677C145.083 108.287 145.239 107.915 145.514 107.639C145.789 107.364 146.162 107.208 146.551 107.206H157.169Z" fill="#459BDD"/>
<path opacity="0.8" d="M157.169 107.206V125.072H146.551C146.161 125.07 145.788 124.915 145.512 124.639C145.237 124.364 145.081 123.99 145.08 123.6V108.677C145.083 108.287 145.239 107.915 145.514 107.639C145.789 107.364 146.162 107.208 146.551 107.206H157.169Z" fill="white"/>
<path d="M157.17 107.206V116.927C157.115 116.891 157.062 116.852 157.012 116.81L145.564 107.603C145.839 107.343 146.204 107.2 146.582 107.206H157.17Z" fill="#459BDD"/>
<path opacity="0.6" d="M157.17 107.206V116.927C157.115 116.891 157.062 116.852 157.012 116.81L145.564 107.603C145.839 107.343 146.204 107.2 146.582 107.206H157.17Z" fill="white"/>
<path opacity="0.5" d="M157.164 107.206H154.838V125.072H157.164V107.206Z" fill="#459BDD"/>
</g>
<defs>
<clipPath id="clip0_254_267">
<rect width="254.5" height="254.5" fill="white" transform="translate(0.5)"/>
</clipPath>
</defs>
</svg>
