<svg width="359" height="359" viewBox="0 0 359 359" fill="none" xmlns="http://www.w3.org/2000/svg">
<path d="M179.5 344.188C270.752 344.188 344.727 301.485 344.727 248.809C344.727 196.132 270.752 153.429 179.5 153.429C88.2485 153.429 14.2743 196.132 14.2743 248.809C14.2743 301.485 88.2485 344.188 179.5 344.188Z" fill="#F5F5F5"/>
<path d="M288.717 291.996C311.53 291.996 330.023 281.317 330.023 268.144C330.023 254.971 311.53 244.292 288.717 244.292C265.904 244.292 247.41 254.971 247.41 268.144C247.41 281.317 265.904 291.996 288.717 291.996Z" fill="#E0E0E0"/>
<path d="M140.83 319.675L38.3501 260.512C36.67 259.543 36.67 257.97 38.3501 256.994L186.502 171.466C187.445 170.984 188.488 170.733 189.547 170.733C190.605 170.733 191.648 170.984 192.591 171.466L295.042 230.614C296.722 231.584 296.722 233.156 295.042 234.125L146.919 319.675C145.975 320.153 144.932 320.402 143.875 320.402C142.817 320.402 141.774 320.153 140.83 319.675Z" fill="#E0E0E0"/>
<path d="M309.564 254.466C308.68 248.406 310.942 225.323 316.076 216.534C321.21 207.746 329.718 198.527 337.128 199.906C343.992 201.184 344.537 209.871 337.429 216.714C330.321 223.556 319.436 232.438 317.383 242.777L311.782 260.376L309.564 254.466Z" fill="#459BDD"/>
<path opacity="0.1" d="M309.564 254.466C308.68 248.406 310.942 225.323 316.076 216.534C321.21 207.746 329.718 198.527 337.128 199.906C343.992 201.184 344.537 209.871 337.429 216.714C330.321 223.556 319.436 232.438 317.383 242.777L311.782 260.376L309.564 254.466Z" fill="black"/>
<path d="M311.209 252.564C311.303 252.539 311.385 252.484 311.445 252.407C311.505 252.331 311.538 252.237 311.539 252.14C311.855 230.844 325.476 211.113 334.766 205.621C334.868 205.561 334.942 205.463 334.972 205.348C335.001 205.234 334.984 205.112 334.924 205.01C334.864 204.909 334.766 204.835 334.652 204.805C334.538 204.775 334.416 204.793 334.314 204.853C324.844 210.453 310.965 230.507 310.62 252.126C310.619 252.184 310.63 252.242 310.651 252.297C310.673 252.351 310.705 252.401 310.745 252.443C310.786 252.485 310.835 252.518 310.888 252.541C310.942 252.565 311 252.577 311.058 252.578C311.109 252.585 311.16 252.58 311.209 252.564Z" fill="white"/>
<path d="M314.54 263.678C315.014 260.131 317.499 254.014 323.113 247.954C329.992 240.53 341.408 236.466 343.002 232.158C344.905 226.974 340.554 223.434 333.129 225.797C323.156 228.97 312.027 241.42 312.171 257.439L314.54 263.678Z" fill="#459BDD"/>
<path d="M312.536 260.325C312.619 260.304 312.695 260.26 312.755 260.198C312.814 260.136 312.855 260.058 312.873 259.973C316.635 241.305 331.685 231.289 337.831 229.566C337.945 229.54 338.044 229.471 338.109 229.374C338.173 229.276 338.197 229.157 338.175 229.042C338.16 228.985 338.134 228.931 338.098 228.884C338.062 228.837 338.017 228.798 337.965 228.769C337.913 228.741 337.856 228.723 337.797 228.716C337.739 228.71 337.679 228.716 337.622 228.733C330.83 230.636 315.867 240.796 312.033 259.83C312.021 259.887 312.021 259.947 312.033 260.004C312.044 260.062 312.067 260.116 312.1 260.165C312.133 260.214 312.175 260.256 312.223 260.288C312.272 260.32 312.327 260.343 312.385 260.354C312.436 260.354 312.488 260.344 312.536 260.325Z" fill="white"/>
<path d="M105.053 53.4336L99.5888 56.5928C99.617 56.3545 99.6314 56.1147 99.6319 55.8748V54.2952C99.6319 51.4734 97.6502 50.3318 95.209 51.7391C94.1615 52.3883 93.2634 53.2521 92.5739 54.2736C92.179 50.7267 89.3932 49.4056 86.0186 51.3585C82.364 53.4695 79.3986 58.596 79.3986 62.8465V65.2159C79.3777 66.1606 79.569 67.0979 79.9587 67.9587L75.3922 70.5435C74.6774 71.0089 74.0824 71.6363 73.6557 72.3749C73.229 73.1135 72.9827 73.9423 72.9366 74.7941C72.9366 76.3593 74.0352 76.9911 75.3922 76.2301L105.024 59.1201C105.738 58.6555 106.332 58.0291 106.759 57.2919C107.186 56.5546 107.432 55.7272 107.48 54.8767C107.508 53.29 106.41 52.6509 105.053 53.4336Z" fill="#E6E6E6"/>
<path d="M36.0023 60.4915L39.0179 58.158V51.5237C39.0179 46.2535 43.2182 40.1362 47.7775 37.5011C52.344 34.8661 56.0417 37.0057 56.0417 42.2758V43.2379C57.002 41.6774 58.3153 40.3641 59.8758 39.4038C63.1571 37.5083 65.8209 39.0448 65.8209 42.8359V43.2738L70.0284 40.847C72.1824 39.5977 73.9415 40.6101 73.9415 43.1087C73.8672 44.4664 73.4742 45.7874 72.7944 46.965C72.1145 48.1425 71.167 49.1434 70.0284 49.8866L36.0023 69.5311C33.8483 70.7804 32.0821 69.768 32.0821 67.2694C32.1537 65.9103 32.5464 64.5875 33.2278 63.4094C33.9092 62.2313 34.86 61.2313 36.0023 60.4915Z" fill="#E6E6E6"/>
<path d="M44.6754 252.37C44.7573 253.485 45.1002 254.565 45.6764 255.522C46.2527 256.48 47.046 257.289 47.9925 257.884L140.966 311.562C141.996 312.082 143.133 312.354 144.287 312.354C145.441 312.354 146.578 312.082 147.608 311.562L285.399 232.014C286.4 231.483 287.237 230.69 287.82 229.719C288.404 228.748 288.712 227.637 288.712 226.504C288.712 225.371 288.404 224.26 287.82 223.289C287.237 222.318 286.4 221.524 285.399 220.993L192.425 167.294C191.397 166.77 190.259 166.497 189.105 166.497C187.95 166.497 186.812 166.77 185.784 167.294L47.9925 246.863C47.0462 247.456 46.2528 248.264 45.6765 249.22C45.1002 250.177 44.7573 251.256 44.6754 252.37Z" fill="#37474F"/>
<path d="M144.319 305.15V312.33C143.163 312.356 142.021 312.084 141.001 311.54L47.9917 257.884C47.0202 257.371 46.2019 256.61 45.6201 255.678C45.0382 254.747 44.7137 253.677 44.6794 252.579C44.6451 251.481 44.9023 250.394 45.4248 249.427C45.9474 248.461 46.7166 247.651 47.6542 247.078C46.168 248.141 46.2829 249.706 47.9917 250.668L140.973 304.353C142 304.904 143.153 305.179 144.319 305.15Z" fill="#263238"/>
<path d="M41.5582 246.992C40.6344 246.364 39.8716 245.527 39.3315 244.549C38.7914 243.571 38.4892 242.479 38.4492 241.363V130.396C38.5123 129.245 38.8455 128.126 39.4218 127.128C39.9981 126.13 40.8013 125.282 41.7664 124.652L179.558 45.1048C180.549 44.5774 181.651 44.2915 182.774 44.2703C183.897 44.2491 185.009 44.4932 186.02 44.9827C186.942 45.6123 187.704 46.4496 188.244 47.4273C188.784 48.4049 189.087 49.4957 189.129 50.6118V161.55C189.066 162.701 188.733 163.821 188.157 164.819C187.581 165.817 186.777 166.665 185.812 167.294L47.9915 246.863C47.0043 247.387 45.9078 247.672 44.7902 247.694C43.6727 247.717 42.5656 247.476 41.5582 246.992Z" fill="#455A64"/>
<path d="M47.6038 247.064C46.6504 247.49 45.6156 247.703 44.5715 247.688C43.5273 247.673 42.499 247.431 41.5582 246.978C40.6344 246.349 39.8716 245.512 39.3315 244.534C38.7914 243.556 38.4892 242.465 38.4492 241.348V130.396C38.4859 129.241 38.8224 128.115 39.4257 127.129L45.6436 130.719C45.0496 131.706 44.7161 132.828 44.6743 133.979V244.946C44.6743 246.906 45.9524 247.789 47.6038 247.064Z" fill="#263238"/>
<path d="M44.6754 133.993V244.946C44.6754 247.1 46.1616 247.918 47.9925 246.863L185.784 167.294C186.749 166.665 187.553 165.817 188.129 164.819C188.706 163.821 189.039 162.701 189.101 161.55V50.6118C189.101 48.5009 187.622 47.6393 185.784 48.7019L47.9925 128.242C47.0273 128.873 46.224 129.723 45.6478 130.722C45.0716 131.721 44.7384 132.842 44.6754 133.993Z" fill="#37474F"/>
<path d="M47.9919 250.69L140.966 304.375C141.995 304.895 143.133 305.166 144.287 305.166C145.44 305.166 146.578 304.895 147.607 304.375L285.399 224.827C287.23 223.765 287.23 222.049 285.399 220.993L192.425 167.294C191.396 166.77 190.258 166.497 189.104 166.497C187.95 166.497 186.812 166.77 185.783 167.294L47.9919 246.863C46.161 247.918 46.161 249.634 47.9919 250.69Z" fill="#455A64"/>
<path d="M49.7785 132.507L183.003 55.6091C184.102 54.9773 184.999 55.4942 184.999 56.7651V159.13C184.961 159.821 184.76 160.493 184.414 161.092C184.067 161.691 183.584 162.2 183.003 162.577L49.7785 239.475C48.68 240.106 47.7825 239.589 47.7825 238.319V135.953C47.8209 135.262 48.0216 134.59 48.3684 133.991C48.7152 133.393 49.1983 132.884 49.7785 132.507Z" fill="#459BDD"/>
<path opacity="0.4" d="M49.7785 132.507L183.003 55.6091C184.102 54.9773 184.999 55.4942 184.999 56.7651V159.13C184.961 159.821 184.76 160.493 184.414 161.092C184.067 161.691 183.584 162.2 183.003 162.577L49.7785 239.475C48.68 240.106 47.7825 239.589 47.7825 238.319V135.953C47.8209 135.262 48.0216 134.59 48.3684 133.991C48.7152 133.393 49.1983 132.884 49.7785 132.507Z" fill="black"/>
<path d="M58.7826 247.818L187.448 173.548C187.962 173.286 188.53 173.149 189.107 173.149C189.683 173.149 190.252 173.286 190.765 173.548L196.804 177.03C197.716 177.561 197.716 178.416 196.804 178.947L68.1238 253.21C67.6103 253.472 67.0419 253.609 66.4652 253.609C65.8886 253.609 65.3202 253.472 64.8067 253.21L58.7826 249.735C57.8708 249.203 57.8708 248.349 58.7826 247.818Z" fill="#37474F"/>
<path d="M74.3497 256.807L203.008 182.53C203.522 182.268 204.09 182.131 204.667 182.131C205.243 182.131 205.812 182.268 206.325 182.53L243.475 203.977C244.394 204.508 244.394 205.37 243.475 205.894L114.953 280.077C114.437 280.338 113.868 280.473 113.29 280.473C112.713 280.473 112.144 280.338 111.628 280.077L74.3569 258.717C73.4378 258.193 73.4307 257.331 74.3497 256.807Z" fill="#263238"/>
<path d="M187.4 214.115L191.449 211.774C191.622 211.674 191.629 211.516 191.449 211.415L187.199 208.938C187.102 208.892 186.997 208.868 186.89 208.868C186.783 208.868 186.678 208.892 186.581 208.938L182.525 211.279C182.36 211.379 182.352 211.537 182.525 211.63L186.833 214.1C186.921 214.141 187.017 214.164 187.115 214.166C187.212 214.168 187.309 214.151 187.4 214.115ZM180.457 205.427L176.407 207.768C176.371 207.781 176.34 207.804 176.317 207.836C176.295 207.867 176.283 207.905 176.283 207.944C176.283 207.982 176.295 208.02 176.317 208.051C176.34 208.083 176.371 208.107 176.407 208.119L180.715 210.589C180.812 210.635 180.917 210.659 181.024 210.659C181.131 210.659 181.236 210.635 181.333 210.589L185.389 208.249C185.428 208.238 185.463 208.214 185.487 208.182C185.512 208.149 185.525 208.11 185.525 208.069C185.525 208.029 185.512 207.989 185.487 207.957C185.463 207.924 185.428 207.901 185.389 207.89L181.081 205.42C180.985 205.376 180.881 205.354 180.776 205.355C180.67 205.357 180.566 205.381 180.471 205.427H180.457ZM167.368 212.98L160.518 216.937C160.346 217.037 160.338 217.202 160.518 217.295L164.826 219.765C164.922 219.811 165.028 219.835 165.135 219.835C165.242 219.835 165.347 219.811 165.443 219.765L172.3 215.809C172.473 215.709 172.473 215.551 172.3 215.45L167.992 212.987C167.898 212.938 167.794 212.911 167.688 212.91C167.582 212.909 167.477 212.933 167.382 212.98H167.368ZM174.548 208.845L170.491 211.185C170.319 211.286 170.319 211.444 170.491 211.537L174.799 214.007C174.895 214.053 175.001 214.077 175.108 214.077C175.215 214.077 175.32 214.053 175.416 214.007L179.466 211.666C179.638 211.566 179.638 211.408 179.466 211.307L175.158 208.837C175.064 208.792 174.96 208.769 174.856 208.77C174.751 208.771 174.648 208.797 174.555 208.845H174.548ZM158.68 218.021L154.63 220.354C154.458 220.455 154.458 220.62 154.63 220.713L158.938 223.183C159.035 223.229 159.14 223.253 159.247 223.253C159.354 223.253 159.459 223.229 159.556 223.183L163.605 220.85C163.778 220.749 163.778 220.591 163.605 220.491L159.297 218.021C159.201 217.975 159.095 217.951 158.989 217.951C158.882 217.951 158.776 217.975 158.68 218.021ZM152.764 221.438L148.707 223.779C148.671 223.792 148.639 223.816 148.617 223.847C148.595 223.879 148.583 223.916 148.583 223.955C148.583 223.993 148.595 224.031 148.617 224.063C148.639 224.094 148.671 224.118 148.707 224.131L152.936 226.601C153.031 226.65 153.137 226.676 153.245 226.676C153.352 226.676 153.458 226.65 153.553 226.601L157.603 224.267C157.775 224.167 157.775 224.009 157.603 223.908L153.331 221.438C153.238 221.397 153.138 221.375 153.036 221.375C152.935 221.375 152.835 221.397 152.742 221.438H152.764ZM169.55 231.49L173.6 229.15C173.772 229.049 173.772 228.891 173.6 228.798L169.328 226.328C169.231 226.282 169.126 226.258 169.019 226.258C168.912 226.258 168.807 226.282 168.71 226.328L164.654 228.669C164.615 228.68 164.58 228.703 164.556 228.736C164.531 228.768 164.518 228.808 164.518 228.848C164.518 228.889 164.531 228.928 164.556 228.961C164.58 228.993 164.615 229.016 164.654 229.028L168.926 231.498C169.021 231.54 169.124 231.562 169.228 231.56C169.332 231.559 169.435 231.535 169.529 231.49H169.55ZM163.627 234.908L167.684 232.567C167.856 232.467 167.856 232.309 167.684 232.216L163.39 229.76C163.293 229.714 163.188 229.69 163.081 229.69C162.974 229.69 162.869 229.714 162.772 229.76L158.723 232.101C158.551 232.201 158.551 232.359 158.723 232.46L162.995 234.93C163.092 234.971 163.197 234.991 163.303 234.987C163.408 234.983 163.511 234.956 163.605 234.908H163.627ZM157.711 238.326L161.76 235.985C161.796 235.972 161.828 235.948 161.85 235.917C161.872 235.885 161.884 235.848 161.884 235.809C161.884 235.771 161.872 235.733 161.85 235.701C161.828 235.67 161.796 235.646 161.76 235.633L157.452 233.163C157.357 233.114 157.251 233.088 157.143 233.088C157.036 233.088 156.93 233.114 156.835 233.163L152.799 235.504C152.627 235.604 152.627 235.762 152.799 235.863L157.107 238.333C157.2 238.372 157.299 238.392 157.399 238.391C157.499 238.39 157.598 238.367 157.689 238.326H157.711ZM151.787 241.743L155.837 239.403C156.009 239.309 156.016 239.144 155.837 239.051L151.529 236.581C151.432 236.535 151.327 236.511 151.22 236.511C151.113 236.511 151.008 236.535 150.911 236.581L146.862 238.914C146.689 239.015 146.682 239.173 146.862 239.273L151.134 241.743C151.232 241.792 151.34 241.817 151.45 241.817C151.559 241.817 151.667 241.792 151.766 241.743H151.787ZM181.491 217.554L185.547 215.213C185.586 215.202 185.621 215.179 185.645 215.146C185.67 215.114 185.683 215.074 185.683 215.034C185.683 214.993 185.67 214.954 185.645 214.921C185.621 214.889 185.586 214.865 185.547 214.854L181.239 212.392C181.144 212.342 181.038 212.316 180.931 212.316C180.823 212.316 180.717 212.342 180.622 212.392L176.63 214.682C176.458 214.782 176.458 214.94 176.63 215.034L180.902 217.504C180.991 217.553 181.089 217.584 181.191 217.592C181.292 217.601 181.395 217.588 181.491 217.554ZM175.452 228.094L184.485 222.874C184.657 222.774 184.657 222.616 184.485 222.523L174.103 216.527C174.006 216.481 173.901 216.457 173.794 216.457C173.687 216.457 173.581 216.481 173.485 216.527L168.811 219.227C168.639 219.327 168.639 219.485 168.811 219.586L174.311 222.759C174.347 222.772 174.379 222.796 174.401 222.828C174.423 222.859 174.435 222.897 174.435 222.935C174.435 222.974 174.423 223.012 174.401 223.043C174.379 223.075 174.347 223.098 174.311 223.111L170.57 225.265C170.398 225.366 170.398 225.524 170.57 225.624L174.878 228.087C174.969 228.128 175.067 228.147 175.167 228.145C175.266 228.142 175.364 228.118 175.452 228.073V228.094ZM146.818 224.878L142.769 227.218C142.733 227.231 142.701 227.255 142.679 227.286C142.657 227.318 142.645 227.356 142.645 227.394C142.645 227.433 142.657 227.47 142.679 227.502C142.701 227.533 142.733 227.557 142.769 227.57L147.041 230.04C147.138 230.086 147.243 230.11 147.35 230.11C147.457 230.11 147.562 230.086 147.659 230.04L151.715 227.699C151.754 227.688 151.789 227.665 151.813 227.632C151.837 227.6 151.851 227.56 151.851 227.52C151.851 227.479 151.837 227.44 151.813 227.407C151.789 227.375 151.754 227.351 151.715 227.34L147.443 224.87C147.347 224.821 147.241 224.794 147.132 224.792C147.024 224.789 146.917 224.811 146.818 224.856V224.878ZM140.902 228.295L136.845 230.636C136.673 230.736 136.673 230.894 136.845 230.988L141.153 233.458C141.25 233.504 141.355 233.527 141.462 233.527C141.569 233.527 141.675 233.504 141.771 233.458L145.82 231.117C145.993 231.016 145.993 230.859 145.82 230.758L141.512 228.288C141.419 228.238 141.315 228.21 141.209 228.208C141.103 228.205 140.998 228.228 140.902 228.274V228.295ZM109.705 265.66C109.802 265.706 109.907 265.73 110.014 265.73C110.121 265.73 110.226 265.706 110.323 265.66L114.372 263.319C114.544 263.219 114.552 263.061 114.372 262.96L110.064 260.498C109.969 260.448 109.863 260.422 109.755 260.422C109.648 260.422 109.542 260.448 109.447 260.498L105.397 262.838C105.225 262.939 105.218 263.097 105.397 263.19L109.705 265.66ZM93.5357 255.608L89.4862 257.941C89.3139 258.042 89.3067 258.2 89.4862 258.3L93.7583 260.77C93.8547 260.816 93.9602 260.84 94.067 260.84C94.1739 260.84 94.2793 260.816 94.3758 260.77L98.4253 258.43C98.5976 258.336 98.6048 258.171 98.4253 258.078L94.1173 255.608C94.0266 255.564 93.9272 255.541 93.8265 255.541C93.7258 255.541 93.6264 255.564 93.5357 255.608ZM102.044 263.032C102.139 263.082 102.245 263.108 102.353 263.108C102.46 263.108 102.566 263.082 102.661 263.032L106.711 260.691C106.883 260.591 106.883 260.433 106.711 260.34L102.403 257.87C102.308 257.82 102.202 257.794 102.094 257.794C101.987 257.794 101.881 257.82 101.786 257.87L97.736 260.21C97.5637 260.311 97.5637 260.469 97.736 260.569L102.044 263.032ZM119.549 267.383L123.598 265.042C123.635 265.03 123.666 265.006 123.688 264.974C123.711 264.943 123.723 264.905 123.723 264.867C123.723 264.828 123.711 264.79 123.688 264.759C123.666 264.727 123.635 264.704 123.598 264.691L119.29 262.221C119.194 262.175 119.088 262.151 118.982 262.151C118.875 262.151 118.769 262.175 118.673 262.221L114.623 264.554C114.451 264.655 114.451 264.813 114.623 264.913L118.931 267.383C119.027 267.431 119.132 267.458 119.238 267.46C119.345 267.463 119.451 267.441 119.549 267.398V267.383ZM113.008 270.808C113.104 270.854 113.21 270.878 113.317 270.878C113.423 270.878 113.529 270.854 113.625 270.808L117.675 268.467C117.847 268.374 117.854 268.209 117.675 268.116L113.446 265.66C113.349 265.614 113.244 265.59 113.137 265.59C113.03 265.59 112.925 265.614 112.828 265.66L108.779 267.993C108.607 268.094 108.599 268.252 108.779 268.352L113.008 270.808ZM99.4592 252.183L95.4025 254.524C95.3635 254.535 95.3292 254.558 95.3048 254.591C95.2803 254.623 95.2671 254.663 95.2671 254.703C95.2671 254.744 95.2803 254.783 95.3048 254.816C95.3292 254.848 95.3635 254.872 95.4025 254.883L99.6746 257.353C99.7711 257.399 99.8765 257.422 99.9834 257.422C100.09 257.422 100.196 257.399 100.292 257.353L104.342 255.012C104.514 254.912 104.514 254.754 104.342 254.66L100.034 252.19C99.9432 252.149 99.8449 252.128 99.7456 252.13C99.6463 252.131 99.5485 252.154 99.4592 252.197V252.183ZM129.055 235.095L125.006 237.435C124.833 237.536 124.833 237.694 125.006 237.787L129.314 240.257C129.409 240.307 129.515 240.333 129.622 240.333C129.73 240.333 129.836 240.307 129.931 240.257L133.981 237.916C134.153 237.816 134.153 237.658 133.981 237.557L129.673 235.095C129.576 235.047 129.47 235.024 129.362 235.026C129.255 235.029 129.149 235.057 129.055 235.109V235.095ZM105.361 248.737L101.312 251.077C101.139 251.178 101.139 251.336 101.312 251.436L105.584 253.899C105.679 253.949 105.785 253.975 105.892 253.975C106 253.975 106.106 253.949 106.201 253.899L110.258 251.558C110.43 251.458 110.43 251.3 110.258 251.207L105.986 248.737C105.887 248.698 105.781 248.683 105.676 248.69C105.57 248.697 105.468 248.728 105.376 248.78L105.361 248.737ZM134.986 231.691L130.929 234.068C130.757 234.168 130.75 234.326 130.929 234.42L135.201 236.89C135.297 236.939 135.402 236.965 135.51 236.965C135.618 236.965 135.723 236.939 135.819 236.89L139.868 234.549C140.041 234.449 140.048 234.291 139.868 234.19L135.56 231.727C135.473 231.679 135.377 231.65 135.277 231.644C135.178 231.638 135.078 231.654 134.986 231.691ZM123.146 238.527L119.097 240.867C118.924 240.968 118.917 241.126 119.097 241.226L123.405 243.689C123.5 243.739 123.606 243.765 123.713 243.765C123.821 243.765 123.927 243.739 124.022 243.689L128.072 241.348C128.244 241.248 128.251 241.09 128.072 240.989L123.799 238.527C123.699 238.469 123.585 238.439 123.469 238.439C123.353 238.439 123.24 238.469 123.139 238.527H123.146ZM117.215 241.966L113.166 244.307C112.994 244.407 112.994 244.565 113.166 244.666L117.474 247.128C117.569 247.178 117.675 247.204 117.783 247.204C117.89 247.204 117.996 247.178 118.091 247.128L122.141 244.788C122.313 244.687 122.313 244.529 122.141 244.436L117.833 241.966C117.738 241.916 117.632 241.89 117.524 241.89C117.417 241.89 117.311 241.916 117.215 241.966ZM111.292 245.362L107.25 247.71C107.077 247.81 107.07 247.968 107.25 248.069L111.522 250.532C111.617 250.581 111.723 250.607 111.83 250.607C111.938 250.607 112.044 250.581 112.139 250.532L116.189 248.191C116.361 248.091 116.368 247.933 116.189 247.839L111.917 245.369C111.82 245.321 111.713 245.295 111.605 245.294C111.497 245.293 111.39 245.316 111.292 245.362ZM139.919 248.579L143.968 246.245C144.14 246.145 144.148 245.987 143.968 245.886L139.71 243.402C139.614 243.356 139.508 243.332 139.402 243.332C139.295 243.332 139.189 243.356 139.093 243.402L135.043 245.735C134.871 245.836 134.864 245.994 135.043 246.094L139.351 248.564C139.441 248.606 139.538 248.629 139.637 248.632C139.736 248.634 139.834 248.616 139.926 248.579H139.919ZM193.553 197.874L189.504 200.207C189.331 200.308 189.324 200.466 189.504 200.566L193.776 203.036C193.872 203.082 193.978 203.106 194.084 203.106C194.191 203.106 194.297 203.082 194.393 203.036L198.443 200.695C198.615 200.602 198.622 200.437 198.443 200.344L194.171 197.874C194.076 197.825 193.972 197.8 193.865 197.8C193.759 197.8 193.655 197.825 193.56 197.874H193.553ZM186.373 202.009L182.374 204.35C182.338 204.363 182.306 204.387 182.284 204.418C182.262 204.45 182.25 204.487 182.25 204.526C182.25 204.564 182.262 204.602 182.284 204.634C182.306 204.665 182.338 204.689 182.374 204.702L186.646 207.172C186.742 207.218 186.848 207.241 186.955 207.241C187.062 207.241 187.167 207.218 187.263 207.172L191.313 204.838C191.485 204.738 191.485 204.58 191.313 204.479L187.005 202.009C186.909 201.964 186.805 201.941 186.7 201.941C186.594 201.941 186.49 201.964 186.395 202.009H186.373ZM199.455 194.449L195.406 196.789C195.233 196.89 195.233 197.048 195.406 197.148L199.714 199.618C199.81 199.664 199.915 199.688 200.022 199.688C200.129 199.688 200.235 199.664 200.331 199.618L204.381 197.278C204.553 197.177 204.553 197.019 204.381 196.926L200.073 194.456C199.98 194.412 199.878 194.389 199.775 194.388C199.673 194.386 199.571 194.407 199.477 194.449H199.455ZM167.784 225.452L171.834 223.111C171.87 223.098 171.901 223.075 171.924 223.043C171.946 223.012 171.958 222.974 171.958 222.935C171.958 222.897 171.946 222.859 171.924 222.828C171.901 222.796 171.87 222.772 171.834 222.759L167.526 220.29C167.429 220.244 167.324 220.22 167.217 220.22C167.11 220.22 167.005 220.244 166.908 220.29L162.851 222.63C162.812 222.641 162.778 222.665 162.754 222.697C162.729 222.73 162.716 222.769 162.716 222.81C162.716 222.85 162.729 222.89 162.754 222.922C162.778 222.955 162.812 222.978 162.851 222.989L167.124 225.459C167.226 225.511 167.34 225.537 167.455 225.536C167.57 225.535 167.683 225.506 167.784 225.452ZM206.018 191.038C205.921 190.992 205.816 190.968 205.709 190.968C205.602 190.968 205.497 190.992 205.4 191.038L201.351 193.379C201.178 193.479 201.171 193.637 201.351 193.738L205.623 196.208C205.719 196.254 205.825 196.278 205.931 196.278C206.038 196.278 206.144 196.254 206.24 196.208L210.29 193.867C210.462 193.767 210.469 193.609 210.29 193.515L206.018 191.038ZM145.849 245.168L149.899 242.835C150.071 242.734 150.071 242.569 149.899 242.476L145.591 240.006C145.494 239.96 145.389 239.936 145.282 239.936C145.175 239.936 145.07 239.96 144.973 240.006L140.924 242.339C140.751 242.44 140.751 242.598 140.924 242.698L145.232 245.168C145.329 245.213 145.434 245.236 145.541 245.234C145.648 245.233 145.753 245.208 145.849 245.161V245.168ZM218.446 203.251L222.503 200.911C222.539 200.898 222.571 200.874 222.593 200.842C222.615 200.811 222.627 200.773 222.627 200.735C222.627 200.696 222.615 200.659 222.593 200.627C222.571 200.596 222.539 200.572 222.503 200.559L218.195 198.089C218.098 198.043 217.993 198.019 217.886 198.019C217.779 198.019 217.674 198.043 217.577 198.089L213.528 200.422C213.356 200.523 213.356 200.681 213.528 200.781L217.836 203.251C217.931 203.298 218.036 203.322 218.142 203.321C218.248 203.32 218.352 203.293 218.446 203.244V203.251ZM206.42 203.144L210.476 200.803C210.513 200.79 210.544 200.766 210.566 200.735C210.589 200.703 210.601 200.666 210.601 200.627C210.601 200.589 210.589 200.551 210.566 200.519C210.544 200.488 210.513 200.464 210.476 200.451L206.204 197.981C206.108 197.935 206.002 197.912 205.896 197.912C205.789 197.912 205.683 197.935 205.587 197.981L201.537 200.322C201.365 200.422 201.358 200.58 201.537 200.681L205.809 203.151C205.906 203.193 206.011 203.214 206.116 203.212C206.222 203.209 206.325 203.184 206.42 203.137V203.144ZM212.121 194.578C212.026 194.53 211.921 194.505 211.815 194.505C211.709 194.505 211.605 194.53 211.51 194.578L207.454 196.919C207.415 196.93 207.38 196.953 207.356 196.986C207.331 197.018 207.318 197.058 207.318 197.098C207.318 197.139 207.331 197.178 207.356 197.211C207.38 197.243 207.415 197.267 207.454 197.278L211.726 199.748C211.822 199.794 211.928 199.817 212.034 199.817C212.141 199.817 212.247 199.794 212.343 199.748L216.393 197.407C216.429 197.394 216.46 197.37 216.483 197.339C216.505 197.307 216.517 197.27 216.517 197.231C216.517 197.192 216.505 197.155 216.483 197.123C216.46 197.092 216.429 197.068 216.393 197.055L212.121 194.578ZM213.37 193.86L223.752 199.855C223.849 199.901 223.954 199.925 224.061 199.925C224.168 199.925 224.273 199.901 224.37 199.855L228.419 197.515C228.592 197.421 228.599 197.256 228.419 197.163L218.037 191.167C217.94 191.122 217.835 191.098 217.728 191.098C217.621 191.098 217.516 191.122 217.419 191.167L213.37 193.508C213.205 193.58 213.205 193.738 213.37 193.86ZM199.663 201.399L195.614 203.732C195.441 203.833 195.441 203.991 195.614 204.091L199.922 206.561C200.018 206.607 200.124 206.631 200.231 206.631C200.337 206.631 200.443 206.607 200.539 206.561L204.589 204.228C204.761 204.127 204.761 203.962 204.589 203.869L200.281 201.399C200.184 201.353 200.079 201.329 199.972 201.329C199.865 201.329 199.76 201.353 199.663 201.399ZM155.09 227.125L151.04 229.458C150.868 229.559 150.868 229.717 151.04 229.817L155.348 232.287C155.445 232.333 155.55 232.357 155.657 232.357C155.764 232.357 155.869 232.333 155.966 232.287L160.015 229.954C160.188 229.853 160.188 229.688 160.015 229.595L155.707 227.125C155.611 227.079 155.505 227.055 155.399 227.055C155.292 227.055 155.186 227.079 155.09 227.125ZM211.898 206.669C211.994 206.715 212.1 206.739 212.207 206.739C212.314 206.739 212.419 206.715 212.516 206.669L216.565 204.336C216.737 204.235 216.737 204.07 216.565 203.977L212.293 201.507C212.196 201.461 212.091 201.437 211.984 201.437C211.877 201.437 211.772 201.461 211.675 201.507L207.619 203.84C207.58 203.851 207.545 203.875 207.521 203.907C207.497 203.94 207.483 203.979 207.483 204.02C207.483 204.06 207.497 204.1 207.521 204.132C207.545 204.164 207.58 204.188 207.619 204.199L211.898 206.669ZM161.013 223.707L156.964 226.041C156.792 226.141 156.792 226.299 156.964 226.4L161.236 228.87C161.332 228.916 161.438 228.939 161.545 228.939C161.652 228.939 161.757 228.916 161.853 228.87L165.91 226.529C165.946 226.516 165.978 226.492 166 226.461C166.022 226.429 166.034 226.392 166.034 226.353C166.034 226.315 166.022 226.277 166 226.245C165.978 226.214 165.946 226.19 165.91 226.177L161.602 223.707C161.512 223.664 161.414 223.642 161.315 223.642C161.216 223.642 161.117 223.664 161.028 223.707H161.013ZM115.6 262.257C115.696 262.303 115.802 262.326 115.909 262.326C116.015 262.326 116.121 262.303 116.217 262.257L120.267 259.916C120.439 259.815 120.439 259.657 120.267 259.557L115.959 257.087C115.864 257.039 115.76 257.014 115.654 257.014C115.548 257.014 115.443 257.039 115.349 257.087L111.292 259.428C111.12 259.528 111.12 259.686 111.292 259.78L115.6 262.257ZM107.702 254.466L103.652 256.807C103.48 256.908 103.473 257.066 103.652 257.159L107.96 259.629C108.056 259.678 108.162 259.704 108.269 259.704C108.377 259.704 108.482 259.678 108.578 259.629L112.627 257.288C112.8 257.188 112.807 257.03 112.627 256.929L108.319 254.466C108.23 254.424 108.132 254.401 108.032 254.401C107.933 254.401 107.835 254.424 107.745 254.466H107.702ZM122.119 258.832L126.176 256.498C126.215 256.487 126.249 256.464 126.274 256.431C126.298 256.399 126.311 256.359 126.311 256.319C126.311 256.278 126.298 256.239 126.274 256.206C126.249 256.174 126.215 256.15 126.176 256.139L121.904 253.669C121.807 253.623 121.702 253.6 121.595 253.6C121.488 253.6 121.383 253.623 121.286 253.669L117.237 256.01C117.201 256.023 117.169 256.047 117.147 256.078C117.125 256.11 117.113 256.147 117.113 256.186C117.113 256.225 117.125 256.262 117.147 256.294C117.169 256.325 117.201 256.349 117.237 256.362L121.509 258.832C121.609 258.888 121.721 258.917 121.836 258.917C121.95 258.917 122.063 258.888 122.162 258.832H122.119ZM128.043 255.414L132.092 253.081C132.265 252.98 132.272 252.822 132.092 252.722L127.82 250.252C127.724 250.206 127.618 250.182 127.511 250.182C127.405 250.182 127.299 250.206 127.203 250.252L123.146 252.592C123.11 252.605 123.078 252.629 123.056 252.661C123.034 252.692 123.022 252.73 123.022 252.768C123.022 252.807 123.034 252.844 123.056 252.876C123.078 252.907 123.11 252.931 123.146 252.944L127.418 255.414C127.52 255.473 127.635 255.504 127.752 255.504C127.869 255.504 127.984 255.473 128.086 255.414H128.043ZM133.966 251.996L138.016 249.663C138.188 249.562 138.188 249.404 138.016 249.304L133.708 246.834C133.611 246.788 133.506 246.764 133.399 246.764C133.292 246.764 133.187 246.788 133.09 246.834L129.12 249.146C128.947 249.246 128.947 249.412 129.12 249.505L133.428 251.975C133.516 252.022 133.614 252.051 133.714 252.058C133.814 252.066 133.915 252.052 134.009 252.018L133.966 251.996ZM113.618 251.049L109.569 253.389C109.396 253.49 109.396 253.648 109.569 253.741L113.877 256.211C113.972 256.261 114.078 256.287 114.185 256.287C114.293 256.287 114.399 256.261 114.494 256.211L118.544 253.87C118.716 253.77 118.716 253.612 118.544 253.511L114.236 251.049C114.146 251.006 114.048 250.984 113.948 250.984C113.849 250.984 113.751 251.006 113.661 251.049H113.618ZM119.542 247.631L115.492 249.972C115.32 250.072 115.313 250.23 115.492 250.324L119.764 252.793C119.861 252.839 119.966 252.863 120.073 252.863C120.18 252.863 120.285 252.839 120.382 252.793L124.438 250.453C124.604 250.352 124.611 250.194 124.438 250.094L120.13 247.631C120.045 247.593 119.952 247.573 119.858 247.573C119.764 247.573 119.671 247.593 119.585 247.631H119.542ZM143.236 233.989L139.186 236.322C139.014 236.423 139.014 236.588 139.186 236.681L143.494 239.151C143.591 239.197 143.696 239.221 143.803 239.221C143.91 239.221 144.015 239.197 144.112 239.151L148.161 236.818C148.333 236.717 148.333 236.559 148.161 236.459L143.853 233.989C143.763 233.943 143.663 233.916 143.562 233.911C143.46 233.906 143.359 233.923 143.264 233.96L143.236 233.989ZM137.319 237.407L133.27 239.747C133.098 239.841 133.09 240.006 133.27 240.099L137.578 242.569C137.673 242.619 137.779 242.645 137.887 242.645C137.994 242.645 138.1 242.619 138.195 242.569L142.245 240.236C142.417 240.135 142.424 239.977 142.245 239.877L137.973 237.407C137.878 237.355 137.772 237.326 137.664 237.321C137.556 237.316 137.448 237.335 137.348 237.378L137.319 237.407ZM149.159 230.571L145.11 232.905C144.937 233.005 144.93 233.163 145.11 233.264L149.418 235.734C149.514 235.78 149.62 235.804 149.726 235.804C149.833 235.804 149.939 235.78 150.035 235.734L154.085 233.4C154.257 233.3 154.264 233.142 154.085 233.041L149.777 230.571C149.686 230.525 149.587 230.499 149.485 230.494C149.384 230.489 149.282 230.505 149.188 230.543L149.159 230.571ZM125.465 244.213L121.408 246.554C121.236 246.655 121.236 246.812 121.408 246.906L125.681 249.376C125.777 249.422 125.882 249.446 125.989 249.446C126.096 249.446 126.202 249.422 126.298 249.376L130.348 247.035C130.52 246.935 130.52 246.777 130.348 246.676L126.04 244.206C125.868 244.14 125.678 244.143 125.508 244.213H125.465ZM131.381 240.796L127.332 243.136C127.296 243.149 127.264 243.173 127.242 243.205C127.22 243.236 127.208 243.274 127.208 243.312C127.208 243.351 127.22 243.388 127.242 243.42C127.264 243.451 127.296 243.475 127.332 243.488L131.64 245.958C131.735 246.006 131.839 246.031 131.945 246.031C132.051 246.031 132.156 246.006 132.25 245.958L136.307 243.617C136.479 243.517 136.479 243.359 136.307 243.258L131.999 240.788C131.904 240.746 131.801 240.724 131.697 240.726C131.592 240.727 131.49 240.751 131.396 240.796H131.381ZM125.422 263.98L129.479 261.639C129.515 261.626 129.547 261.602 129.569 261.571C129.591 261.539 129.603 261.502 129.603 261.463C129.603 261.425 129.591 261.387 129.569 261.356C129.547 261.324 129.515 261.3 129.479 261.287L125.207 258.817C125.111 258.768 125.005 258.742 124.898 258.742C124.79 258.742 124.685 258.768 124.589 258.817L120.54 261.151C120.367 261.251 120.367 261.409 120.54 261.51L124.812 263.98C124.913 264.032 125.025 264.058 125.138 264.058C125.252 264.058 125.364 264.032 125.465 263.98H125.422ZM92.4659 261.503L88.1579 259.033C88.0615 258.987 87.956 258.963 87.8492 258.963C87.7423 258.963 87.6369 258.987 87.5404 259.033L83.5627 261.352C83.3904 261.452 83.3904 261.61 83.5627 261.711L87.8707 264.181C87.9671 264.227 88.0726 264.251 88.1794 264.251C88.2863 264.251 88.3917 264.227 88.4882 264.181L92.5377 261.84C92.5686 261.823 92.5938 261.796 92.6103 261.765C92.6269 261.733 92.6341 261.698 92.6311 261.662C92.628 261.627 92.6149 261.593 92.5933 261.565C92.5717 261.536 92.5424 261.515 92.509 261.503H92.4659ZM100.752 263.772L96.4795 261.302C96.3842 261.252 96.2783 261.226 96.1708 261.226C96.0633 261.226 95.9574 261.252 95.862 261.302L89.6298 264.892C89.4575 264.992 89.4503 265.15 89.6298 265.251L93.9378 267.721C94.0342 267.767 94.1397 267.79 94.2465 267.79C94.3534 267.79 94.4588 267.767 94.5553 267.721L100.788 264.131C100.96 264.023 100.967 263.865 100.795 263.772H100.752ZM85.9895 256.685L81.6815 254.215C81.5851 254.169 81.4796 254.145 81.3728 254.145C81.266 254.145 81.1605 254.169 81.0641 254.215L76.0811 257.087C75.9088 257.188 75.9016 257.346 76.0811 257.446L80.3891 259.916C80.4856 259.962 80.5911 259.986 80.6979 259.986C80.8047 259.986 80.9102 259.962 81.0066 259.916L86.0326 257.044C86.1978 256.936 86.1978 256.778 86.0326 256.685H85.9895ZM89.8093 254.474C89.9046 254.523 90.0105 254.549 90.118 254.549C90.2255 254.549 90.3315 254.523 90.4268 254.474L94.4763 252.133C94.6486 252.032 94.6486 251.874 94.4763 251.774L90.1683 249.311C90.0743 249.261 89.9695 249.235 89.8631 249.235C89.7568 249.235 89.652 249.261 89.558 249.311L85.5013 251.652C85.329 251.752 85.329 251.91 85.5013 252.004L89.8093 254.474ZM108.463 266.378L104.155 263.915C104.06 263.866 103.954 263.84 103.846 263.84C103.739 263.84 103.633 263.866 103.537 263.915L95.7472 268.41C95.5748 268.51 95.5748 268.676 95.7472 268.769L100.055 271.239C100.152 271.285 100.257 271.309 100.364 271.309C100.471 271.309 100.576 271.285 100.673 271.239L108.463 266.744C108.628 266.651 108.628 266.493 108.463 266.378ZM111.766 271.526L107.458 269.056C107.361 269.01 107.256 268.986 107.149 268.986C107.042 268.986 106.937 269.01 106.84 269.056L101.857 271.928C101.821 271.941 101.79 271.965 101.767 271.996C101.745 272.028 101.733 272.065 101.733 272.104C101.733 272.143 101.745 272.18 101.767 272.212C101.79 272.243 101.821 272.267 101.857 272.28L106.165 274.75C106.261 274.8 106.367 274.826 106.474 274.826C106.582 274.826 106.687 274.8 106.783 274.75L111.766 271.878C111.931 271.799 111.931 271.641 111.766 271.54V271.526ZM133.873 229.042C133.969 229.088 134.075 229.112 134.182 229.112C134.289 229.112 134.394 229.088 134.49 229.042L138.54 226.701C138.576 226.688 138.608 226.665 138.63 226.633C138.652 226.602 138.664 226.564 138.664 226.525C138.664 226.487 138.652 226.449 138.63 226.418C138.608 226.386 138.576 226.362 138.54 226.349L134.232 223.88C134.136 223.834 134.03 223.81 133.923 223.81C133.816 223.81 133.711 223.834 133.614 223.88L129.565 226.213C129.393 226.314 129.393 226.472 129.565 226.572L133.873 229.042ZM122.062 235.899C122.156 235.947 122.261 235.972 122.367 235.972C122.473 235.972 122.578 235.947 122.672 235.899L126.729 233.565C126.768 233.554 126.802 233.531 126.827 233.498C126.851 233.466 126.864 233.426 126.864 233.386C126.864 233.345 126.851 233.306 126.827 233.273C126.802 233.241 126.768 233.218 126.729 233.206L122.421 230.736C122.324 230.691 122.219 230.667 122.112 230.667C122.005 230.667 121.9 230.691 121.803 230.736L117.754 233.07C117.582 233.17 117.582 233.328 117.754 233.429L122.062 235.899ZM95.7974 251.056C95.8927 251.106 95.9987 251.132 96.1062 251.132C96.2137 251.132 96.3196 251.106 96.4149 251.056L100.472 248.715C100.511 248.704 100.545 248.68 100.569 248.648C100.594 248.616 100.607 248.576 100.607 248.536C100.607 248.495 100.594 248.456 100.569 248.423C100.545 248.391 100.511 248.367 100.472 248.356L96.1995 245.893C96.1042 245.844 95.9983 245.818 95.8908 245.818C95.7833 245.818 95.6773 245.844 95.582 245.893L91.5325 248.234C91.3602 248.335 91.3602 248.493 91.5325 248.586L95.7974 251.056ZM127.978 232.481C128.075 232.527 128.18 232.551 128.287 232.551C128.394 232.551 128.499 232.527 128.596 232.481L132.645 230.148C132.818 230.047 132.825 229.882 132.645 229.789L128.337 227.319C128.241 227.273 128.135 227.249 128.028 227.249C127.922 227.249 127.816 227.273 127.72 227.319L123.67 229.652C123.498 229.753 123.491 229.911 123.67 230.011L127.978 232.481ZM116.138 239.317C116.235 239.362 116.34 239.386 116.447 239.386C116.554 239.386 116.659 239.362 116.756 239.317L120.805 236.983C120.978 236.883 120.978 236.725 120.805 236.624L116.533 234.154C116.437 234.108 116.331 234.084 116.225 234.084C116.118 234.084 116.012 234.108 115.916 234.154L111.859 236.495C111.823 236.508 111.791 236.532 111.769 236.563C111.747 236.595 111.735 236.632 111.735 236.671C111.735 236.709 111.747 236.747 111.769 236.778C111.791 236.81 111.823 236.834 111.859 236.847L116.138 239.317ZM114.882 271.878C114.785 271.832 114.68 271.808 114.573 271.808C114.466 271.808 114.361 271.832 114.264 271.878L108.032 275.468C107.86 275.568 107.853 275.726 108.032 275.82L112.304 278.29C112.401 278.336 112.506 278.359 112.613 278.359C112.72 278.359 112.825 278.336 112.922 278.29L119.154 274.7C119.19 274.687 119.222 274.663 119.244 274.631C119.266 274.6 119.278 274.562 119.278 274.524C119.278 274.485 119.266 274.448 119.244 274.416C119.222 274.385 119.19 274.361 119.154 274.348L114.882 271.878ZM107.652 244.22C107.748 244.266 107.854 244.29 107.96 244.29C108.067 244.29 108.173 244.266 108.269 244.22L112.319 241.88C112.491 241.779 112.491 241.621 112.319 241.521L108.011 239.051C107.914 239.005 107.809 238.981 107.702 238.981C107.595 238.981 107.49 239.005 107.393 239.051L103.344 241.392C103.171 241.492 103.171 241.65 103.344 241.743L107.652 244.22ZM101.728 247.638C101.823 247.688 101.929 247.714 102.037 247.714C102.144 247.714 102.25 247.688 102.346 247.638L106.395 245.297C106.567 245.197 106.575 245.039 106.395 244.938L102.123 242.476C102.028 242.426 101.922 242.4 101.814 242.4C101.707 242.4 101.601 242.426 101.506 242.476L97.4201 244.838C97.255 244.938 97.2478 245.096 97.4201 245.19L101.728 247.638ZM224.564 208.55C224.467 208.504 224.362 208.48 224.255 208.48C224.148 208.48 224.043 208.504 223.946 208.55L213.973 214.294C213.937 214.307 213.905 214.331 213.883 214.362C213.861 214.394 213.849 214.432 213.849 214.47C213.849 214.509 213.861 214.546 213.883 214.578C213.905 214.609 213.937 214.633 213.973 214.646L218.281 217.116C218.376 217.166 218.482 217.192 218.59 217.192C218.697 217.192 218.803 217.166 218.899 217.116L228.864 211.372C229.037 211.271 229.044 211.114 228.864 211.013L224.564 208.55ZM211.439 216.118C211.343 216.068 211.237 216.042 211.13 216.042C211.022 216.042 210.916 216.068 210.821 216.118L206.786 218.451C206.614 218.552 206.614 218.71 206.786 218.81L211.058 221.273C211.153 221.323 211.259 221.349 211.367 221.349C211.474 221.349 211.58 221.323 211.675 221.273L215.732 218.933C215.771 218.921 215.805 218.898 215.83 218.865C215.854 218.833 215.868 218.794 215.868 218.753C215.868 218.712 215.854 218.673 215.83 218.641C215.805 218.608 215.771 218.585 215.732 218.574L211.439 216.118ZM131.396 260.562L135.445 258.221C135.618 258.121 135.625 257.963 135.445 257.87L131.173 255.4C131.077 255.354 130.971 255.33 130.865 255.33C130.758 255.33 130.652 255.354 130.556 255.4L126.499 257.762C126.334 257.862 126.327 258.02 126.499 258.121L130.771 260.591C130.871 260.634 130.979 260.653 131.087 260.648C131.195 260.643 131.301 260.614 131.396 260.562ZM199.606 222.946C199.509 222.9 199.404 222.876 199.297 222.876C199.19 222.876 199.085 222.9 198.988 222.946L194.939 225.287C194.767 225.387 194.759 225.545 194.939 225.646L199.211 228.109C199.306 228.158 199.412 228.184 199.52 228.184C199.627 228.184 199.733 228.158 199.828 228.109L203.878 225.768C204.05 225.667 204.057 225.509 203.878 225.416L199.606 222.946ZM230.48 205.133C230.383 205.087 230.278 205.063 230.171 205.063C230.064 205.063 229.959 205.087 229.862 205.133L225.777 207.502C225.741 207.515 225.709 207.539 225.687 207.57C225.665 207.602 225.653 207.639 225.653 207.678C225.653 207.716 225.665 207.754 225.687 207.786C225.709 207.817 225.741 207.841 225.777 207.854L230.085 210.324C230.181 210.37 230.287 210.393 230.394 210.393C230.501 210.393 230.606 210.37 230.702 210.324L234.752 207.99C234.924 207.89 234.924 207.732 234.752 207.631L230.48 205.133ZM240.675 204.185L230.257 198.168C230.161 198.122 230.055 198.098 229.949 198.098C229.842 198.098 229.736 198.122 229.64 198.168L225.59 200.501C225.418 200.602 225.418 200.76 225.59 200.86L235.973 206.856C236.069 206.902 236.174 206.926 236.281 206.926C236.388 206.926 236.494 206.902 236.59 206.856L240.64 204.522C240.805 204.443 240.812 204.285 240.64 204.185H240.675ZM177.491 235.719C177.396 235.67 177.29 235.644 177.183 235.644C177.075 235.644 176.969 235.67 176.874 235.719L171.884 238.591C171.712 238.692 171.712 238.85 171.884 238.95L176.192 241.42C176.288 241.466 176.394 241.49 176.501 241.49C176.607 241.49 176.713 241.466 176.809 241.42L181.792 238.548C181.965 238.448 181.972 238.29 181.792 238.196L177.491 235.719ZM192.447 227.103C192.351 227.057 192.245 227.034 192.139 227.034C192.032 227.034 191.926 227.057 191.83 227.103L185.598 230.693C185.425 230.794 185.418 230.952 185.598 231.045L189.906 233.515C190.002 233.561 190.108 233.585 190.214 233.585C190.321 233.585 190.427 233.561 190.523 233.515L196.755 229.925C196.928 229.832 196.935 229.667 196.755 229.573L192.447 227.103ZM163.778 243.653C163.681 243.607 163.576 243.584 163.469 243.584C163.362 243.584 163.257 243.607 163.16 243.653L129.823 262.903C129.651 263.003 129.644 263.161 129.823 263.255L134.096 265.725C134.191 265.774 134.297 265.8 134.404 265.8C134.512 265.8 134.618 265.774 134.713 265.725L168.014 246.461C168.053 246.45 168.087 246.426 168.112 246.394C168.136 246.361 168.149 246.322 168.149 246.281C168.149 246.241 168.136 246.201 168.112 246.169C168.087 246.136 168.053 246.113 168.014 246.102L163.778 243.653ZM128.596 263.987C128.5 263.937 128.394 263.911 128.287 263.911C128.179 263.911 128.074 263.937 127.978 263.987L122.995 266.859C122.823 266.96 122.816 267.118 122.995 267.218L127.303 269.681C127.399 269.73 127.504 269.756 127.612 269.756C127.719 269.756 127.825 269.73 127.921 269.681L132.947 266.809C132.986 266.798 133.02 266.774 133.045 266.742C133.069 266.709 133.082 266.67 133.082 266.629C133.082 266.589 133.069 266.549 133.045 266.517C133.02 266.484 132.986 266.461 132.947 266.45L128.596 263.987ZM170.663 239.697C170.568 239.647 170.462 239.621 170.355 239.621C170.247 239.621 170.141 239.647 170.046 239.697L165.063 242.569C164.891 242.67 164.883 242.828 165.063 242.928L169.371 245.398C169.467 245.444 169.573 245.468 169.68 245.468C169.786 245.468 169.892 245.444 169.988 245.398L174.971 242.526C175.144 242.433 175.151 242.268 174.971 242.174L170.663 239.697ZM121.739 267.943C121.642 267.897 121.537 267.873 121.43 267.873C121.323 267.873 121.218 267.897 121.121 267.943L116.138 270.815C115.966 270.916 115.966 271.074 116.138 271.174L120.446 273.644C120.541 273.692 120.645 273.717 120.752 273.717C120.858 273.717 120.962 273.692 121.057 273.644L126.047 270.772C126.219 270.672 126.219 270.514 126.047 270.42L121.739 267.943ZM184.37 231.785C184.275 231.735 184.169 231.709 184.061 231.709C183.954 231.709 183.848 231.735 183.752 231.785L178.77 234.657C178.597 234.757 178.597 234.915 178.77 235.016L183.077 237.478C183.173 237.528 183.279 237.554 183.386 237.554C183.494 237.554 183.6 237.528 183.695 237.478L188.678 234.606C188.85 234.506 188.85 234.348 188.678 234.247L184.37 231.785ZM205.558 219.579C205.463 219.529 205.357 219.503 205.249 219.503C205.142 219.503 205.036 219.529 204.941 219.579L200.848 221.862C200.676 221.962 200.676 222.12 200.848 222.221L205.156 224.684C205.251 224.733 205.357 224.759 205.465 224.759C205.572 224.759 205.678 224.733 205.773 224.684L209.823 222.343C209.995 222.243 209.995 222.085 209.823 221.991L205.558 219.579ZM218.676 210.245L222.733 207.911C222.905 207.811 222.905 207.653 222.733 207.552L218.425 205.082C218.328 205.036 218.223 205.013 218.116 205.013C218.009 205.013 217.904 205.036 217.807 205.082L213.758 207.416C213.585 207.516 213.585 207.681 213.758 207.775L218.066 210.245C218.159 210.277 218.258 210.289 218.356 210.279C218.454 210.269 218.548 210.238 218.633 210.187L218.676 210.245ZM193.381 210.747L197.43 208.414C197.603 208.313 197.603 208.155 197.43 208.055L193.122 205.585C193.026 205.539 192.92 205.515 192.814 205.515C192.707 205.515 192.601 205.539 192.505 205.585L188.455 207.926C188.283 208.026 188.283 208.184 188.455 208.277L192.763 210.747C192.857 210.781 192.958 210.794 193.057 210.784C193.156 210.774 193.252 210.742 193.338 210.69L193.381 210.747ZM178.784 233.221L190.624 226.378C190.66 226.365 190.691 226.341 190.714 226.31C190.736 226.278 190.748 226.241 190.748 226.202C190.748 226.164 190.736 226.126 190.714 226.095C190.691 226.063 190.66 226.039 190.624 226.026L186.316 223.556C186.22 223.507 186.114 223.481 186.007 223.481C185.899 223.481 185.794 223.507 185.698 223.556L173.858 230.392C173.822 230.405 173.791 230.429 173.768 230.46C173.746 230.492 173.734 230.529 173.734 230.568C173.734 230.606 173.746 230.644 173.768 230.675C173.791 230.707 173.822 230.731 173.858 230.744L178.166 233.214C178.262 233.261 178.367 233.286 178.474 233.287C178.581 233.288 178.687 233.266 178.784 233.221ZM212.128 213.612C212.224 213.658 212.33 213.682 212.437 213.682C212.543 213.682 212.649 213.658 212.745 213.612L216.795 211.279C216.967 211.178 216.967 211.02 216.795 210.92L212.487 208.45C212.39 208.404 212.285 208.38 212.178 208.38C212.071 208.38 211.966 208.404 211.869 208.45L207.813 210.79C207.776 210.803 207.745 210.827 207.723 210.859C207.7 210.89 207.688 210.928 207.688 210.966C207.688 211.005 207.7 211.042 207.723 211.074C207.745 211.105 207.776 211.129 207.813 211.142L212.128 213.612ZM206.635 210.08L210.692 207.746C210.857 207.646 210.864 207.488 210.692 207.387L206.42 204.917C206.323 204.871 206.218 204.847 206.111 204.847C206.004 204.847 205.899 204.871 205.802 204.917L201.76 207.258C201.588 207.358 201.58 207.516 201.76 207.617L206.032 210.087C206.123 210.125 206.221 210.144 206.32 210.143C206.419 210.142 206.516 210.12 206.606 210.08H206.635ZM172.889 236.646L176.939 234.305C177.111 234.204 177.111 234.046 176.939 233.946L172.631 231.476C172.534 231.43 172.429 231.406 172.322 231.406C172.215 231.406 172.11 231.43 172.013 231.476L167.956 233.817C167.784 233.917 167.784 234.075 167.956 234.168L172.229 236.638C172.323 236.682 172.426 236.705 172.53 236.705C172.634 236.705 172.737 236.682 172.832 236.638L172.889 236.646ZM199.01 221.144C199.105 221.194 199.211 221.22 199.319 221.22C199.426 221.22 199.532 221.194 199.627 221.144L203.677 218.803C203.849 218.703 203.856 218.545 203.677 218.444L199.405 215.982C199.31 215.932 199.204 215.906 199.096 215.906C198.989 215.906 198.883 215.932 198.787 215.982L194.738 218.322C194.566 218.423 194.558 218.581 194.738 218.681L199.01 221.144ZM143.229 253.705L147.278 251.365C147.45 251.264 147.458 251.106 147.278 251.013L143.006 248.543C142.911 248.493 142.805 248.467 142.697 248.467C142.59 248.467 142.484 248.493 142.388 248.543L138.339 250.884C138.167 250.984 138.159 251.142 138.339 251.243L142.647 253.705C142.736 253.753 142.835 253.779 142.935 253.783C143.036 253.786 143.136 253.767 143.229 253.727V253.705ZM149.152 250.288L153.202 247.947C153.374 247.846 153.374 247.688 153.202 247.595L148.894 245.125C148.798 245.075 148.692 245.05 148.585 245.05C148.477 245.05 148.371 245.075 148.276 245.125L144.227 247.466C144.054 247.566 144.054 247.724 144.227 247.825L148.535 250.288C148.628 250.341 148.733 250.37 148.841 250.374C148.948 250.378 149.055 250.356 149.152 250.309V250.288ZM137.312 257.123L141.362 254.782C141.534 254.682 141.534 254.524 141.362 254.43L137.054 251.961C136.957 251.915 136.852 251.891 136.745 251.891C136.638 251.891 136.533 251.915 136.436 251.961L132.387 254.301C132.214 254.402 132.214 254.56 132.387 254.66L136.695 257.13C136.79 257.178 136.895 257.205 137.002 257.207C137.109 257.21 137.215 257.188 137.312 257.145V257.123ZM161.006 243.481L165.056 241.14C165.228 241.04 165.228 240.882 165.056 240.781L160.748 238.319C160.654 238.269 160.549 238.243 160.443 238.243C160.336 238.243 160.231 238.269 160.137 238.319L156.081 240.659C155.908 240.76 155.908 240.918 156.081 241.011L160.389 243.481C160.483 243.527 160.586 243.551 160.691 243.549C160.796 243.548 160.899 243.522 160.992 243.474L161.006 243.481ZM155.09 246.891L159.139 244.551C159.312 244.45 159.319 244.292 159.139 244.192L154.831 241.729C154.736 241.679 154.63 241.653 154.523 241.653C154.415 241.653 154.309 241.679 154.214 241.729L150.164 244.07C149.992 244.17 149.985 244.328 150.164 244.429L154.472 246.891C154.568 246.941 154.674 246.967 154.781 246.967C154.889 246.967 154.995 246.941 155.09 246.891ZM166.93 240.056L170.986 237.715C171.025 237.704 171.06 237.681 171.084 237.648C171.109 237.616 171.122 237.576 171.122 237.536C171.122 237.495 171.109 237.456 171.084 237.423C171.06 237.391 171.025 237.368 170.986 237.356L166.678 234.894C166.583 234.844 166.477 234.818 166.37 234.818C166.262 234.818 166.156 234.844 166.061 234.894L162.011 237.234C161.839 237.335 161.839 237.493 162.011 237.586L166.283 240.056C166.38 240.107 166.487 240.134 166.596 240.134C166.705 240.134 166.812 240.107 166.908 240.056H166.93ZM196.633 190.988C196.729 191.038 196.835 191.064 196.942 191.064C197.05 191.064 197.156 191.038 197.251 190.988L201.308 188.647C201.48 188.547 201.48 188.389 201.308 188.295L200.173 187.635C200.077 187.589 199.971 187.565 199.864 187.565C199.758 187.565 199.652 187.589 199.556 187.635L195.506 189.976C195.334 190.076 195.334 190.234 195.506 190.335L196.633 190.988ZM167.36 209.728C167.455 209.776 167.56 209.801 167.666 209.801C167.772 209.801 167.876 209.776 167.971 209.728L172.027 207.387C172.2 207.287 172.2 207.129 172.027 207.028L167.719 204.558C167.623 204.512 167.518 204.488 167.411 204.488C167.304 204.488 167.198 204.512 167.102 204.558L163.052 206.899C163.016 206.912 162.985 206.936 162.962 206.967C162.94 206.999 162.928 207.036 162.928 207.075C162.928 207.113 162.94 207.151 162.962 207.182C162.985 207.214 163.016 207.238 163.052 207.251L167.36 209.728ZM179.2 202.892C179.297 202.938 179.402 202.962 179.509 202.962C179.616 202.962 179.721 202.938 179.818 202.892L183.867 200.559C184.04 200.458 184.04 200.3 183.867 200.2L179.559 197.73C179.463 197.684 179.357 197.66 179.251 197.66C179.144 197.66 179.038 197.684 178.942 197.73L174.892 200.071C174.856 200.084 174.825 200.107 174.802 200.139C174.78 200.17 174.768 200.208 174.768 200.247C174.768 200.285 174.78 200.323 174.802 200.354C174.825 200.386 174.856 200.41 174.892 200.422L179.2 202.892ZM160.116 213.899C160.211 213.949 160.317 213.975 160.425 213.975C160.532 213.975 160.638 213.949 160.733 213.899L164.783 211.559C164.955 211.458 164.955 211.3 164.783 211.2L160.475 208.737C160.38 208.687 160.274 208.661 160.166 208.661C160.059 208.661 159.953 208.687 159.857 208.737L155.858 211.092C155.686 211.192 155.686 211.35 155.858 211.451L160.116 213.899ZM173.262 206.31C173.358 206.36 173.464 206.386 173.571 206.386C173.679 206.386 173.785 206.36 173.88 206.31L177.929 203.977C178.102 203.876 178.109 203.718 177.929 203.618L173.621 201.148C173.525 201.102 173.42 201.078 173.313 201.078C173.206 201.078 173.1 201.102 173.004 201.148L168.954 203.488C168.782 203.582 168.775 203.747 168.954 203.84L173.262 206.31ZM148.276 220.735C148.37 220.784 148.475 220.81 148.581 220.81C148.688 220.81 148.792 220.784 148.886 220.735L152.943 218.394C153.115 218.294 153.115 218.136 152.943 218.042L148.635 215.572C148.54 215.523 148.434 215.497 148.326 215.497C148.219 215.497 148.113 215.523 148.018 215.572L143.968 217.913C143.796 218.013 143.796 218.171 143.968 218.272L148.276 220.735ZM154.192 217.317C154.288 217.367 154.394 217.393 154.501 217.393C154.609 217.393 154.715 217.367 154.81 217.317L158.859 214.976C159.032 214.876 159.039 214.718 158.859 214.625L154.587 212.155C154.492 212.105 154.386 212.079 154.279 212.079C154.171 212.079 154.065 212.105 153.97 212.155L149.92 214.495C149.748 214.596 149.741 214.754 149.92 214.854L154.192 217.317ZM184.779 197.845C184.874 197.895 184.98 197.921 185.088 197.921C185.195 197.921 185.301 197.895 185.397 197.845L189.453 195.504C189.618 195.404 189.626 195.246 189.453 195.152L188.319 194.492C188.222 194.446 188.117 194.422 188.01 194.422C187.903 194.422 187.798 194.446 187.701 194.492L183.652 196.825C183.48 196.926 183.472 197.084 183.652 197.184L184.779 197.845ZM202.542 187.592C202.638 187.642 202.744 187.667 202.851 187.667C202.959 187.667 203.065 187.642 203.16 187.592L207.209 185.251C207.382 185.151 207.389 184.993 207.209 184.892L206.068 184.239C205.971 184.193 205.866 184.169 205.759 184.169C205.652 184.169 205.547 184.193 205.45 184.239L201.394 186.579C201.355 186.591 201.32 186.614 201.296 186.647C201.271 186.679 201.258 186.718 201.258 186.759C201.258 186.8 201.271 186.839 201.296 186.871C201.32 186.904 201.355 186.927 201.394 186.938L202.542 187.592ZM211.525 192.776C211.62 192.825 211.726 192.851 211.833 192.851C211.941 192.851 212.047 192.825 212.142 192.776L216.192 190.435C216.364 190.335 216.364 190.177 216.192 190.083L211.884 187.613C211.79 187.564 211.685 187.538 211.579 187.538C211.472 187.538 211.367 187.564 211.273 187.613L207.217 189.954C207.044 190.055 207.044 190.213 207.217 190.313L211.525 192.776ZM224.556 206.784L228.606 204.45C228.778 204.35 228.785 204.192 228.606 204.091L224.334 201.622C224.237 201.576 224.132 201.552 224.025 201.552C223.918 201.552 223.813 201.576 223.716 201.622L219.71 203.948C219.538 204.048 219.53 204.206 219.71 204.307L223.982 206.777C224.072 206.817 224.17 206.839 224.268 206.84C224.367 206.842 224.465 206.822 224.556 206.784ZM190.717 194.442C190.812 194.491 190.918 194.517 191.026 194.517C191.133 194.517 191.239 194.491 191.335 194.442L195.384 192.101C195.556 192 195.556 191.842 195.384 191.749L194.242 191.088C194.147 191.039 194.041 191.013 193.934 191.013C193.826 191.013 193.72 191.039 193.625 191.088L189.554 193.415C189.382 193.515 189.382 193.673 189.554 193.774L190.717 194.442ZM142.367 224.167C142.462 224.216 142.568 224.242 142.676 224.242C142.783 224.242 142.889 224.216 142.984 224.167L147.034 221.826C147.206 221.726 147.206 221.568 147.034 221.474L142.769 218.99C142.673 218.944 142.567 218.92 142.46 218.92C142.353 218.92 142.248 218.944 142.151 218.99L138.095 221.331C137.93 221.431 137.922 221.589 138.095 221.69L142.367 224.167Z" fill="#455A64"/>
<path d="M164.049 258.961L200.538 237.895C201.154 237.583 201.836 237.421 202.527 237.421C203.218 237.421 203.899 237.583 204.516 237.895L225.452 249.972C226.551 250.611 226.551 251.637 225.452 252.276L188.971 273.335C188.354 273.651 187.671 273.815 186.978 273.815C186.286 273.815 185.603 273.651 184.986 273.335L164.063 261.259C162.986 260.634 162.986 259.593 164.049 258.961Z" fill="#263238"/>
<path d="M157.875 99.2564C146.473 109.502 136.622 108.964 130.461 104.218C124.308 116.079 114.457 127.984 103.055 130.906L96.5431 148.497C96.5431 148.497 100.033 152.518 100.033 162.139C99.9982 166.171 99.4554 170.183 98.4171 174.079C97.2324 178.825 95.7031 183.736 95.7031 191.943C95.7031 197.5 96.4211 202.907 99.25 207.825C100.957 210.801 103.416 213.277 106.38 215.005L96.4785 209.261C93.3561 207.534 90.7625 204.99 88.9754 201.902C86.1608 196.976 85.4428 191.577 85.4428 186.012C85.4428 177.813 86.9722 172.894 88.1569 168.141C89.1894 164.247 89.725 160.237 89.7508 156.208C89.7508 146.587 86.2614 142.566 86.2614 142.566L92.7664 124.975C104.168 122.053 114.019 110.148 120.172 98.2871C126.333 103.033 136.184 103.572 147.586 93.3257L157.875 99.2564Z" fill="#459BDD"/>
<path opacity="0.8" d="M123.801 100.376L120.211 98.2871C121.31 99.1386 122.517 99.8411 123.801 100.376Z" fill="white"/>
<path opacity="0.85" d="M147.603 93.3401C138.219 101.769 129.89 102.897 123.801 100.391L130.464 104.232C136.625 108.978 146.476 109.517 157.877 99.2708L147.603 93.3401Z" fill="white"/>
<path opacity="0.65" d="M120.189 98.2871C114.035 110.148 104.184 122.053 92.7826 124.975L103.057 130.906C114.459 127.984 124.31 116.079 130.463 104.218L120.189 98.2871Z" fill="white"/>
<path opacity="0.55" d="M92.7807 124.975L86.2756 142.566L96.543 148.497L103.055 130.906L92.7807 124.975Z" fill="white"/>
<path opacity="0.4" d="M99.2516 207.825C96.437 202.907 95.7047 197.5 95.7047 191.943C95.7047 183.736 97.234 178.825 98.4187 174.079C99.457 170.183 99.9998 166.171 100.034 162.139C100.034 152.518 96.5447 148.497 96.5447 148.497L86.2773 142.566C86.2773 142.566 89.7668 146.587 89.7668 156.208C89.7316 160.238 89.1863 164.248 88.1441 168.141C86.9594 172.894 85.4301 177.813 85.4301 186.012C85.4301 191.577 86.1481 196.976 88.977 201.894C90.7641 204.983 93.3577 207.527 96.4801 209.254L106.381 214.998C103.418 213.272 100.96 210.799 99.2516 207.825Z" fill="white"/>
<path opacity="0.05" d="M99.2516 207.825C96.437 202.907 95.7047 197.5 95.7047 191.943C95.7047 183.736 97.234 178.825 98.4187 174.079C99.457 170.183 99.9998 166.171 100.034 162.139C100.034 152.518 96.5447 148.497 96.5447 148.497L86.2773 142.566C86.2773 142.566 89.7668 146.587 89.7668 156.208C89.7316 160.238 89.1863 164.248 88.1441 168.141C86.9594 172.894 85.4301 177.813 85.4301 186.012C85.4301 191.577 86.1481 196.976 88.977 201.894C90.7641 204.983 93.3577 207.527 96.4801 209.254L106.381 214.998C103.418 213.272 100.96 210.799 99.2516 207.825Z" fill="black"/>
<path d="M130.463 219.873C113.432 220.067 103.674 215.565 99.2439 207.825C96.4365 202.907 95.7041 197.5 95.7041 191.936C95.7041 183.736 97.2263 178.832 98.4182 174.079C99.4565 170.185 99.9993 166.176 100.034 162.146C100.034 152.525 96.5442 148.504 96.5442 148.504L103.056 130.906C114.458 127.984 124.309 116.072 130.463 104.218C136.623 108.964 146.474 109.502 157.876 99.2563L164.388 109.308C162.15 114.935 160.965 120.924 160.891 126.978C160.831 130.399 161.381 133.803 162.514 137.03C163.699 140.405 165.228 143.557 165.228 151.757C165.209 158.572 164.009 165.333 161.681 171.738C157.244 184.634 147.501 200.394 130.463 219.873Z" fill="#459BDD"/>
<path opacity="0.75" d="M130.463 219.873C113.432 220.067 103.674 215.565 99.2439 207.825C96.4365 202.907 95.7041 197.5 95.7041 191.936C95.7041 183.736 97.2263 178.832 98.4182 174.079C99.4565 170.185 99.9993 166.176 100.034 162.146C100.034 152.525 96.5442 148.504 96.5442 148.504L103.056 130.906C114.458 127.984 124.309 116.072 130.463 104.218C136.623 108.964 146.474 109.502 157.876 99.2563L164.388 109.308C162.15 114.935 160.965 120.924 160.891 126.978C160.831 130.399 161.381 133.803 162.514 137.03C163.699 140.405 165.228 143.557 165.228 151.757C165.209 158.572 164.009 165.333 161.681 171.738C157.244 184.634 147.501 200.394 130.463 219.873Z" fill="white"/>
<path d="M128.444 215.45C115.254 215.292 106.725 211.99 103.092 205.635C101.038 202.045 100.126 197.823 100.126 191.936C100.126 186.802 100.851 181.695 102.28 176.764C102.417 176.219 102.56 175.687 102.689 175.149C103.825 170.907 104.413 166.537 104.441 162.146C104.441 155.131 102.761 150.543 101.426 148.001L106.452 134.503C118.658 130.26 127.482 118.204 132.156 110.299C134.674 111.37 137.383 111.917 140.119 111.908C145.633 111.908 151.241 109.854 156.841 105.797L159.462 109.861C157.553 115.379 156.545 121.169 156.475 127.007C156.411 130.933 157.043 134.84 158.342 138.545C158.478 138.933 158.622 139.321 158.765 139.709C159.814 142.581 160.804 145.287 160.804 151.8C160.78 158.123 159.663 164.395 157.502 170.338C153.143 182.99 143.371 198.168 128.444 215.45Z" fill="#459BDD"/>
<path opacity="0.4" d="M128.444 215.45C115.254 215.292 106.725 211.99 103.092 205.635C101.038 202.045 100.126 197.823 100.126 191.936C100.126 186.802 100.851 181.695 102.28 176.764C102.417 176.219 102.56 175.687 102.689 175.149C103.825 170.907 104.413 166.537 104.441 162.146C104.441 155.131 102.761 150.543 101.426 148.001L106.452 134.503C118.658 130.26 127.482 118.204 132.156 110.299C134.674 111.37 137.383 111.917 140.119 111.908C145.633 111.908 151.241 109.854 156.841 105.797L159.462 109.861C157.553 115.379 156.545 121.169 156.475 127.007C156.411 130.933 157.043 134.84 158.342 138.545C158.478 138.933 158.622 139.321 158.765 139.709C159.814 142.581 160.804 145.287 160.804 151.8C160.78 158.123 159.663 164.395 157.502 170.338C153.143 182.99 143.371 198.168 128.444 215.45Z" fill="white"/>
<path opacity="0.15" d="M128.444 215.45C115.254 215.292 106.725 211.99 103.092 205.635C101.038 202.045 100.126 197.823 100.126 191.936C100.126 186.802 100.851 181.695 102.28 176.764C102.417 176.219 102.56 175.687 102.689 175.149C103.825 170.907 104.413 166.537 104.441 162.146C104.441 155.131 102.761 150.543 101.426 148.001L106.452 134.503C118.658 130.26 127.482 118.204 132.156 110.299C134.674 111.37 137.383 111.917 140.119 111.908C145.633 111.908 151.241 109.854 156.841 105.797L159.462 109.861C157.553 115.379 156.545 121.169 156.475 127.007C156.411 130.933 157.043 134.84 158.342 138.545C158.478 138.933 158.622 139.321 158.765 139.709C159.814 142.581 160.804 145.287 160.804 151.8C160.78 158.123 159.663 164.395 157.502 170.338C153.143 182.99 143.371 198.168 128.444 215.45Z" fill="black"/>
<path opacity="0.8" d="M106.115 209.29C110.609 213.253 118.077 215.328 128.444 215.45L121.832 211.681C116.497 211.753 111.187 210.945 106.115 209.29Z" fill="white"/>
<path opacity="0.15" d="M156.01 107.872L159.456 109.861L156.836 105.797L155.335 106.831L156.01 107.872Z" fill="black"/>
<path d="M154.888 136.557C153.59 132.851 152.958 128.944 153.022 125.018C153.091 119.18 154.1 113.391 156.008 107.872L155.334 106.831C150.236 110.199 145.138 111.908 140.112 111.908C137.376 111.917 134.667 111.37 132.149 110.299C127.475 118.197 118.651 130.26 106.445 134.503L101.419 148.001C102.754 150.543 104.435 155.131 104.435 162.146C104.406 166.537 103.818 170.907 102.683 175.149C102.553 175.688 102.41 176.219 102.273 176.765C100.844 181.695 100.119 186.802 100.119 191.936C100.119 197.823 101.031 202.045 103.085 205.635C104.166 207.484 105.636 209.077 107.393 210.302C111.801 212.313 117.674 213.366 125.012 213.461C139.932 196.172 149.704 181.001 154.063 168.35C156.225 162.407 157.342 156.135 157.365 149.811C157.365 143.299 156.367 140.592 155.319 137.72C155.168 137.332 155.025 136.944 154.888 136.557Z" fill="#455A64"/>
<path d="M106.445 134.503L101.419 148.001C102.754 150.543 104.435 155.131 104.435 162.146C104.406 166.537 103.818 170.907 102.683 175.149C102.553 175.687 102.41 176.219 102.273 176.764C100.844 181.695 100.119 186.802 100.119 191.936C100.119 197.823 101.031 202.045 103.085 205.635C104.166 207.484 105.636 209.077 107.393 210.302C111.801 212.313 117.674 213.366 125.012 213.461V163.704L132.192 161.55V110.299C130.073 113.892 127.672 117.31 125.012 120.524C120.223 126.289 113.977 131.882 106.445 134.503Z" fill="#37474F"/>
<path d="M142.251 145.338C142.174 145.197 142.083 145.064 141.978 144.943L141.943 144.9C141.733 144.672 141.491 144.476 141.225 144.318L138.834 142.94C138.402 142.698 137.938 142.519 137.455 142.408C137.166 142.345 136.874 142.299 136.579 142.272V135.192C136.579 131.638 135.236 128.831 132.896 127.481C130.555 126.131 127.87 126.361 125.12 127.969C120.008 130.92 116.008 138.122 116.008 144.361V152.719L111.241 155.469C111.099 155.55 110.965 155.644 110.839 155.749L110.71 155.849C110.514 156.005 110.355 156.201 110.242 156.424C110.13 156.647 110.066 156.892 110.056 157.142V185.811C110.059 185.935 110.076 186.058 110.106 186.177C110.257 186.66 110.575 187.073 111.004 187.341L111.27 187.513L112.44 188.188L113.668 188.906C114.147 189.171 114.666 189.358 115.204 189.459C116.673 189.783 118.21 189.585 119.548 188.899L141.253 176.37C141.589 176.221 141.879 175.986 142.093 175.688C142.308 175.39 142.439 175.04 142.474 174.675V146.02C142.457 145.778 142.38 145.543 142.251 145.338ZM120.675 144.361C120.675 139.795 123.777 134.151 127.446 132.033C128.695 131.315 129.816 131.128 130.526 131.545C131.366 132.026 131.862 133.39 131.862 135.192V143.55L125.694 147.14L120.668 150.012L120.675 144.361Z" fill="#263238"/>
<path d="M144.953 147.283C144.918 146.918 144.787 146.568 144.573 146.27C144.358 145.972 144.068 145.737 143.732 145.589L141.341 144.203C140.431 143.738 139.423 143.496 138.401 143.496C137.379 143.496 136.371 143.738 135.461 144.203L113.755 156.732C113.419 156.882 113.129 157.119 112.915 157.418C112.7 157.717 112.569 158.068 112.535 158.434V187.104C112.567 187.471 112.697 187.822 112.912 188.122C113.127 188.421 113.418 188.657 113.755 188.805L116.146 190.191C117.058 190.651 118.065 190.891 119.087 190.891C120.108 190.891 121.115 190.651 122.027 190.191L143.732 177.655C144.067 177.506 144.357 177.271 144.572 176.973C144.786 176.675 144.918 176.326 144.953 175.96V147.283Z" fill="#459BDD"/>
<path opacity="0.4" d="M116.146 161.55L113.755 160.114C112.125 159.181 112.125 157.659 113.755 156.718L135.46 144.189C136.371 143.724 137.378 143.481 138.401 143.481C139.423 143.481 140.431 143.724 141.341 144.189L143.732 145.575C145.354 146.508 145.354 148.03 143.732 148.964L122.063 161.55C121.146 162.016 120.132 162.259 119.104 162.259C118.076 162.259 117.063 162.016 116.146 161.55Z" fill="white"/>
<path opacity="0.1" d="M119.09 162.218V190.888C118.064 190.903 117.05 190.656 116.146 190.17L113.748 188.834C113.411 188.685 113.12 188.448 112.906 188.147C112.693 187.846 112.564 187.493 112.535 187.125V158.434C112.567 158.799 112.697 159.149 112.911 159.447C113.124 159.745 113.413 159.98 113.748 160.128L116.146 161.514C117.051 161.998 118.065 162.241 119.09 162.218Z" fill="black"/>
<path d="M134.886 176.398L129.702 179.392L130.506 170.015C129.888 169.685 129.494 168.881 129.494 167.725C129.494 165.657 130.743 163.259 132.294 162.369C133.845 161.478 135.094 162.419 135.094 164.523C135.062 165.744 134.713 166.937 134.082 167.983L134.886 176.398Z" fill="#455A64"/>
<path d="M134.886 176.398L130.19 173.691L129.702 179.392L134.886 176.398Z" fill="#37474F"/>
<path d="M132.293 162.369C131.164 163.13 130.323 164.247 129.902 165.542L134.081 167.955C134.713 166.908 135.061 165.716 135.093 164.494C135.093 162.419 133.844 161.471 132.293 162.369Z" fill="#37474F"/>
<path d="M139.087 147.908V136.42C139.087 132.83 137.744 130.059 135.404 128.709C133.063 127.359 130.378 127.596 127.628 129.197C122.516 132.148 118.516 139.35 118.516 145.589V157.113C118.537 157.323 118.615 157.524 118.742 157.694C118.868 157.863 119.039 157.995 119.234 158.075C119.748 158.333 120.315 158.468 120.889 158.468C121.464 158.468 122.031 158.333 122.544 158.075C122.74 157.995 122.911 157.863 123.037 157.694C123.164 157.524 123.241 157.323 123.262 157.113V145.625C123.262 141.058 126.364 135.415 130.033 133.297C131.282 132.579 132.41 132.399 133.121 132.809C133.953 133.29 134.456 134.654 134.456 136.456V147.944C134.479 148.152 134.557 148.35 134.684 148.517C134.81 148.684 134.98 148.814 135.174 148.892C135.687 149.15 136.254 149.284 136.829 149.284C137.404 149.284 137.971 149.15 138.484 148.892C138.677 148.811 138.844 148.681 138.97 148.514C139.097 148.348 139.176 148.151 139.202 147.944L139.087 147.908Z" fill="#E0E0E0"/>
<path d="M166.986 198.319L170.146 196.495L171.395 194.973L168.236 196.797L166.986 198.319Z" fill="#459BDD"/>
<path opacity="0.4" d="M166.986 198.319L170.146 196.495L171.395 194.973L168.236 196.797L166.986 198.319Z" fill="black"/>
<path d="M175.579 203.28L178.738 201.456L181.381 199.116L178.221 200.939L175.579 203.28Z" fill="#459BDD"/>
<path opacity="0.4" d="M175.579 203.28L178.738 201.456L181.381 199.116L178.221 200.939L175.579 203.28Z" fill="black"/>
<path d="M202.478 209.584C203.225 210.586 203.678 211.778 203.784 213.023C203.043 212.018 202.591 210.828 202.478 209.584ZM209.823 209.678C208.76 202.44 204.876 195.318 200.237 192.603C198.012 191.318 195.929 191.275 194.307 192.237L191.334 193.953L191.162 194.054C191.029 194.126 190.902 194.207 190.781 194.298C190.527 194.465 190.287 194.652 190.063 194.858L189.963 194.951C189.87 195.045 189.776 195.152 189.69 195.253C189.604 195.353 189.467 195.511 189.374 195.641C189.16 195.923 188.965 196.221 188.793 196.531C188.706 196.689 188.613 196.854 188.534 197.026L162.55 182.027L159.39 183.844V185.861L159.663 186.012L159.915 186.163V186.587L159.39 186.888V188.059L163.21 196.136L166.987 198.29L168.236 196.768L171.568 198.764L173.478 202.038L175.589 203.251L178.224 200.911L181.462 202.785L182.553 207.272L187.981 210.41C188.257 211.554 188.6 212.681 189.008 213.784L189.13 214.136C190.939 218.875 193.811 222.939 197.028 224.813C197.42 225.037 197.828 225.232 198.249 225.395C198.472 225.483 198.7 225.56 198.931 225.624C199.129 225.68 199.331 225.726 199.534 225.761C200.17 225.879 200.822 225.879 201.458 225.761L201.724 225.696C201.85 225.675 201.972 225.638 202.09 225.588L202.37 225.481C202.471 225.443 202.57 225.397 202.664 225.344L202.93 225.208L203.066 225.129L203.131 225.093L206.111 223.377C208.509 221.984 210.067 218.466 210.067 213.49C210.069 212.207 209.976 210.925 209.787 209.656L209.823 209.678Z" fill="#459BDD"/>
<path d="M201.515 215.687C200.273 214.969 199.261 212.815 199.261 210.912C199.261 209.01 200.273 208.04 201.515 208.758C202.757 209.476 203.777 211.63 203.777 213.54C203.777 215.45 202.765 216.405 201.515 215.687ZM206.635 211.501C205.572 204.264 201.68 197.105 197.042 194.427C194.888 193.192 192.914 193.099 191.298 193.953L191.126 194.054C190.993 194.126 190.866 194.207 190.745 194.298C190.491 194.465 190.251 194.652 190.027 194.858L189.927 194.951C189.833 195.045 189.74 195.152 189.654 195.253C189.568 195.353 189.431 195.511 189.338 195.641C189.123 195.923 188.929 196.221 188.756 196.531C188.67 196.689 188.577 196.854 188.498 197.026C188.032 198.003 187.694 199.036 187.493 200.099L159.397 183.844V185.861L159.67 186.012L159.921 186.163V186.587L159.397 186.888V188.059L163.217 196.136L166.994 198.29L168.243 196.768L171.575 198.764L173.484 202.038L175.595 203.251L178.23 200.911L181.469 202.785L182.56 207.272L187.988 210.41C188.264 211.554 188.607 212.681 189.015 213.784L189.137 214.136C190.946 218.875 193.818 222.939 197.035 224.813C197.426 225.037 197.834 225.232 198.255 225.395C198.479 225.483 198.706 225.56 198.938 225.624C199.136 225.68 199.337 225.726 199.541 225.761C200.177 225.879 200.829 225.879 201.465 225.761L201.731 225.696C201.856 225.675 201.979 225.638 202.097 225.588L202.377 225.481C202.478 225.443 202.577 225.397 202.671 225.344L202.937 225.208L203.073 225.129L203.138 225.093C205.435 223.657 206.915 220.175 206.915 215.314C206.912 214.038 206.819 212.764 206.635 211.501Z" fill="#459BDD"/>
<path opacity="0.4" d="M203.777 213.512C203.777 215.436 202.765 216.384 201.523 215.666C200.281 214.948 199.261 212.794 199.261 210.891C199.261 208.988 200.273 208.019 201.523 208.737C201.894 208.954 202.218 209.242 202.478 209.584C202.587 210.829 203.04 212.02 203.784 213.023C203.793 213.186 203.79 213.349 203.777 213.512Z" fill="black"/>
<path opacity="0.4" d="M210.082 213.512C210.082 218.487 208.523 222.006 206.125 223.399L203.146 225.115C205.443 223.679 206.922 220.196 206.922 215.335C206.919 214.052 206.823 212.771 206.635 211.501C205.573 204.264 201.681 197.105 197.043 194.427C194.889 193.192 192.914 193.099 191.299 193.953L194.271 192.237C195.923 191.275 197.976 191.318 200.202 192.604C204.84 195.296 208.725 202.476 209.787 209.656C209.982 210.932 210.08 212.221 210.082 213.512Z" fill="white"/>
<path d="M206.923 215.335C206.923 220.196 205.444 223.664 203.146 225.115L206.126 223.399C208.524 222.006 210.082 218.487 210.082 213.512C210.082 213.325 210.082 213.138 210.082 212.959L206.93 214.783C206.915 214.962 206.923 215.149 206.923 215.335Z" fill="#459BDD"/>
<path opacity="0.1" d="M206.923 215.335C206.923 220.196 205.444 223.664 203.146 225.115L206.126 223.399C208.524 222.006 210.082 218.487 210.082 213.512C210.082 213.325 210.082 213.138 210.082 212.959L206.93 214.783C206.915 214.962 206.923 215.149 206.923 215.335Z" fill="black"/>
<path opacity="0.15" d="M187.644 202.167V203.194L159.39 186.888L159.915 186.587V186.156L187.644 202.167Z" fill="black"/>
<path opacity="0.15" d="M187.644 202.598V203.194L159.39 186.888L159.915 186.587V186.579L187.644 202.598Z" fill="black"/>
<path opacity="0.15" d="M199.936 223.427C198.866 223.398 197.823 223.086 196.913 222.523C192.304 219.859 188.556 211.946 188.556 204.881C188.556 200.76 189.805 197.701 191.981 196.423C193.503 195.547 195.298 195.655 197.179 196.739C201.781 199.403 205.529 207.315 205.529 214.38C205.529 218.502 204.28 221.56 202.105 222.839C201.448 223.226 200.699 223.429 199.936 223.427ZM194.192 196.366C193.522 196.365 192.863 196.54 192.282 196.876C190.301 198.017 189.123 201.011 189.123 204.881C189.123 211.781 192.713 219.485 197.215 222.063C198.924 223.054 200.532 223.162 201.882 222.386C203.864 221.245 205.041 218.251 205.041 214.38C205.041 207.481 201.451 199.769 196.949 197.199C196.109 196.678 195.145 196.39 194.156 196.366H194.192Z" fill="black"/>
<path opacity="0.5" d="M188.534 197.026C188.068 198.003 187.73 199.036 187.529 200.099L159.397 183.844L162.557 182.027L188.534 197.026Z" fill="white"/>
<path d="M295.816 276.43C295.923 277.414 296.06 280.171 301.057 280.86C306.054 281.549 309.199 279.891 310.535 277.486C311.87 275.08 311.561 273.12 311.77 270.894C311.978 268.668 313.823 267.484 314.355 266.335C315.13 264.648 313.996 262.027 313.996 262.027L295.816 276.43Z" fill="#263238"/>
<path d="M259.319 268.633C259.201 269.035 259.17 269.458 259.225 269.873C259.281 270.288 259.423 270.688 259.642 271.045C260.761 271.93 262.048 272.578 263.426 272.948C264.804 273.318 266.243 273.404 267.655 273.199C270.704 272.784 273.609 271.644 276.127 269.875C278.058 268.581 280.344 267.921 282.668 267.986C285.073 267.907 286.832 267.376 287.019 266.744C287.335 265.631 287.335 264.935 286.811 264.964L259.319 268.633Z" fill="#263238"/>
<path d="M312.804 258.178C312.18 262.738 303.341 262.372 304.059 258.731L302.487 247.667L312.488 247.976L312.804 258.178Z" fill="#FFA8A7"/>
<path d="M296.146 274.19C296.591 273.364 297.876 272.187 298.443 271.447C301.44 267.632 303.248 263.02 303.642 258.186C303.642 257.92 303.692 257.403 303.965 257.238C304.238 257.073 304.503 257.303 304.791 257.432C305.285 257.641 305.807 257.777 306.341 257.834C308.108 258.035 310.068 257.611 310.506 257.669C310.944 257.726 310.958 258.782 310.929 259.93C311.561 259.536 311.769 258.746 312.33 258.286C312.638 258.035 312.775 258.028 312.767 257.618C312.767 257.353 312.767 257.109 312.767 256.843C313.227 256.714 313.608 258.451 313.981 259.78C314.412 261.323 314.95 263.061 314.347 264.626C313.956 265.479 313.474 266.288 312.911 267.039C311.957 268.344 311.336 269.862 311.102 271.462C311.03 272.18 311.102 272.898 310.987 273.572C310.822 274.747 310.323 275.849 309.551 276.748C308.778 277.648 307.764 278.308 306.629 278.649C303.577 279.596 299.003 279.446 296.318 277.32C295.385 276.581 295.701 274.994 296.146 274.19Z" fill="#37474F"/>
<path d="M284.773 257.417C282.346 259.299 279.431 260.404 276.451 259.047L275.733 240.43L285.785 242.232L284.773 257.417Z" fill="#FFA8A7"/>
<path d="M261.351 265.416C262.019 265.2 262.672 264.964 263.319 264.698C265.124 263.963 266.867 263.084 268.531 262.07C269.249 261.625 269.967 261.158 270.685 260.634C271.403 260.11 272.121 259.543 272.839 258.968C273.213 258.64 273.552 258.274 273.852 257.877C274.456 257.136 274.963 256.32 275.36 255.45C275.419 255.245 275.552 255.069 275.733 254.955C275.854 254.912 275.985 254.903 276.112 254.928C276.238 254.953 276.355 255.012 276.451 255.098C276.624 255.239 276.809 255.364 277.004 255.472L277.593 255.716C278.221 255.972 278.884 256.135 279.56 256.197C282.102 256.419 282.181 255.91 282.288 256.728C282.313 257.034 282.313 257.341 282.288 257.647C283.631 257.425 284.686 256.994 284.744 256.484L284.902 254.861C286.237 254.739 286.338 257.13 286.769 259.815C287.12 261.969 287.645 263.556 287.041 265.157C285.024 266.917 281.463 266.493 279.438 266.823C276.566 267.297 275.223 269.422 271.238 270.801C264.776 273.027 260.748 270.463 259.542 269.365C258.759 267.979 258.601 266.292 261.351 265.416Z" fill="#37474F"/>
<path d="M309.982 147.319C310.492 155.217 311.418 166.784 311.741 175.91C312.345 193.056 312.108 212.607 312.108 212.607C313.067 216.203 313.685 219.881 313.953 223.592C314.362 234.549 314.29 259.148 314.29 259.148C314.29 259.148 309.745 263.721 302.953 260.131C302.953 260.131 296.929 225.667 295.249 214.84C293.641 204.537 290.503 183.966 290.503 183.966L289.067 213.203C290.157 217.797 290.518 222.534 290.137 227.24C289.771 232.266 286.906 257.044 286.906 257.044C284.292 259.492 276.682 258.157 275.016 256.211C275.016 256.211 272.352 219.593 272.05 214.294C271.411 202.857 269.71 160.2 270.564 153.58C271.419 146.96 309.982 147.319 309.982 147.319Z" fill="#263238"/>
<path d="M290.502 183.937L288.506 170.74C288.506 170.74 283.027 169.707 279.021 166.734C279.021 166.734 280.579 170.259 286.639 172.772L288.635 185.065L289.109 213.174L290.502 183.937Z" fill="black"/>
<path d="M301.696 94.3668C302.063 95.8531 304.568 95.6233 305.689 95.3433C306.353 95.2037 306.943 94.8258 307.348 94.2808C307.753 93.7358 307.944 93.0615 307.886 92.3851C308.452 92.2337 308.963 91.9221 309.357 91.4876C309.623 91.1374 309.774 90.7145 309.792 90.2756C309.81 89.8367 309.694 89.4028 309.458 89.0321C309.913 88.7085 310.27 88.2661 310.49 87.7532C310.711 87.2404 310.786 86.6768 310.707 86.1242C310.554 85.3242 310.115 84.6072 309.472 84.1066C308.851 83.603 308.075 83.3269 307.275 83.324C307.017 83.324 306.758 83.8409 307.132 83.884C307.714 83.9969 308.262 84.2426 308.733 84.602C309.223 84.9451 309.603 85.4244 309.824 85.9806C309.962 86.4222 309.962 86.8955 309.823 87.337C309.685 87.7784 309.414 88.167 309.049 88.4505C308.918 88.286 308.771 88.1345 308.611 87.9982C308.111 87.5514 307.456 87.3193 306.787 87.352C306.54 87.3458 306.296 87.4101 306.083 87.5372C305.871 87.6643 305.699 87.849 305.588 88.07C305.416 88.63 305.997 89.1039 306.428 89.348C306.741 89.5248 307.088 89.6329 307.445 89.6651C307.803 89.6973 308.164 89.6528 308.503 89.5347C308.559 89.5163 308.614 89.4947 308.668 89.4701C308.706 89.5447 308.74 89.6214 308.769 89.6998C309.156 90.7266 308.532 91.3656 307.692 91.6528C307.182 90.5973 305.803 89.8291 304.698 90.3819C304.557 90.4431 304.434 90.5382 304.34 90.6585C304.245 90.7789 304.182 90.9208 304.156 91.0716C304.129 91.2224 304.141 91.3773 304.189 91.5226C304.237 91.6679 304.321 91.7989 304.432 91.9041C304.892 92.3387 305.501 92.5803 306.134 92.579C306.423 92.6003 306.713 92.6003 307.002 92.579C307.066 93.0391 306.959 93.5067 306.701 93.8929C306.441 94.1873 306.118 94.42 305.757 94.574C305.395 94.7281 305.004 94.7995 304.612 94.7832C303.72 94.8547 302.836 94.5738 302.149 94.0006C301.941 93.8211 301.639 94.1442 301.696 94.3668ZM308.252 88.8526C308.018 88.919 307.773 88.9328 307.533 88.8931C307.294 88.8534 307.066 88.7611 306.866 88.6228C306.564 88.4218 306.227 88.1274 306.766 88.0915C307.055 88.0948 307.34 88.1653 307.598 88.2973C307.856 88.4294 308.08 88.6195 308.252 88.8526ZM306.751 91.8323C306.447 91.8449 306.143 91.8159 305.846 91.7461C305.631 91.6959 304.691 91.2148 305.172 91.0281C305.538 90.863 306.184 91.2292 306.442 91.4589C306.561 91.5691 306.665 91.6947 306.751 91.8323Z" fill="#263238"/>
<path d="M303.44 66.5945C303.598 66.6168 303.753 66.6479 303.907 66.6878C303.797 66.2141 303.851 65.7171 304.06 65.2777C304.268 64.8384 304.619 64.4826 305.056 64.2682C305.614 64.0444 306.237 64.0466 306.793 64.2745C307.349 64.5023 307.795 64.9379 308.036 65.4888L304.783 66.975C305.84 67.3512 306.721 68.1024 307.26 69.086C308.15 70.924 306.973 74.83 305.788 79.6406C305.121 82.6744 304.245 85.6588 303.168 88.5725C302.622 90.0085 301.638 90.0085 301.638 90.0085V85.2051L301.846 81.2202C301.846 81.2202 299.29 77.7235 299.01 74.8587C298.644 71.1753 299.42 69.6675 299.42 69.6675L303.44 66.5945Z" fill="#263238"/>
<path d="M285.763 62.4661C287.368 62.4689 288.937 62.9479 290.27 63.8424C291.603 64.737 292.64 66.0068 293.251 67.4912C293.862 68.9757 294.019 70.608 293.702 72.1817C293.385 73.7554 292.609 75.1997 291.471 76.3317C290.332 77.4638 288.884 78.2329 287.309 78.5415C285.733 78.8501 284.102 78.6845 282.621 78.0656C281.14 77.4467 279.875 76.4023 278.988 75.0646C278.1 73.7269 277.63 72.1561 277.635 70.5508C277.638 69.4862 277.851 68.4327 278.261 67.4503C278.671 66.4679 279.27 65.5758 280.025 64.8251C280.78 64.0744 281.675 63.4797 282.659 63.0749C283.644 62.6701 284.699 62.4633 285.763 62.4661Z" fill="#263238"/>
<path d="M301.696 80.5883C302.658 81.4212 303.44 79.2672 304.252 78.4343C305.063 77.6014 307.691 76.4455 308.998 79.217C310.304 81.9884 307.791 85.8728 305.817 86.7847C302.945 88.1273 301.638 85.2194 301.638 85.2194V97.2459C298.601 102.717 292.031 101.439 288.922 102.207C288.458 100.809 288.458 99.2979 288.922 97.8993V93.9862C287.615 94.2374 286.279 94.3074 284.952 94.1944C282.324 93.778 280.917 91.6168 280.134 88.7735C278.87 84.2071 278.605 76.5316 280.364 67.6643C283.308 65.3954 293.252 65.7688 299.405 69.646C298.974 77.544 300.733 79.7554 301.696 80.5883Z" fill="#FFA8A7"/>
<path d="M288.93 93.9863C288.93 93.9863 294.789 92.8303 296.828 91.7461C298.048 91.1303 299.05 90.1556 299.7 88.9531C299.387 90.1521 298.835 91.2755 298.077 92.2559C296.576 94.1658 288.937 95.5515 288.937 95.5515L288.93 93.9863Z" fill="#F28F8F"/>
<path d="M276.35 75.8424C276.399 76.3057 276.587 76.7435 276.888 77.0989C276.988 77.2347 277.061 77.3882 277.104 77.5513C277.255 78.6978 277.495 79.8309 277.822 80.9402C278.086 81.6767 278.574 82.3118 279.218 82.7561C279.862 83.2005 280.629 83.4317 281.412 83.4173C281.825 83.4374 282.239 83.4109 282.646 83.3383C282.677 83.3432 282.709 83.3432 282.74 83.3383C283.097 83.2677 283.441 83.1418 283.759 82.965H283.817L283.91 82.9075L284.011 82.8286C284.048 82.8113 284.083 82.7869 284.111 82.7568C284.154 82.7346 284.193 82.7055 284.226 82.6706L284.327 82.5701L284.528 82.3762C284.868 81.9987 285.147 81.5698 285.353 81.1054C285.906 79.935 285.798 78.2764 286.66 78.1113C286.696 78.1147 286.732 78.1147 286.768 78.1113H286.883C288.06 78.1544 287.888 79.9494 288.52 81.249C288.87 82.0718 289.463 82.7675 290.221 83.2425C290.978 83.7175 291.863 83.949 292.756 83.9056H293.079H293.345C293.549 83.8944 293.753 83.8704 293.955 83.8338L294.149 83.7907L294.336 83.7404H294.45C294.699 83.66 294.939 83.5566 295.168 83.4317C295.247 83.3742 295.326 83.3312 295.405 83.2809C295.546 83.1738 295.68 83.0587 295.807 82.9363C296.144 82.5956 296.412 82.1934 296.597 81.7516C296.947 80.6648 297.204 79.5503 297.365 78.42C297.403 78.2488 297.471 78.0857 297.567 77.939C297.88 77.6103 298.088 77.1951 298.162 76.7471C298.182 76.5129 298.122 76.279 297.991 76.0835C297.861 75.8879 297.668 75.7422 297.444 75.6701L296.827 75.5696C294.824 75.2896 292.21 75.1316 290.638 75.5265C288.656 76.0219 287.96 76.6394 286.868 76.6035C285.777 76.5676 285.203 75.8855 283.343 75.2465C281.907 74.7295 279.423 74.708 277.556 74.8372C277.348 74.8372 277.168 74.8372 276.974 74.8803C276.666 74.8229 276.321 75.3039 276.35 75.8424ZM289.238 77.3215C289.392 77.1358 289.586 76.9862 289.805 76.8835C289.839 76.8616 289.875 76.8424 289.913 76.8261H289.963C290.058 76.7901 290.152 76.7494 290.243 76.704C290.322 76.704 290.415 76.6466 290.501 76.6107C290.778 76.5089 291.061 76.425 291.349 76.3594L291.686 76.2876C291.966 76.2373 292.26 76.1942 292.548 76.1655H292.756C294.644 76.0506 295.815 76.5173 296.231 76.8835C296.647 77.2497 296.432 79.0375 296.231 79.9135C296.231 79.9135 296.231 79.9637 296.231 79.9781C296.237 80.0016 296.237 80.0264 296.231 80.0499C296.211 80.1691 296.182 80.2867 296.145 80.4017C296.13 80.4777 296.108 80.5522 296.08 80.6243C296.037 80.7464 295.994 80.8684 295.944 80.9977C295.932 81.0414 295.913 81.0828 295.886 81.1197C295.881 81.1484 295.868 81.1754 295.85 81.1987C295.85 81.1987 295.85 81.249 295.85 81.2777L295.793 81.3854C295.793 81.4285 295.75 81.4644 295.721 81.5003C295.702 81.545 295.675 81.5862 295.642 81.6223C295.62 81.6656 295.594 81.7065 295.563 81.7444C295.261 82.1577 294.857 82.4855 294.39 82.6957C293.923 82.9058 293.409 82.9912 292.9 82.9434C292.377 82.976 291.854 82.8954 291.366 82.707C290.877 82.5186 290.436 82.227 290.071 81.8521C289.623 81.3369 289.318 80.7129 289.187 80.0427C288.972 79.016 288.857 77.8528 289.238 77.3215ZM278.145 76.1871C278.277 76.0585 278.437 75.9605 278.611 75.8999L278.812 75.8209H278.934H279.042H279.114H279.222C279.366 75.7913 279.513 75.7697 279.66 75.7563H279.897H280.033C280.071 75.7633 280.11 75.7633 280.148 75.7563C280.248 75.7492 280.349 75.7492 280.449 75.7563H280.665C280.956 75.7715 281.246 75.8027 281.534 75.8496C282.876 76.0722 284.276 76.7256 284.628 77.2856C284.98 77.8456 284.879 78.9873 284.686 79.9781C284.64 80.1997 284.58 80.4179 284.506 80.6315C284.501 80.6478 284.501 80.6654 284.506 80.6817C284.509 80.7056 284.509 80.7297 284.506 80.7535C284.506 80.7535 284.506 80.7535 284.506 80.7966C284.495 80.8236 284.484 80.8499 284.47 80.8756C284.47 80.933 284.42 80.9833 284.391 81.0336C284.37 81.0828 284.346 81.1308 284.319 81.1772V81.2202L284.262 81.3208L284.205 81.3997C283.891 81.8448 283.462 82.1948 282.963 82.4114C282.464 82.628 281.914 82.7028 281.376 82.6275C280.875 82.6154 280.383 82.4876 279.94 82.2542C278.618 81.5362 278.31 80.0427 278.159 79.3822C277.958 78.3195 277.735 76.5532 278.145 76.1871Z" fill="#263238"/>
<path d="M297.323 75.6055L305.939 77.5369C305.162 77.7371 304.469 78.1828 303.965 78.8077L297.316 77.5441L297.323 75.6055Z" fill="#263238"/>
<path d="M278.145 79.2242C278.296 79.9422 278.605 81.4285 279.926 82.0962C280.369 82.3296 280.861 82.4574 281.362 82.4696C281.901 82.5449 282.45 82.4701 282.949 82.2535C283.448 82.0369 283.878 81.6868 284.191 81.2418L284.248 81.1628L284.305 81.0623V81.0192C284.332 80.9728 284.356 80.9249 284.377 80.8756C284.377 80.8253 284.428 80.7751 284.456 80.7176C284.47 80.6919 284.482 80.6656 284.492 80.6387C284.492 80.6387 284.492 80.6387 284.492 80.5956C284.495 80.5717 284.495 80.5476 284.492 80.5238C284.487 80.5075 284.487 80.4898 284.492 80.4735C284.567 80.26 284.626 80.0417 284.672 79.8201C284.866 78.8293 284.973 77.6661 284.614 77.1276C284.255 76.5891 282.862 75.907 281.52 75.6916C281.232 75.6447 280.942 75.6135 280.651 75.5983H280.435C280.335 75.5913 280.234 75.5913 280.134 75.5983C280.096 75.6053 280.057 75.6053 280.019 75.5983H279.883H279.646C279.499 75.6118 279.352 75.6333 279.208 75.6629H279.1H279.028H278.92H278.798L278.597 75.7419C278.423 75.8026 278.264 75.9006 278.131 76.0291C277.736 76.5532 277.958 78.3195 278.145 79.2242Z" fill="#37474F"/>
<path d="M289.188 80.0139C289.314 80.6942 289.618 81.3287 290.071 81.852C290.427 82.2246 290.858 82.5172 291.336 82.7103C291.814 82.9034 292.328 82.9926 292.842 82.9721C293.352 83.0199 293.866 82.9345 294.333 82.7243C294.8 82.5141 295.204 82.1863 295.506 81.773C295.537 81.7351 295.563 81.6942 295.585 81.651C295.618 81.6149 295.645 81.5736 295.664 81.5289C295.664 81.493 295.707 81.4571 295.736 81.414L295.793 81.3063C295.793 81.3063 295.793 81.2561 295.793 81.2273C295.811 81.2041 295.824 81.1771 295.829 81.1484C295.856 81.1114 295.875 81.0701 295.887 81.0263C295.937 80.8971 295.98 80.775 296.023 80.6529C296.051 80.5808 296.073 80.5063 296.088 80.4304C296.125 80.3153 296.154 80.1977 296.174 80.0785C296.18 80.055 296.18 80.0302 296.174 80.0067C296.174 80.0067 296.174 79.9637 296.174 79.9421C296.368 79.0662 296.605 77.3142 296.174 76.9122C295.743 76.5101 294.587 76.0434 292.699 76.1942H292.491C292.203 76.1942 291.909 76.266 291.629 76.3162L291.292 76.388C291.004 76.4536 290.721 76.5375 290.444 76.6393C290.358 76.6393 290.265 76.6968 290.186 76.7327C290.095 76.778 290.001 76.8188 289.906 76.8547H289.856C289.818 76.871 289.782 76.8902 289.748 76.9122C289.529 77.0149 289.335 77.1644 289.181 77.3501C288.858 77.8527 288.972 79.0159 289.188 80.0139Z" fill="#37474F"/>
<path d="M278.375 61.3962C278.375 61.3029 278.375 61.2024 278.411 61.1018C278.423 60.9163 278.49 60.7387 278.604 60.5921C278.999 60.1828 279.789 61.2167 280.04 61.4537C280.309 61.6878 280.59 61.9083 280.881 62.1142C281.155 62.2506 281.419 62.4066 281.67 62.5809C281.494 61.6051 281.494 60.6057 281.67 59.6299C281.792 58.9837 281.972 57.4759 282.776 57.3252C283.25 57.2246 283.666 57.6267 284.018 57.957C287.228 60.9582 291.421 59.5725 295.284 59.6946C298.522 59.7951 302.421 61.1306 303.9 64.261C304.567 65.697 304.682 67.212 303.361 68.2029C302.514 68.8491 301.681 68.8203 301.207 69.8471C301.092 70.0984 300.353 73.1571 300.791 73.1283C299.998 73.2092 299.202 73.0061 298.544 72.5551C297.887 72.1042 297.411 71.4346 297.201 70.6656C297.122 70.3281 296.942 69.7178 296.87 69.3732C296.853 69.2722 296.814 69.1761 296.756 69.0915C296.698 69.0068 296.622 68.9356 296.535 68.8825C296.447 68.8295 296.349 68.7958 296.247 68.7839C296.145 68.7719 296.042 68.7819 295.944 68.8132C294.961 69.0286 294.322 69.4306 293.395 69.6819C290.75 70.4426 287.969 70.6069 285.253 70.163C283.308 69.7939 281.524 68.8365 280.141 67.4202C279.439 66.5971 278.919 65.635 278.615 64.5969C278.31 63.5588 278.228 62.4681 278.375 61.3962Z" fill="#263238"/>
<path d="M290.991 74.0187L293.863 74.4566C293.913 74.0723 293.812 73.6835 293.582 73.3716C293.352 73.0598 293.01 72.8491 292.628 72.7837C292.439 72.7554 292.247 72.765 292.062 72.812C291.877 72.859 291.703 72.9424 291.55 73.0574C291.398 73.1724 291.27 73.3167 291.174 73.4817C291.078 73.6468 291.016 73.8293 290.991 74.0187Z" fill="#263238"/>
<path d="M290.33 87.2155L287.939 87.8401C287.973 87.9994 288.038 88.1503 288.131 88.2838C288.225 88.4172 288.344 88.5306 288.482 88.617C288.62 88.7034 288.774 88.7612 288.935 88.7868C289.096 88.8125 289.26 88.8055 289.418 88.7663C289.741 88.6754 290.016 88.4632 290.186 88.1742C290.356 87.8852 290.407 87.5417 290.33 87.2155Z" fill="#F28F8F"/>
<path d="M280.236 74.1838L283.108 73.8679C283.096 73.6795 283.046 73.4954 282.962 73.3269C282.877 73.1583 282.759 73.0087 282.614 72.8871C282.47 72.7656 282.302 72.6747 282.122 72.6199C281.941 72.5651 281.751 72.5475 281.564 72.5683C281.178 72.6169 280.825 72.8114 280.578 73.1118C280.331 73.4122 280.209 73.7958 280.236 74.1838Z" fill="#263238"/>
<path d="M287.2 78.1328L286.812 84.8317L283.079 83.8553L286.805 78.0538C286.941 78.0494 287.076 78.0764 287.2 78.1328Z" fill="#F28F8F"/>
<path d="M303.239 82.7854C303.238 83.1322 303.339 83.4716 303.531 83.7607C303.722 84.0497 303.995 84.2754 304.315 84.4091C304.635 84.5428 304.988 84.5785 305.328 84.5117C305.669 84.4449 305.981 84.2786 306.227 84.0339C306.473 83.7892 306.64 83.477 306.709 83.137C306.777 82.797 306.743 82.4444 306.61 82.1238C306.478 81.8033 306.253 81.5292 305.965 81.3364C305.677 81.1436 305.338 81.0407 304.991 81.0407C304.761 81.0397 304.534 81.0841 304.321 81.1714C304.108 81.2587 303.915 81.387 303.753 81.5491C303.59 81.7112 303.461 81.9039 303.372 82.1161C303.284 82.3282 303.239 82.5557 303.239 82.7854Z" fill="#263238"/>
<path d="M303.052 79.5904C303.203 79.0607 303.467 78.5705 303.828 78.1544C304.01 77.9797 304.229 77.8468 304.468 77.765C304.708 77.6832 304.962 77.6543 305.213 77.6805C305.213 77.6805 305.264 77.7379 305.213 77.7523C305.02 77.8672 304.883 77.9318 304.689 78.0682C304.496 78.199 304.318 78.3507 304.158 78.5206C304.017 78.6835 303.903 78.8677 303.82 79.0662C303.717 79.294 303.65 79.5361 303.619 79.7842C303.572 80.175 303.629 80.5714 303.785 80.933C303.865 81.1335 303.976 81.3201 304.115 81.4859C304.264 81.6075 304.395 81.7502 304.503 81.9095C304.61 82.1321 304.302 82.5126 304.065 82.3834C303.616 82.1012 303.278 81.6725 303.11 81.17C302.899 80.6679 302.879 80.1064 303.052 79.5904Z" fill="#263238"/>
<path d="M278.167 103.442C275.74 105.036 272.387 107.104 271.569 109.351C270.75 111.599 268.388 124.63 268.129 128.831C270.281 129.844 272.586 130.495 274.95 130.755L278.167 103.442Z" fill="#455A64"/>
<path d="M306.836 97.2316C312.982 100.606 319.042 105.647 320.349 107.585C320.349 107.585 316.759 119.554 313.593 125.234C310.426 130.913 308.732 147.707 308.732 147.707C308.732 147.707 287.077 154.887 280.292 155.454C273.507 156.021 272.645 153.135 272.645 153.135C272.645 153.135 272.502 134.359 274.081 121.83C275.661 109.301 275.316 105.575 278.188 103.442C280.048 102.071 288.061 98.5958 288.061 98.5958V102.186C292.44 102.272 306.836 97.2316 306.836 97.2316Z" fill="#37474F"/>
<path d="M286.373 104.11C285.975 103.3 285.816 102.394 285.913 101.497L287.723 100.183V102.459L286.373 104.11Z" fill="#459BDD"/>
<path opacity="0.25" d="M286.373 104.11C285.975 103.3 285.816 102.394 285.913 101.497L287.723 100.183V102.459L286.373 104.11Z" fill="black"/>
<path d="M289.891 102.724L294.572 100.053L298.091 102.839L290.982 105.79L289.891 102.724Z" fill="#459BDD"/>
<path opacity="0.25" d="M289.891 102.724L294.572 100.053L298.091 102.839L290.982 105.79L289.891 102.724Z" fill="black"/>
<path d="M301.639 92.1482V93.096C301.459 93.9935 299.693 96.0757 295.234 98.0717C290.775 100.068 288.923 102.2 288.923 102.2C290.127 102.232 291.319 102.453 292.455 102.854C294.487 103.572 297.862 106.156 298.824 106.128C299.786 106.099 301.115 103.442 303.635 100.793C305.789 98.5671 306.837 97.2029 306.837 97.2029C306.837 97.2029 303.376 92.1697 301.639 92.1482Z" fill="#455A64"/>
<path d="M288.924 102.2C287.309 102.38 285.794 103.5 285.399 102.918C285.004 102.337 286.375 96.93 288.91 95.2858L288.924 102.2Z" fill="#455A64"/>
<path d="M273.271 130.532C273.271 130.532 273.077 133.886 273.027 135.034C272.976 136.183 274.893 155.856 274.893 155.856L268.13 158.728C268.13 158.728 267.311 151.146 267.046 146.924C266.827 142.577 267.021 138.218 267.627 133.907C268.159 130.317 268.345 128.938 268.345 128.938C269.928 129.637 271.579 130.172 273.271 130.532Z" fill="#F28F8F"/>
<path d="M268.675 168.342C268.675 168.342 268.675 168.644 268.675 169.778C268.844 171.677 269.225 173.55 269.809 175.364C270.233 176.427 271.245 178.76 271.777 179.033C272.279 179.313 272.86 179.417 273.428 179.328C274.498 179.227 275.618 179.78 276.63 179.292C277.022 179.078 277.436 178.907 277.865 178.782C278.49 178.631 279.208 178.818 279.768 178.488C280.127 178.279 280.349 177.892 280.701 177.676C281.218 177.36 281.9 177.475 282.453 177.224C282.671 177.113 282.864 176.959 283.02 176.771C283.177 176.584 283.294 176.366 283.365 176.133C283.681 175.185 283.365 174.115 283.178 173.167C283.51 172.701 283.679 172.138 283.659 171.566C283.681 170.339 283.538 169.115 283.236 167.926C282.999 167.208 278.088 164.415 278.088 164.415L277.118 163.776C275.058 163.317 272.9 163.664 271.087 164.745C268.208 166.576 268.675 168.342 268.675 168.342Z" fill="#FFA8A7"/>
<path d="M270.004 168.206C268.704 170.36 269.465 174.244 269.472 174.287C269.065 172.818 268.799 171.313 268.675 169.793C268.675 168.644 268.675 168.357 268.675 168.357C268.675 168.357 268.209 166.562 271.052 164.767C272.865 163.685 275.023 163.338 277.083 163.797C277.083 163.797 271.303 166.03 270.004 168.206Z" fill="#F28F8F"/>
<path d="M283.143 173.146C282.685 171.745 281.977 170.439 281.053 169.29C280.508 168.787 280.048 168.148 280.594 168.364C281.14 168.579 281.901 168.701 282.202 168.321C282.504 167.94 282.568 168.601 282.202 169.118C281.836 169.635 282.145 170.03 282.54 170.877C282.843 171.602 283.046 172.366 283.143 173.146Z" fill="#F28F8F"/>
<path d="M318.477 107.822C320.523 108.54 320.796 114.141 320.351 119.167C319.905 124.193 315.985 136.075 314.197 140.211C312.194 144.857 310.981 147.535 309.645 148.992C308.31 150.45 305.517 151.649 301.941 153.501C298.71 155.174 296.499 156.021 290.984 157.73C284.766 159.662 282.368 159.777 281.047 160.703C279.726 161.629 279.353 163.639 278.053 164.393L277.084 163.754C274.898 164.279 272.811 165.152 270.902 166.339C270.047 166.869 269.293 167.548 268.676 168.342V169.778C268.676 169.778 267.104 170.439 265.768 167.624C264.433 164.81 263.822 160.588 265.359 158.743C266.895 156.897 271.763 154.37 275.712 153.135C279.661 151.9 281.622 150.608 286.231 147.822C291.142 144.857 294.553 142.882 297.001 141.547C297.927 141.008 298.552 140.355 298.968 138.675C299.299 137.325 300.282 133.333 300.886 130.331C301.848 125.313 304.009 110.134 318.477 107.822Z" fill="#FFA8A7"/>
<path d="M320.35 107.585C320.35 107.585 321.305 107.75 321.434 111.728C321.604 115.492 321.424 119.263 320.896 122.993C320.372 126.045 317.306 135.056 317.306 135.056C317.306 135.056 308.496 137.928 299.478 134.503C299.478 134.503 301.596 121.507 302.393 118.061C303.19 114.614 314.355 103.981 320.35 107.585Z" fill="#455A64"/>
<path d="M289.174 107.844C288.671 111.075 287.982 118.75 287.982 129.585C287.982 132.241 284.105 137.633 283.193 137.519C282.281 137.404 280.608 132.335 280.371 129.391C280.737 122.268 285.045 111.218 286.927 107.442L289.174 107.844Z" fill="#459BDD"/>
<path opacity="0.15" d="M286.784 107.75C286.826 107.645 286.874 107.542 286.928 107.442L289.175 107.844L289.039 108.791C288.193 108.701 287.401 108.336 286.784 107.75Z" fill="black"/>
<path d="M289.893 102.724C289.186 102.558 288.464 102.472 287.739 102.466C287.166 102.911 286.696 103.475 286.36 104.117C286.296 105.253 286.485 106.388 286.913 107.442C287.236 107.668 287.604 107.822 287.992 107.891C288.38 107.961 288.779 107.944 289.16 107.844C289.952 107.351 290.581 106.637 290.97 105.79C291.025 104.667 290.638 103.566 289.893 102.724Z" fill="#459BDD"/>
</svg>
