<svg width="318" height="318" viewBox="0 0 318 318" fill="none" xmlns="http://www.w3.org/2000/svg">
<path d="M58.677 276.984C115.173 307.188 206.782 307.188 263.304 276.984C319.825 246.781 319.806 197.879 263.304 167.7C206.801 137.522 115.198 137.522 58.7024 167.7C2.20657 197.879 2.17477 246.806 58.677 276.984Z" fill="#F5F5F5"/>
<path d="M55.2881 222.657L53.6599 221.716C52.9631 221.262 52.3834 220.649 51.9679 219.929C51.5523 219.208 51.3127 218.4 51.2686 217.569V74.8445C51.3127 74.0139 51.5523 73.2054 51.9679 72.4849C52.3834 71.7643 52.9631 71.152 53.6599 70.6978L119.486 32.6904C120.228 32.3143 121.048 32.1184 121.88 32.1184C122.712 32.1184 123.533 32.3143 124.275 32.6904L125.929 33.6317C126.625 34.0859 127.205 34.6982 127.621 35.4188C128.036 36.1393 128.276 36.9478 128.32 37.7784V180.503C128.276 181.334 128.036 182.142 127.621 182.863C127.205 183.583 126.625 184.196 125.929 184.65L60.0835 222.657C59.3402 223.033 58.5188 223.229 57.6858 223.229C56.8527 223.229 56.0314 223.033 55.2881 222.657Z" fill="#37474F"/>
<path d="M60.8975 77.6365L51.9935 72.4849C51.5633 73.1991 51.3225 74.0112 51.2939 74.8445V217.569C51.3381 218.4 51.5777 219.208 51.9932 219.929C52.4088 220.649 52.9885 221.262 53.6853 221.716L55.3135 222.657C56.0568 223.033 56.8781 223.229 57.7112 223.229C58.5442 223.229 59.3656 223.033 60.1089 222.657L60.923 222.187L60.8975 77.6365Z" fill="#263238"/>
<path d="M57.6855 78.5524V221.277C57.6855 222.804 58.7604 223.42 60.0833 222.657L125.928 184.65C126.625 184.196 127.205 183.583 127.62 182.863C128.036 182.142 128.276 181.334 128.32 180.503V37.7784C128.32 36.252 127.251 35.6351 125.928 36.3983L60.0833 74.412C59.3879 74.8668 58.8088 75.4782 58.3924 76.1973C57.976 76.9163 57.7339 77.7229 57.6855 78.5524Z" fill="#455A64"/>
<path d="M62.9644 87.5708L122.818 53.017C123.95 52.381 124.873 52.8961 124.873 54.2063V168.05C124.834 168.763 124.627 169.457 124.27 170.076C123.914 170.695 123.416 171.221 122.818 171.612L62.9644 206.178C61.826 206.814 60.9102 206.299 60.9102 204.989V91.1452C60.9448 90.4292 61.1491 89.7317 61.5063 89.1103C61.8634 88.4888 62.3632 87.9612 62.9644 87.5708Z" fill="#FAFAFA"/>
<path d="M92.9968 59.1035C93.8808 58.5947 94.5995 59.0081 94.5995 60.032C94.5699 60.5887 94.4093 61.1306 94.1308 61.6135C93.8523 62.0965 93.4638 62.5069 92.9968 62.8114C92.1064 63.3265 91.3877 62.9068 91.3877 61.8892C91.418 61.331 91.5796 60.7879 91.8591 60.3039C92.1387 59.8199 92.5285 59.4086 92.9968 59.1035Z" fill="#263238"/>
<path d="M88.3604 67.1235C91.623 65.3236 97.4361 61.8574 100.654 59.9685C101.201 59.6441 101.64 59.8667 101.64 60.4645C101.615 60.7975 101.512 61.12 101.34 61.4061C101.167 61.6921 100.93 61.9338 100.648 62.1118L88.3349 69.2222C87.788 69.5402 87.3428 69.3113 87.3428 68.7198C87.3709 68.3913 87.4781 68.0746 87.6554 67.7966C87.8326 67.5186 88.0745 67.2876 88.3604 67.1235Z" fill="#263238"/>
<path d="M85.2244 68.9233C85.7205 68.6308 86.1212 68.8661 86.1212 69.4385C86.1054 69.7515 86.0159 70.0563 85.8601 70.3281C85.7043 70.6 85.4865 70.8313 85.2244 71.0031C84.7283 71.2893 84.3213 71.0539 84.3213 70.4815C84.3393 70.1692 84.4304 69.8655 84.5872 69.5948C84.7441 69.3242 84.9623 69.0942 85.2244 68.9233Z" fill="#263238"/>
<path d="M92.997 192.536C94.765 191.512 96.177 192.339 96.177 194.387C96.1201 195.498 95.8026 196.58 95.2502 197.546C94.6977 198.511 93.9259 199.334 92.997 199.946C91.2225 200.97 89.7852 200.143 89.7852 198.095C89.8456 196.981 90.1679 195.897 90.726 194.931C91.2841 193.966 92.0621 193.145 92.997 192.536Z" fill="#263238"/>
<path d="M159.953 215.47C159.562 215.204 159.24 214.849 159.011 214.435C158.782 214.021 158.654 213.558 158.637 213.085V137.16C158.663 136.672 158.804 136.197 159.048 135.774C159.292 135.35 159.633 134.991 160.042 134.724L257.446 78.4888C257.852 78.2325 258.321 78.0921 258.802 78.0827C259.282 78.0733 259.756 78.1953 260.172 78.4355C260.589 78.6757 260.931 79.025 261.164 79.4458C261.396 79.8665 261.509 80.3427 261.491 80.8229V156.749C261.465 157.237 261.324 157.712 261.08 158.135C260.835 158.558 260.495 158.918 260.085 159.184L162.682 215.426C162.262 215.646 161.797 215.765 161.323 215.772C160.849 215.78 160.38 215.677 159.953 215.47Z" fill="#455A64"/>
<path d="M261.478 80.5876C261.376 79.8625 260.791 79.5954 260.085 80.0088L162.681 136.244C162.265 136.502 161.923 136.863 161.689 137.293L159.05 135.773C159.284 135.343 159.626 134.982 160.042 134.724L257.452 78.4824C257.841 78.2369 258.287 78.0979 258.747 78.0792C259.207 78.0606 259.663 78.163 260.071 78.3761C260.478 78.5893 260.823 78.9057 261.07 79.2938C261.317 79.6819 261.457 80.128 261.478 80.5876Z" fill="#37474F"/>
<path d="M162.351 215.566C162.32 215.585 162.285 215.598 162.249 215.604C162.187 215.635 162.121 215.656 162.052 215.668H161.944C161.878 215.687 161.809 215.7 161.74 215.706H161.575C161.332 215.738 161.086 215.738 160.844 215.706C160.534 215.674 160.233 215.581 159.96 215.432C159.567 215.167 159.242 214.813 159.012 214.398C158.782 213.984 158.654 213.521 158.637 213.047V137.153C158.655 136.666 158.797 136.191 159.05 135.773L161.69 137.293C161.436 137.713 161.294 138.19 161.276 138.68V214.612C161.254 214.796 161.287 214.982 161.369 215.148C161.451 215.314 161.581 215.453 161.74 215.547C161.81 215.581 161.886 215.603 161.963 215.61C162.049 215.623 162.137 215.623 162.224 215.61L162.351 215.566Z" fill="#263238"/>
<path d="M169.176 158.472V170.448C169.176 171.345 169.812 171.72 170.581 171.262L186.227 162.225C186.636 161.957 186.976 161.597 187.22 161.174C187.464 160.751 187.606 160.276 187.632 159.789V147.819C187.632 146.922 186.997 146.547 186.227 147.005L170.581 156.043C170.172 156.308 169.831 156.666 169.587 157.089C169.343 157.511 169.202 157.985 169.176 158.472Z" fill="#459BDD"/>
<mask id="mask0_257_622" style="mask-type:luminance" maskUnits="userSpaceOnUse" x="169" y="146" width="19" height="26">
<path d="M169.176 158.472V170.448C169.176 171.345 169.812 171.72 170.581 171.262L186.227 162.225C186.636 161.957 186.976 161.597 187.22 161.174C187.464 160.751 187.606 160.276 187.632 159.789V147.819C187.632 146.922 186.997 146.547 186.227 147.005L170.581 156.043C170.172 156.308 169.831 156.666 169.587 157.089C169.343 157.511 169.202 157.985 169.176 158.472Z" fill="white"/>
</mask>
<g mask="url(#mask0_257_622)">
<path d="M190.118 148.929L166.389 162.64L166.707 163.19L190.436 149.479L190.118 148.929Z" fill="white"/>
<path d="M174.779 158.339H174.143V164.444H174.779V158.339Z" fill="white"/>
<path d="M182.691 153.798H182.055V159.89H182.691V153.798Z" fill="white"/>
<path d="M190.119 155.047L166.391 168.758L166.709 169.308L190.438 155.597L190.119 155.047Z" fill="white"/>
</g>
<path d="M169.811 148.779C169.741 148.741 169.709 148.64 169.709 148.474V141.828C169.705 141.679 169.74 141.533 169.811 141.402C169.89 141.269 170.005 141.161 170.142 141.09L172.978 139.449C173.684 139.042 174.219 138.921 174.575 139.093C174.931 139.265 175.109 139.685 175.109 140.365C175.105 140.73 175.029 141.091 174.886 141.427C174.75 141.774 174.55 142.091 174.295 142.362C174.931 142.235 175.287 142.604 175.287 143.475C175.281 143.911 175.195 144.343 175.033 144.747C174.852 145.214 174.589 145.645 174.257 146.019C173.892 146.431 173.462 146.781 172.985 147.056L170.148 148.69C170.002 148.824 169.887 148.824 169.811 148.779ZM172.705 142.699C172.952 142.564 173.16 142.367 173.309 142.127C173.45 141.895 173.523 141.628 173.519 141.357C173.519 141.052 173.455 140.874 173.322 140.817C173.188 140.76 172.985 140.817 172.686 140.976L171.287 141.79V143.507L172.705 142.699ZM172.864 145.784C173.119 145.641 173.332 145.432 173.479 145.18C173.627 144.927 173.704 144.639 173.703 144.347C173.703 144.029 173.621 143.831 173.462 143.768C173.345 143.74 173.223 143.739 173.105 143.764C172.987 143.789 172.877 143.84 172.781 143.914L171.306 144.773V146.681L172.864 145.784Z" fill="white"/>
<path d="M175.28 145.555C175.273 145.489 175.273 145.423 175.28 145.358L177.786 137.02C177.819 136.897 177.868 136.78 177.932 136.67C177.993 136.581 178.077 136.508 178.174 136.46L178.88 136.053C178.981 135.996 179.058 135.97 179.109 135.99C179.177 136.029 179.229 136.093 179.255 136.168L181.761 141.618C181.77 141.671 181.77 141.724 181.761 141.777C181.762 141.837 181.746 141.896 181.716 141.948C181.686 141.999 181.642 142.042 181.589 142.07L180.419 142.744C180.362 142.787 180.293 142.809 180.222 142.807C180.177 142.807 180.145 142.757 180.107 142.687L179.668 141.624L177.315 142.986L176.876 144.55C176.855 144.64 176.819 144.727 176.768 144.804C176.714 144.87 176.647 144.924 176.571 144.963L175.458 145.644C175.337 145.708 175.28 145.682 175.28 145.555ZM179.35 140.556L178.543 138.603L177.735 141.485L179.35 140.556Z" fill="white"/>
<path d="M182.728 141.326C182.658 141.287 182.626 141.186 182.626 141.027V134.387C182.622 134.24 182.657 134.095 182.728 133.967C182.81 133.831 182.929 133.72 183.072 133.649L183.669 133.306C183.743 133.254 183.828 133.222 183.917 133.21C183.986 133.22 184.049 133.254 184.096 133.306L186.805 136.155V131.989C186.8 131.838 186.835 131.689 186.907 131.557C186.987 131.425 187.102 131.318 187.237 131.245L187.962 130.825C188.128 130.73 188.236 130.704 188.306 130.749C188.376 130.793 188.401 130.895 188.401 131.067V137.688C188.406 137.833 188.373 137.978 188.306 138.107C188.222 138.24 188.103 138.348 187.962 138.419L187.326 138.775C187.255 138.824 187.171 138.852 187.085 138.858C187.017 138.85 186.954 138.818 186.907 138.769L184.191 135.932V140.104C184.195 140.248 184.162 140.39 184.096 140.518C184.012 140.653 183.893 140.763 183.752 140.836L183.027 141.249C182.906 141.345 182.792 141.364 182.728 141.326Z" fill="white"/>
<path d="M194.831 134.266C194.832 134.326 194.817 134.385 194.786 134.436C194.756 134.488 194.712 134.53 194.659 134.559L193.451 135.252C193.396 135.286 193.336 135.312 193.273 135.328C193.23 135.334 193.186 135.322 193.152 135.296L191.015 133.287V136.225C191.019 136.371 190.986 136.515 190.919 136.645C190.833 136.776 190.715 136.883 190.576 136.956L189.851 137.376C189.698 137.465 189.59 137.49 189.52 137.452C189.45 137.414 189.418 137.306 189.418 137.147V130.494C189.413 130.346 189.449 130.199 189.52 130.068C189.601 129.935 189.715 129.825 189.851 129.75L190.576 129.331C190.741 129.242 190.849 129.216 190.919 129.254C190.989 129.292 191.015 129.401 191.015 129.572V132.453V132.396L193.082 128.014C193.111 127.946 193.152 127.884 193.203 127.83C193.263 127.774 193.329 127.725 193.4 127.683L194.589 126.996C194.71 126.933 194.767 126.965 194.767 127.092C194.763 127.165 194.744 127.237 194.71 127.302L192.414 132.034L194.774 134.12C194.794 134.138 194.81 134.16 194.82 134.186C194.83 134.211 194.834 134.239 194.831 134.266Z" fill="white"/>
<path d="M199.863 130.698C199.227 130.374 198.934 129.572 198.934 128.288C198.919 127.07 199.231 125.871 199.837 124.815C200.467 123.768 201.359 122.904 202.426 122.309C202.826 122.067 203.252 121.873 203.698 121.73C204.01 121.622 204.344 121.589 204.671 121.635C204.685 121.637 204.699 121.641 204.711 121.648C204.724 121.655 204.735 121.664 204.744 121.675C204.753 121.687 204.759 121.7 204.763 121.713C204.767 121.727 204.768 121.742 204.766 121.756C204.761 121.833 204.741 121.908 204.709 121.978L204.366 122.856C204.342 122.934 204.295 123.003 204.232 123.053C204.181 123.08 204.124 123.091 204.067 123.085C203.548 123.084 203.041 123.236 202.61 123.524C201.961 123.892 201.424 124.431 201.058 125.082C200.683 125.786 200.495 126.574 200.511 127.372C200.511 128.249 200.702 128.803 201.084 129.019C201.345 129.118 201.627 129.147 201.902 129.104C202.178 129.06 202.437 128.945 202.655 128.771C203.24 128.445 203.76 128.014 204.187 127.499C204.234 127.436 204.29 127.38 204.353 127.334C204.397 127.334 204.442 127.334 204.486 127.378L204.862 127.912C204.884 127.944 204.898 127.981 204.9 128.02C204.882 128.107 204.843 128.188 204.785 128.256C204.158 129.073 203.362 129.745 202.451 130.227C201.345 130.863 200.473 131.016 199.863 130.698Z" fill="white"/>
<path d="M205.262 128.243C205.258 128.18 205.258 128.116 205.262 128.052L207.806 119.708C207.834 119.584 207.883 119.465 207.953 119.358C208.016 119.274 208.096 119.205 208.188 119.155L208.894 118.741C208.962 118.692 209.046 118.671 209.129 118.684C209.199 118.722 209.252 118.786 209.275 118.862L211.781 124.306C211.79 124.361 211.79 124.417 211.781 124.472C211.783 124.531 211.768 124.589 211.738 124.64C211.707 124.691 211.663 124.732 211.61 124.758L210.439 125.438C210.381 125.479 210.313 125.501 210.242 125.502C210.215 125.491 210.191 125.475 210.171 125.454C210.152 125.433 210.137 125.408 210.128 125.381L209.682 124.319L207.336 125.674L206.903 127.245C206.879 127.332 206.843 127.416 206.795 127.493C206.739 127.561 206.67 127.618 206.591 127.658L205.428 128.332C205.319 128.402 205.262 128.37 205.262 128.243ZM209.333 123.244L208.531 121.298L207.717 124.179L209.333 123.244Z" fill="white"/>
<path d="M212.702 124.02C212.639 123.982 212.601 123.88 212.601 123.715V117.088C212.6 116.939 212.634 116.793 212.702 116.661C212.786 116.53 212.902 116.423 213.039 116.35L215.488 114.938C217.12 113.988 217.939 114.34 217.943 115.994C217.947 116.513 217.847 117.027 217.65 117.507C217.45 118.004 217.159 118.459 216.792 118.849L217.809 120.834C217.82 120.88 217.82 120.927 217.809 120.974C217.809 121.04 217.79 121.106 217.754 121.162C217.718 121.219 217.667 121.264 217.606 121.292L216.537 121.928C216.477 121.971 216.407 122 216.334 122.01C216.283 122.01 216.245 121.972 216.213 121.902L215.323 119.994L214.172 120.63V122.818C214.182 122.969 214.146 123.12 214.069 123.251C213.992 123.381 213.877 123.485 213.739 123.549L213.014 123.969C212.887 124.02 212.772 124.058 212.702 124.02ZM215.246 118.665C215.578 118.488 215.862 118.232 216.073 117.921C216.263 117.62 216.36 117.271 216.353 116.916C216.353 116.528 216.264 116.28 216.099 116.21C215.933 116.14 215.679 116.21 215.342 116.375L214.197 117.024V119.256L215.246 118.665Z" fill="white"/>
<path d="M218.84 120.477C218.77 120.439 218.738 120.338 218.738 120.172V113.551C218.733 113.403 218.768 113.256 218.84 113.125C218.918 112.991 219.033 112.881 219.17 112.807L221.205 111.637C222.308 110.997 223.145 110.817 223.718 111.096C224.29 111.376 224.576 112.171 224.576 113.481C224.608 114.666 224.309 115.835 223.711 116.859C223.089 117.848 222.227 118.664 221.205 119.231L219.17 120.401C219.018 120.49 218.903 120.516 218.84 120.477ZM221.282 117.832C221.817 117.536 222.258 117.095 222.554 116.56C222.868 115.891 223.014 115.155 222.98 114.416C222.98 113.526 222.84 112.979 222.554 112.776C222.268 112.572 221.841 112.642 221.282 112.973L220.334 113.52V118.398L221.282 117.832Z" fill="white"/>
<path d="M169.176 181.317V184.16C169.176 185.057 169.812 185.432 170.581 184.974L186.227 175.937C186.633 175.668 186.971 175.307 187.213 174.884C187.455 174.461 187.594 173.987 187.62 173.501V170.658C187.62 169.761 186.984 169.386 186.214 169.844L170.569 178.881C170.161 179.149 169.823 179.51 169.581 179.933C169.339 180.356 169.2 180.83 169.176 181.317Z" fill="#EBEBEB"/>
<path d="M191.162 168.629V171.472C191.162 172.369 191.798 172.744 192.568 172.28L208.22 163.248C208.628 162.981 208.969 162.621 209.213 162.198C209.457 161.775 209.598 161.3 209.625 160.813V157.97C209.625 157.073 208.989 156.698 208.22 157.156L192.568 166.193C192.158 166.46 191.817 166.819 191.573 167.243C191.329 167.666 191.188 168.141 191.162 168.629Z" fill="#EBEBEB"/>
<path d="M213.143 155.934V158.777C213.143 159.674 213.779 160.049 214.548 159.591L230.194 150.554C230.603 150.289 230.944 149.93 231.188 149.508C231.432 149.086 231.573 148.612 231.599 148.124V145.275C231.599 144.378 230.963 144.003 230.194 144.467L214.548 153.499C214.139 153.766 213.799 154.126 213.555 154.549C213.311 154.972 213.17 155.447 213.143 155.934Z" fill="#EBEBEB"/>
<path d="M235.116 143.246V146.089C235.116 146.986 235.752 147.361 236.522 146.903L252.174 137.866C252.583 137.599 252.924 137.239 253.168 136.816C253.412 136.393 253.553 135.918 253.579 135.43V132.587C253.579 131.69 252.943 131.315 252.174 131.773L236.522 140.81C236.113 141.078 235.773 141.438 235.529 141.861C235.284 142.284 235.143 142.759 235.116 143.246Z" fill="#EBEBEB"/>
<path d="M244.821 146.681L241.234 148.754C240.989 148.914 240.786 149.129 240.64 149.382C240.494 149.635 240.41 149.919 240.395 150.21V151.311C240.395 151.845 240.77 152.068 241.234 151.794L244.821 149.727C245.068 149.568 245.273 149.352 245.42 149.097C245.567 148.843 245.652 148.558 245.667 148.264V147.164C245.667 146.63 245.292 146.414 244.821 146.681Z" fill="#459BDD"/>
<path d="M252.732 142.114L249.145 144.181C248.9 144.342 248.697 144.558 248.551 144.813C248.405 145.067 248.321 145.351 248.306 145.644V146.744C248.306 147.279 248.681 147.495 249.145 147.228L252.732 145.154C252.978 144.996 253.183 144.781 253.33 144.528C253.477 144.275 253.562 143.99 253.578 143.698V142.598C253.578 142.063 253.203 141.828 252.732 142.114Z" fill="#459BDD"/>
<path d="M207.445 175.873L252.105 150.096C252.88 149.644 253.51 150.013 253.51 150.91V152.227C253.484 152.715 253.343 153.19 253.099 153.613C252.855 154.036 252.514 154.396 252.105 154.662L207.445 180.446C206.669 180.897 206.039 180.535 206.039 179.638V178.315C206.065 177.826 206.206 177.351 206.45 176.926C206.694 176.502 207.035 176.141 207.445 175.873Z" fill="#459BDD"/>
<path d="M112.769 69.96V135.354C112.795 135.831 112.933 136.295 113.171 136.71C113.41 137.124 113.743 137.476 114.142 137.739L116.559 139.131C116.986 139.348 117.458 139.46 117.936 139.46C118.414 139.46 118.886 139.348 119.313 139.131L160.475 115.37C160.876 115.109 161.21 114.757 161.449 114.342C161.689 113.928 161.828 113.463 161.855 112.985V47.6046C161.829 47.1265 161.691 46.6612 161.451 46.2468C161.211 45.8323 160.877 45.4804 160.475 45.2196L158.064 43.8268C157.638 43.6105 157.166 43.4978 156.688 43.4978C156.209 43.4978 155.737 43.6105 155.311 43.8268L114.142 67.5941C113.745 67.8544 113.414 68.2038 113.176 68.6145C112.937 69.0253 112.798 69.486 112.769 69.96Z" fill="#EBEBEB"/>
<path d="M161.843 47.382C161.748 46.6697 161.169 46.4089 160.476 46.8096L119.314 70.596C118.905 70.8507 118.568 71.2053 118.334 71.6263L113.17 68.6435C113.405 68.2255 113.739 67.8717 114.143 67.6132L155.311 43.8268C155.738 43.6105 156.21 43.4978 156.688 43.4978C157.167 43.4978 157.638 43.6105 158.065 43.8268L160.476 45.2196C160.846 45.4606 161.159 45.7785 161.395 46.1517C161.631 46.5248 161.784 46.9445 161.843 47.382Z" fill="#F5F5F5"/>
<path d="M119.071 139.239C119.043 139.245 119.015 139.245 118.988 139.239C118.936 139.265 118.88 139.284 118.823 139.297L118.543 139.367C117.988 139.47 117.415 139.424 116.883 139.233C116.778 139.194 116.676 139.147 116.578 139.093L114.161 137.7C113.761 137.438 113.429 137.086 113.19 136.671C112.951 136.257 112.813 135.793 112.787 135.315V69.96C112.803 69.4817 112.941 69.0155 113.188 68.6053L118.352 71.5882C118.106 71.9984 117.968 72.4646 117.951 72.9428V138.336C117.937 138.595 118.011 138.85 118.161 139.061C118.249 139.167 118.365 139.245 118.496 139.287C118.627 139.329 118.766 139.332 118.899 139.297L119.071 139.239Z" fill="#E0E0E0"/>
<path d="M146.102 95.9215C147.901 97.1236 150.21 97.1935 152.551 96.7547" stroke="#455A64" stroke-width="0.795" stroke-miterlimit="10" stroke-linecap="round"/>
<path d="M140.206 83.316C142.114 82.7627 143.265 83.704 143.469 86.4006C143.717 89.7205 143.64 92.8433 145.345 94.7576" stroke="#455A64" stroke-width="0.795" stroke-miterlimit="10" stroke-linecap="round"/>
<path d="M137.069 101.124C135.631 97.6133 134.894 86.7759 138.977 83.952" stroke="#455A64" stroke-width="0.795" stroke-miterlimit="10" stroke-linecap="round"/>
<path d="M149.389 107.802C144.702 108.355 140.282 106.95 137.782 102.561" stroke="#455A64" stroke-width="0.795" stroke-miterlimit="10" stroke-linecap="round"/>
<path d="M150.319 105.239C142.776 106.059 137.402 102.224 138.286 89.3771C138.375 88.1687 139.042 86.7822 139.939 86.2607H139.971C140.887 85.7582 141.815 86.3497 141.796 87.5708C141.663 96.761 144.639 101.029 152.176 99.693" stroke="#455A64" stroke-width="0.795" stroke-miterlimit="10" stroke-linecap="round"/>
<path d="M147.633 110.868C138.201 111.504 133.151 105.239 133.895 92.0292C134.143 87.6662 135.803 82.8326 139.072 80.9437C139.117 80.9125 139.163 80.8848 139.212 80.861C142.532 79.0357 145.121 80.9501 145.464 85.4275C145.795 89.7269 145.916 94.8022 153.02 93.6001" stroke="#455A64" stroke-width="0.795" stroke-miterlimit="10" stroke-linecap="round"/>
<path d="M141.191 113.259C142.621 113.77 144.125 114.043 145.643 114.067" stroke="#455A64" stroke-width="0.795" stroke-miterlimit="10" stroke-linecap="round"/>
<path d="M133.896 107.484C135.114 109.874 137.143 111.753 139.62 112.782" stroke="#455A64" stroke-width="0.795" stroke-miterlimit="10" stroke-linecap="round"/>
<path d="M134.462 83.1443C130.392 90.6554 131.428 100.73 133.114 105.589" stroke="#455A64" stroke-width="0.795" stroke-miterlimit="10" stroke-linecap="round"/>
<path d="M147.551 84.9187C147.17 80.842 146.133 78.0563 143.176 77.4012C140.816 76.8861 137.795 78.3807 135.397 81.6751" stroke="#455A64" stroke-width="0.795" stroke-miterlimit="10" stroke-linecap="round"/>
<path d="M153.32 90.7763C150.89 91.6285 148.308 91.1007 147.856 87.4118" stroke="#455A64" stroke-width="0.795" stroke-miterlimit="10" stroke-linecap="round"/>
<path d="M153.492 87.9715C150.948 88.0415 149.771 86.9094 149.154 82.3493C148.207 75.3533 144.588 72.3577 138.978 75.6013C133.089 78.9976 129.553 87.4118 129.286 94.3697C128.77 107.465 132.879 112.674 139.334 115.313C140.775 115.888 142.285 116.275 143.825 116.464" stroke="#455A64" stroke-width="0.795" stroke-miterlimit="10" stroke-linecap="round"/>
<path d="M150.299 78.4061C150.801 81.16 151.068 85.0014 153.562 84.9187" stroke="#455A64" stroke-width="0.795" stroke-miterlimit="10" stroke-linecap="round"/>
<path d="M144.79 71.4101C147.2 71.8616 149.007 73.865 149.923 76.8161" stroke="#455A64" stroke-width="0.795" stroke-miterlimit="10" stroke-linecap="round"/>
<path d="M135.41 75.4932C137.954 72.8602 140.95 71.4292 143.468 71.3211" stroke="#455A64" stroke-width="0.795" stroke-miterlimit="10" stroke-linecap="round"/>
<path d="M128.09 88.0415C129.17 83.9158 131.153 80.0816 133.897 76.8161" stroke="#455A64" stroke-width="0.795" stroke-miterlimit="10" stroke-linecap="round"/>
<path d="M127.148 101.124C126.707 97.3889 126.833 93.6085 127.524 89.9113" stroke="#455A64" stroke-width="0.795" stroke-miterlimit="10" stroke-linecap="round"/>
<path d="M130.379 111.872C128.9 109.227 127.897 106.342 127.415 103.35" stroke="#455A64" stroke-width="0.795" stroke-miterlimit="10" stroke-linecap="round"/>
<path d="M140.066 119.269C137.076 118.048 133.744 116.267 131.626 113.418" stroke="#455A64" stroke-width="0.795" stroke-miterlimit="10" stroke-linecap="round"/>
<path d="M136.74 121.177C127.779 117.514 124.656 107.853 124.656 97.1045C124.656 86.3561 129.744 74.7809 138.96 69.7247C145.212 66.303 153.55 70.0109 153.55 80.7593" stroke="#455A64" stroke-width="0.795" stroke-miterlimit="10" stroke-linecap="round"/>
<path d="M148.188 102.612C149.314 102.668 150.442 102.624 151.559 102.479" stroke="#455A64" stroke-width="0.795" stroke-miterlimit="10" stroke-linecap="round"/>
<path d="M142.031 99.216C142.486 100.069 143.128 100.808 143.911 101.375C144.693 101.943 145.595 102.324 146.547 102.491" stroke="#455A64" stroke-width="0.795" stroke-miterlimit="10" stroke-linecap="round"/>
<path d="M140.13 88.3404C139.825 92.0292 140.289 95.4191 141.339 97.8295" stroke="#455A64" stroke-width="0.795" stroke-miterlimit="10" stroke-linecap="round"/>
<path d="M142.903 65.0628C145.453 64.5445 148.104 65.0346 150.3 66.4302" stroke="#455A64" stroke-width="0.795" stroke-miterlimit="10" stroke-linecap="round"/>
<path d="M131.652 71.868C134.178 69.1068 137.314 66.9746 140.811 65.6416" stroke="#455A64" stroke-width="0.795" stroke-miterlimit="10" stroke-linecap="round"/>
<path d="M128.516 119.466C129.439 120.617 130.6 121.557 131.918 122.22" stroke="#455A64" stroke-width="0.795" stroke-miterlimit="10" stroke-linecap="round"/>
<path d="M124.325 112.381C125.037 114.354 126.066 116.197 127.372 117.838" stroke="#455A64" stroke-width="0.795" stroke-miterlimit="10" stroke-linecap="round"/>
<path d="M24.4463 149.74C24.4694 149.317 24.5913 148.904 24.8022 148.537C25.0132 148.169 25.3073 147.856 25.661 147.622L88.0844 111.586C88.4631 111.395 88.8814 111.295 89.3056 111.295C89.7298 111.295 90.148 111.395 90.5267 111.586L91.9004 112.381C92.2556 112.612 92.5512 112.924 92.7634 113.291C92.9755 113.658 93.0983 114.07 93.1216 114.493V162.339C93.0982 162.763 92.9756 163.176 92.7635 163.543C92.5513 163.911 92.2557 164.224 91.9004 164.457L29.477 200.493C29.0995 200.684 28.6823 200.783 28.2591 200.783C27.8359 200.783 27.4187 200.684 27.0412 200.493L25.6674 199.704C25.3123 199.473 25.0166 199.161 24.8045 198.794C24.5923 198.427 24.4696 198.016 24.4463 197.592V149.74Z" fill="#459BDD"/>
<path opacity="0.4" d="M24.8027 148.538L28.2626 150.535L92.7657 113.291C92.5579 112.92 92.2605 112.607 91.9007 112.381L90.5206 111.586C90.1431 111.395 89.7258 111.295 89.3027 111.295C88.8795 111.295 88.4623 111.395 88.0847 111.586L25.6677 147.622C25.3046 147.847 25.0065 148.162 24.8027 148.538Z" fill="white"/>
<path opacity="0.1" d="M24.4404 149.74V197.586C24.464 198.011 24.5874 198.424 24.8007 198.792C25.014 199.16 25.3111 199.472 25.6679 199.704L27.0417 200.499C27.1476 200.559 27.2582 200.61 27.3724 200.652C27.8468 200.806 28.3537 200.833 28.8415 200.728C28.9217 200.714 29.0004 200.692 29.0769 200.664C29.128 200.652 29.1772 200.633 29.2231 200.607C29.1308 200.647 29.0312 200.668 28.9306 200.668C28.83 200.668 28.7304 200.647 28.638 200.607C28.5076 200.52 28.4037 200.398 28.3375 200.256C28.2713 200.113 28.2455 199.955 28.2628 199.799V151.94C28.2499 151.723 28.304 151.507 28.4177 151.322C28.5315 151.137 28.6994 150.991 28.8988 150.904L28.2628 150.535L24.8029 148.538C24.581 148.901 24.4562 149.315 24.4404 149.74Z" fill="black"/>
<path opacity="0.2" d="M28.2636 150.535L57.1698 161.347C58.1699 161.721 59.2676 161.742 60.2816 161.408C61.2956 161.074 62.1654 160.404 62.7475 159.509L67.4157 152.386L93.0211 113.157L68.3188 152.64L93.1228 162.352C93.099 162.782 92.9678 163.2 92.7412 163.566L68.2489 152.754L62.8492 161.385C62.2508 162.343 61.3272 163.052 60.2478 163.384C59.1684 163.716 58.0056 163.647 56.9726 163.191L53.1566 161.493L28.6197 200.594C28.4893 200.507 28.3853 200.385 28.3192 200.243C28.253 200.101 28.2272 199.943 28.2445 199.787V198.992L52.9912 161.468L28.2636 150.535Z" fill="black"/>
<path d="M248.815 17.808C248.832 17.6429 248.806 17.4763 248.74 17.3239C248.675 17.1715 248.571 17.0382 248.44 16.9367H248.408L245.864 15.4548C245.709 15.3827 245.538 15.3535 245.368 15.3702C245.198 15.387 245.035 15.4492 244.898 15.5502L205.427 38.2363L204.365 34.6938C204.281 34.3748 204.076 34.1011 203.793 33.9306L201.224 32.436C201.029 32.3232 200.808 32.2664 200.583 32.272C200.358 32.2777 200.14 32.3454 199.952 32.4678L183.021 42.2495C182.621 42.5117 182.289 42.8641 182.05 43.2784C181.812 43.6926 181.674 44.1571 181.647 44.6345V101.124C181.633 101.289 181.659 101.455 181.725 101.607C181.79 101.759 181.893 101.893 182.023 101.995H182.054L184.598 103.477H184.63C184.784 103.538 184.951 103.559 185.115 103.539C185.28 103.519 185.436 103.458 185.572 103.363L247.403 67.664C247.803 67.4018 248.136 67.0494 248.374 66.6351C248.613 66.2209 248.751 65.7564 248.777 65.279L248.815 17.808Z" fill="#459BDD"/>
<path opacity="0.4" d="M203.775 33.9115C203.582 33.8118 203.367 33.7646 203.15 33.7746C202.933 33.7847 202.723 33.8516 202.541 33.9688L185.604 43.7441C185.2 44.0026 184.866 44.3564 184.631 44.7744L182.049 43.2798C182.278 42.8577 182.614 42.5026 183.022 42.2495L199.959 32.4742C200.147 32.3531 200.366 32.2862 200.59 32.2806C200.814 32.275 201.036 32.3309 201.231 32.4424L203.775 33.9115Z" fill="white"/>
<path opacity="0.4" d="M248.339 16.8604C248.188 16.8117 248.028 16.7985 247.871 16.8217C247.715 16.8448 247.566 16.9038 247.436 16.9939L207.584 39.9853C207.422 40.0932 207.236 40.1602 207.043 40.1805C206.849 40.2007 206.654 40.1738 206.473 40.1018C206.292 40.0299 206.131 39.9152 206.005 39.7675C205.878 39.6198 205.789 39.4436 205.746 39.2539L205.44 38.2363L244.872 15.4993C245.063 15.3804 245.283 15.3166 245.508 15.3149C245.633 15.3132 245.756 15.3439 245.865 15.4039L248.339 16.8604Z" fill="white"/>
<path opacity="0.1" d="M184.439 103.305C184.477 103.36 184.522 103.409 184.573 103.452L182.073 102.014C181.975 101.946 181.894 101.854 181.838 101.747C181.81 101.697 181.789 101.644 181.774 101.588C181.726 101.445 181.702 101.294 181.705 101.143V44.6345C181.701 44.5794 181.701 44.5242 181.705 44.4691C181.717 44.3537 181.737 44.239 181.762 44.1257C181.762 44.0684 181.794 44.0112 181.806 43.954C181.864 43.7796 181.934 43.6096 182.016 43.4452C182.042 43.3881 182.072 43.3328 182.105 43.2798L184.687 44.7744C184.44 45.1843 184.302 45.6507 184.287 46.1291V102.612C184.28 102.693 184.28 102.773 184.287 102.854C184.284 102.898 184.284 102.943 184.287 102.987V103.057L184.325 103.146C184.353 103.206 184.392 103.26 184.439 103.305Z" fill="black"/>
<path d="M142.897 195.723C142.864 195.131 142.693 194.556 142.397 194.044C142.101 193.531 141.688 193.095 141.192 192.772L139.806 191.97C139.277 191.706 138.693 191.568 138.101 191.568C137.51 191.568 136.926 191.706 136.397 191.97L90.3441 218.542C89.8483 218.866 89.4357 219.302 89.1396 219.814C88.8435 220.327 88.6722 220.902 88.6396 221.493V226.918C88.6722 227.51 88.8435 228.085 89.1396 228.597C89.4357 229.11 89.8483 229.546 90.3441 229.869L91.737 230.671C92.2645 230.937 92.8472 231.076 93.4383 231.076C94.0293 231.076 94.6121 230.937 95.1396 230.671L141.192 204.099C141.689 203.776 142.102 203.34 142.398 202.828C142.694 202.315 142.865 201.739 142.897 201.148V195.723Z" fill="#37474F"/>
<path d="M88.6396 226.918C88.6712 227.51 88.842 228.085 89.1382 228.598C89.4344 229.111 89.8476 229.547 90.3441 229.869L91.737 230.671C92.2177 230.911 92.7438 231.048 93.2809 231.071C93.818 231.094 94.3538 231.003 94.8534 230.804C94.0457 231.11 93.4351 230.658 93.4351 229.685V224.266C93.4549 223.671 93.6279 223.09 93.9375 222.581L89.1421 219.814C88.8333 220.322 88.6602 220.9 88.6396 221.493V226.918Z" fill="#263238"/>
<path d="M142.84 195.252C142.642 194.527 141.981 194.298 141.192 194.75L95.1396 221.328C94.6339 221.639 94.2192 222.078 93.9375 222.6L89.1484 219.833C89.4296 219.313 89.8417 218.874 90.3441 218.561L136.391 191.983C136.92 191.719 137.503 191.581 138.095 191.581C138.687 191.581 139.27 191.719 139.799 191.983L141.192 192.791C141.62 193.068 141.986 193.429 142.269 193.852C142.552 194.275 142.746 194.751 142.84 195.252Z" fill="#455A64"/>
<path d="M99.2981 221.964C100.195 221.449 100.92 221.869 100.92 222.899C100.89 223.461 100.727 224.008 100.445 224.496C100.163 224.983 99.7702 225.397 99.2981 225.704C98.4077 226.219 97.6826 225.799 97.6826 224.769C97.7132 224.207 97.8754 223.661 98.156 223.174C98.4366 222.687 98.8278 222.272 99.2981 221.964Z" fill="#E6E6E6"/>
<path d="M104.653 218.892C105.543 218.377 106.268 218.797 106.268 219.827C106.238 220.389 106.076 220.935 105.795 221.422C105.515 221.91 105.123 222.324 104.653 222.632C103.756 223.147 103.037 222.727 103.037 221.697C103.067 221.135 103.229 220.589 103.51 220.102C103.79 219.614 104.182 219.2 104.653 218.892Z" fill="#E6E6E6"/>
<path d="M110.029 215.808C110.925 215.292 111.65 215.706 111.65 216.742C111.62 217.304 111.457 217.85 111.175 218.336C110.893 218.822 110.5 219.235 110.029 219.541C109.138 220.056 108.413 219.636 108.413 218.606C108.444 218.045 108.606 217.5 108.887 217.014C109.167 216.528 109.558 216.114 110.029 215.808Z" fill="#E6E6E6"/>
<path d="M115.358 212.717C116.249 212.201 116.974 212.621 116.974 213.651C116.943 214.212 116.781 214.757 116.5 215.244C116.219 215.73 115.828 216.143 115.358 216.45C114.461 216.965 113.736 216.552 113.736 215.515C113.767 214.954 113.93 214.408 114.212 213.921C114.494 213.435 114.886 213.022 115.358 212.717Z" fill="#E6E6E6"/>
<path d="M120.706 209.626C121.603 209.11 122.328 209.53 122.328 210.561C122.297 211.123 122.134 211.669 121.852 212.156C121.57 212.644 121.178 213.058 120.706 213.365C119.816 213.88 119.091 213.461 119.091 212.43C119.121 211.869 119.283 211.322 119.564 210.835C119.844 210.348 120.236 209.933 120.706 209.626Z" fill="#E6E6E6"/>
<path d="M126.062 206.535C126.953 206.019 127.678 206.439 127.678 207.47C127.647 208.031 127.485 208.577 127.204 209.065C126.924 209.552 126.532 209.966 126.062 210.274C125.165 210.789 124.44 210.37 124.44 209.339C124.471 208.777 124.633 208.23 124.915 207.743C125.197 207.255 125.59 206.841 126.062 206.535Z" fill="#E6E6E6"/>
<path d="M131.41 203.444C132.301 202.929 133.026 203.348 133.026 204.379C132.996 204.94 132.834 205.487 132.553 205.974C132.272 206.461 131.881 206.876 131.41 207.183C130.52 207.699 129.795 207.279 129.795 206.248C129.827 205.687 129.989 205.141 130.27 204.654C130.55 204.167 130.941 203.753 131.41 203.444Z" fill="#E6E6E6"/>
<path d="M136.74 200.34C137.637 199.825 138.362 200.238 138.362 201.275C138.331 201.836 138.168 202.382 137.887 202.868C137.605 203.355 137.212 203.768 136.74 204.073C135.85 204.588 135.125 204.169 135.125 203.138C135.156 202.578 135.318 202.032 135.598 201.546C135.879 201.06 136.27 200.647 136.74 200.34Z" fill="#E6E6E6"/>
<path d="M142.897 213.613C142.864 213.022 142.693 212.447 142.397 211.934C142.101 211.422 141.688 210.986 141.192 210.662L139.806 209.88C139.277 209.616 138.693 209.478 138.101 209.478C137.51 209.478 136.926 209.616 136.397 209.88L90.3441 236.452C89.8476 236.775 89.4344 237.21 89.1382 237.723C88.842 238.236 88.6712 238.812 88.6396 239.403V244.828C88.6722 245.419 88.8435 245.995 89.1396 246.507C89.4357 247.02 89.8483 247.456 90.3441 247.779L91.737 248.581C92.2645 248.847 92.8472 248.986 93.4383 248.986C94.0293 248.986 94.6121 248.847 95.1396 248.581L141.192 221.964C141.689 221.641 142.102 221.206 142.398 220.693C142.694 220.18 142.865 219.604 142.897 219.013V213.613Z" fill="#37474F"/>
<path d="M88.6396 244.809C88.6722 245.4 88.8435 245.975 89.1396 246.488C89.4357 247.001 89.8483 247.437 90.3441 247.76L91.737 248.562C92.2177 248.802 92.7438 248.938 93.2809 248.961C93.818 248.984 94.3538 248.894 94.8534 248.695C94.0457 249 93.4351 248.549 93.4351 247.576V242.151C93.4557 241.557 93.6287 240.979 93.9375 240.472L89.1421 237.705C88.8333 238.212 88.6602 238.791 88.6396 239.384V244.809Z" fill="#263238"/>
<path d="M142.84 213.13C142.642 212.405 141.981 212.176 141.192 212.628L95.1396 239.206C94.6339 239.517 94.2192 239.956 93.9375 240.478L89.1484 237.711C89.4296 237.191 89.8417 236.752 90.3441 236.439L136.391 209.88C136.92 209.616 137.503 209.478 138.095 209.478C138.687 209.478 139.27 209.616 139.799 209.88L141.192 210.688C141.617 210.963 141.983 211.321 142.266 211.74C142.549 212.16 142.744 212.633 142.84 213.13Z" fill="#455A64"/>
<path d="M99.2981 239.874C100.195 239.359 100.92 239.778 100.92 240.809C100.889 241.371 100.725 241.917 100.444 242.405C100.162 242.892 99.7695 243.306 99.2981 243.613C98.4077 244.129 97.6826 243.709 97.6826 242.679C97.7127 242.117 97.8747 241.57 98.1553 241.083C98.436 240.596 98.8275 240.182 99.2981 239.874Z" fill="#E6E6E6"/>
<path d="M104.653 236.783C105.543 236.268 106.268 236.687 106.268 237.718C106.237 238.279 106.075 238.825 105.795 239.313C105.514 239.8 105.123 240.214 104.653 240.522C103.756 241.038 103.037 240.618 103.037 239.588C103.066 239.026 103.228 238.479 103.508 237.991C103.789 237.504 104.181 237.09 104.653 236.783Z" fill="#E6E6E6"/>
<path d="M110.029 233.698C110.925 233.177 111.65 233.596 111.65 234.627C111.621 235.189 111.458 235.736 111.176 236.224C110.894 236.711 110.501 237.125 110.029 237.432C109.138 237.947 108.413 237.527 108.413 236.497C108.444 235.936 108.606 235.391 108.887 234.904C109.167 234.418 109.558 234.005 110.029 233.698Z" fill="#E6E6E6"/>
<path d="M115.358 230.607C116.249 230.092 116.974 230.505 116.974 231.542C116.943 232.103 116.781 232.648 116.5 233.134C116.219 233.621 115.828 234.034 115.358 234.341C114.461 234.856 113.736 234.442 113.736 233.406C113.767 232.844 113.93 232.298 114.212 231.812C114.494 231.326 114.886 230.913 115.358 230.607Z" fill="#E6E6E6"/>
<path d="M120.706 227.516C121.603 227.001 122.328 227.421 122.328 228.451C122.297 229.012 122.134 229.558 121.852 230.045C121.571 230.531 121.178 230.944 120.706 231.25C119.816 231.765 119.091 231.351 119.091 230.321C119.121 229.76 119.283 229.213 119.564 228.726C119.844 228.238 120.236 227.824 120.706 227.516Z" fill="#E6E6E6"/>
<path d="M126.062 224.425C126.953 223.91 127.678 224.33 127.678 225.36C127.646 225.921 127.483 226.467 127.203 226.954C126.922 227.441 126.532 227.856 126.062 228.165C125.165 228.68 124.44 228.26 124.44 227.23C124.47 226.668 124.633 226.12 124.915 225.633C125.196 225.146 125.59 224.732 126.062 224.425Z" fill="#E6E6E6"/>
<path d="M131.41 221.328C132.301 220.813 133.026 221.233 133.026 222.263C132.995 222.824 132.833 223.371 132.552 223.858C132.272 224.345 131.881 224.759 131.41 225.068C130.52 225.583 129.795 225.163 129.795 224.133C129.826 223.571 129.988 223.025 130.268 222.538C130.549 222.051 130.94 221.636 131.41 221.328Z" fill="#E6E6E6"/>
<path d="M136.74 218.25C137.637 217.728 138.362 218.148 138.362 219.178C138.329 219.737 138.166 220.281 137.884 220.765C137.602 221.249 137.21 221.66 136.74 221.964C135.85 222.479 135.125 222.059 135.125 221.029C135.159 220.472 135.322 219.93 135.603 219.448C135.883 218.965 136.273 218.555 136.74 218.25Z" fill="#E6E6E6"/>
<path d="M87.1319 227.892C87.0989 227.3 86.9274 226.725 86.6314 226.213C86.3353 225.7 85.9229 225.264 85.4275 224.94L84.0346 224.139C83.5071 223.873 82.9244 223.734 82.3333 223.734C81.7423 223.734 81.1595 223.873 80.632 224.139L59.3451 236.452C58.8486 236.775 58.4354 237.21 58.1392 237.723C57.843 238.236 57.6722 238.812 57.6406 239.403V262.738C57.6737 263.329 57.8451 263.904 58.1412 264.417C58.4373 264.929 58.8497 265.365 59.3451 265.689L60.7316 266.484C61.2609 266.748 61.8444 266.886 62.4361 266.886C63.0277 266.886 63.6112 266.748 64.1405 266.484L85.4211 254.171C85.9188 253.849 86.3332 253.414 86.6306 252.901C86.9279 252.388 87.0997 251.812 87.1319 251.22V227.892Z" fill="#459BDD"/>
<path opacity="0.2" d="M57.6406 262.738C57.6737 263.329 57.8451 263.904 58.1412 264.417C58.4373 264.929 58.8497 265.365 59.3451 265.689L60.7316 266.484C61.2123 266.724 61.7385 266.861 62.2755 266.884C62.8126 266.907 63.3484 266.816 63.848 266.618C63.0466 266.923 62.4361 266.471 62.4361 265.498V242.17C62.4573 241.577 62.6279 241 62.9321 240.491L58.1367 237.724C57.8317 238.233 57.661 238.81 57.6406 239.403V262.738Z" fill="black"/>
<path opacity="0.3" d="M87.0688 227.408C86.8653 226.689 86.2102 226.454 85.4216 226.912L64.141 239.219C63.6352 239.529 63.2205 239.968 62.939 240.491L58.1436 237.724C58.4288 237.204 58.8427 236.766 59.3456 236.452L80.6198 224.145C81.1491 223.881 81.7327 223.744 82.3243 223.744C82.9159 223.744 83.4994 223.881 84.0288 224.145L85.4216 224.947C85.8488 225.224 86.2151 225.585 86.4983 226.008C86.7815 226.431 86.9756 226.908 87.0688 227.408Z" fill="white"/>
<path d="M74.4637 237.018C76.5117 235.835 78.1716 236.789 78.1716 239.155C78.1019 240.442 77.7299 241.694 77.0857 242.81C76.4414 243.926 75.5432 244.875 74.4637 245.579C72.4158 246.762 70.7559 245.801 70.7559 243.435C70.8245 242.149 71.1962 240.898 71.8405 239.782C72.4849 238.667 73.3837 237.72 74.4637 237.018Z" fill="#FAFAFA"/>
<path d="M81.7709 249.624C81.7709 245.738 79.0424 244.167 75.678 246.107L73.5728 247.321C70.2148 249.261 67.4863 253.987 67.4863 257.873V258.916C69.3943 259.552 79.7993 253.522 81.7709 250.527V249.624Z" fill="#FAFAFA"/>
<path d="M278.697 182.061L270.944 177.609C270.639 177.444 270.187 177.558 269.672 177.972C269.386 178.188 269.1 178.398 268.807 178.608L268.489 178.811L267.917 179.174L267.503 179.403C267.338 179.498 267.166 179.6 266.994 179.689C266.823 179.778 266.683 179.842 266.524 179.918C266.365 179.994 266.218 180.077 266.059 180.147L265.538 180.37L265.105 180.548C264.915 180.624 264.724 180.694 264.533 180.758L264.139 180.904L263.503 181.088L263.14 181.196C262.924 181.26 262.701 181.311 262.504 181.362L262.18 181.438L261.48 181.578L261.194 181.629L260.45 181.737H260.208C259.947 181.737 259.687 181.794 259.426 181.807H259.222C258.949 181.807 258.682 181.807 258.408 181.839H258.218C257.938 181.839 257.658 181.839 257.378 181.839H257.251C256.958 181.839 256.672 181.801 256.38 181.775H256.297L255.4 181.661H255.356L254.605 181.514C254.448 181.342 254.266 181.194 254.064 181.076L253.975 181.025L246.343 176.611C245.707 176.248 245.122 176.509 244.753 177.438C239.748 189.852 229.095 202.445 221.997 205.593C221.856 205.652 221.72 205.722 221.59 205.803C221.501 205.854 221.425 205.911 221.336 205.969C221.247 206.026 221.266 206.019 221.228 206.051C221.12 206.129 221.018 206.214 220.923 206.306C220.821 206.407 220.719 206.509 220.624 206.624C220.116 207.175 219.834 207.897 219.835 208.646L220.859 236.541C220.859 244.669 224.319 253.255 231.378 257.357L239.125 261.809L239.227 261.867C242.81 263.854 246.93 264.66 250.999 264.169C252.52 263.921 253.93 263.218 255.044 262.153C270.531 246.132 278.08 224.413 278.08 212.424L279.104 183.257C279.123 182.608 278.97 182.22 278.697 182.061Z" fill="#459BDD"/>
<path opacity="0.15" d="M238.902 261.708L231.34 257.338C224.287 253.236 220.82 244.65 220.82 236.522L219.79 208.608C219.798 208.123 219.917 207.646 220.137 207.214C220.357 206.782 220.674 206.406 221.062 206.115C220.893 206.259 220.735 206.416 220.591 206.586L228.338 211.038C227.826 211.591 227.544 212.319 227.549 213.073L228.567 240.961C228.56 249.058 231.969 257.58 238.902 261.708Z" fill="black"/>
<path opacity="0.3" d="M278.684 182.049C278.385 181.89 277.94 182.01 277.412 182.424C270.416 187.754 260.018 187.76 254.714 181.584L254.618 181.476C257.233 181.984 259.927 181.932 262.52 181.323C265.114 180.715 267.549 179.564 269.666 177.946C270.213 177.527 270.658 177.419 270.938 177.584L278.684 182.049Z" fill="white"/>
<path opacity="0.5" d="M253.974 180.987C253.383 180.707 252.842 180.987 252.493 181.864C247.494 194.285 236.834 206.872 229.73 210.02C229.196 210.263 228.721 210.618 228.337 211.063L220.591 206.611C220.735 206.442 220.892 206.284 221.061 206.14L221.233 206C221.295 205.962 221.355 205.919 221.411 205.873L221.602 205.759C221.724 205.683 221.851 205.617 221.984 205.562C229.081 202.413 239.741 189.821 244.74 177.399C245.007 176.763 245.376 176.426 245.802 176.426C245.988 176.428 246.171 176.481 246.33 176.579L253.974 180.987Z" fill="white"/>
<path d="M291.994 208.837L287.86 206.446L271.648 244.65L274.415 246.246L291.994 208.837Z" fill="#455A64"/>
<path d="M267.44 234.487L263.299 232.102L258.854 241.508L262.994 243.893L267.44 234.487Z" fill="#455A64"/>
<path d="M275.478 257.446L262.993 243.893L267.439 234.487L274.416 246.246L291.995 208.837L298.514 215.197L275.478 257.446Z" fill="#37474F"/>
<path d="M258.854 241.508L262.994 243.893L275.479 257.446L271.345 255.087L258.854 241.508Z" fill="#263238"/>
</svg>
