<svg width="359" height="359" viewBox="0 0 359 359" fill="none" xmlns="http://www.w3.org/2000/svg">
<path d="M359 274.563H0V274.743H359V274.563Z" fill="#EBEBEB"/>
<path d="M170.166 242.54H31.527C30.441 242.538 29.4 242.106 28.6327 241.337C27.8654 240.568 27.4344 239.527 27.4344 238.441V43.5539C27.4439 42.474 27.879 41.4415 28.6453 40.6806C29.4116 39.9197 30.4472 39.4918 31.527 39.49H170.166C171.253 39.49 172.296 39.9219 173.065 40.6908C173.834 41.4596 174.265 42.5024 174.265 43.5898V238.441C174.265 239.528 173.834 240.571 173.065 241.34C172.296 242.108 171.253 242.54 170.166 242.54ZM31.527 39.6336C30.4886 39.6355 29.4933 40.0494 28.7596 40.7843C28.026 41.5193 27.6139 42.5154 27.6139 43.5539V238.441C27.6139 239.479 28.026 240.475 28.7596 241.21C29.4933 241.945 30.4886 242.359 31.527 242.361H170.166C171.205 242.359 172.201 241.945 172.936 241.211C173.67 240.476 174.084 239.48 174.086 238.441V43.5539C174.084 42.5147 173.67 41.5187 172.936 40.7839C172.201 40.0491 171.205 39.6355 170.166 39.6336H31.527Z" fill="#EBEBEB"/>
<path d="M325.477 242.54H186.831C185.744 242.538 184.703 242.106 183.934 241.337C183.166 240.569 182.733 239.527 182.731 238.441V43.5539C182.743 42.4734 183.179 41.4409 183.947 40.6801C184.714 39.9194 185.75 39.4918 186.831 39.49H325.477C326.555 39.4937 327.589 39.9224 328.354 40.6831C329.119 41.4438 329.553 42.4753 329.562 43.5539V238.441C329.562 239.525 329.132 240.566 328.367 241.335C327.601 242.103 326.562 242.537 325.477 242.54ZM186.831 39.6336C185.792 39.6355 184.796 40.0491 184.061 40.7839C183.326 41.5187 182.913 42.5147 182.911 43.5539V238.441C182.913 239.48 183.326 240.476 184.061 241.211C184.796 241.945 185.792 242.359 186.831 242.361H325.477C326.516 242.359 327.512 241.945 328.247 241.211C328.982 240.476 329.395 239.48 329.397 238.441V43.5539C329.395 42.5147 328.982 41.5187 328.247 40.7839C327.512 40.0491 326.516 39.6355 325.477 39.6336H186.831Z" fill="#EBEBEB"/>
<path d="M323.028 281.399H300.361V281.578H323.028V281.399Z" fill="#EBEBEB"/>
<path d="M240.774 279.453H216.786V279.632H240.774V279.453Z" fill="#EBEBEB"/>
<path d="M329.576 288.069H284.752V288.248H329.576V288.069Z" fill="#EBEBEB"/>
<path d="M51.4736 286.863H37.6665V287.042H51.4736V286.863Z" fill="#EBEBEB"/>
<path d="M79.6187 286.863H57.8705V287.042H79.6187V286.863Z" fill="#EBEBEB"/>
<path d="M175.293 283.833H136.119V284.012H175.293V283.833Z" fill="#EBEBEB"/>
<path d="M268.991 274.563V149.803H237.715V274.563H268.991Z" fill="#F0F0F0"/>
<path d="M267.276 180.957V153.444H239.431V180.957H267.276Z" fill="#F5F5F5"/>
<path d="M259.521 153.085H247.193C247.193 153.847 247.496 154.577 248.035 155.116C248.573 155.654 249.304 155.957 250.065 155.957H256.685C257.441 155.947 258.162 155.641 258.693 155.103C259.224 154.565 259.521 153.84 259.521 153.085Z" fill="#E6E6E6"/>
<path d="M267.276 210.948V183.435H239.431V210.948H267.276Z" fill="#F5F5F5"/>
<path d="M267.276 240.932V213.418H239.431V240.932H267.276Z" fill="#F5F5F5"/>
<path d="M267.276 270.916V243.402H239.431V270.916H267.276Z" fill="#F5F5F5"/>
<path d="M259.521 183.09H247.193C247.193 183.852 247.496 184.582 248.035 185.121C248.573 185.659 249.304 185.962 250.065 185.962H256.685C257.441 185.953 258.162 185.646 258.693 185.108C259.224 184.571 259.521 183.845 259.521 183.09Z" fill="#E6E6E6"/>
<path d="M259.521 213.052H247.193C247.193 213.814 247.496 214.544 248.035 215.083C248.573 215.622 249.304 215.924 250.065 215.924H256.685C257.441 215.915 258.162 215.608 258.693 215.07C259.224 214.533 259.521 213.808 259.521 213.052Z" fill="#E6E6E6"/>
<path d="M259.521 243.036H247.193C247.193 243.797 247.496 244.528 248.035 245.067C248.573 245.605 249.304 245.908 250.065 245.908H256.685C257.441 245.898 258.162 245.592 258.693 245.054C259.224 244.516 259.521 243.791 259.521 243.036Z" fill="#E6E6E6"/>
<path d="M284.615 274.563V149.803H268.992V274.563H284.615Z" fill="#F5F5F5"/>
<path d="M303.089 274.57V149.811H271.813V274.57H303.089Z" fill="#F0F0F0"/>
<path d="M301.374 180.957V153.444H273.53V180.957H301.374Z" fill="#F5F5F5"/>
<path d="M293.619 153.085H281.291C281.291 153.847 281.593 154.577 282.132 155.116C282.671 155.654 283.401 155.957 284.163 155.957H290.79C291.544 155.946 292.264 155.638 292.793 155.101C293.322 154.563 293.619 153.839 293.619 153.085Z" fill="#E6E6E6"/>
<path d="M301.374 210.941V183.427H273.53V210.941H301.374Z" fill="#F5F5F5"/>
<path d="M301.38 240.932V213.418H273.536V240.932H301.38Z" fill="#F5F5F5"/>
<path d="M301.374 270.916V243.402H273.53V270.916H301.374Z" fill="#F5F5F5"/>
<path d="M293.619 183.09H281.291C281.291 183.852 281.593 184.582 282.132 185.121C282.671 185.659 283.401 185.962 284.163 185.962H290.79C291.544 185.951 292.264 185.643 292.793 185.106C293.322 184.568 293.619 183.844 293.619 183.09Z" fill="#E6E6E6"/>
<path d="M293.619 213.052H281.291C281.291 213.814 281.593 214.544 282.132 215.083C282.671 215.622 283.401 215.924 284.163 215.924H290.79C291.544 215.913 292.264 215.605 292.793 215.068C293.322 214.53 293.619 213.806 293.619 213.052Z" fill="#E6E6E6"/>
<path d="M293.619 243.036H281.291C281.291 243.797 281.593 244.528 282.132 245.067C282.671 245.605 283.401 245.908 284.163 245.908H290.79C291.544 245.896 292.264 245.589 292.793 245.052C293.322 244.514 293.619 243.79 293.619 243.036Z" fill="#E6E6E6"/>
<path d="M318.713 274.563V149.803H303.089V274.563H318.713Z" fill="#F5F5F5"/>
<path d="M299.162 124.889H290.029V149.804H299.162V124.889Z" fill="#E0E0E0"/>
<path d="M261.352 149.803H296.19L301.373 109.488H266.536L261.352 149.803Z" fill="#E6E6E6"/>
<path d="M257.374 149.803H295.299L300.49 109.488H262.558L257.374 149.803Z" fill="#F0F0F0"/>
<path d="M292.535 146.63L296.901 112.661H265.33L260.958 146.63H292.535Z" fill="white"/>
<path d="M284.475 135.556C288.192 132.07 288.72 126.595 285.655 123.326C282.59 120.058 277.092 120.234 273.375 123.719C269.658 127.205 269.13 132.68 272.195 135.949C275.26 139.217 280.758 139.041 284.475 135.556Z" fill="#E6E6E6"/>
<path d="M129.526 274.563H226.959L226.959 68.648H129.526L129.526 274.563Z" fill="#E6E6E6"/>
<path d="M127.359 274.563H224.792L224.792 68.648H127.359L127.359 274.563Z" fill="#F5F5F5"/>
<path d="M220.907 270.198V73.0134H131.25V270.198H220.907Z" fill="white"/>
<path d="M132.888 270.198V73.0134H131.251V270.198H132.888Z" fill="#E6E6E6"/>
<path d="M128.974 136.966H223.19V131.107H128.974V136.966Z" fill="#F5F5F5"/>
<path d="M97.0082 268.984H110.586L110.586 180.936H97.0082L97.0082 268.984Z" fill="#F0F0F0"/>
<path d="M41.0116 274.563H107.979V268.984H41.0116V274.563Z" fill="#F0F0F0"/>
<path d="M97.0093 180.936H38.4061V268.984H97.0093V180.936Z" fill="#F5F5F5"/>
<path d="M91.6673 191.771H43.7408V220.649H91.6673V191.771Z" fill="#F0F0F0"/>
<path d="M91.6673 229.272H43.7408V258.15H91.6673V229.272Z" fill="#F0F0F0"/>
<path d="M53.462 211.3V201.133C53.462 200.237 52.7355 199.511 51.8393 199.511H51.1213C50.2252 199.511 49.4987 200.237 49.4987 201.133V211.3C49.4987 212.196 50.2252 212.923 51.1213 212.923H51.8393C52.7355 212.923 53.462 212.196 53.462 211.3Z" fill="#F5F5F5"/>
<path d="M53.4557 248.794V238.627C53.4557 237.731 52.7292 237.005 51.833 237.005H51.115C50.2188 237.005 49.4923 237.731 49.4923 238.627V248.794C49.4923 249.69 50.2188 250.417 51.115 250.417H51.833C52.7292 250.417 53.4557 249.69 53.4557 248.794Z" fill="#F5F5F5"/>
<path d="M96.7356 131.2C95.2206 131.961 91.0921 131.143 92.4635 133.936C93.258 135.395 94.2038 136.767 95.2852 138.028C96.8218 139.924 96.5346 141.985 94.718 142.731C94.3223 142.872 93.974 143.12 93.7128 143.449C92.8799 144.648 94.8544 146.257 95.8237 147.456C96.793 148.655 97.1808 149.832 96.4699 150.73C95.7591 151.627 94.0287 151.347 92.722 151.649C89.57 152.367 92.8081 156.675 92.4779 158.937C92.2481 160.459 91.006 160.889 89.3258 161.091C87.9545 161.263 86.1236 161.385 86.0446 162.792C85.98 164.013 87.5667 165.391 87.9832 166.669C88.1819 167.22 88.2572 167.808 88.2039 168.391C88.1505 168.974 87.9698 169.538 87.6744 170.044C87.3964 170.469 87.0334 170.832 86.6084 171.11C86.1833 171.388 85.7053 171.575 85.2045 171.659C83.6465 171.99 81.2914 171.659 81.1765 173.404C81.1263 174.187 81.672 174.883 81.2914 175.608C81.0845 175.91 80.814 176.163 80.4989 176.349C80.1839 176.535 79.8319 176.65 79.4677 176.685C77.9757 176.913 76.4561 176.886 74.973 176.606C73.1421 176.269 70.4424 174.654 71.4333 173.103C71.6059 172.878 71.822 172.69 72.0688 172.551C72.3155 172.412 72.5877 172.323 72.8693 172.291C73.3073 172.198 74.5853 172.334 74.7504 172.04C74.9156 171.746 74.4776 170.604 74.4561 170.188C74.4126 169.044 74.5931 167.902 74.9874 166.827C75.4942 165.424 76.3002 164.147 77.3496 163.087C77.7876 162.649 78.4769 162.325 78.563 161.686C78.5602 160.967 78.3062 160.271 77.845 159.719C77.127 158.728 76.0572 157.788 75.691 156.732C75.0735 155.081 76.567 154.578 77.9455 154.176C79.202 153.839 80.8175 153.401 80.4226 151.879C80.1139 150.78 78.7353 149.883 78.3189 148.813C77.7589 147.377 79.1159 147.326 80.0852 146.809C81.3489 146.142 81.6648 144.957 81.2124 143.449C80.4944 140.972 75.9064 137.468 78.2327 135.853C78.8287 135.444 79.3744 135.307 79.7334 134.69C80.0924 134.072 80.1642 133.211 80.6596 132.615C81.4422 131.667 83.0649 131.509 83.9121 130.626C85.6497 128.824 81.8945 125.6 85.3481 124.882C86.0782 124.793 86.7704 124.507 87.3513 124.056C87.6673 123.762 87.9186 122.347 88.2704 122.247C89.8428 121.809 92.6789 124.86 93.5692 125.801C94.5457 126.914 98.5593 130.288 96.7356 131.2Z" fill="#E0E0E0"/>
<path d="M69.7756 173.268C70.709 171.537 74.8016 169.814 72.0804 167.811C70.6202 166.818 69.0491 165.999 67.399 165.37C65.0296 164.379 64.1896 162.096 65.3886 160.207C65.6695 159.81 65.8449 159.348 65.8984 158.865C65.9989 157.12 63.3926 156.711 61.8992 156.079C60.4057 155.447 59.4221 154.485 59.58 153.121C59.7452 151.62 61.3966 150.967 62.3874 149.854C64.7855 147.161 59.6016 144.727 58.7041 142.236C58.0938 140.534 58.9554 139.364 60.3267 138.064C61.4396 137.03 62.9905 135.767 62.3012 134.28C61.7125 132.988 59.5728 132.564 58.5246 131.509C58.0378 131.036 57.6509 130.47 57.387 129.845C57.1231 129.219 56.9874 128.547 56.988 127.869C57.0052 126.678 57.475 125.538 58.302 124.681C59.501 123.374 61.7627 122.261 60.9227 120.373C60.5421 119.54 59.6877 119.166 59.6375 118.219C59.6536 117.795 59.754 117.379 59.9328 116.994C60.1115 116.609 60.365 116.264 60.6786 115.979C61.8394 114.841 63.1969 113.924 64.685 113.272C66.48 112.482 69.711 112.453 69.711 114.657C69.6553 115.31 69.3644 115.92 68.8925 116.373C68.555 116.74 67.356 117.386 67.3703 117.809C67.3847 118.233 68.3827 119.109 68.6196 119.525C69.2823 120.693 69.732 121.97 69.9479 123.295C70.2557 125.05 70.2289 126.848 69.869 128.594C69.7182 129.312 69.2802 130.073 69.5459 130.784C69.9194 131.486 70.53 132.033 71.2691 132.327C72.4107 132.902 73.8754 133.189 74.7873 134.029C76.2233 135.343 75.1822 136.808 74.1626 138.05C73.2364 139.177 72.0086 140.649 73.2077 141.941C74.0693 142.875 75.7637 142.932 76.7043 143.772C77.9608 144.9 76.7977 145.797 76.2161 146.924C75.4981 148.36 75.814 149.796 77.0202 151.06C79.0163 153.135 84.9182 153.932 83.712 156.991C83.4104 157.78 82.994 158.262 82.994 159.109C82.994 159.956 83.4033 160.897 83.2884 161.816C83.1017 163.252 81.759 164.444 81.479 165.872C80.9118 168.795 85.9378 169.742 83.3243 172.65C82.7139 173.226 82.2594 173.948 82.0032 174.747C81.8811 175.235 82.4124 176.843 82.1539 177.166C81.0051 178.602 76.8695 177.231 75.5842 176.815C74.0046 176.291 68.6627 175.328 69.7756 173.268Z" fill="#F5F5F5"/>
<path d="M59.3213 169.369C59.3213 169.369 59.8167 180.936 78.7504 180.936C97.684 180.936 98.1866 169.369 98.1866 169.369H59.3213Z" fill="#F0F0F0"/>
<path d="M179.5 306.988C256.385 306.988 318.713 303.349 318.713 298.86C318.713 294.371 256.385 290.733 179.5 290.733C102.615 290.733 40.2872 294.371 40.2872 298.86C40.2872 303.349 102.615 306.988 179.5 306.988Z" fill="#F5F5F5"/>
<path d="M225.122 292.951L219.363 292.865L218.035 279.496L223.8 279.582L225.122 292.951Z" fill="#FFB573"/>
<path d="M254.768 292.973H249.009L244.522 279.625H250.28L254.768 292.973Z" fill="#FFB573"/>
<path d="M248.241 292.305H255.263C255.378 292.305 255.49 292.344 255.58 292.416C255.67 292.488 255.733 292.588 255.759 292.7L256.893 297.826C256.922 297.951 256.922 298.08 256.892 298.204C256.863 298.329 256.806 298.445 256.724 298.543C256.643 298.642 256.541 298.72 256.424 298.773C256.308 298.825 256.181 298.85 256.053 298.846C253.792 298.81 252.14 298.674 249.297 298.674C247.545 298.674 242.26 298.86 239.841 298.86C237.421 298.86 237.105 296.469 238.096 296.247C242.533 295.277 245.879 293.942 247.301 292.657C247.562 292.43 247.896 292.305 248.241 292.305Z" fill="#263238"/>
<path d="M219.413 292.226L225.703 292.326C225.817 292.327 225.927 292.367 226.016 292.438C226.105 292.51 226.166 292.61 226.191 292.721L227.246 297.862C227.274 297.986 227.273 298.115 227.243 298.238C227.213 298.361 227.155 298.476 227.074 298.574C226.993 298.672 226.891 298.75 226.775 298.802C226.659 298.854 226.533 298.879 226.406 298.875C224.13 298.803 220.856 298.616 217.999 298.573C214.667 298.523 211.781 298.659 207.868 298.573C205.505 298.537 204.888 296.139 205.879 295.938C210.402 295.019 214.085 294.969 218.02 292.628C218.439 292.369 218.921 292.23 219.413 292.226Z" fill="#263238"/>
<path d="M222.953 121.22C221.131 125.266 219.101 129.215 216.872 133.053C215.759 134.97 214.596 136.872 213.332 138.739C212.075 140.653 210.713 142.496 209.254 144.261L208.687 144.935L208.4 145.273C208.299 145.388 208.234 145.474 208.033 145.682C207.21 146.609 206.154 147.298 204.975 147.678C204.244 147.907 203.475 147.988 202.713 147.915C202.041 147.858 201.383 147.688 200.767 147.413C199.88 147.009 199.07 146.453 198.376 145.768C197.393 144.787 196.547 143.675 195.863 142.466C195.263 141.428 194.719 140.359 194.233 139.263C192.46 135.117 191.131 130.795 190.27 126.368L194.406 125.083C195.289 126.964 196.201 128.91 197.156 130.762C198.111 132.615 199.087 134.467 200.143 136.169C200.638 136.999 201.177 137.802 201.758 138.574C202.214 139.201 202.744 139.77 203.338 140.268C203.553 140.434 203.718 140.47 203.632 140.398C203.512 140.333 203.38 140.292 203.244 140.276C203.021 140.25 202.794 140.267 202.577 140.326C202.146 140.462 202.081 140.563 202.131 140.47L202.928 139.371C205.26 135.987 207.385 132.465 209.29 128.824C211.264 125.155 213.189 121.32 214.991 117.608L222.953 121.22Z" fill="#FFB573"/>
<path d="M225.351 117.608C226.902 122.893 215.967 137.303 215.967 137.303L204.931 130.209C207.011 125.64 209.575 121.308 212.578 117.285C217.094 111.491 223.642 111.807 225.351 117.608Z" fill="#459BDD"/>
<path opacity="0.2" d="M225.351 117.608C226.902 122.893 215.967 137.303 215.967 137.303L204.931 130.209C207.011 125.64 209.575 121.308 212.578 117.285C217.094 111.491 223.642 111.807 225.351 117.608Z" fill="black"/>
<path opacity="0.2" d="M218.624 123.812C216.355 124.781 213.016 130.274 211.279 134.295L215.96 137.303C218.575 133.806 220.927 130.12 222.996 126.275C221.517 124.652 219.823 123.302 218.624 123.812Z" fill="black"/>
<path d="M194.305 127.151L195.741 120.653L189.186 120.602C189.186 120.602 187.434 125.485 190.959 127.782L194.305 127.151Z" fill="#FFB573"/>
<path d="M194.973 114.564L189.717 116.452L189.164 120.602L195.72 120.653L194.973 114.564Z" fill="#FFB573"/>
<path opacity="0.2" d="M218.041 279.496L218.723 286.389L224.482 286.482L223.807 279.589L218.041 279.496Z" fill="black"/>
<path opacity="0.2" d="M250.28 279.632H244.522L246.834 286.511H252.599L250.28 279.632Z" fill="black"/>
<path d="M251.041 115.268C244.83 137.16 246.087 160.394 245.527 165.097C241.018 164.774 224.037 163.503 214.782 162.814C210.747 130.008 218.817 113.157 218.817 113.157C218.817 113.157 220.799 112.776 223.484 112.496C224.324 112.41 225.236 112.338 226.184 112.288C226.708 112.288 227.239 112.238 227.778 112.231C232.148 112.305 236.511 112.629 240.845 113.2C241.664 113.3 242.497 113.43 243.308 113.559C244.119 113.688 244.787 113.825 245.462 113.961C248.621 114.586 251.041 115.268 251.041 115.268Z" fill="#459BDD"/>
<path opacity="0.2" d="M251.041 115.268C244.83 137.16 246.087 160.394 245.527 165.097C241.018 164.774 224.037 163.503 214.782 162.814C210.747 130.008 218.817 113.157 218.817 113.157C218.817 113.157 220.799 112.776 223.484 112.496C224.324 112.41 225.236 112.338 226.184 112.288C226.708 112.288 227.239 112.238 227.778 112.231C232.148 112.305 236.511 112.629 240.845 113.2C241.664 113.3 242.497 113.43 243.308 113.559C244.119 113.688 244.787 113.825 245.462 113.961C248.621 114.586 251.041 115.268 251.041 115.268Z" fill="black"/>
<path opacity="0.2" d="M244.479 124.659C243.926 126.777 244.558 136.442 246.77 138.825C247.071 135.731 247.488 132.5 248.005 129.197L244.479 124.659Z" fill="black"/>
<path d="M240.644 98.366C239.51 102.509 238.11 110.156 240.845 113.178C238.39 115.282 235.209 117.68 230.205 117.486C225.2 117.292 226.32 113.896 227.778 112.209C232.545 111.434 232.689 107.944 232.086 104.62L240.644 98.366Z" fill="#FFB573"/>
<path d="M240.386 112.008C240.386 112.008 238.318 115.418 230.003 117.493C231.382 118.771 232.05 121.801 232.05 121.801C232.05 121.801 242.899 119.188 242.568 113.085C241.906 112.606 241.168 112.242 240.386 112.008Z" fill="#263238"/>
<path d="M227.046 121.019C227.046 121.019 228.137 118.391 230.004 117.493C229.135 116.596 227.85 113.903 228.611 111.886C227.967 111.834 227.319 111.876 226.687 112.008C226.687 112.008 223.398 116.151 227.046 121.019Z" fill="#263238"/>
<path d="M229.645 121.098C229.552 121.658 229.222 122.074 228.927 122.017C228.633 121.959 228.454 121.464 228.554 120.904C228.655 120.344 228.985 119.92 229.272 119.978C229.559 120.035 229.76 120.531 229.645 121.098Z" fill="#263238"/>
<path d="M229.157 124.329C229.106 124.903 228.819 125.341 228.51 125.312C228.202 125.284 227.993 124.803 228.044 124.235C228.094 123.668 228.381 123.223 228.69 123.252C228.999 123.281 229.207 123.762 229.157 124.329Z" fill="#263238"/>
<path opacity="0.2" d="M237.17 100.944L232.144 104.641C232.294 105.415 232.371 106.201 232.373 106.989C234.19 106.86 236.796 105.079 237.126 103.22C237.273 102.469 237.287 101.699 237.17 100.944Z" fill="black"/>
<path d="M229.114 82.7208C224.633 82.6203 223.729 93.4477 226.637 95.336C229.544 97.2244 237.5 82.9003 229.114 82.7208Z" fill="#263238"/>
<path d="M241.614 92.0978C240.846 97.7628 240.68 101.123 237.586 103.83C232.933 107.901 226.098 104.771 225.164 98.9906C224.324 93.7851 225.724 85.3917 231.468 83.5393C232.732 83.1241 234.081 83.0393 235.387 83.2928C236.693 83.5462 237.913 84.1296 238.929 84.9874C239.946 85.8452 240.727 86.9488 241.197 88.1934C241.666 89.438 241.81 90.7821 241.614 92.0978Z" fill="#FFB573"/>
<path d="M240.802 97.648C237.93 99.163 234.613 83.4819 242.238 84.3004C251.817 85.32 246.568 94.6252 240.802 97.648Z" fill="#263238"/>
<path d="M228.015 84.2644C228.015 87.7755 239.41 91.2649 243.316 90.0659C247.222 88.8668 248.205 85.7579 246.109 83.6039C242.562 79.8918 228.015 77.386 228.015 84.2644Z" fill="#263238"/>
<path d="M228.475 84.724C228.738 85.8855 229.305 86.956 230.119 87.8258C229.099 87.7683 228.087 86.3252 227.764 85.4851C227.441 84.645 228.475 84.724 228.475 84.724Z" fill="#263238"/>
<path d="M243.717 98.567C243.295 99.1422 242.764 99.6285 242.155 99.9981C241.545 100.368 240.868 100.613 240.163 100.721C238.275 100.994 237.578 99.242 238.31 97.5906C238.971 96.1043 240.744 94.1729 242.539 94.6611C244.334 95.1494 244.751 97.1382 243.717 98.567Z" fill="#FFB573"/>
<path d="M216.585 285.046L226.342 285.197C226.342 285.197 223.082 246.647 223.966 228.712C224.231 223.255 225.33 215.623 226.766 207.445C228.589 197.134 229.465 193.027 231.792 180.003C233.472 170.712 234.965 164.343 234.965 164.343L214.754 162.835C214.754 162.835 206.209 209.275 206.41 226.888C206.612 245.147 216.585 285.046 216.585 285.046Z" fill="#263238"/>
<path opacity="0.2" d="M227.879 176.628C224.246 185.675 224.174 206.87 225.847 212.837C226.134 211.07 226.443 209.247 226.766 207.423C228.59 197.113 229.466 193.006 231.792 179.981C231.835 179.723 231.885 179.471 231.928 179.22C230.738 178.129 229.368 177.252 227.879 176.628Z" fill="black"/>
<path d="M225.688 163.625C225.688 163.625 227.469 212.226 228.826 229.056C230.305 247.495 244.119 285.175 244.119 285.175H254.674C254.674 285.175 247.63 250.711 245.469 232.761C243.007 212.37 245.512 165.083 245.512 165.083L225.688 163.625Z" fill="#263238"/>
<path d="M242.864 285.405H255.292V281.693L241.399 281.449L242.864 285.405Z" fill="#459BDD"/>
<path d="M215.357 285.233L226.981 285.412L227.039 281.657L214.043 281.255L215.357 285.233Z" fill="#459BDD"/>
<path d="M232.862 93.0456C232.826 93.5123 232.554 93.8713 232.252 93.8426C231.95 93.8138 231.728 93.4261 231.764 92.9666C231.8 92.5071 232.073 92.1481 232.374 92.1696C232.676 92.1912 232.898 92.622 232.862 93.0456Z" fill="#263238"/>
<path d="M227.606 92.6579C227.606 93.1245 227.297 93.4764 226.996 93.4548C226.694 93.4333 226.479 93.0384 226.507 92.5789C226.536 92.1193 226.816 91.7532 227.125 91.7747C227.434 91.7962 227.656 92.1912 227.606 92.6579Z" fill="#263238"/>
<path d="M229.271 93.0096C228.611 94.3868 227.766 95.6672 226.758 96.815C227.055 97.0603 227.401 97.2386 227.773 97.3377C228.144 97.4369 228.533 97.4545 228.912 97.3894L229.271 93.0096Z" fill="#ED893E"/>
<path d="M230.808 98.7753C231.33 98.7546 231.841 98.6266 232.31 98.3993C232.78 98.172 233.197 97.8502 233.537 97.4542C233.55 97.4415 233.56 97.4264 233.567 97.4097C233.574 97.3931 233.577 97.3753 233.577 97.3572C233.577 97.3392 233.574 97.3214 233.567 97.3047C233.56 97.2881 233.55 97.273 233.537 97.2603C233.51 97.2361 233.476 97.2227 233.44 97.2227C233.404 97.2227 233.369 97.2361 233.343 97.2603C232.958 97.6925 232.476 98.0276 231.937 98.2384C231.398 98.4493 230.817 98.5299 230.241 98.4737C230.206 98.4717 230.172 98.4832 230.145 98.506C230.118 98.5287 230.101 98.5609 230.098 98.5958C230.096 98.6137 230.097 98.6319 230.102 98.6492C230.107 98.6665 230.116 98.6826 230.127 98.6967C230.139 98.7107 230.153 98.7223 230.168 98.7309C230.184 98.7394 230.202 98.7448 230.22 98.7466C230.415 98.7696 230.612 98.7792 230.808 98.7753Z" fill="#263238"/>
<path d="M234.607 91.4731C234.653 91.4722 234.698 91.4571 234.736 91.43C234.766 91.4111 234.792 91.3863 234.812 91.3571C234.833 91.3279 234.847 91.2949 234.854 91.2601C234.862 91.2253 234.862 91.1893 234.855 91.1544C234.848 91.1194 234.835 91.0862 234.815 91.0567C234.587 90.6832 234.272 90.3706 233.897 90.1455C233.522 89.9204 233.098 89.7896 232.661 89.7643C232.588 89.7643 232.519 89.793 232.468 89.8442C232.417 89.8954 232.388 89.9648 232.388 90.0371C232.388 90.1095 232.417 90.1789 232.468 90.2301C232.519 90.2812 232.588 90.31 232.661 90.31C233.002 90.3379 233.332 90.4469 233.623 90.628C233.914 90.8091 234.158 91.057 234.334 91.3511C234.362 91.3958 234.403 91.4311 234.452 91.4528C234.5 91.4745 234.554 91.4815 234.607 91.4731Z" fill="#263238"/>
<path d="M225.495 90.6905C225.54 90.687 225.584 90.6728 225.622 90.6491C225.661 90.6253 225.694 90.5928 225.717 90.5541C225.88 90.2508 226.113 89.9908 226.396 89.7959C226.68 89.6011 227.006 89.477 227.347 89.434C227.383 89.4322 227.418 89.4233 227.45 89.4078C227.482 89.3922 227.51 89.3704 227.534 89.3436C227.557 89.3168 227.575 89.2856 227.586 89.2518C227.597 89.218 227.601 89.1823 227.598 89.1468C227.598 89.1113 227.59 89.0763 227.575 89.0439C227.56 89.0116 227.539 88.9825 227.513 88.9584C227.487 88.9343 227.456 88.9157 227.423 88.9036C227.389 88.8916 227.354 88.8864 227.318 88.8883C226.888 88.9388 226.475 89.0907 226.114 89.3316C225.754 89.5725 225.455 89.8955 225.243 90.2741C225.225 90.3052 225.214 90.3395 225.209 90.3751C225.204 90.4107 225.207 90.4469 225.216 90.4816C225.226 90.5163 225.242 90.5488 225.264 90.5773C225.285 90.6057 225.313 90.6296 225.344 90.6474C225.39 90.6748 225.442 90.6897 225.495 90.6905Z" fill="#263238"/>
<path d="M246.332 293.317C246.84 293.303 247.346 293.234 247.84 293.109C247.867 293.103 247.891 293.088 247.911 293.068C247.93 293.047 247.942 293.022 247.947 292.994C247.949 292.968 247.945 292.941 247.933 292.917C247.922 292.893 247.904 292.873 247.883 292.858C247.674 292.729 245.815 291.587 245.176 291.91C245.105 291.947 245.046 292.003 245.004 292.071C244.962 292.14 244.94 292.218 244.939 292.298C244.926 292.432 244.945 292.567 244.995 292.692C245.045 292.817 245.124 292.928 245.226 293.016C245.55 293.237 245.94 293.344 246.332 293.317ZM247.445 292.915C246.468 293.109 245.714 293.073 245.398 292.808C245.329 292.748 245.275 292.672 245.243 292.587C245.21 292.502 245.199 292.41 245.212 292.319C245.21 292.287 245.216 292.254 245.232 292.225C245.247 292.196 245.27 292.171 245.298 292.154C245.628 291.982 246.691 292.477 247.445 292.944V292.915Z" fill="#459BDD"/>
<path d="M247.81 293.109C247.834 293.116 247.858 293.116 247.882 293.109C247.902 293.096 247.918 293.078 247.93 293.056C247.941 293.035 247.947 293.011 247.946 292.987C247.946 292.915 247.803 291.249 247.135 290.704C247.057 290.634 246.964 290.583 246.863 290.553C246.763 290.523 246.657 290.516 246.554 290.531C246.451 290.529 246.351 290.564 246.271 290.628C246.191 290.692 246.136 290.783 246.116 290.883C245.993 291.529 247.149 292.793 247.745 293.116L247.81 293.109ZM246.647 290.79C246.762 290.789 246.872 290.833 246.956 290.912C247.361 291.429 247.599 292.058 247.638 292.714C247.049 292.262 246.309 291.278 246.381 290.934C246.381 290.898 246.381 290.811 246.582 290.79H246.647Z" fill="#459BDD"/>
<path d="M218.831 292.987C218.856 292.978 218.878 292.963 218.894 292.943C218.911 292.922 218.921 292.898 218.925 292.872C218.928 292.845 218.923 292.817 218.91 292.793C218.897 292.769 218.877 292.749 218.853 292.736C218.595 292.592 216.297 291.386 215.593 291.759C215.527 291.796 215.471 291.849 215.431 291.913C215.391 291.977 215.368 292.05 215.364 292.125C215.347 292.248 215.36 292.373 215.403 292.49C215.445 292.606 215.516 292.71 215.608 292.793C216.225 293.36 217.884 293.159 218.817 292.987H218.831ZM215.773 291.982C216.204 291.838 217.453 292.334 218.365 292.786C217.087 292.98 216.139 292.908 215.787 292.592C215.727 292.536 215.682 292.466 215.654 292.389C215.627 292.311 215.618 292.228 215.629 292.147C215.629 292.117 215.638 292.087 215.655 292.061C215.671 292.036 215.695 292.016 215.723 292.003L215.773 291.982Z" fill="#459BDD"/>
<path d="M218.832 292.987H218.868C218.889 292.975 218.905 292.956 218.915 292.935C218.925 292.913 218.929 292.889 218.925 292.865C218.925 292.8 218.789 291.242 218.064 290.632C217.967 290.545 217.853 290.479 217.73 290.437C217.606 290.395 217.476 290.378 217.346 290.388C216.965 290.388 216.858 290.603 216.829 290.761C216.714 291.407 218.071 292.678 218.76 293.001C218.785 293.002 218.81 292.997 218.832 292.987ZM217.195 290.661H217.339C217.439 290.651 217.54 290.663 217.635 290.695C217.73 290.728 217.818 290.779 217.892 290.847C218.309 291.355 218.56 291.98 218.61 292.635C217.892 292.197 216.987 291.199 217.051 290.811C217.073 290.79 217.08 290.697 217.195 290.661Z" fill="#459BDD"/>
<path d="M252.521 118.858C254.531 122.893 256.333 126.928 257.992 131.064C258.832 133.132 259.607 135.235 260.368 137.353C260.742 138.423 261.086 139.507 261.445 140.57L261.704 141.381L261.984 142.315C262.185 142.954 262.3 143.593 262.45 144.225C263.242 149.06 263.017 154.007 261.79 158.75C261.258 161.001 260.584 163.217 259.772 165.384C259.363 166.461 258.925 167.538 258.458 168.565C257.992 169.592 257.518 170.625 256.936 171.702L252.966 169.979C253.519 168.019 254.079 165.901 254.474 163.84C254.868 161.78 255.235 159.698 255.464 157.644C255.691 155.628 255.773 153.598 255.708 151.57C255.67 149.671 255.405 147.784 254.919 145.948C254.782 145.524 254.675 145.079 254.509 144.677C254.423 144.469 254.373 144.296 254.265 144.045L253.964 143.327C253.562 142.343 253.124 141.36 252.707 140.376C251.867 138.394 250.955 136.434 250.079 134.46L244.658 122.663L252.521 118.858Z" fill="#FFB573"/>
<path d="M251.041 115.268C256.297 116.919 261.467 134.747 261.467 134.747L249.304 140.067C249.304 140.067 245.369 131.451 243.1 124.702C240.637 117.343 244.665 113.272 251.041 115.268Z" fill="#459BDD"/>
<path opacity="0.2" d="M251.041 115.268C256.297 116.919 261.467 134.747 261.467 134.747L249.304 140.067C249.304 140.067 245.369 131.451 243.1 124.702C240.637 117.343 244.665 113.272 251.041 115.268Z" fill="black"/>
<path d="M253.289 169.01L250.453 174.129L257.137 175.867C257.137 175.867 259.155 170.906 256.771 169.326L253.289 169.01Z" fill="#FFB573"/>
<path d="M249.958 179.938L256.096 180.448L257.138 175.867L250.453 174.129L249.958 179.938Z" fill="#FFB573"/>
<path opacity="0.19" d="M213.066 207.696H61.152L71.8645 55.7887H223.779L213.066 207.696Z" fill="#459BDD"/>
<path opacity="0.2" d="M95.3793 207.696H73.5305L127.962 55.7887H149.811L95.3793 207.696Z" fill="white"/>
<path opacity="0.2" d="M148.446 207.696H100.254L154.685 55.7887H202.878L148.446 207.696Z" fill="white"/>
<path d="M72.2665 81.73L67.8149 81.4141L69.7823 53.5557H97.6478V58.0216H73.9395L72.2665 81.73Z" fill="#459BDD"/>
<path d="M86.9352 209.929H58.7537L60.7425 181.762L65.1941 182.078L63.5427 205.463H86.9352V209.929Z" fill="#459BDD"/>
<path d="M224.181 81.73L219.737 81.4141L221.381 58.0216H197.989V53.5557H226.17L224.181 81.73Z" fill="#459BDD"/>
<path d="M215.141 209.929H187.276V205.463H210.984L212.657 181.762L217.109 182.078L215.141 209.929Z" fill="#459BDD"/>
<g opacity="0.3">
<path d="M139.472 185.294C139.339 185.292 139.209 185.26 139.091 185.201C139.048 185.201 137.993 184.598 136.219 183.507C135.501 183.054 134.596 182.501 133.613 181.877C130.489 179.845 127.481 177.705 124.659 175.515C123.941 174.984 123.295 174.438 122.599 173.878C119.999 171.724 117.573 169.613 115.462 167.517C114.916 166.971 114.378 166.425 113.839 165.865C111.878 163.847 110.037 161.715 108.325 159.482C107.908 158.944 107.506 158.391 107.111 157.831C105.651 155.796 104.348 153.652 103.213 151.419C102.94 150.881 102.667 150.313 102.416 149.746C101.473 147.67 100.737 145.505 100.219 143.284C100.089 142.774 99.9744 142.222 99.8739 141.604C99.7949 141.202 99.7303 140.778 99.6801 140.362C99.4575 138.718 99.2708 137.045 99.0913 135.235C99.0339 134.697 98.9836 134.151 98.9333 133.613C98.7467 131.459 98.5887 129.355 98.4738 127.258V127.086C98.4738 126.612 98.4164 126.138 98.3948 125.65C98.2943 123.582 98.2225 121.45 98.1794 119.31V117.68C98.1794 115.419 98.1794 113.286 98.1794 111.34C98.1794 110.795 98.1794 110.249 98.2153 109.71C98.2656 107.37 98.3446 105.237 98.4379 103.371V103.248C98.4379 102.732 98.481 102.229 98.5097 101.733C98.639 99.4215 98.7897 97.2316 98.9477 95.3936C98.998 94.7689 99.041 94.2376 99.0913 93.7637C99.2564 91.9543 99.3785 90.942 99.3785 90.942C99.3933 90.7565 99.4737 90.5823 99.6053 90.4507C99.7368 90.3191 99.911 90.2387 100.097 90.224C100.226 90.224 113.473 89.1972 127.582 86.7129C130.454 86.2103 133.225 85.6647 135.853 85.0974C139.723 84.2502 143.263 83.3312 146.386 82.3619C146.542 82.3118 146.711 82.3118 146.867 82.3619C149.847 83.3383 153.257 84.2574 157.005 85.0974C159.554 85.6718 162.254 86.2103 165.047 86.7129C178.804 89.1972 191.907 90.2168 192.036 90.224C192.236 90.2404 192.422 90.333 192.556 90.4827C192.69 90.6323 192.761 90.8276 192.754 91.0281C192.754 91.0281 192.754 92.0333 192.647 93.8499C192.647 94.3309 192.596 94.8766 192.561 95.4797C192.453 97.325 192.295 99.5149 192.101 101.82C192.058 102.279 192.015 102.739 191.972 103.22V103.457C191.807 105.331 191.577 107.463 191.304 109.789C191.239 110.342 191.175 110.881 191.103 111.427C190.859 113.379 190.564 115.512 190.22 117.759L189.976 119.382C189.631 121.536 189.258 123.69 188.87 125.729C188.784 126.189 188.691 126.655 188.597 127.122L188.547 127.366C188.138 129.448 187.685 131.588 187.197 133.706L186.809 135.343C186.371 137.152 185.948 138.825 185.503 140.462C185.381 140.886 185.258 141.302 185.129 141.719C184.935 142.329 184.749 142.875 184.548 143.392C183.706 145.633 182.668 147.795 181.446 149.854C181.123 150.407 180.778 150.967 180.419 151.512C178.966 153.748 177.366 155.885 175.63 157.91C175.156 158.463 174.682 159.016 174.194 159.554C172.173 161.786 170.04 163.914 167.804 165.93C167.186 166.485 166.569 167.031 165.951 167.567C163.517 169.663 160.825 171.796 157.931 173.921C157.156 174.481 156.395 175.027 155.641 175.558C152.51 177.748 149.179 179.866 145.804 181.913C144.727 182.537 143.772 183.09 142.932 183.542C141.008 184.627 139.874 185.208 139.831 185.23C139.718 185.279 139.595 185.301 139.472 185.294ZM100.865 91.7605C100.814 92.2344 100.743 92.9524 100.657 93.9145C100.606 94.3884 100.563 94.9125 100.52 95.4869C100.362 97.3537 100.211 99.5292 100.082 101.834C100.082 102.322 100.032 102.818 100.003 103.335V103.457C99.9026 105.309 99.8308 107.427 99.7806 109.754C99.7806 110.285 99.7806 110.823 99.7447 111.369C99.7447 113.308 99.7447 115.426 99.7447 117.666V119.296C99.7878 121.414 99.8596 123.532 99.9601 125.578C99.9601 126.052 100.003 126.519 100.032 127.014V127.23C100.147 129.305 100.298 131.423 100.484 133.519C100.534 134.058 100.585 134.596 100.642 135.135C100.814 136.923 101.008 138.588 101.224 140.211C101.274 140.606 101.331 141.001 101.403 141.389C101.504 141.977 101.611 142.487 101.734 142.975C102.232 145.097 102.936 147.166 103.837 149.15C104.081 149.689 104.333 150.227 104.598 150.744C105.699 152.909 106.962 154.987 108.375 156.962C108.763 157.501 109.15 158.039 109.56 158.563C111.237 160.748 113.038 162.836 114.952 164.817C115.483 165.363 116.015 165.901 116.553 166.432C118.65 168.493 121.012 170.597 123.575 172.693C124.293 173.246 124.939 173.785 125.614 174.316C128.393 176.47 131.358 178.588 134.446 180.591C135.415 181.209 136.284 181.755 137.023 182.2C138.165 182.918 139.012 183.392 139.464 183.636C139.945 183.384 140.9 182.918 142.135 182.2C142.947 181.747 143.887 181.202 144.95 180.577C148.31 178.574 151.584 176.463 154.679 174.295C155.397 173.77 156.179 173.232 156.948 172.672C159.82 170.575 162.469 168.472 164.846 166.404C165.456 165.872 166.066 165.334 166.669 164.781C168.87 162.801 170.969 160.712 172.959 158.52C173.44 157.989 173.907 157.457 174.395 156.919C176.088 154.948 177.647 152.866 179.062 150.687C179.414 150.155 179.78 149.617 180.053 149.086C181.246 147.111 182.262 145.035 183.09 142.882C183.284 142.387 183.463 141.87 183.643 141.288C183.772 140.893 183.887 140.491 183.995 140.096C184.44 138.474 184.864 136.815 185.294 135.02C185.431 134.481 185.553 133.943 185.682 133.404C186.163 131.301 186.615 129.183 187.018 127.115L187.068 126.864C187.161 126.404 187.247 125.944 187.333 125.485C187.721 123.446 188.095 121.328 188.432 119.188L188.683 117.573C189.021 115.34 189.315 113.221 189.559 111.276C189.631 110.737 189.689 110.206 189.753 109.675C190.026 107.348 190.256 105.23 190.421 103.363V103.126C190.464 102.653 190.507 102.186 190.543 101.733C190.737 99.4503 190.895 97.2747 190.995 95.4438C191.031 94.8407 191.06 94.3022 191.089 93.8211C191.125 92.9452 191.153 92.2559 191.168 91.7892C188.181 91.5307 176.721 90.4753 164.774 88.3213C161.959 87.8115 159.238 87.2658 156.668 86.6914C152.97 85.8585 149.595 84.9538 146.616 83.9917C143.507 84.9538 140.003 85.8585 136.183 86.6914C133.541 87.2658 130.741 87.8115 127.854 88.3213C115.455 90.4681 103.715 91.5235 100.865 91.7605Z" fill="#459BDD"/>
<path d="M150.562 123.372C154.439 119.629 154.754 113.665 151.264 110.05C147.775 106.436 141.803 106.539 137.926 110.282C134.049 114.025 133.734 119.989 137.224 123.604C140.713 127.219 146.685 127.115 150.562 123.372Z" fill="#459BDD"/>
<path d="M146.314 120.114H144.01H141.712L135.207 150.457H148.54L146.314 120.114Z" fill="#459BDD"/>
<g opacity="0.2">
<path d="M164.903 87.5099H127.717C130.474 87.0216 133.267 86.4831 136.017 85.88H156.839C159.503 86.4831 162.217 87.0216 164.903 87.5099Z" fill="#459BDD"/>
<path d="M191.777 95.4509H99.7299C99.7729 94.8478 99.816 94.3093 99.8663 93.821H191.864C191.842 94.3093 191.813 94.8478 191.777 95.4509Z" fill="#459BDD"/>
<path d="M191.319 101.762C191.276 102.294 191.225 102.839 191.175 103.399H99.2136C99.2136 102.839 99.2639 102.294 99.2926 101.762H191.319Z" fill="#459BDD"/>
<path d="M190.507 109.71C190.442 110.249 190.378 110.795 190.306 111.34H98.9546C98.9546 110.795 98.9546 110.249 98.9905 109.71H190.507Z" fill="#459BDD"/>
<path d="M189.43 117.659C189.344 118.197 189.265 118.736 189.179 119.281H98.9619C98.9619 118.736 98.9619 118.197 98.9619 117.659H189.43Z" fill="#459BDD"/>
<path d="M188.116 125.6L187.793 127.23H99.2632C99.2632 126.684 99.1985 126.138 99.177 125.6H188.116Z" fill="#459BDD"/>
<path d="M186.414 133.548L186.026 135.171H99.8658C99.8084 134.632 99.7581 134.086 99.7079 133.548H186.414Z" fill="#459BDD"/>
<path d="M184.361 141.489C184.188 142.035 184.002 142.58 183.793 143.119H100.986C100.85 142.58 100.742 142.035 100.649 141.489H184.361Z" fill="#459BDD"/>
<path d="M180.749 149.43C180.433 149.976 180.089 150.529 179.744 151.06H103.916C103.643 150.529 103.385 149.976 103.141 149.43H180.749Z" fill="#459BDD"/>
<path d="M175.012 157.378C174.545 157.924 174.078 158.47 173.576 159.001H108.956C108.539 158.47 108.144 157.924 107.757 157.378H175.012Z" fill="#459BDD"/>
<path d="M167.244 165.32C166.633 165.872 166.023 166.418 165.406 166.949H116.014C115.476 166.418 114.937 165.872 114.406 165.32H167.244Z" fill="#459BDD"/>
<path d="M157.436 173.261C156.66 173.821 155.906 174.366 155.152 174.89H125.147C124.472 174.366 123.79 173.821 123.094 173.261H157.436Z" fill="#459BDD"/>
<path d="M145.373 181.209C144.303 181.834 143.356 182.379 142.544 182.832H136.635C135.917 182.379 135.012 181.834 134.036 181.209H145.373Z" fill="#459BDD"/>
</g>
</g>
</svg>
