<svg width="440" height="240" viewBox="0 0 440 240" fill="none" xmlns="http://www.w3.org/2000/svg">
<rect x="0.5" y="0.5" width="219" height="119" fill="url(#paint0_linear_119_111)"/>
<rect x="0.5" y="0.5" width="219" height="119" stroke="url(#paint1_linear_119_111)"/>
<path d="M38.1591 60.3182C36.6439 60.3182 35.2879 60.0341 34.0909 59.4659C32.8939 58.8902 31.9432 58.1023 31.2386 57.1023C30.5417 56.1023 30.1705 54.9583 30.125 53.6705H34.2159C34.2917 54.625 34.7045 55.4053 35.4545 56.0114C36.2045 56.6098 37.1061 56.9091 38.1591 56.9091C38.9848 56.9091 39.7197 56.7197 40.3636 56.3409C41.0076 55.9621 41.5152 55.4356 41.8864 54.7614C42.2576 54.0871 42.4394 53.3182 42.4318 52.4545C42.4394 51.5758 42.2538 50.7955 41.875 50.1136C41.4962 49.4318 40.9773 48.8977 40.3182 48.5114C39.6591 48.1174 38.9015 47.9205 38.0455 47.9205C37.3485 47.9129 36.6629 48.0417 35.9886 48.3068C35.3144 48.572 34.7803 48.9205 34.3864 49.3523L30.5795 48.7273L31.7955 36.7273H45.2955V40.25H35.2841L34.6136 46.4205H34.75C35.1818 45.9129 35.7917 45.4924 36.5795 45.1591C37.3674 44.8182 38.2311 44.6477 39.1705 44.6477C40.5795 44.6477 41.8371 44.9811 42.9432 45.6477C44.0492 46.3068 44.9205 47.2159 45.5568 48.375C46.1932 49.5341 46.5114 50.8598 46.5114 52.3523C46.5114 53.8902 46.1553 55.2614 45.4432 56.4659C44.7386 57.6629 43.7576 58.6061 42.5 59.2955C41.25 59.9773 39.803 60.3182 38.1591 60.3182ZM58.9205 60.4432C57.0492 60.4432 55.4432 59.9697 54.1023 59.0227C52.7689 58.0682 51.7424 56.6932 51.0227 54.8977C50.3106 53.0947 49.9545 50.9242 49.9545 48.3864C49.9621 45.8485 50.322 43.6894 51.0341 41.9091C51.7538 40.1212 52.7803 38.7576 54.1136 37.8182C55.4545 36.8788 57.0568 36.4091 58.9205 36.4091C60.7841 36.4091 62.3864 36.8788 63.7273 37.8182C65.0682 38.7576 66.0947 40.1212 66.8068 41.9091C67.5265 43.697 67.8864 45.8561 67.8864 48.3864C67.8864 50.9318 67.5265 53.1061 66.8068 54.9091C66.0947 56.7045 65.0682 58.0758 63.7273 59.0227C62.3939 59.9697 60.7917 60.4432 58.9205 60.4432ZM58.9205 56.8864C60.375 56.8864 61.5227 56.1705 62.3636 54.7386C63.2121 53.2992 63.6364 51.1818 63.6364 48.3864C63.6364 46.5379 63.4432 44.9848 63.0568 43.7273C62.6705 42.4697 62.125 41.5227 61.4205 40.8864C60.7159 40.2424 59.8826 39.9205 58.9205 39.9205C57.4735 39.9205 56.3295 40.6402 55.4886 42.0795C54.6477 43.5114 54.2235 45.6136 54.2159 48.3864C54.2083 50.2424 54.3939 51.803 54.7727 53.0682C55.1591 54.3333 55.7045 55.2879 56.4091 55.9318C57.1136 56.5682 57.9508 56.8864 58.9205 56.8864ZM78.571 56.2727V40.5455H82.1392V56.2727H78.571ZM72.4915 50.1932V46.625H88.2188V50.1932H72.4915Z" fill="white"/>
<path d="M29.233 88V77.8182H32.6733C33.4721 77.8182 34.125 77.9624 34.6321 78.2507C35.1425 78.5357 35.5204 78.9219 35.7656 79.4091C36.0109 79.8963 36.1335 80.4399 36.1335 81.0398C36.1335 81.6397 36.0109 82.1849 35.7656 82.6754C35.5237 83.166 35.1491 83.5571 34.642 83.8487C34.1349 84.1371 33.4853 84.2812 32.6932 84.2812H30.2273V83.1875H32.6534C33.2003 83.1875 33.6394 83.093 33.9709 82.9041C34.3023 82.7152 34.5426 82.46 34.6918 82.1385C34.8442 81.8137 34.9205 81.4474 34.9205 81.0398C34.9205 80.6321 34.8442 80.2675 34.6918 79.946C34.5426 79.6245 34.3007 79.3726 33.9659 79.1903C33.6312 79.0047 33.187 78.9119 32.6335 78.9119H30.4659V88H29.233ZM37.9606 88V80.3636H39.0941V81.517H39.1737C39.3129 81.1392 39.5647 80.8326 39.9293 80.5973C40.2939 80.362 40.7049 80.2443 41.1623 80.2443C41.2485 80.2443 41.3562 80.246 41.4854 80.2493C41.6147 80.2526 41.7125 80.2576 41.7788 80.2642V81.4574C41.739 81.4474 41.6478 81.4325 41.5053 81.4126C41.3661 81.3894 41.2186 81.3778 41.0629 81.3778C40.6916 81.3778 40.3602 81.4557 40.0685 81.6115C39.7802 81.764 39.5515 81.9761 39.3825 82.2479C39.2167 82.5163 39.1339 82.8229 39.1339 83.1676V88H37.9606ZM46.0394 88.1591C45.35 88.1591 44.7451 87.995 44.2248 87.6669C43.7077 87.3388 43.3034 86.8797 43.0117 86.2898C42.7234 85.6998 42.5792 85.0104 42.5792 84.2216C42.5792 83.4261 42.7234 82.7318 43.0117 82.1385C43.3034 81.5452 43.7077 81.0845 44.2248 80.7564C44.7451 80.4283 45.35 80.2642 46.0394 80.2642C46.7288 80.2642 47.332 80.4283 47.8491 80.7564C48.3694 81.0845 48.7738 81.5452 49.0621 82.1385C49.3538 82.7318 49.4996 83.4261 49.4996 84.2216C49.4996 85.0104 49.3538 85.6998 49.0621 86.2898C48.7738 86.8797 48.3694 87.3388 47.8491 87.6669C47.332 87.995 46.7288 88.1591 46.0394 88.1591ZM46.0394 87.1051C46.5631 87.1051 46.994 86.9709 47.332 86.7024C47.6701 86.4339 47.9203 86.081 48.0827 85.6435C48.2451 85.206 48.3263 84.732 48.3263 84.2216C48.3263 83.7112 48.2451 83.2356 48.0827 82.7947C47.9203 82.3539 47.6701 81.9976 47.332 81.7259C46.994 81.4541 46.5631 81.3182 46.0394 81.3182C45.5157 81.3182 45.0849 81.4541 44.7468 81.7259C44.4087 81.9976 44.1585 82.3539 43.9961 82.7947C43.8337 83.2356 43.7525 83.7112 43.7525 84.2216C43.7525 84.732 43.8337 85.206 43.9961 85.6435C44.1585 86.081 44.4087 86.4339 44.7468 86.7024C45.0849 86.9709 45.5157 87.1051 46.0394 87.1051ZM54.6117 80.3636V81.358H50.6543V80.3636H54.6117ZM51.8077 78.5341H52.981V85.8125C52.981 86.1439 53.0291 86.3925 53.1252 86.5582C53.2246 86.7206 53.3506 86.83 53.503 86.8864C53.6588 86.9394 53.8229 86.9659 53.9952 86.9659C54.1245 86.9659 54.2305 86.9593 54.3134 86.946C54.3962 86.9295 54.4625 86.9162 54.5123 86.9062L54.7509 87.9602C54.6713 87.9901 54.5603 88.0199 54.4178 88.0497C54.2753 88.0829 54.0946 88.0994 53.8759 88.0994C53.5444 88.0994 53.2196 88.0282 52.9015 87.8857C52.5866 87.7431 52.3248 87.526 52.1159 87.2344C51.9105 86.9427 51.8077 86.5748 51.8077 86.1307V78.5341ZM59.4963 88.1591C58.7605 88.1591 58.1258 87.9967 57.5922 87.6719C57.0618 87.3438 56.6525 86.8864 56.3642 86.2997C56.0791 85.7098 55.9366 85.0237 55.9366 84.2415C55.9366 83.4593 56.0791 82.7699 56.3642 82.1733C56.6525 81.5734 57.0536 81.1061 57.5673 80.7713C58.0843 80.4332 58.6876 80.2642 59.377 80.2642C59.7747 80.2642 60.1674 80.3305 60.5552 80.4631C60.943 80.5956 61.296 80.8111 61.6142 81.1094C61.9324 81.4044 62.1859 81.7955 62.3748 82.2827C62.5637 82.7699 62.6582 83.3698 62.6582 84.0824V84.5795H56.7718V83.5653H61.465C61.465 83.1345 61.3788 82.75 61.2065 82.4119C61.0375 82.0739 60.7955 81.8071 60.4806 81.6115C60.1691 81.416 59.8012 81.3182 59.377 81.3182C58.9096 81.3182 58.5053 81.4342 58.1639 81.6662C57.8258 81.8949 57.5656 82.1932 57.3833 82.5611C57.2011 82.929 57.1099 83.3234 57.1099 83.7443V84.4205C57.1099 84.9972 57.2093 85.486 57.4082 85.8871C57.6104 86.2848 57.8904 86.5881 58.2484 86.7969C58.6064 87.0024 59.0223 87.1051 59.4963 87.1051C59.8045 87.1051 60.0829 87.062 60.3315 86.9759C60.5834 86.8864 60.8005 86.7538 60.9828 86.5781C61.1651 86.3991 61.3059 86.1771 61.4054 85.9119L62.5389 86.2301C62.4196 86.6146 62.219 86.9527 61.9373 87.2443C61.6556 87.5327 61.3076 87.758 60.8933 87.9205C60.479 88.0795 60.0133 88.1591 59.4963 88.1591ZM67.5453 88.1591C66.8294 88.1591 66.2129 87.9901 65.6958 87.652C65.1788 87.3139 64.7811 86.8482 64.5027 86.255C64.2243 85.6617 64.085 84.9839 64.085 84.2216C64.085 83.446 64.2276 82.7616 64.5126 82.1683C64.801 81.5717 65.202 81.1061 65.7157 80.7713C66.2328 80.4332 66.836 80.2642 67.5254 80.2642C68.0623 80.2642 68.5462 80.3636 68.9771 80.5625C69.408 80.7614 69.7609 81.0398 70.036 81.3977C70.3111 81.7557 70.4818 82.1733 70.5481 82.6506H69.3748C69.2853 82.3026 69.0865 81.9943 68.7782 81.7259C68.4733 81.4541 68.0623 81.3182 67.5453 81.3182C67.0879 81.3182 66.6868 81.4375 66.3422 81.6761C66.0008 81.9115 65.734 82.2446 65.5417 82.6754C65.3528 83.103 65.2583 83.6051 65.2583 84.1818C65.2583 84.7718 65.3511 85.2855 65.5368 85.723C65.7257 86.1605 65.9908 86.5002 66.3322 86.7422C66.6769 86.9841 67.0813 87.1051 67.5453 87.1051C67.8502 87.1051 68.127 87.0521 68.3755 86.946C68.6241 86.84 68.8346 86.6875 69.0069 86.4886C69.1793 86.2898 69.3019 86.0511 69.3748 85.7727H70.5481C70.4818 86.2235 70.3178 86.6295 70.0559 86.9908C69.7974 87.3487 69.4544 87.6338 69.0268 87.8459C68.6026 88.0547 68.1087 88.1591 67.5453 88.1591ZM75.5843 80.3636V81.358H71.627V80.3636H75.5843ZM72.7804 78.5341H73.9537V85.8125C73.9537 86.1439 74.0017 86.3925 74.0978 86.5582C74.1973 86.7206 74.3232 86.83 74.4757 86.8864C74.6315 86.9394 74.7955 86.9659 74.9679 86.9659C75.0971 86.9659 75.2032 86.9593 75.286 86.946C75.3689 86.9295 75.4352 86.9162 75.4849 86.9062L75.7235 87.9602C75.644 87.9901 75.533 88.0199 75.3904 88.0497C75.2479 88.0829 75.0673 88.0994 74.8485 88.0994C74.5171 88.0994 74.1923 88.0282 73.8741 87.8857C73.5592 87.7431 73.2974 87.526 73.0886 87.2344C72.8831 86.9427 72.7804 86.5748 72.7804 86.1307V78.5341ZM80.4689 88.1591C79.7331 88.1591 79.0984 87.9967 78.5648 87.6719C78.0345 87.3438 77.6252 86.8864 77.3368 86.2997C77.0518 85.7098 76.9093 85.0237 76.9093 84.2415C76.9093 83.4593 77.0518 82.7699 77.3368 82.1733C77.6252 81.5734 78.0262 81.1061 78.54 80.7713C79.057 80.4332 79.6602 80.2642 80.3496 80.2642C80.7473 80.2642 81.1401 80.3305 81.5279 80.4631C81.9157 80.5956 82.2686 80.8111 82.5868 81.1094C82.905 81.4044 83.1586 81.7955 83.3475 82.2827C83.5364 82.7699 83.6309 83.3698 83.6309 84.0824V84.5795H77.7445V83.5653H82.4377C82.4377 83.1345 82.3515 82.75 82.1792 82.4119C82.0101 82.0739 81.7682 81.8071 81.4533 81.6115C81.1417 81.416 80.7739 81.3182 80.3496 81.3182C79.8823 81.3182 79.4779 81.4342 79.1365 81.6662C78.7985 81.8949 78.5383 82.1932 78.356 82.5611C78.1737 82.929 78.0826 83.3234 78.0826 83.7443V84.4205C78.0826 84.9972 78.182 85.486 78.3809 85.8871C78.583 86.2848 78.8631 86.5881 79.2211 86.7969C79.579 87.0024 79.995 87.1051 80.4689 87.1051C80.7772 87.1051 81.0556 87.062 81.3042 86.9759C81.556 86.8864 81.7731 86.7538 81.9554 86.5781C82.1377 86.3991 82.2786 86.1771 82.378 85.9119L83.5115 86.2301C83.3922 86.6146 83.1917 86.9527 82.91 87.2443C82.6283 87.5327 82.2802 87.758 81.8659 87.9205C81.4516 88.0795 80.986 88.1591 80.4689 88.1591ZM88.2992 88.1591C87.6628 88.1591 87.101 87.9983 86.6138 87.6768C86.1266 87.352 85.7454 86.8946 85.4703 86.3047C85.1953 85.7114 85.0577 85.0104 85.0577 84.2017C85.0577 83.3996 85.1953 82.7036 85.4703 82.1136C85.7454 81.5237 86.1283 81.0679 86.6188 80.7464C87.1093 80.425 87.6761 80.2642 88.3191 80.2642C88.8162 80.2642 89.209 80.3471 89.4973 80.5128C89.789 80.6752 90.0111 80.8608 90.1635 81.0696C90.3193 81.2751 90.4403 81.4441 90.5265 81.5767H90.6259V77.8182H91.7992V88H90.6657V86.8267H90.5265C90.4403 86.9659 90.3176 87.1416 90.1586 87.3537C89.9995 87.5625 89.7724 87.7498 89.4775 87.9155C89.1825 88.0779 88.7897 88.1591 88.2992 88.1591ZM88.4583 87.1051C88.9289 87.1051 89.3266 86.9825 89.6515 86.7372C89.9763 86.4886 90.2232 86.1456 90.3922 85.7081C90.5613 85.2673 90.6458 84.7585 90.6458 84.1818C90.6458 83.6117 90.5629 83.1129 90.3972 82.6854C90.2315 82.2545 89.9862 81.9197 89.6614 81.6811C89.3366 81.4392 88.9355 81.3182 88.4583 81.3182C87.9611 81.3182 87.5468 81.4458 87.2154 81.701C86.8873 81.9529 86.6403 82.2959 86.4746 82.7301C86.3122 83.161 86.231 83.6449 86.231 84.1818C86.231 84.7254 86.3139 85.2192 86.4796 85.6634C86.6486 86.1042 86.8972 86.4555 87.2253 86.7173C87.5568 86.9759 87.9677 87.1051 88.4583 87.1051ZM106.401 81H105.168C105.095 80.6454 104.967 80.3338 104.785 80.0653C104.606 79.7969 104.387 79.5715 104.129 79.3892C103.874 79.2036 103.59 79.0644 103.279 78.9716C102.967 78.8788 102.642 78.8324 102.304 78.8324C101.688 78.8324 101.129 78.9882 100.629 79.2997C100.132 79.6113 99.7355 80.0703 99.4405 80.6768C99.1489 81.2834 99.003 82.0275 99.003 82.9091C99.003 83.7907 99.1489 84.5348 99.4405 85.1413C99.7355 85.7479 100.132 86.2069 100.629 86.5185C101.129 86.83 101.688 86.9858 102.304 86.9858C102.642 86.9858 102.967 86.9394 103.279 86.8466C103.59 86.7538 103.874 86.6162 104.129 86.4339C104.387 86.2483 104.606 86.0213 104.785 85.7528C104.967 85.4811 105.095 85.1695 105.168 84.8182H106.401C106.308 85.3385 106.139 85.8042 105.894 86.2152C105.648 86.6262 105.343 86.9759 104.979 87.2642C104.614 87.5492 104.205 87.7663 103.751 87.9155C103.3 88.0646 102.818 88.1392 102.304 88.1392C101.436 88.1392 100.664 87.9271 99.9874 87.5028C99.3113 87.0786 98.7793 86.4754 98.3915 85.6932C98.0037 84.911 97.8098 83.983 97.8098 82.9091C97.8098 81.8352 98.0037 80.9072 98.3915 80.125C98.7793 79.3428 99.3113 78.7396 99.9874 78.3153C100.664 77.8911 101.436 77.679 102.304 77.679C102.818 77.679 103.3 77.7536 103.751 77.9027C104.205 78.0518 104.614 78.2706 104.979 78.5589C105.343 78.844 105.648 79.192 105.894 79.603C106.139 80.0107 106.308 80.4763 106.401 81ZM109.407 77.8182V88H108.234V77.8182H109.407ZM111.556 88V80.3636H112.73V88H111.556ZM112.153 79.0909C111.924 79.0909 111.727 79.013 111.561 78.8572C111.399 78.7015 111.318 78.5142 111.318 78.2955C111.318 78.0767 111.399 77.8894 111.561 77.7337C111.727 77.5779 111.924 77.5 112.153 77.5C112.382 77.5 112.577 77.5779 112.74 77.7337C112.905 77.8894 112.988 78.0767 112.988 78.2955C112.988 78.5142 112.905 78.7015 112.74 78.8572C112.577 79.013 112.382 79.0909 112.153 79.0909ZM118.08 88.1591C117.344 88.1591 116.71 87.9967 116.176 87.6719C115.646 87.3438 115.237 86.8864 114.948 86.2997C114.663 85.7098 114.521 85.0237 114.521 84.2415C114.521 83.4593 114.663 82.7699 114.948 82.1733C115.237 81.5734 115.638 81.1061 116.151 80.7713C116.668 80.4332 117.272 80.2642 117.961 80.2642C118.359 80.2642 118.751 80.3305 119.139 80.4631C119.527 80.5956 119.88 80.8111 120.198 81.1094C120.516 81.4044 120.77 81.7955 120.959 82.2827C121.148 82.7699 121.242 83.3698 121.242 84.0824V84.5795H115.356V83.5653H120.049C120.049 83.1345 119.963 82.75 119.79 82.4119C119.621 82.0739 119.379 81.8071 119.065 81.6115C118.753 81.416 118.385 81.3182 117.961 81.3182C117.494 81.3182 117.089 81.4342 116.748 81.6662C116.41 81.8949 116.15 82.1932 115.967 82.5611C115.785 82.929 115.694 83.3234 115.694 83.7443V84.4205C115.694 84.9972 115.793 85.486 115.992 85.8871C116.194 86.2848 116.474 86.5881 116.832 86.7969C117.19 87.0024 117.606 87.1051 118.08 87.1051C118.388 87.1051 118.667 87.062 118.915 86.9759C119.167 86.8864 119.384 86.7538 119.567 86.5781C119.749 86.3991 119.89 86.1771 119.989 85.9119L121.123 86.2301C121.004 86.6146 120.803 86.9527 120.521 87.2443C120.24 87.5327 119.892 87.758 119.477 87.9205C119.063 88.0795 118.597 88.1591 118.08 88.1591ZM124.2 83.4062V88H123.027V80.3636H124.161V81.5568H124.26C124.439 81.169 124.711 80.8575 125.075 80.6222C125.44 80.3835 125.911 80.2642 126.487 80.2642C127.004 80.2642 127.457 80.3703 127.844 80.5824C128.232 80.7912 128.534 81.1094 128.749 81.5369C128.965 81.9612 129.072 82.4981 129.072 83.1477V88H127.899V83.2273C127.899 82.6274 127.743 82.16 127.432 81.8253C127.12 81.4872 126.693 81.3182 126.149 81.3182C125.775 81.3182 125.44 81.3994 125.145 81.5618C124.853 81.7242 124.623 81.9612 124.454 82.2727C124.285 82.5843 124.2 82.9621 124.2 83.4062ZM134.537 80.3636V81.358H130.58V80.3636H134.537ZM131.733 78.5341H132.907V85.8125C132.907 86.1439 132.955 86.3925 133.051 86.5582C133.15 86.7206 133.276 86.83 133.429 86.8864C133.585 86.9394 133.749 86.9659 133.921 86.9659C134.05 86.9659 134.156 86.9593 134.239 86.946C134.322 86.9295 134.388 86.9162 134.438 86.9062L134.677 87.9602C134.597 87.9901 134.486 88.0199 134.344 88.0497C134.201 88.0829 134.02 88.0994 133.802 88.0994C133.47 88.0994 133.145 88.0282 132.827 87.8857C132.512 87.7431 132.251 87.526 132.042 87.2344C131.836 86.9427 131.733 86.5748 131.733 86.1307V78.5341ZM141.575 82.0739L140.521 82.3722C140.454 82.1965 140.357 82.0258 140.227 81.8601C140.102 81.6911 139.929 81.5518 139.71 81.4425C139.492 81.3331 139.212 81.2784 138.87 81.2784C138.403 81.2784 138.013 81.3861 137.702 81.6016C137.394 81.8137 137.24 82.0838 137.24 82.4119C137.24 82.7036 137.346 82.9339 137.558 83.103C137.77 83.272 138.101 83.4129 138.552 83.5256L139.686 83.804C140.368 83.9697 140.877 84.2232 141.212 84.5646C141.547 84.9027 141.714 85.3385 141.714 85.8722C141.714 86.3097 141.588 86.7008 141.336 87.0455C141.088 87.3902 140.74 87.6619 140.292 87.8608C139.845 88.0597 139.324 88.1591 138.731 88.1591C137.952 88.1591 137.307 87.9901 136.797 87.652C136.287 87.3139 135.963 86.8201 135.828 86.1705L136.941 85.892C137.047 86.303 137.248 86.6113 137.543 86.8168C137.841 87.0223 138.231 87.125 138.711 87.125C139.258 87.125 139.692 87.009 140.014 86.777C140.338 86.5417 140.501 86.2599 140.501 85.9318C140.501 85.6667 140.408 85.4446 140.222 85.2656C140.037 85.0833 139.752 84.9474 139.367 84.858L138.095 84.5597C137.395 84.3939 136.882 84.1371 136.553 83.7891C136.229 83.4377 136.066 82.9986 136.066 82.4716C136.066 82.0407 136.187 81.6596 136.429 81.3281C136.674 80.9967 137.008 80.7365 137.428 80.5476C137.853 80.3587 138.333 80.2642 138.87 80.2642C139.626 80.2642 140.219 80.4299 140.65 80.7614C141.084 81.0928 141.392 81.5303 141.575 82.0739Z" fill="#B1B1B1"/>
<rect x="220.5" y="0.5" width="219" height="119" fill="url(#paint2_linear_119_111)"/>
<rect x="220.5" y="0.5" width="219" height="119" stroke="url(#paint3_linear_119_111)"/>
<path d="M249.651 77.8182L252.673 86.3892H252.793L255.815 77.8182H257.108L253.369 88H252.097L248.358 77.8182H249.651ZM263.347 84.8778V80.3636H264.521V88H263.347V86.7074H263.268C263.089 87.0952 262.81 87.425 262.433 87.6967C262.055 87.9652 261.577 88.0994 261.001 88.0994C260.523 88.0994 260.099 87.995 259.728 87.7862C259.357 87.5741 259.065 87.2559 258.853 86.8317C258.641 86.4041 258.535 85.8655 258.535 85.2159V80.3636H259.708V85.1364C259.708 85.6932 259.864 86.1373 260.175 86.4688C260.49 86.8002 260.891 86.9659 261.379 86.9659C261.67 86.9659 261.967 86.8913 262.268 86.7422C262.573 86.593 262.829 86.3643 263.034 86.0561C263.243 85.7479 263.347 85.3551 263.347 84.8778ZM267.843 77.8182V88H266.67V77.8182H267.843ZM271.165 83.4062V88H269.992V80.3636H271.125V81.5568H271.225C271.404 81.169 271.676 80.8575 272.04 80.6222C272.405 80.3835 272.875 80.2642 273.452 80.2642C273.969 80.2642 274.422 80.3703 274.809 80.5824C275.197 80.7912 275.499 81.1094 275.714 81.5369C275.93 81.9612 276.037 82.4981 276.037 83.1477V88H274.864V83.2273C274.864 82.6274 274.708 82.16 274.397 81.8253C274.085 81.4872 273.658 81.3182 273.114 81.3182C272.739 81.3182 272.405 81.3994 272.11 81.5618C271.818 81.7242 271.588 81.9612 271.419 82.2727C271.25 82.5843 271.165 82.9621 271.165 83.4062ZM281.383 88.1591C280.647 88.1591 280.012 87.9967 279.479 87.6719C278.949 87.3438 278.539 86.8864 278.251 86.2997C277.966 85.7098 277.823 85.0237 277.823 84.2415C277.823 83.4593 277.966 82.7699 278.251 82.1733C278.539 81.5734 278.94 81.1061 279.454 80.7713C279.971 80.4332 280.574 80.2642 281.264 80.2642C281.661 80.2642 282.054 80.3305 282.442 80.4631C282.83 80.5956 283.183 80.8111 283.501 81.1094C283.819 81.4044 284.073 81.7955 284.262 82.2827C284.45 82.7699 284.545 83.3698 284.545 84.0824V84.5795H278.659V83.5653H283.352C283.352 83.1345 283.266 82.75 283.093 82.4119C282.924 82.0739 282.682 81.8071 282.367 81.6115C282.056 81.416 281.688 81.3182 281.264 81.3182C280.796 81.3182 280.392 81.4342 280.051 81.6662C279.713 81.8949 279.452 82.1932 279.27 82.5611C279.088 82.929 278.997 83.3234 278.997 83.7443V84.4205C278.997 84.9972 279.096 85.486 279.295 85.8871C279.497 86.2848 279.777 86.5881 280.135 86.7969C280.493 87.0024 280.909 87.1051 281.383 87.1051C281.691 87.1051 281.97 87.062 282.218 86.9759C282.47 86.8864 282.687 86.7538 282.869 86.5781C283.052 86.3991 283.193 86.1771 283.292 85.9119L284.426 86.2301C284.306 86.6146 284.106 86.9527 283.824 87.2443C283.542 87.5327 283.194 87.758 282.78 87.9205C282.366 88.0795 281.9 88.1591 281.383 88.1591ZM286.33 88V80.3636H287.463V81.517H287.543C287.682 81.1392 287.934 80.8326 288.298 80.5973C288.663 80.362 289.074 80.2443 289.531 80.2443C289.618 80.2443 289.725 80.246 289.855 80.2493C289.984 80.2526 290.082 80.2576 290.148 80.2642V81.4574C290.108 81.4474 290.017 81.4325 289.874 81.4126C289.735 81.3894 289.588 81.3778 289.432 81.3778C289.061 81.3778 288.729 81.4557 288.438 81.6115C288.149 81.764 287.921 81.9761 287.752 82.2479C287.586 82.5163 287.503 82.8229 287.503 83.1676V88H286.33ZM293.786 88.179C293.302 88.179 292.863 88.0878 292.468 87.9055C292.074 87.7199 291.761 87.4531 291.529 87.1051C291.297 86.7538 291.181 86.3295 291.181 85.8324C291.181 85.3949 291.267 85.0402 291.439 84.7685C291.612 84.4934 291.842 84.2779 292.13 84.1222C292.419 83.9664 292.737 83.8504 293.085 83.7741C293.436 83.6946 293.789 83.6316 294.144 83.5852C294.608 83.5256 294.984 83.4808 295.272 83.451C295.564 83.4179 295.776 83.3632 295.909 83.2869C296.045 83.2107 296.113 83.0781 296.113 82.8892V82.8494C296.113 82.3589 295.978 81.9777 295.71 81.706C295.445 81.4342 295.042 81.2983 294.502 81.2983C293.942 81.2983 293.502 81.4209 293.184 81.6662C292.866 81.9115 292.642 82.1733 292.513 82.4517L291.4 82.054C291.598 81.59 291.864 81.2287 292.195 80.9702C292.53 80.7083 292.894 80.526 293.289 80.4233C293.686 80.3172 294.078 80.2642 294.462 80.2642C294.707 80.2642 294.989 80.294 295.307 80.3537C295.629 80.41 295.939 80.5277 296.237 80.7067C296.538 80.8857 296.789 81.1558 296.988 81.517C297.186 81.8783 297.286 82.3622 297.286 82.9688V88H296.113V86.9659H296.053C295.973 87.1316 295.841 87.3089 295.655 87.4979C295.47 87.6868 295.223 87.8475 294.914 87.9801C294.606 88.1127 294.23 88.179 293.786 88.179ZM293.965 87.125C294.429 87.125 294.82 87.0339 295.138 86.8516C295.46 86.6693 295.702 86.4339 295.864 86.1456C296.03 85.8572 296.113 85.554 296.113 85.2358V84.1619C296.063 84.2216 295.953 84.2763 295.784 84.326C295.619 84.3724 295.426 84.4138 295.208 84.4503C294.992 84.4834 294.782 84.5133 294.576 84.5398C294.374 84.563 294.21 84.5829 294.084 84.5994C293.779 84.6392 293.494 84.7038 293.229 84.7933C292.967 84.8795 292.755 85.0104 292.593 85.1861C292.434 85.3584 292.354 85.5937 292.354 85.892C292.354 86.2997 292.505 86.608 292.806 86.8168C293.111 87.0223 293.498 87.125 293.965 87.125ZM299.586 88V77.8182H300.76V81.5767H300.859C300.945 81.4441 301.065 81.2751 301.217 81.0696C301.373 80.8608 301.595 80.6752 301.883 80.5128C302.175 80.3471 302.569 80.2642 303.067 80.2642C303.71 80.2642 304.276 80.425 304.767 80.7464C305.257 81.0679 305.64 81.5237 305.915 82.1136C306.19 82.7036 306.328 83.3996 306.328 84.2017C306.328 85.0104 306.19 85.7114 305.915 86.3047C305.64 86.8946 305.259 87.352 304.772 87.6768C304.285 87.9983 303.723 88.1591 303.086 88.1591C302.596 88.1591 302.203 88.0779 301.908 87.9155C301.613 87.7498 301.386 87.5625 301.227 87.3537C301.068 87.1416 300.945 86.9659 300.859 86.8267H300.72V88H299.586ZM300.74 84.1818C300.74 84.7585 300.824 85.2673 300.993 85.7081C301.162 86.1456 301.409 86.4886 301.734 86.7372C302.059 86.9825 302.457 87.1051 302.927 87.1051C303.418 87.1051 303.827 86.9759 304.155 86.7173C304.487 86.4555 304.735 86.1042 304.901 85.6634C305.07 85.2192 305.155 84.7254 305.155 84.1818C305.155 83.6449 305.072 83.161 304.906 82.7301C304.744 82.2959 304.497 81.9529 304.165 81.701C303.837 81.4458 303.425 81.3182 302.927 81.3182C302.45 81.3182 302.049 81.4392 301.724 81.6811C301.399 81.9197 301.154 82.2545 300.988 82.6854C300.823 83.1129 300.74 83.6117 300.74 84.1818ZM308.123 88V80.3636H309.296V88H308.123ZM308.719 79.0909C308.491 79.0909 308.293 79.013 308.128 78.8572C307.965 78.7015 307.884 78.5142 307.884 78.2955C307.884 78.0767 307.965 77.8894 308.128 77.7337C308.293 77.5779 308.491 77.5 308.719 77.5C308.948 77.5 309.144 77.5779 309.306 77.7337C309.472 77.8894 309.555 78.0767 309.555 78.2955C309.555 78.5142 309.472 78.7015 309.306 78.8572C309.144 79.013 308.948 79.0909 308.719 79.0909ZM312.618 77.8182V88H311.445V77.8182H312.618ZM314.767 88V80.3636H315.941V88H314.767ZM315.364 79.0909C315.135 79.0909 314.938 79.013 314.772 78.8572C314.61 78.7015 314.529 78.5142 314.529 78.2955C314.529 78.0767 314.61 77.8894 314.772 77.7337C314.938 77.5779 315.135 77.5 315.364 77.5C315.593 77.5 315.788 77.5779 315.95 77.7337C316.116 77.8894 316.199 78.0767 316.199 78.2955C316.199 78.5142 316.116 78.7015 315.95 78.8572C315.788 79.013 315.593 79.0909 315.364 79.0909ZM321.411 80.3636V81.358H317.453V80.3636H321.411ZM318.607 78.5341H319.78V85.8125C319.78 86.1439 319.828 86.3925 319.924 86.5582C320.023 86.7206 320.149 86.83 320.302 86.8864C320.458 86.9394 320.622 86.9659 320.794 86.9659C320.923 86.9659 321.029 86.9593 321.112 86.946C321.195 86.9295 321.261 86.9162 321.311 86.9062L321.55 87.9602C321.47 87.9901 321.359 88.0199 321.217 88.0497C321.074 88.0829 320.893 88.0994 320.675 88.0994C320.343 88.0994 320.018 88.0282 319.7 87.8857C319.385 87.7431 319.124 87.526 318.915 87.2344C318.709 86.9427 318.607 86.5748 318.607 86.1307V78.5341ZM323.175 88V80.3636H324.349V88H323.175ZM323.772 79.0909C323.543 79.0909 323.346 79.013 323.18 78.8572C323.018 78.7015 322.937 78.5142 322.937 78.2955C322.937 78.0767 323.018 77.8894 323.18 77.7337C323.346 77.5779 323.543 77.5 323.772 77.5C324.001 77.5 324.196 77.5779 324.359 77.7337C324.524 77.8894 324.607 78.0767 324.607 78.2955C324.607 78.5142 324.524 78.7015 324.359 78.8572C324.196 79.013 324.001 79.0909 323.772 79.0909ZM329.699 88.1591C328.964 88.1591 328.329 87.9967 327.795 87.6719C327.265 87.3438 326.856 86.8864 326.567 86.2997C326.282 85.7098 326.14 85.0237 326.14 84.2415C326.14 83.4593 326.282 82.7699 326.567 82.1733C326.856 81.5734 327.257 81.1061 327.77 80.7713C328.287 80.4332 328.891 80.2642 329.58 80.2642C329.978 80.2642 330.371 80.3305 330.758 80.4631C331.146 80.5956 331.499 80.8111 331.817 81.1094C332.135 81.4044 332.389 81.7955 332.578 82.2827C332.767 82.7699 332.861 83.3698 332.861 84.0824V84.5795H326.975V83.5653H331.668C331.668 83.1345 331.582 82.75 331.41 82.4119C331.241 82.0739 330.999 81.8071 330.684 81.6115C330.372 81.416 330.004 81.3182 329.58 81.3182C329.113 81.3182 328.708 81.4342 328.367 81.6662C328.029 81.8949 327.769 82.1932 327.586 82.5611C327.404 82.929 327.313 83.3234 327.313 83.7443V84.4205C327.313 84.9972 327.412 85.486 327.611 85.8871C327.814 86.2848 328.094 86.5881 328.452 86.7969C328.809 87.0024 329.225 87.1051 329.699 87.1051C330.008 87.1051 330.286 87.062 330.535 86.9759C330.787 86.8864 331.004 86.7538 331.186 86.5781C331.368 86.3991 331.509 86.1771 331.608 85.9119L332.742 86.2301C332.623 86.6146 332.422 86.9527 332.14 87.2443C331.859 87.5327 331.511 87.758 331.096 87.9205C330.682 88.0795 330.216 88.1591 329.699 88.1591ZM340.055 82.0739L339.001 82.3722C338.935 82.1965 338.837 82.0258 338.708 81.8601C338.582 81.6911 338.41 81.5518 338.191 81.4425C337.972 81.3331 337.692 81.2784 337.351 81.2784C336.883 81.2784 336.494 81.3861 336.182 81.6016C335.874 81.8137 335.72 82.0838 335.72 82.4119C335.72 82.7036 335.826 82.9339 336.038 83.103C336.25 83.272 336.582 83.4129 337.032 83.5256L338.166 83.804C338.849 83.9697 339.358 84.2232 339.692 84.5646C340.027 84.9027 340.194 85.3385 340.194 85.8722C340.194 86.3097 340.068 86.7008 339.817 87.0455C339.568 87.3902 339.22 87.6619 338.773 87.8608C338.325 88.0597 337.805 88.1591 337.211 88.1591C336.433 88.1591 335.788 87.9901 335.278 87.652C334.767 87.3139 334.444 86.8201 334.308 86.1705L335.422 85.892C335.528 86.303 335.728 86.6113 336.023 86.8168C336.322 87.0223 336.711 87.125 337.192 87.125C337.738 87.125 338.173 87.009 338.494 86.777C338.819 86.5417 338.981 86.2599 338.981 85.9318C338.981 85.6667 338.889 85.4446 338.703 85.2656C338.517 85.0833 338.232 84.9474 337.848 84.858L336.575 84.5597C335.876 84.3939 335.362 84.1371 335.034 83.7891C334.709 83.4377 334.547 82.9986 334.547 82.4716C334.547 82.0407 334.668 81.6596 334.91 81.3281C335.155 80.9967 335.488 80.7365 335.909 80.5476C336.333 80.3587 336.814 80.2642 337.351 80.2642C338.106 80.2642 338.7 80.4299 339.131 80.7614C339.565 81.0928 339.873 81.5303 340.055 82.0739ZM349.199 88H346.057V77.8182H349.338C350.326 77.8182 351.171 78.022 351.874 78.4297C352.577 78.834 353.115 79.4157 353.49 80.1747C353.864 80.9304 354.051 81.8352 354.051 82.8892C354.051 83.9498 353.863 84.8629 353.485 85.6286C353.107 86.3909 352.557 86.9775 351.834 87.3885C351.112 87.7962 350.233 88 349.199 88ZM347.29 86.9062H349.12C349.962 86.9062 350.659 86.7438 351.213 86.419C351.766 86.0942 352.179 85.6319 352.451 85.032C352.722 84.4321 352.858 83.7178 352.858 82.8892C352.858 82.0672 352.724 81.3596 352.456 80.7663C352.187 80.1697 351.786 79.7124 351.252 79.3942C350.719 79.0727 350.054 78.9119 349.259 78.9119H347.29V86.9062ZM359.162 88.1591C358.426 88.1591 357.792 87.9967 357.258 87.6719C356.728 87.3438 356.319 86.8864 356.03 86.2997C355.745 85.7098 355.603 85.0237 355.603 84.2415C355.603 83.4593 355.745 82.7699 356.03 82.1733C356.319 81.5734 356.72 81.1061 357.233 80.7713C357.75 80.4332 358.354 80.2642 359.043 80.2642C359.441 80.2642 359.833 80.3305 360.221 80.4631C360.609 80.5956 360.962 80.8111 361.28 81.1094C361.598 81.4044 361.852 81.7955 362.041 82.2827C362.23 82.7699 362.324 83.3698 362.324 84.0824V84.5795H356.438V83.5653H361.131C361.131 83.1345 361.045 82.75 360.873 82.4119C360.703 82.0739 360.462 81.8071 360.147 81.6115C359.835 81.416 359.467 81.3182 359.043 81.3182C358.576 81.3182 358.171 81.4342 357.83 81.6662C357.492 81.8949 357.232 82.1932 357.049 82.5611C356.867 82.929 356.776 83.3234 356.776 83.7443V84.4205C356.776 84.9972 356.875 85.486 357.074 85.8871C357.276 86.2848 357.556 86.5881 357.914 86.7969C358.272 87.0024 358.688 87.1051 359.162 87.1051C359.471 87.1051 359.749 87.062 359.998 86.9759C360.249 86.8864 360.467 86.7538 360.649 86.5781C360.831 86.3991 360.972 86.1771 361.071 85.9119L362.205 86.2301C362.086 86.6146 361.885 86.9527 361.603 87.2443C361.322 87.5327 360.974 87.758 360.559 87.9205C360.145 88.0795 359.679 88.1591 359.162 88.1591ZM367.43 80.3636V81.358H363.473V80.3636H367.43ZM364.626 78.5341H365.799V85.8125C365.799 86.1439 365.847 86.3925 365.944 86.5582C366.043 86.7206 366.169 86.83 366.321 86.8864C366.477 86.9394 366.641 86.9659 366.814 86.9659C366.943 86.9659 367.049 86.9593 367.132 86.946C367.215 86.9295 367.281 86.9162 367.331 86.9062L367.569 87.9602C367.49 87.9901 367.379 88.0199 367.236 88.0497C367.094 88.0829 366.913 88.0994 366.694 88.0994C366.363 88.0994 366.038 88.0282 365.72 87.8857C365.405 87.7431 365.143 87.526 364.934 87.2344C364.729 86.9427 364.626 86.5748 364.626 86.1307V78.5341ZM372.315 88.1591C371.579 88.1591 370.944 87.9967 370.411 87.6719C369.88 87.3438 369.471 86.8864 369.183 86.2997C368.897 85.7098 368.755 85.0237 368.755 84.2415C368.755 83.4593 368.897 82.7699 369.183 82.1733C369.471 81.5734 369.872 81.1061 370.386 80.7713C370.903 80.4332 371.506 80.2642 372.195 80.2642C372.593 80.2642 372.986 80.3305 373.374 80.4631C373.761 80.5956 374.114 80.8111 374.433 81.1094C374.751 81.4044 375.004 81.7955 375.193 82.2827C375.382 82.7699 375.477 83.3698 375.477 84.0824V84.5795H369.59V83.5653H374.283C374.283 83.1345 374.197 82.75 374.025 82.4119C373.856 82.0739 373.614 81.8071 373.299 81.6115C372.987 81.416 372.62 81.3182 372.195 81.3182C371.728 81.3182 371.324 81.4342 370.982 81.6662C370.644 81.8949 370.384 82.1932 370.202 82.5611C370.019 82.929 369.928 83.3234 369.928 83.7443V84.4205C369.928 84.9972 370.028 85.486 370.227 85.8871C370.429 86.2848 370.709 86.5881 371.067 86.7969C371.425 87.0024 371.841 87.1051 372.315 87.1051C372.623 87.1051 372.901 87.062 373.15 86.9759C373.402 86.8864 373.619 86.7538 373.801 86.5781C373.983 86.3991 374.124 86.1771 374.224 85.9119L375.357 86.2301C375.238 86.6146 375.037 86.9527 374.756 87.2443C374.474 87.5327 374.126 87.758 373.712 87.9205C373.297 88.0795 372.832 88.1591 372.315 88.1591ZM380.364 88.1591C379.648 88.1591 379.031 87.9901 378.514 87.652C377.997 87.3139 377.599 86.8482 377.321 86.255C377.043 85.6617 376.903 84.9839 376.903 84.2216C376.903 83.446 377.046 82.7616 377.331 82.1683C377.619 81.5717 378.02 81.1061 378.534 80.7713C379.051 80.4332 379.654 80.2642 380.344 80.2642C380.881 80.2642 381.365 80.3636 381.795 80.5625C382.226 80.7614 382.579 81.0398 382.854 81.3977C383.129 81.7557 383.3 82.1733 383.366 82.6506H382.193C382.104 82.3026 381.905 81.9943 381.597 81.7259C381.292 81.4541 380.881 81.3182 380.364 81.3182C379.906 81.3182 379.505 81.4375 379.161 81.6761C378.819 81.9115 378.552 82.2446 378.36 82.6754C378.171 83.103 378.077 83.6051 378.077 84.1818C378.077 84.7718 378.17 85.2855 378.355 85.723C378.544 86.1605 378.809 86.5002 379.151 86.7422C379.495 86.9841 379.9 87.1051 380.364 87.1051C380.669 87.1051 380.945 87.0521 381.194 86.946C381.442 86.84 381.653 86.6875 381.825 86.4886C381.998 86.2898 382.12 86.0511 382.193 85.7727H383.366C383.3 86.2235 383.136 86.6295 382.874 86.9908C382.616 87.3487 382.273 87.6338 381.845 87.8459C381.421 88.0547 380.927 88.1591 380.364 88.1591ZM388.403 80.3636V81.358H384.445V80.3636H388.403ZM385.599 78.5341H386.772V85.8125C386.772 86.1439 386.82 86.3925 386.916 86.5582C387.016 86.7206 387.142 86.83 387.294 86.8864C387.45 86.9394 387.614 86.9659 387.786 86.9659C387.915 86.9659 388.022 86.9593 388.104 86.946C388.187 86.9295 388.254 86.9162 388.303 86.9062L388.542 87.9602C388.462 87.9901 388.351 88.0199 388.209 88.0497C388.066 88.0829 387.886 88.0994 387.667 88.0994C387.335 88.0994 387.011 88.0282 386.692 87.8857C386.378 87.7431 386.116 87.526 385.907 87.2344C385.701 86.9427 385.599 86.5748 385.599 86.1307V78.5341ZM393.287 88.1591C392.551 88.1591 391.917 87.9967 391.383 87.6719C390.853 87.3438 390.444 86.8864 390.155 86.2997C389.87 85.7098 389.728 85.0237 389.728 84.2415C389.728 83.4593 389.87 82.7699 390.155 82.1733C390.444 81.5734 390.845 81.1061 391.358 80.7713C391.875 80.4332 392.479 80.2642 393.168 80.2642C393.566 80.2642 393.958 80.3305 394.346 80.4631C394.734 80.5956 395.087 80.8111 395.405 81.1094C395.723 81.4044 395.977 81.7955 396.166 82.2827C396.355 82.7699 396.449 83.3698 396.449 84.0824V84.5795H390.563V83.5653H395.256C395.256 83.1345 395.17 82.75 394.998 82.4119C394.828 82.0739 394.587 81.8071 394.272 81.6115C393.96 81.416 393.592 81.3182 393.168 81.3182C392.701 81.3182 392.296 81.4342 391.955 81.6662C391.617 81.8949 391.357 82.1932 391.174 82.5611C390.992 82.929 390.901 83.3234 390.901 83.7443V84.4205C390.901 84.9972 391 85.486 391.199 85.8871C391.401 86.2848 391.681 86.5881 392.039 86.7969C392.397 87.0024 392.813 87.1051 393.287 87.1051C393.596 87.1051 393.874 87.062 394.123 86.9759C394.374 86.8864 394.592 86.7538 394.774 86.5781C394.956 86.3991 395.097 86.1771 395.196 85.9119L396.33 86.2301C396.211 86.6146 396.01 86.9527 395.728 87.2443C395.447 87.5327 395.099 87.758 394.684 87.9205C394.27 88.0795 393.804 88.1591 393.287 88.1591ZM401.118 88.1591C400.481 88.1591 399.919 87.9983 399.432 87.6768C398.945 87.352 398.564 86.8946 398.289 86.3047C398.014 85.7114 397.876 85.0104 397.876 84.2017C397.876 83.3996 398.014 82.7036 398.289 82.1136C398.564 81.5237 398.947 81.0679 399.437 80.7464C399.928 80.425 400.494 80.2642 401.137 80.2642C401.635 80.2642 402.027 80.3471 402.316 80.5128C402.607 80.6752 402.829 80.8608 402.982 81.0696C403.138 81.2751 403.259 81.4441 403.345 81.5767H403.444V77.8182H404.618V88H403.484V86.8267H403.345C403.259 86.9659 403.136 87.1416 402.977 87.3537C402.818 87.5625 402.591 87.7498 402.296 87.9155C402.001 88.0779 401.608 88.1591 401.118 88.1591ZM401.277 87.1051C401.747 87.1051 402.145 86.9825 402.47 86.7372C402.795 86.4886 403.042 86.1456 403.211 85.7081C403.38 85.2673 403.464 84.7585 403.464 84.1818C403.464 83.6117 403.381 83.1129 403.216 82.6854C403.05 82.2545 402.805 81.9197 402.48 81.6811C402.155 81.4392 401.754 81.3182 401.277 81.3182C400.779 81.3182 400.365 81.4458 400.034 81.701C399.706 81.9529 399.459 82.2959 399.293 82.7301C399.131 83.161 399.049 83.6449 399.049 84.1818C399.049 84.7254 399.132 85.2192 399.298 85.6634C399.467 86.1042 399.716 86.4555 400.044 86.7173C400.375 86.9759 400.786 87.1051 401.277 87.1051Z" fill="#B1B1B1"/>
<path d="M259.534 36.7273V60H255.318V40.8295H255.182L249.739 44.3068V40.4432L255.523 36.7273H259.534ZM269.037 56.8182L268.889 58.0682C268.783 59.0227 268.594 59.9924 268.321 60.9773C268.056 61.9697 267.776 62.8826 267.48 63.7159C267.185 64.5492 266.946 65.2045 266.764 65.6818H263.991C264.098 65.2197 264.241 64.5909 264.423 63.7955C264.613 63 264.795 62.1061 264.969 61.1136C265.143 60.1212 265.26 59.1136 265.321 58.0909L265.401 56.8182H269.037ZM281.295 60.4432C279.424 60.4432 277.818 59.9697 276.477 59.0227C275.144 58.0682 274.117 56.6932 273.398 54.8977C272.686 53.0947 272.33 50.9242 272.33 48.3864C272.337 45.8485 272.697 43.6894 273.409 41.9091C274.129 40.1212 275.155 38.7576 276.489 37.8182C277.83 36.8788 279.432 36.4091 281.295 36.4091C283.159 36.4091 284.761 36.8788 286.102 37.8182C287.443 38.7576 288.47 40.1212 289.182 41.9091C289.902 43.697 290.261 45.8561 290.261 48.3864C290.261 50.9318 289.902 53.1061 289.182 54.9091C288.47 56.7045 287.443 58.0758 286.102 59.0227C284.769 59.9697 283.167 60.4432 281.295 60.4432ZM281.295 56.8864C282.75 56.8864 283.898 56.1705 284.739 54.7386C285.587 53.2992 286.011 51.1818 286.011 48.3864C286.011 46.5379 285.818 44.9848 285.432 43.7273C285.045 42.4697 284.5 41.5227 283.795 40.8864C283.091 40.2424 282.258 39.9205 281.295 39.9205C279.848 39.9205 278.705 40.6402 277.864 42.0795C277.023 43.5114 276.598 45.6136 276.591 48.3864C276.583 50.2424 276.769 51.803 277.148 53.0682C277.534 54.3333 278.08 55.2879 278.784 55.9318C279.489 56.5682 280.326 56.8864 281.295 56.8864ZM302.639 60.4432C300.768 60.4432 299.162 59.9697 297.821 59.0227C296.488 58.0682 295.461 56.6932 294.741 54.8977C294.029 53.0947 293.673 50.9242 293.673 48.3864C293.681 45.8485 294.041 43.6894 294.753 41.9091C295.473 40.1212 296.499 38.7576 297.832 37.8182C299.173 36.8788 300.776 36.4091 302.639 36.4091C304.503 36.4091 306.105 36.8788 307.446 37.8182C308.787 38.7576 309.813 40.1212 310.526 41.9091C311.245 43.697 311.605 45.8561 311.605 48.3864C311.605 50.9318 311.245 53.1061 310.526 54.9091C309.813 56.7045 308.787 58.0758 307.446 59.0227C306.113 59.9697 304.51 60.4432 302.639 60.4432ZM302.639 56.8864C304.094 56.8864 305.241 56.1705 306.082 54.7386C306.931 53.2992 307.355 51.1818 307.355 48.3864C307.355 46.5379 307.162 44.9848 306.776 43.7273C306.389 42.4697 305.844 41.5227 305.139 40.8864C304.435 40.2424 303.601 39.9205 302.639 39.9205C301.192 39.9205 300.048 40.6402 299.207 42.0795C298.366 43.5114 297.942 45.6136 297.935 48.3864C297.927 50.2424 298.113 51.803 298.491 53.0682C298.878 54.3333 299.423 55.2879 300.128 55.9318C300.832 56.5682 301.67 56.8864 302.639 56.8864ZM323.983 60.4432C322.112 60.4432 320.506 59.9697 319.165 59.0227C317.831 58.0682 316.805 56.6932 316.085 54.8977C315.373 53.0947 315.017 50.9242 315.017 48.3864C315.025 45.8485 315.384 43.6894 316.097 41.9091C316.816 40.1212 317.843 38.7576 319.176 37.8182C320.517 36.8788 322.119 36.4091 323.983 36.4091C325.847 36.4091 327.449 36.8788 328.79 37.8182C330.131 38.7576 331.157 40.1212 331.869 41.9091C332.589 43.697 332.949 45.8561 332.949 48.3864C332.949 50.9318 332.589 53.1061 331.869 54.9091C331.157 56.7045 330.131 58.0758 328.79 59.0227C327.456 59.9697 325.854 60.4432 323.983 60.4432ZM323.983 56.8864C325.438 56.8864 326.585 56.1705 327.426 54.7386C328.275 53.2992 328.699 51.1818 328.699 48.3864C328.699 46.5379 328.506 44.9848 328.119 43.7273C327.733 42.4697 327.188 41.5227 326.483 40.8864C325.778 40.2424 324.945 39.9205 323.983 39.9205C322.536 39.9205 321.392 40.6402 320.551 42.0795C319.71 43.5114 319.286 45.6136 319.278 48.3864C319.271 50.2424 319.456 51.803 319.835 53.0682C320.222 54.3333 320.767 55.2879 321.472 55.9318C322.176 56.5682 323.013 56.8864 323.983 56.8864ZM343.634 56.2727V40.5455H347.202V56.2727H343.634ZM337.554 50.1932V46.625H353.281V50.1932H337.554Z" fill="white"/>
<rect x="0.5" y="120.5" width="219" height="119" fill="url(#paint4_linear_119_111)"/>
<rect x="0.5" y="120.5" width="219" height="119" stroke="url(#paint5_linear_119_111)"/>
<g filter="url(#filter0_d_119_111)">
<path d="M28.358 197.818H29.7699L32.5938 202.571H32.7131L35.5369 197.818H36.9489L33.2699 203.804V208H32.0369V203.804L28.358 197.818ZM40.506 208.159C39.7702 208.159 39.1355 207.997 38.6019 207.672C38.0716 207.344 37.6623 206.886 37.3739 206.3C37.0889 205.71 36.9464 205.024 36.9464 204.241C36.9464 203.459 37.0889 202.77 37.3739 202.173C37.6623 201.573 38.0633 201.106 38.5771 200.771C39.0941 200.433 39.6973 200.264 40.3867 200.264C40.7844 200.264 41.1772 200.33 41.565 200.463C41.9528 200.596 42.3058 200.811 42.6239 201.109C42.9421 201.404 43.1957 201.795 43.3846 202.283C43.5735 202.77 43.668 203.37 43.668 204.082V204.58H37.7816V203.565H42.4748C42.4748 203.134 42.3886 202.75 42.2163 202.412C42.0472 202.074 41.8053 201.807 41.4904 201.612C41.1789 201.416 40.811 201.318 40.3867 201.318C39.9194 201.318 39.515 201.434 39.1737 201.666C38.8356 201.895 38.5754 202.193 38.3931 202.561C38.2108 202.929 38.1197 203.323 38.1197 203.744V204.42C38.1197 204.997 38.2191 205.486 38.418 205.887C38.6201 206.285 38.9002 206.588 39.2582 206.797C39.6161 207.002 40.0321 207.105 40.506 207.105C40.8143 207.105 41.0927 207.062 41.3413 206.976C41.5932 206.886 41.8103 206.754 41.9925 206.578C42.1748 206.399 42.3157 206.177 42.4151 205.912L43.5487 206.23C43.4293 206.615 43.2288 206.953 42.9471 207.244C42.6654 207.533 42.3174 207.758 41.9031 207.92C41.4888 208.08 41.0231 208.159 40.506 208.159ZM47.6999 208.179C47.216 208.179 46.7769 208.088 46.3825 207.906C45.988 207.72 45.6748 207.453 45.4428 207.105C45.2108 206.754 45.0948 206.33 45.0948 205.832C45.0948 205.395 45.181 205.04 45.3533 204.768C45.5257 204.493 45.756 204.278 46.0444 204.122C46.3327 203.966 46.6509 203.85 46.9989 203.774C47.3503 203.695 47.7032 203.632 48.0579 203.585C48.5219 203.526 48.8981 203.481 49.1864 203.451C49.4781 203.418 49.6902 203.363 49.8228 203.287C49.9587 203.211 50.0266 203.078 50.0266 202.889V202.849C50.0266 202.359 49.8924 201.978 49.6239 201.706C49.3588 201.434 48.9561 201.298 48.4158 201.298C47.8557 201.298 47.4165 201.421 47.0984 201.666C46.7802 201.911 46.5565 202.173 46.4272 202.452L45.3136 202.054C45.5124 201.59 45.7776 201.229 46.109 200.97C46.4438 200.708 46.8084 200.526 47.2028 200.423C47.6005 200.317 47.9916 200.264 48.3761 200.264C48.6213 200.264 48.9031 200.294 49.2212 200.354C49.5427 200.41 49.8526 200.528 50.1509 200.707C50.4525 200.886 50.7028 201.156 50.9016 201.517C51.1005 201.878 51.1999 202.362 51.1999 202.969V208H50.0266V206.966H49.967C49.8874 207.132 49.7549 207.309 49.5692 207.498C49.3836 207.687 49.1367 207.848 48.8285 207.98C48.5202 208.113 48.1441 208.179 47.6999 208.179ZM47.8789 207.125C48.3429 207.125 48.734 207.034 49.0522 206.852C49.3737 206.669 49.6156 206.434 49.7781 206.146C49.9438 205.857 50.0266 205.554 50.0266 205.236V204.162C49.9769 204.222 49.8675 204.276 49.6985 204.326C49.5328 204.372 49.3406 204.414 49.1218 204.45C48.9064 204.483 48.6959 204.513 48.4904 204.54C48.2882 204.563 48.1242 204.583 47.9982 204.599C47.6933 204.639 47.4083 204.704 47.1431 204.793C46.8813 204.879 46.6692 205.01 46.5067 205.186C46.3477 205.358 46.2681 205.594 46.2681 205.892C46.2681 206.3 46.4189 206.608 46.7205 206.817C47.0254 207.022 47.4116 207.125 47.8789 207.125ZM53.3414 208V200.364H54.475V201.517H54.5545C54.6937 201.139 54.9456 200.833 55.3102 200.597C55.6748 200.362 56.0858 200.244 56.5431 200.244C56.6293 200.244 56.737 200.246 56.8663 200.249C56.9956 200.253 57.0933 200.258 57.1596 200.264V201.457C57.1199 201.447 57.0287 201.433 56.8862 201.413C56.747 201.389 56.5995 201.378 56.4437 201.378C56.0725 201.378 55.7411 201.456 55.4494 201.612C55.161 201.764 54.9324 201.976 54.7633 202.248C54.5976 202.516 54.5147 202.823 54.5147 203.168V208H53.3414ZM63.9595 202.074L62.9055 202.372C62.8393 202.196 62.7415 202.026 62.6122 201.86C62.4863 201.691 62.3139 201.552 62.0952 201.442C61.8764 201.333 61.5964 201.278 61.255 201.278C60.7876 201.278 60.3982 201.386 60.0866 201.602C59.7784 201.814 59.6243 202.084 59.6243 202.412C59.6243 202.704 59.7304 202.934 59.9425 203.103C60.1546 203.272 60.486 203.413 60.9368 203.526L62.0703 203.804C62.7531 203.97 63.2618 204.223 63.5966 204.565C63.9313 204.903 64.0987 205.339 64.0987 205.872C64.0987 206.31 63.9728 206.701 63.7209 207.045C63.4723 207.39 63.1243 207.662 62.6768 207.861C62.2294 208.06 61.709 208.159 61.1158 208.159C60.3369 208.159 59.6922 207.99 59.1818 207.652C58.6714 207.314 58.3482 206.82 58.2124 206.17L59.326 205.892C59.4321 206.303 59.6326 206.611 59.9276 206.817C60.2259 207.022 60.6153 207.125 61.0959 207.125C61.6428 207.125 62.0769 207.009 62.3984 206.777C62.7232 206.542 62.8857 206.26 62.8857 205.932C62.8857 205.667 62.7929 205.445 62.6072 205.266C62.4216 205.083 62.1366 204.947 61.7521 204.858L60.4794 204.56C59.7801 204.394 59.2663 204.137 58.9382 203.789C58.6134 203.438 58.451 202.999 58.451 202.472C58.451 202.041 58.572 201.66 58.8139 201.328C59.0592 200.997 59.3923 200.737 59.8132 200.548C60.2375 200.359 60.718 200.264 61.255 200.264C62.0107 200.264 62.6039 200.43 63.0348 200.761C63.469 201.093 63.7772 201.53 63.9595 202.074ZM72.9047 208.159C72.2153 208.159 71.6104 207.995 71.09 207.667C70.573 207.339 70.1686 206.88 69.877 206.29C69.5886 205.7 69.4444 205.01 69.4444 204.222C69.4444 203.426 69.5886 202.732 69.877 202.138C70.1686 201.545 70.573 201.085 71.09 200.756C71.6104 200.428 72.2153 200.264 72.9047 200.264C73.594 200.264 74.1973 200.428 74.7143 200.756C75.2347 201.085 75.639 201.545 75.9274 202.138C76.219 202.732 76.3649 203.426 76.3649 204.222C76.3649 205.01 76.219 205.7 75.9274 206.29C75.639 206.88 75.2347 207.339 74.7143 207.667C74.1973 207.995 73.594 208.159 72.9047 208.159ZM72.9047 207.105C73.4283 207.105 73.8592 206.971 74.1973 206.702C74.5353 206.434 74.7856 206.081 74.948 205.643C75.1104 205.206 75.1916 204.732 75.1916 204.222C75.1916 203.711 75.1104 203.236 74.948 202.795C74.7856 202.354 74.5353 201.998 74.1973 201.726C73.8592 201.454 73.4283 201.318 72.9047 201.318C72.381 201.318 71.9501 201.454 71.612 201.726C71.274 201.998 71.0237 202.354 70.8613 202.795C70.6989 203.236 70.6177 203.711 70.6177 204.222C70.6177 204.732 70.6989 205.206 70.8613 205.643C71.0237 206.081 71.274 206.434 71.612 206.702C71.9501 206.971 72.381 207.105 72.9047 207.105ZM81.5565 200.364V201.358H77.44V200.364H81.5565ZM78.6729 208V199.31C78.6729 198.872 78.7757 198.508 78.9812 198.216C79.1867 197.924 79.4535 197.705 79.7816 197.56C80.1097 197.414 80.4561 197.341 80.8207 197.341C81.109 197.341 81.3443 197.364 81.5266 197.411C81.7089 197.457 81.8448 197.5 81.9343 197.54L81.5962 198.554C81.5366 198.534 81.4537 198.509 81.3477 198.479C81.2449 198.45 81.109 198.435 80.94 198.435C80.5522 198.435 80.2721 198.532 80.0998 198.728C79.9308 198.924 79.8462 199.21 79.8462 199.588V208H78.6729ZM90.34 208.159C89.6042 208.159 88.9695 207.997 88.4359 207.672C87.9056 207.344 87.4963 206.886 87.2079 206.3C86.9229 205.71 86.7804 205.024 86.7804 204.241C86.7804 203.459 86.9229 202.77 87.2079 202.173C87.4963 201.573 87.8973 201.106 88.411 200.771C88.9281 200.433 89.5313 200.264 90.2207 200.264C90.6184 200.264 91.0112 200.33 91.399 200.463C91.7868 200.596 92.1397 200.811 92.4579 201.109C92.7761 201.404 93.0297 201.795 93.2186 202.283C93.4075 202.77 93.502 203.37 93.502 204.082V204.58H87.6156V203.565H92.3088C92.3088 203.134 92.2226 202.75 92.0502 202.412C91.8812 202.074 91.6393 201.807 91.3244 201.612C91.0128 201.416 90.6449 201.318 90.2207 201.318C89.7534 201.318 89.349 201.434 89.0076 201.666C88.6696 201.895 88.4094 202.193 88.2271 202.561C88.0448 202.929 87.9537 203.323 87.9537 203.744V204.42C87.9537 204.997 88.0531 205.486 88.252 205.887C88.4541 206.285 88.7342 206.588 89.0922 206.797C89.4501 207.002 89.8661 207.105 90.34 207.105C90.6483 207.105 90.9267 207.062 91.1752 206.976C91.4271 206.886 91.6442 206.754 91.8265 206.578C92.0088 206.399 92.1497 206.177 92.2491 205.912L93.3826 206.23C93.2633 206.615 93.0628 206.953 92.7811 207.244C92.4993 207.533 92.1513 207.758 91.737 207.92C91.3227 208.08 90.8571 208.159 90.34 208.159ZM95.9567 200.364L97.7862 203.486L99.6158 200.364H100.968L98.5021 204.182L100.968 208H99.6158L97.7862 205.037L95.9567 208H94.6044L97.0305 204.182L94.6044 200.364H95.9567ZM102.642 210.864V200.364H103.776V201.577H103.915C104.001 201.444 104.12 201.275 104.273 201.07C104.429 200.861 104.651 200.675 104.939 200.513C105.231 200.347 105.625 200.264 106.122 200.264C106.765 200.264 107.332 200.425 107.823 200.746C108.313 201.068 108.696 201.524 108.971 202.114C109.246 202.704 109.384 203.4 109.384 204.202C109.384 205.01 109.246 205.711 108.971 206.305C108.696 206.895 108.315 207.352 107.828 207.677C107.34 207.998 106.779 208.159 106.142 208.159C105.652 208.159 105.259 208.078 104.964 207.915C104.669 207.75 104.442 207.562 104.283 207.354C104.124 207.142 104.001 206.966 103.915 206.827H103.816V210.864H102.642ZM103.796 204.182C103.796 204.759 103.88 205.267 104.049 205.708C104.218 206.146 104.465 206.489 104.79 206.737C105.115 206.982 105.512 207.105 105.983 207.105C106.474 207.105 106.883 206.976 107.211 206.717C107.543 206.455 107.791 206.104 107.957 205.663C108.126 205.219 108.21 204.725 108.21 204.182C108.21 203.645 108.128 203.161 107.962 202.73C107.799 202.296 107.552 201.953 107.221 201.701C106.893 201.446 106.48 201.318 105.983 201.318C105.506 201.318 105.105 201.439 104.78 201.681C104.455 201.92 104.21 202.254 104.044 202.685C103.878 203.113 103.796 203.612 103.796 204.182ZM114.375 208.159C113.639 208.159 113.005 207.997 112.471 207.672C111.941 207.344 111.531 206.886 111.243 206.3C110.958 205.71 110.816 205.024 110.816 204.241C110.816 203.459 110.958 202.77 111.243 202.173C111.531 201.573 111.932 201.106 112.446 200.771C112.963 200.433 113.566 200.264 114.256 200.264C114.654 200.264 115.046 200.33 115.434 200.463C115.822 200.596 116.175 200.811 116.493 201.109C116.811 201.404 117.065 201.795 117.254 202.283C117.443 202.77 117.537 203.37 117.537 204.082V204.58H111.651V203.565H116.344C116.344 203.134 116.258 202.75 116.085 202.412C115.916 202.074 115.674 201.807 115.36 201.612C115.048 201.416 114.68 201.318 114.256 201.318C113.789 201.318 113.384 201.434 113.043 201.666C112.705 201.895 112.445 202.193 112.262 202.561C112.08 202.929 111.989 203.323 111.989 203.744V204.42C111.989 204.997 112.088 205.486 112.287 205.887C112.489 206.285 112.769 206.588 113.127 206.797C113.485 207.002 113.901 207.105 114.375 207.105C114.683 207.105 114.962 207.062 115.21 206.976C115.462 206.886 115.679 206.754 115.862 206.578C116.044 206.399 116.185 206.177 116.284 205.912L117.418 206.23C117.298 206.615 117.098 206.953 116.816 207.244C116.535 207.533 116.186 207.758 115.772 207.92C115.358 208.08 114.892 208.159 114.375 208.159ZM119.322 208V200.364H120.455V201.517H120.535C120.674 201.139 120.926 200.833 121.291 200.597C121.655 200.362 122.066 200.244 122.524 200.244C122.61 200.244 122.718 200.246 122.847 200.249C122.976 200.253 123.074 200.258 123.14 200.264V201.457C123.1 201.447 123.009 201.433 122.867 201.413C122.727 201.389 122.58 201.378 122.424 201.378C122.053 201.378 121.722 201.456 121.43 201.612C121.142 201.764 120.913 201.976 120.744 202.248C120.578 202.516 120.495 202.823 120.495 203.168V208H119.322ZM128.33 200.364V201.358H124.373V200.364H128.33ZM125.526 198.534H126.7V205.812C126.7 206.144 126.748 206.393 126.844 206.558C126.943 206.721 127.069 206.83 127.222 206.886C127.378 206.939 127.542 206.966 127.714 206.966C127.843 206.966 127.949 206.959 128.032 206.946C128.115 206.929 128.181 206.916 128.231 206.906L128.47 207.96C128.39 207.99 128.279 208.02 128.137 208.05C127.994 208.083 127.813 208.099 127.595 208.099C127.263 208.099 126.938 208.028 126.62 207.886C126.305 207.743 126.044 207.526 125.835 207.234C125.629 206.943 125.526 206.575 125.526 206.131V198.534ZM130.095 208V200.364H131.269V208H130.095ZM130.692 199.091C130.463 199.091 130.266 199.013 130.1 198.857C129.938 198.701 129.857 198.514 129.857 198.295C129.857 198.077 129.938 197.889 130.1 197.734C130.266 197.578 130.463 197.5 130.692 197.5C130.921 197.5 131.116 197.578 131.279 197.734C131.444 197.889 131.527 198.077 131.527 198.295C131.527 198.514 131.444 198.701 131.279 198.857C131.116 199.013 130.921 199.091 130.692 199.091ZM138.827 202.074L137.773 202.372C137.706 202.196 137.609 202.026 137.479 201.86C137.353 201.691 137.181 201.552 136.962 201.442C136.744 201.333 136.464 201.278 136.122 201.278C135.655 201.278 135.265 201.386 134.954 201.602C134.646 201.814 134.491 202.084 134.491 202.412C134.491 202.704 134.598 202.934 134.81 203.103C135.022 203.272 135.353 203.413 135.804 203.526L136.938 203.804C137.62 203.97 138.129 204.223 138.464 204.565C138.799 204.903 138.966 205.339 138.966 205.872C138.966 206.31 138.84 206.701 138.588 207.045C138.339 207.39 137.991 207.662 137.544 207.861C137.097 208.06 136.576 208.159 135.983 208.159C135.204 208.159 134.559 207.99 134.049 207.652C133.539 207.314 133.215 206.82 133.08 206.17L134.193 205.892C134.299 206.303 134.5 206.611 134.795 206.817C135.093 207.022 135.482 207.125 135.963 207.125C136.51 207.125 136.944 207.009 137.266 206.777C137.59 206.542 137.753 206.26 137.753 205.932C137.753 205.667 137.66 205.445 137.474 205.266C137.289 205.083 137.004 204.947 136.619 204.858L135.347 204.56C134.647 204.394 134.134 204.137 133.805 203.789C133.481 203.438 133.318 202.999 133.318 202.472C133.318 202.041 133.439 201.66 133.681 201.328C133.926 200.997 134.259 200.737 134.68 200.548C135.105 200.359 135.585 200.264 136.122 200.264C136.878 200.264 137.471 200.43 137.902 200.761C138.336 201.093 138.644 201.53 138.827 202.074ZM143.934 208.159C143.198 208.159 142.563 207.997 142.03 207.672C141.499 207.344 141.09 206.886 140.802 206.3C140.517 205.71 140.374 205.024 140.374 204.241C140.374 203.459 140.517 202.77 140.802 202.173C141.09 201.573 141.491 201.106 142.005 200.771C142.522 200.433 143.125 200.264 143.814 200.264C144.212 200.264 144.605 200.33 144.993 200.463C145.381 200.596 145.733 200.811 146.052 201.109C146.37 201.404 146.623 201.795 146.812 202.283C147.001 202.77 147.096 203.37 147.096 204.082V204.58H141.209V203.565H145.903C145.903 203.134 145.816 202.75 145.644 202.412C145.475 202.074 145.233 201.807 144.918 201.612C144.607 201.416 144.239 201.318 143.814 201.318C143.347 201.318 142.943 201.434 142.601 201.666C142.263 201.895 142.003 202.193 141.821 202.561C141.639 202.929 141.547 203.323 141.547 203.744V204.42C141.547 204.997 141.647 205.486 141.846 205.887C142.048 206.285 142.328 206.588 142.686 206.797C143.044 207.002 143.46 207.105 143.934 207.105C144.242 207.105 144.52 207.062 144.769 206.976C145.021 206.886 145.238 206.754 145.42 206.578C145.603 206.399 145.743 206.177 145.843 205.912L146.976 206.23C146.857 206.615 146.657 206.953 146.375 207.244C146.093 207.533 145.745 207.758 145.331 207.92C144.916 208.08 144.451 208.159 143.934 208.159Z" fill="#B1B1B1"/>
</g>
<path d="M38.5909 180.318C37.4773 180.311 36.3902 180.117 35.3295 179.739C34.2689 179.352 33.3144 178.727 32.4659 177.864C31.6174 176.992 30.9432 175.837 30.4432 174.398C29.9432 172.951 29.697 171.159 29.7045 169.023C29.7045 167.03 29.9167 165.254 30.3409 163.693C30.7652 162.133 31.375 160.814 32.1705 159.739C32.9659 158.655 33.9242 157.83 35.0455 157.261C36.1742 156.693 37.4356 156.409 38.8295 156.409C40.2917 156.409 41.5871 156.697 42.7159 157.273C43.8523 157.848 44.7689 158.636 45.4659 159.636C46.1629 160.629 46.5947 161.75 46.7614 163H42.6136C42.4015 162.106 41.9659 161.394 41.3068 160.864C40.6553 160.326 39.8295 160.057 38.8295 160.057C37.2159 160.057 35.9735 160.758 35.1023 162.159C34.2386 163.561 33.803 165.485 33.7955 167.932H33.9545C34.3258 167.265 34.8068 166.693 35.3977 166.216C35.9886 165.739 36.6553 165.371 37.3977 165.114C38.1477 164.848 38.9394 164.716 39.7727 164.716C41.1364 164.716 42.3598 165.042 43.4432 165.693C44.5341 166.345 45.3977 167.242 46.0341 168.386C46.6705 169.523 46.9848 170.826 46.9773 172.295C46.9848 173.826 46.6364 175.201 45.9318 176.42C45.2273 177.633 44.2462 178.587 42.9886 179.284C41.7311 179.981 40.2652 180.326 38.5909 180.318ZM38.5682 176.909C39.3939 176.909 40.1326 176.708 40.7841 176.307C41.4356 175.905 41.9508 175.364 42.3295 174.682C42.7083 174 42.8939 173.235 42.8864 172.386C42.8939 171.553 42.7121 170.799 42.3409 170.125C41.9773 169.451 41.4735 168.917 40.8295 168.523C40.1856 168.129 39.4508 167.932 38.625 167.932C38.0114 167.932 37.4394 168.049 36.9091 168.284C36.3788 168.519 35.9167 168.845 35.5227 169.261C35.1288 169.67 34.8182 170.148 34.5909 170.693C34.3712 171.231 34.2576 171.807 34.25 172.42C34.2576 173.231 34.447 173.977 34.8182 174.659C35.1894 175.341 35.7008 175.886 36.3523 176.295C37.0038 176.705 37.7424 176.909 38.5682 176.909ZM57.7273 176.273V160.545H61.2955V176.273H57.7273ZM51.6477 170.193V166.625H67.375V170.193H51.6477Z" fill="white"/>
<rect x="220.5" y="120.5" width="219" height="119" fill="url(#paint6_linear_119_111)"/>
<rect x="220.5" y="120.5" width="219" height="119" stroke="url(#paint7_linear_119_111)"/>
<path d="M249.233 208V197.818H252.673C253.472 197.818 254.125 197.962 254.632 198.251C255.143 198.536 255.52 198.922 255.766 199.409C256.011 199.896 256.134 200.44 256.134 201.04C256.134 201.64 256.011 202.185 255.766 202.675C255.524 203.166 255.149 203.557 254.642 203.849C254.135 204.137 253.485 204.281 252.693 204.281H250.227V203.188H252.653C253.2 203.188 253.639 203.093 253.971 202.904C254.302 202.715 254.543 202.46 254.692 202.138C254.844 201.814 254.92 201.447 254.92 201.04C254.92 200.632 254.844 200.268 254.692 199.946C254.543 199.625 254.301 199.373 253.966 199.19C253.631 199.005 253.187 198.912 252.634 198.912H250.466V208H249.233ZM260.208 208.179C259.724 208.179 259.285 208.088 258.89 207.906C258.496 207.72 258.183 207.453 257.951 207.105C257.719 206.754 257.603 206.33 257.603 205.832C257.603 205.395 257.689 205.04 257.861 204.768C258.033 204.493 258.264 204.278 258.552 204.122C258.841 203.966 259.159 203.85 259.507 203.774C259.858 203.695 260.211 203.632 260.566 203.585C261.03 203.526 261.406 203.481 261.694 203.451C261.986 203.418 262.198 203.363 262.331 203.287C262.467 203.211 262.534 203.078 262.534 202.889V202.849C262.534 202.359 262.4 201.978 262.132 201.706C261.867 201.434 261.464 201.298 260.924 201.298C260.364 201.298 259.924 201.421 259.606 201.666C259.288 201.911 259.064 202.173 258.935 202.452L257.821 202.054C258.02 201.59 258.285 201.229 258.617 200.97C258.952 200.708 259.316 200.526 259.711 200.423C260.108 200.317 260.499 200.264 260.884 200.264C261.129 200.264 261.411 200.294 261.729 200.354C262.051 200.41 262.36 200.528 262.659 200.707C262.96 200.886 263.211 201.156 263.409 201.517C263.608 201.878 263.708 202.362 263.708 202.969V208H262.534V206.966H262.475C262.395 207.132 262.263 207.309 262.077 207.498C261.891 207.687 261.645 207.848 261.336 207.98C261.028 208.113 260.652 208.179 260.208 208.179ZM260.387 207.125C260.851 207.125 261.242 207.034 261.56 206.852C261.882 206.669 262.123 206.434 262.286 206.146C262.452 205.857 262.534 205.554 262.534 205.236V204.162C262.485 204.222 262.375 204.276 262.206 204.326C262.041 204.372 261.848 204.414 261.63 204.45C261.414 204.483 261.204 204.513 260.998 204.54C260.796 204.563 260.632 204.583 260.506 204.599C260.201 204.639 259.916 204.704 259.651 204.793C259.389 204.879 259.177 205.01 259.015 205.186C258.855 205.358 258.776 205.594 258.776 205.892C258.776 206.3 258.927 206.608 259.228 206.817C259.533 207.022 259.919 207.125 260.387 207.125ZM265.849 208V200.364H266.983V201.517H267.062C267.202 201.139 267.453 200.833 267.818 200.597C268.183 200.362 268.594 200.244 269.051 200.244C269.137 200.244 269.245 200.246 269.374 200.249C269.503 200.253 269.601 200.258 269.667 200.264V201.457C269.628 201.447 269.537 201.433 269.394 201.413C269.255 201.389 269.107 201.378 268.952 201.378C268.58 201.378 268.249 201.456 267.957 201.612C267.669 201.764 267.44 201.976 267.271 202.248C267.105 202.516 267.023 202.823 267.023 203.168V208H265.849ZM274.858 200.364V201.358H270.9V200.364H274.858ZM272.054 198.534H273.227V205.812C273.227 206.144 273.275 206.393 273.371 206.558C273.471 206.721 273.597 206.83 273.749 206.886C273.905 206.939 274.069 206.966 274.241 206.966C274.371 206.966 274.477 206.959 274.559 206.946C274.642 206.929 274.709 206.916 274.758 206.906L274.997 207.96C274.917 207.99 274.806 208.02 274.664 208.05C274.521 208.083 274.341 208.099 274.122 208.099C273.791 208.099 273.466 208.028 273.148 207.886C272.833 207.743 272.571 207.526 272.362 207.234C272.157 206.943 272.054 206.575 272.054 206.131V198.534ZM277.796 203.406V208H276.623V200.364H277.756V201.557H277.856C278.035 201.169 278.306 200.857 278.671 200.622C279.036 200.384 279.506 200.264 280.083 200.264C280.6 200.264 281.052 200.37 281.44 200.582C281.828 200.791 282.13 201.109 282.345 201.537C282.56 201.961 282.668 202.498 282.668 203.148V208H281.495V203.227C281.495 202.627 281.339 202.16 281.028 201.825C280.716 201.487 280.288 201.318 279.745 201.318C279.37 201.318 279.036 201.399 278.741 201.562C278.449 201.724 278.219 201.961 278.05 202.273C277.881 202.584 277.796 202.962 277.796 203.406ZM288.014 208.159C287.278 208.159 286.643 207.997 286.11 207.672C285.579 207.344 285.17 206.886 284.882 206.3C284.597 205.71 284.454 205.024 284.454 204.241C284.454 203.459 284.597 202.77 284.882 202.173C285.17 201.573 285.571 201.106 286.085 200.771C286.602 200.433 287.205 200.264 287.895 200.264C288.292 200.264 288.685 200.33 289.073 200.463C289.461 200.596 289.814 200.811 290.132 201.109C290.45 201.404 290.703 201.795 290.892 202.283C291.081 202.77 291.176 203.37 291.176 204.082V204.58H285.289V203.565H289.983C289.983 203.134 289.896 202.75 289.724 202.412C289.555 202.074 289.313 201.807 288.998 201.612C288.687 201.416 288.319 201.318 287.895 201.318C287.427 201.318 287.023 201.434 286.681 201.666C286.343 201.895 286.083 202.193 285.901 202.561C285.719 202.929 285.627 203.323 285.627 203.744V204.42C285.627 204.997 285.727 205.486 285.926 205.887C286.128 206.285 286.408 206.588 286.766 206.797C287.124 207.002 287.54 207.105 288.014 207.105C288.322 207.105 288.6 207.062 288.849 206.976C289.101 206.886 289.318 206.754 289.5 206.578C289.683 206.399 289.824 206.177 289.923 205.912L291.056 206.23C290.937 206.615 290.737 206.953 290.455 207.244C290.173 207.533 289.825 207.758 289.411 207.92C288.997 208.08 288.531 208.159 288.014 208.159ZM292.961 208V200.364H294.094V201.517H294.174C294.313 201.139 294.565 200.833 294.929 200.597C295.294 200.362 295.705 200.244 296.162 200.244C296.248 200.244 296.356 200.246 296.485 200.249C296.615 200.253 296.712 200.258 296.779 200.264V201.457C296.739 201.447 296.648 201.433 296.505 201.413C296.366 201.389 296.219 201.378 296.063 201.378C295.692 201.378 295.36 201.456 295.069 201.612C294.78 201.764 294.551 201.976 294.382 202.248C294.217 202.516 294.134 202.823 294.134 203.168V208H292.961ZM303.579 202.074L302.525 202.372C302.458 202.196 302.361 202.026 302.231 201.86C302.105 201.691 301.933 201.552 301.714 201.442C301.496 201.333 301.215 201.278 300.874 201.278C300.407 201.278 300.017 201.386 299.706 201.602C299.398 201.814 299.243 202.084 299.243 202.412C299.243 202.704 299.349 202.934 299.562 203.103C299.774 203.272 300.105 203.413 300.556 203.526L301.689 203.804C302.372 203.97 302.881 204.223 303.216 204.565C303.55 204.903 303.718 205.339 303.718 205.872C303.718 206.31 303.592 206.701 303.34 207.045C303.091 207.39 302.743 207.662 302.296 207.861C301.849 208.06 301.328 208.159 300.735 208.159C299.956 208.159 299.311 207.99 298.801 207.652C298.291 207.314 297.967 206.82 297.831 206.17L298.945 205.892C299.051 206.303 299.252 206.611 299.547 206.817C299.845 207.022 300.234 207.125 300.715 207.125C301.262 207.125 301.696 207.009 302.018 206.777C302.342 206.542 302.505 206.26 302.505 205.932C302.505 205.667 302.412 205.445 302.226 205.266C302.041 205.083 301.756 204.947 301.371 204.858L300.099 204.56C299.399 204.394 298.885 204.137 298.557 203.789C298.233 203.438 298.07 202.999 298.07 202.472C298.07 202.041 298.191 201.66 298.433 201.328C298.678 200.997 299.011 200.737 299.432 200.548C299.857 200.359 300.337 200.264 300.874 200.264C301.63 200.264 302.223 200.43 302.654 200.761C303.088 201.093 303.396 201.53 303.579 202.074Z" fill="#B1B1B1"/>
<path d="M259.534 156.727V180H255.318V160.83H255.182L249.739 164.307V160.443L255.523 156.727H259.534ZM274.045 180.443C272.174 180.443 270.568 179.97 269.227 179.023C267.894 178.068 266.867 176.693 266.148 174.898C265.436 173.095 265.08 170.924 265.08 168.386C265.087 165.848 265.447 163.689 266.159 161.909C266.879 160.121 267.905 158.758 269.239 157.818C270.58 156.879 272.182 156.409 274.045 156.409C275.909 156.409 277.511 156.879 278.852 157.818C280.193 158.758 281.22 160.121 281.932 161.909C282.652 163.697 283.011 165.856 283.011 168.386C283.011 170.932 282.652 173.106 281.932 174.909C281.22 176.705 280.193 178.076 278.852 179.023C277.519 179.97 275.917 180.443 274.045 180.443ZM274.045 176.886C275.5 176.886 276.648 176.17 277.489 174.739C278.337 173.299 278.761 171.182 278.761 168.386C278.761 166.538 278.568 164.985 278.182 163.727C277.795 162.47 277.25 161.523 276.545 160.886C275.841 160.242 275.008 159.92 274.045 159.92C272.598 159.92 271.455 160.64 270.614 162.08C269.773 163.511 269.348 165.614 269.341 168.386C269.333 170.242 269.519 171.803 269.898 173.068C270.284 174.333 270.83 175.288 271.534 175.932C272.239 176.568 273.076 176.886 274.045 176.886ZM293.696 176.273V160.545H297.264V176.273H293.696ZM287.616 170.193V166.625H303.344V170.193H287.616Z" fill="white"/>
<defs>
<filter id="filter0_d_119_111" x="24.3584" y="197.341" width="126.737" height="21.5227" filterUnits="userSpaceOnUse" color-interpolation-filters="sRGB">
<feFlood flood-opacity="0" result="BackgroundImageFix"/>
<feColorMatrix in="SourceAlpha" type="matrix" values="0 0 0 0 0 0 0 0 0 0 0 0 0 0 0 0 0 0 127 0" result="hardAlpha"/>
<feOffset dy="4"/>
<feGaussianBlur stdDeviation="2"/>
<feComposite in2="hardAlpha" operator="out"/>
<feColorMatrix type="matrix" values="0 0 0 0 0 0 0 0 0 0 0 0 0 0 0 0 0 0 0.25 0"/>
<feBlend mode="normal" in2="BackgroundImageFix" result="effect1_dropShadow_119_111"/>
<feBlend mode="normal" in="SourceGraphic" in2="effect1_dropShadow_119_111" result="shape"/>
</filter>
<linearGradient id="paint0_linear_119_111" x1="0" y1="60" x2="220" y2="60" gradientUnits="userSpaceOnUse">
<stop stop-color="#2F3138"/>
<stop offset="0.9999" stop-color="#1D1F27"/>
</linearGradient>
<linearGradient id="paint1_linear_119_111" x1="0" y1="60" x2="220" y2="60" gradientUnits="userSpaceOnUse">
<stop stop-color="#979797"/>
<stop offset="1" stop-color="#58595D"/>
</linearGradient>
<linearGradient id="paint2_linear_119_111" x1="220" y1="60" x2="440" y2="60" gradientUnits="userSpaceOnUse">
<stop stop-color="#183953"/>
<stop offset="1" stop-color="#0F293D"/>
</linearGradient>
<linearGradient id="paint3_linear_119_111" x1="220" y1="60" x2="440" y2="60" gradientUnits="userSpaceOnUse">
<stop stop-color="#459BDD"/>
<stop offset="1" stop-color="#054F77"/>
</linearGradient>
<linearGradient id="paint4_linear_119_111" x1="0" y1="180" x2="220" y2="180" gradientUnits="userSpaceOnUse">
<stop stop-color="#183953"/>
<stop offset="1" stop-color="#0F293D"/>
</linearGradient>
<linearGradient id="paint5_linear_119_111" x1="0" y1="180" x2="220" y2="180" gradientUnits="userSpaceOnUse">
<stop stop-color="#459BDD"/>
<stop offset="1" stop-color="#054F77"/>
</linearGradient>
<linearGradient id="paint6_linear_119_111" x1="220" y1="180" x2="440" y2="180" gradientUnits="userSpaceOnUse">
<stop stop-color="#2F3138"/>
<stop offset="0.9999" stop-color="#1D1F27"/>
</linearGradient>
<linearGradient id="paint7_linear_119_111" x1="220" y1="180" x2="440" y2="180" gradientUnits="userSpaceOnUse">
<stop stop-color="#979797"/>
<stop offset="1" stop-color="#58595D"/>
</linearGradient>
</defs>
</svg>
