<svg width="407" height="321" viewBox="0 0 407 321" fill="none" xmlns="http://www.w3.org/2000/svg">
<path d="M406.998 40.6083V308.819C406.926 311.995 405.651 315.024 403.434 317.287C401.217 319.551 398.224 320.879 395.066 321H11.1255C4.74883 321 0.00276227 315.243 0.00276227 308.819V40.6083C-0.0417208 39.114 0.213406 37.626 0.752928 36.2329C1.29245 34.8398 2.10534 33.57 3.14319 32.4994C4.18104 31.4287 5.4226 30.5789 6.79397 30.0006C8.16533 29.4224 9.63843 29.1275 11.1255 29.1335H395.066C398.152 29.1005 401.128 30.2826 403.358 32.427C405.588 34.5714 406.894 37.5079 406.998 40.6083Z" fill="#459BDD"/>
<path opacity="0.1" d="M406.996 74.033V308.819C406.925 311.995 405.65 315.024 403.433 317.287C401.216 319.551 398.223 320.879 395.065 321H11.1242C4.74753 321 0.00146484 315.243 0.00146484 308.819V217.434C33.7807 152.131 114.305 141.549 208.576 179.731C342.036 233.787 398.949 160.42 406.996 74.033Z" fill="white"/>
<path opacity="0.2" d="M302.163 290.347H107.388C105.63 290.347 103.944 289.645 102.701 288.396C101.458 287.146 100.76 285.451 100.76 283.684C100.76 281.916 101.458 280.222 102.701 278.972C103.944 277.722 105.63 277.02 107.388 277.02H302.163C303.921 277.02 305.607 277.722 306.85 278.972C308.093 280.222 308.791 281.916 308.791 283.684C308.791 285.451 308.093 287.146 306.85 288.396C305.607 289.645 303.921 290.347 302.163 290.347Z" fill="black"/>
<path d="M107.389 289.014C105.982 289.014 104.633 288.453 103.639 287.453C102.644 286.453 102.086 285.097 102.086 283.684C102.086 282.27 102.644 280.914 103.639 279.914C104.633 278.914 105.982 278.353 107.389 278.353H222.514C223.92 278.353 225.269 278.914 226.263 279.914C227.258 280.914 227.817 282.27 227.817 283.684C227.817 285.097 227.258 286.453 226.263 287.453C225.269 288.453 223.92 289.014 222.514 289.014H107.389Z" fill="#459BDD"/>
<path opacity="0.7" d="M107.389 289.014C105.982 289.014 104.633 288.453 103.639 287.453C102.644 286.453 102.086 285.097 102.086 283.684C102.086 282.27 102.644 280.914 103.639 279.914C104.633 278.914 105.982 278.353 107.389 278.353H222.514C223.92 278.353 225.269 278.914 226.263 279.914C227.258 280.914 227.817 282.27 227.817 283.684C227.817 285.097 227.258 286.453 226.263 287.453C225.269 288.453 223.92 289.014 222.514 289.014H107.389Z" fill="white"/>
<path opacity="0.2" d="M139.35 42.0609H50.1957C43.7965 42.0609 38.6089 47.2758 38.6089 53.7089V143.335C38.6089 149.768 43.7965 154.983 50.1957 154.983H139.35C145.749 154.983 150.937 149.768 150.937 143.335V53.7089C150.937 47.2758 145.749 42.0609 139.35 42.0609Z" fill="black"/>
<path d="M154.516 29.6664H79.8254C74.4586 29.6664 70.1079 34.0401 70.1079 39.4353V114.521C70.1079 119.916 74.4586 124.29 79.8254 124.29H154.516C159.883 124.29 164.234 119.916 164.234 114.521V39.4353C164.234 34.0401 159.883 29.6664 154.516 29.6664Z" fill="#459BDD"/>
<path opacity="0.3" d="M154.516 29.6664H79.8254C74.4586 29.6664 70.1079 34.0401 70.1079 39.4353V114.521C70.1079 119.916 74.4586 124.29 79.8254 124.29H154.516C159.883 124.29 164.234 119.916 164.234 114.521V39.4353C164.234 34.0401 159.883 29.6664 154.516 29.6664Z" fill="white"/>
<path d="M124.423 66.0499V60.3325L121.493 60.0526C121.109 58.1515 120.367 56.342 119.306 54.7217L121.188 52.4294L117.211 48.4313L114.944 50.3237C113.33 49.2609 111.531 48.5147 109.641 48.1247L109.349 45.1261H103.662L103.41 48.1247C101.52 48.5147 99.7211 49.2609 98.1074 50.3237L95.8404 48.4313L91.8633 52.4294L93.7458 54.7217C92.6848 56.342 91.9423 58.1515 91.5584 60.0526L88.6285 60.3325V66.0499L91.5584 66.3297C91.9463 68.2295 92.6885 70.0384 93.7458 71.6606L91.8633 73.9529L95.8404 77.9511L98.1074 76.0586C99.7211 77.1215 101.52 77.8676 103.41 78.2576L103.689 81.2029H109.376L109.654 78.2576C111.544 77.8676 113.344 77.1215 114.957 76.0586L117.224 77.9511L121.201 73.9529L119.319 71.6206C120.376 69.9984 121.118 68.1896 121.506 66.2897L124.423 66.0499ZM106.512 70.941C104.985 70.9436 103.492 70.4906 102.221 69.6393C100.95 68.788 99.959 67.5768 99.3734 66.1589C98.7878 64.7411 98.6339 63.1804 98.9311 61.6746C99.2284 60.1687 99.9635 58.7854 101.043 57.6999C102.123 56.6143 103.499 55.8753 104.997 55.5765C106.495 55.2776 108.048 55.4323 109.458 56.021C110.868 56.6098 112.073 57.606 112.92 58.8836C113.767 60.1611 114.217 61.6626 114.215 63.1978C114.211 65.2503 113.399 67.2178 111.955 68.6692C110.511 70.1205 108.554 70.9374 106.512 70.941Z" fill="white"/>
<path d="M147.488 82.2158V77.7245L145.195 77.5112C144.892 76.033 144.311 74.6264 143.485 73.3665L144.956 71.5806L141.854 68.4087L140.078 69.8881C138.824 69.0571 137.425 68.4736 135.955 68.1689L135.743 65.8499H131.248L131.036 68.1689C129.566 68.4736 128.167 69.0571 126.913 69.8881L125.137 68.4087L121.968 71.5806L123.44 73.3665C122.613 74.6264 122.033 76.033 121.73 77.5112L119.436 77.7245V82.2158L121.73 82.429C122.033 83.9072 122.613 85.3138 123.44 86.5738L121.968 88.3596L125.124 91.5315L126.9 90.0522C128.153 90.8832 129.553 91.4666 131.023 91.7714L131.235 94.077H135.703L135.915 91.7714C137.385 91.4666 138.785 90.8832 140.038 90.0522L141.814 91.5315L144.97 88.3596L143.498 86.5738C144.325 85.3138 144.905 83.9072 145.208 82.429L147.488 82.2158ZM133.449 86.0407C132.253 86.0407 131.085 85.6843 130.091 85.0165C129.096 84.3487 128.322 83.3996 127.864 82.2891C127.406 81.1786 127.287 79.9567 127.52 78.7778C127.753 77.599 128.329 76.5161 129.174 75.6662C130.02 74.8163 131.097 74.2375 132.27 74.003C133.442 73.7685 134.658 73.8889 135.763 74.3488C136.867 74.8088 137.811 75.5877 138.476 76.5871C139.14 77.5865 139.494 78.7615 139.494 79.9635C139.494 81.5752 138.857 83.121 137.724 84.2607C136.59 85.4004 135.052 86.0407 133.449 86.0407Z" fill="white"/>
<path d="M124.422 94.9433V91.1717L122.487 90.9985C122.235 89.7577 121.749 88.577 121.055 87.52L122.288 86.0141L119.636 83.3486L118.138 84.5881C117.084 83.8951 115.911 83.4069 114.678 83.1487L114.492 81.2029H110.741L110.555 83.1487C109.322 83.4069 108.149 83.8951 107.095 84.5881L105.597 83.3486L102.945 86.0141L104.178 87.52C103.485 88.577 102.999 89.7577 102.747 90.9985L100.811 91.1717V94.9433L102.747 95.1299C103.003 96.3691 103.489 97.549 104.178 98.6083L102.945 100.114L105.597 102.78L107.095 101.54C108.151 102.232 109.323 102.724 110.555 102.993L110.741 104.925H114.492L114.678 102.993C115.91 102.724 117.082 102.232 118.138 101.54L119.636 102.78L122.288 100.114L121.055 98.6083C121.744 97.549 122.23 96.3691 122.487 95.1299L124.422 94.9433ZM112.689 98.1552C111.684 98.1578 110.701 97.8604 109.864 97.3005C109.027 96.7407 108.374 95.9436 107.988 95.0104C107.602 94.0771 107.5 93.0497 107.696 92.0583C107.891 91.067 108.375 90.1562 109.086 89.4416C109.797 88.7269 110.703 88.2405 111.689 88.044C112.675 87.8475 113.697 87.9496 114.625 88.3376C115.554 88.7256 116.347 89.3819 116.904 90.2234C117.46 91.0648 117.756 92.0535 117.754 93.0642C117.754 94.4144 117.22 95.7093 116.27 96.6641C115.321 97.6188 114.033 98.1552 112.689 98.1552Z" fill="white"/>
<path opacity="0.2" d="M158.493 29.6664H83.8021C78.4353 29.6664 74.0846 34.0401 74.0846 39.4353V114.521C74.0846 119.916 78.4353 124.29 83.8021 124.29H158.493C163.86 124.29 168.21 119.916 168.21 114.521V39.4353C168.21 34.0401 163.86 29.6664 158.493 29.6664Z" fill="white"/>
<path opacity="0.2" d="M301.272 151.664H218.852C212.936 151.664 208.141 156.485 208.141 162.433V245.288C208.141 251.235 212.936 256.057 218.852 256.057H301.272C307.188 256.057 311.984 251.235 311.984 245.288V162.433C311.984 156.485 307.188 151.664 301.272 151.664Z" fill="black"/>
<path d="M312.264 146.08H243.207C238.25 146.08 234.232 150.12 234.232 155.103V224.524C234.232 229.507 238.25 233.547 243.207 233.547H312.264C317.221 233.547 321.239 229.507 321.239 224.524V155.103C321.239 150.12 317.221 146.08 312.264 146.08Z" fill="#459BDD"/>
<path opacity="0.2" d="M312.264 146.08H243.207C238.25 146.08 234.232 150.12 234.232 155.103V224.524C234.232 229.507 238.25 233.547 243.207 233.547H312.264C317.221 233.547 321.239 229.507 321.239 224.524V155.103C321.239 150.12 317.221 146.08 312.264 146.08Z" fill="white"/>
<path d="M281.055 203.867C281.055 204.492 280.87 205.103 280.525 205.623C280.179 206.143 279.687 206.548 279.112 206.786C278.537 207.025 277.905 207.087 277.295 206.964C276.685 206.841 276.126 206.539 275.687 206.096C275.248 205.653 274.95 205.089 274.83 204.475C274.71 203.861 274.774 203.226 275.014 202.649C275.254 202.072 275.659 201.58 276.177 201.234C276.696 200.889 277.304 200.706 277.926 200.708C278.757 200.712 279.553 201.046 280.139 201.638C280.726 202.23 281.055 203.032 281.055 203.867Z" fill="white"/>
<path d="M277.649 172.361C273.552 172.36 269.495 173.17 265.709 174.745C261.924 176.32 258.484 178.63 255.588 181.542C252.691 184.455 250.393 187.912 248.826 191.718C247.259 195.523 246.453 199.602 246.455 203.72H271.365C271.324 202.886 271.459 202.052 271.762 201.274C272.065 200.496 272.528 199.791 273.122 199.206C273.716 198.622 274.427 198.171 275.207 197.883C275.988 197.595 276.82 197.477 277.649 197.537C278.286 197.567 278.915 197.689 279.518 197.896L291.198 184.263L282.952 200.389C283.597 201.378 283.934 202.538 283.92 203.72H308.896C308.896 199.598 308.088 195.516 306.517 191.707C304.946 187.899 302.643 184.44 299.741 181.527C296.839 178.615 293.394 176.306 289.603 174.733C285.812 173.16 281.75 172.354 277.649 172.361Z" fill="white"/>
<path opacity="0.2" d="M315.935 146.08H246.879C241.922 146.08 237.904 150.12 237.904 155.103V224.524C237.904 229.507 241.922 233.547 246.879 233.547H315.935C320.892 233.547 324.911 229.507 324.911 224.524V155.103C324.911 150.12 320.892 146.08 315.935 146.08Z" fill="white"/>
<path opacity="0.2" d="M326.581 68.2354H254.263C249.072 68.2354 244.864 72.4659 244.864 77.6844V150.385C244.864 155.603 249.072 159.834 254.263 159.834H326.581C331.772 159.834 335.98 155.603 335.98 150.385V77.6844C335.98 72.4659 331.772 68.2354 326.581 68.2354Z" fill="black"/>
<path d="M337.77 60.1591H277.171C272.822 60.1591 269.296 63.7033 269.296 68.0754V128.994C269.296 133.366 272.822 136.911 277.171 136.911H337.77C342.119 136.911 345.644 133.366 345.644 128.994V68.0754C345.644 63.7033 342.119 60.1591 337.77 60.1591Z" fill="#459BDD"/>
<path opacity="0.1" d="M337.77 60.1591H277.171C272.822 60.1591 269.296 63.7033 269.296 68.0754V128.994C269.296 133.366 272.822 136.911 277.171 136.911H337.77C342.119 136.911 345.644 133.366 345.644 128.994V68.0754C345.644 63.7033 342.119 60.1591 337.77 60.1591Z" fill="white"/>
<path d="M328.782 79.6302C328.782 78.9621 328.518 78.3215 328.048 77.8491C327.578 77.3767 326.941 77.1113 326.276 77.1113H288.865C288.2 77.1113 287.563 77.3767 287.093 77.8491C286.623 78.3215 286.359 78.9621 286.359 79.6302V87.9197C286.359 88.5878 286.623 89.2284 287.093 89.7008C287.563 90.1732 288.2 90.4386 288.865 90.4386H326.276C326.941 90.4386 327.578 90.1732 328.048 89.7008C328.518 89.2284 328.782 88.5878 328.782 87.9197V79.6302ZM316.426 84.1215H314.278V81.9624H316.426V84.1215ZM322.167 85.201C321.738 85.2036 321.318 85.0781 320.961 84.8404C320.604 84.6027 320.325 84.2636 320.159 83.8661C319.994 83.4686 319.95 83.0308 320.033 82.6081C320.116 82.1855 320.322 81.7972 320.625 81.4926C320.928 81.188 321.315 80.9808 321.735 80.8974C322.155 80.814 322.591 80.8582 322.986 81.0242C323.382 81.1903 323.719 81.4708 323.956 81.8301C324.192 82.1894 324.317 82.6112 324.314 83.0419C324.314 83.3266 324.258 83.6084 324.149 83.8713C324.041 84.1341 323.881 84.3727 323.68 84.5733C323.48 84.774 323.241 84.9327 322.979 85.0405C322.717 85.1482 322.436 85.2027 322.153 85.201H322.167Z" fill="white"/>
<path d="M328.782 94.2901C328.782 93.622 328.518 92.9814 328.048 92.509C327.578 92.0366 326.941 91.7712 326.276 91.7712H288.865C288.2 91.7712 287.563 92.0366 287.093 92.509C286.623 92.9814 286.359 93.622 286.359 94.2901V102.58C286.359 103.248 286.623 103.888 287.093 104.361C287.563 104.833 288.2 105.098 288.865 105.098H326.276C326.941 105.098 327.578 104.833 328.048 104.361C328.518 103.888 328.782 103.248 328.782 102.58V94.2901ZM316.426 99.621H314.278V97.462H316.426V99.621ZM322.167 100.7C321.742 100.7 321.327 100.574 320.973 100.337C320.62 100.099 320.345 99.7622 320.182 99.3677C320.02 98.9732 319.977 98.5391 320.06 98.1203C320.143 97.7015 320.348 97.3168 320.648 97.0148C320.948 96.7129 321.331 96.5073 321.747 96.424C322.164 96.3407 322.596 96.3834 322.988 96.5468C323.381 96.7102 323.716 96.9869 323.952 97.342C324.188 97.697 324.314 98.1145 324.314 98.5415C324.314 98.8255 324.258 99.1067 324.149 99.3688C324.04 99.6309 323.881 99.8686 323.68 100.068C323.479 100.268 323.24 100.425 322.978 100.532C322.716 100.638 322.436 100.691 322.153 100.687L322.167 100.7Z" fill="white"/>
<path d="M328.782 108.95C328.782 108.282 328.518 107.641 328.048 107.169C327.578 106.697 326.941 106.431 326.276 106.431H288.865C288.2 106.431 287.563 106.697 287.093 107.169C286.623 107.641 286.359 108.282 286.359 108.95V117.24C286.359 117.908 286.623 118.548 287.093 119.021C287.563 119.493 288.2 119.759 288.865 119.759H326.276C326.941 119.759 327.578 119.493 328.048 119.021C328.518 118.548 328.782 117.908 328.782 117.24V108.95ZM316.426 115.107H314.278V112.948H316.426V115.107ZM322.167 116.187C321.742 116.187 321.327 116.06 320.973 115.823C320.62 115.586 320.345 115.249 320.182 114.854C320.02 114.46 319.977 114.025 320.06 113.607C320.143 113.188 320.348 112.803 320.648 112.501C320.948 112.199 321.331 111.994 321.747 111.91C322.164 111.827 322.596 111.87 322.988 112.033C323.381 112.197 323.716 112.473 323.952 112.828C324.188 113.183 324.314 113.601 324.314 114.028C324.314 114.313 324.258 114.594 324.149 114.857C324.041 115.12 323.881 115.359 323.68 115.559C323.48 115.76 323.241 115.919 322.979 116.026C322.717 116.134 322.436 116.189 322.153 116.187H322.167Z" fill="white"/>
<path opacity="0.2" d="M341.005 60.1593H280.407C276.058 60.1593 272.532 63.7036 272.532 68.0757V128.994C272.532 133.367 276.058 136.911 280.407 136.911H341.005C345.355 136.911 348.88 133.367 348.88 128.994V68.0757C348.88 63.7036 345.355 60.1593 341.005 60.1593Z" fill="white"/>
<path opacity="0.2" d="M197.006 139.163H107.852C101.452 139.163 96.2649 144.378 96.2649 150.811V240.436C96.2649 246.869 101.452 252.084 107.852 252.084H197.006C203.405 252.084 208.593 246.869 208.593 240.436V150.811C208.593 144.378 203.405 139.163 197.006 139.163Z" fill="black"/>
<path d="M207.029 131.18H132.339C126.972 131.18 122.621 135.554 122.621 140.949V216.035C122.621 221.43 126.972 225.804 132.339 225.804H207.029C212.396 225.804 216.747 221.43 216.747 216.035V140.949C216.747 135.554 212.396 131.18 207.029 131.18Z" fill="#459BDD"/>
<path opacity="0.5" d="M207.029 131.18H132.339C126.972 131.18 122.621 135.554 122.621 140.949V216.035C122.621 221.43 126.972 225.804 132.339 225.804H207.029C212.396 225.804 216.747 221.43 216.747 216.035V140.949C216.747 135.554 212.396 131.18 207.029 131.18Z" fill="white"/>
<path d="M143.645 204.467C142.961 203.78 142.419 202.964 142.049 202.067C141.679 201.169 141.489 200.207 141.489 199.236C141.489 198.264 141.679 197.302 142.049 196.405C142.419 195.507 142.961 194.692 143.645 194.005L160.879 176.759C161.262 176.37 161.719 176.061 162.222 175.85C162.724 175.639 163.264 175.531 163.809 175.531C164.354 175.531 164.893 175.639 165.396 175.85C165.899 176.061 166.355 176.37 166.739 176.759L171.273 181.304C171.66 181.69 171.968 182.15 172.178 182.657C172.388 183.164 172.496 183.707 172.496 184.256C172.496 184.805 172.388 185.348 172.178 185.855C171.968 186.361 171.66 186.821 171.273 187.208L154.105 204.467C153.422 205.165 152.608 205.72 151.71 206.098C150.812 206.477 149.848 206.672 148.875 206.672C147.901 206.672 146.937 206.477 146.039 206.098C145.141 205.72 144.327 205.165 143.645 204.467Z" fill="white"/>
<path d="M175.277 176.066L171.896 172.668L191.291 153.17L195.52 152.317L194.672 156.568L175.277 176.066Z" fill="white"/>
<path d="M173.368 180.584L167.402 174.574C167.272 174.449 167.168 174.299 167.097 174.133C167.026 173.967 166.99 173.788 166.99 173.607C166.99 173.427 167.026 173.248 167.097 173.082C167.168 172.915 167.272 172.766 167.402 172.641C167.526 172.508 167.676 172.402 167.843 172.329C168.009 172.257 168.189 172.219 168.37 172.219C168.552 172.219 168.731 172.257 168.898 172.329C169.064 172.402 169.214 172.508 169.338 172.641L175.304 178.638C175.436 178.763 175.542 178.914 175.614 179.081C175.686 179.248 175.723 179.429 175.723 179.611C175.723 179.794 175.686 179.974 175.614 180.141C175.542 180.309 175.436 180.459 175.304 180.584C175.18 180.717 175.03 180.823 174.863 180.896C174.697 180.969 174.517 181.006 174.336 181.006C174.154 181.006 173.975 180.969 173.808 180.896C173.642 180.823 173.492 180.717 173.368 180.584Z" fill="white"/>
<path d="M165.334 169.069L157.155 160.82C158.679 156.702 155.59 151.637 152.236 150.305L152.17 156.648C152.17 157.355 151.89 158.033 151.393 158.533C150.896 159.033 150.222 159.314 149.518 159.314C148.815 159.314 148.141 159.033 147.644 158.533C147.146 158.033 146.867 157.355 146.867 156.648V150.411C145.328 151.038 143.999 152.093 143.037 153.453C142.074 154.813 141.517 156.421 141.432 158.088C141.451 160.055 142.179 161.95 143.48 163.42C144.782 164.89 146.569 165.836 148.511 166.084C149.863 166.293 151.245 166.098 152.488 165.524L160.734 173.84L165.334 169.069Z" fill="white"/>
<path d="M192.565 200.362V206.665C194.104 206.039 195.433 204.983 196.396 203.623C197.359 202.264 197.916 200.656 198.001 198.989C198.013 197.029 197.324 195.13 196.058 193.64C194.792 192.15 193.034 191.167 191.107 190.873C189.839 190.609 188.521 190.739 187.329 191.246L178.765 182.61L174.072 187.328L182.583 195.897C180.117 200.961 183.909 205.226 187.316 206.559V200.295C187.316 199.588 187.595 198.91 188.092 198.41C188.589 197.91 189.264 197.63 189.967 197.63C190.316 197.636 190.661 197.713 190.981 197.854C191.301 197.995 191.59 198.199 191.831 198.453C192.073 198.706 192.262 199.006 192.388 199.333C192.514 199.661 192.574 200.011 192.565 200.362Z" fill="white"/>
<path opacity="0.2" d="M211.005 131.18H136.314C130.947 131.18 126.597 135.554 126.597 140.949V216.034C126.597 221.43 130.947 225.803 136.314 225.803H211.005C216.372 225.803 220.723 221.43 220.723 216.034V140.949C220.723 135.554 216.372 131.18 211.005 131.18Z" fill="white"/>
<path d="M187.261 114.054L277.304 114.054C283.769 114.054 289.01 108.786 289.01 102.286V11.7678C289.01 5.26858 283.769 -0.000114441 277.304 -0.000114441L187.261 -0.000114441C180.796 -0.000114441 175.555 5.26858 175.555 11.7678V102.286C175.555 108.786 180.796 114.054 187.261 114.054Z" fill="#459BDD"/>
<path opacity="0.2" d="M270.808 18.1116H163.346C155.629 18.1116 149.373 24.4006 149.373 32.1585V140.189C149.373 147.947 155.629 154.236 163.346 154.236H270.808C278.525 154.236 284.781 147.947 284.781 140.189V32.1585C284.781 24.4006 278.525 18.1116 270.808 18.1116Z" fill="black"/>
<path opacity="0.5" d="M187.261 114.054L277.304 114.054C283.769 114.054 289.01 108.786 289.01 102.286V11.7678C289.01 5.26858 283.769 -0.000114441 277.304 -0.000114441L187.261 -0.000114441C180.796 -0.000114441 175.555 5.26858 175.555 11.7678V102.286C175.555 108.786 180.796 114.054 187.261 114.054Z" fill="white"/>
<path d="M232.243 21.6834L197.536 35.3838C197.536 35.3838 201.924 83.3619 232.283 92.3577C262.655 83.3619 267.043 35.3838 267.043 35.3838L232.243 21.6834ZM231.368 68.1422C231.142 68.4406 230.852 68.6833 230.519 68.8519C230.186 69.0205 229.819 69.1105 229.446 69.115C229.069 69.1089 228.699 69.014 228.365 68.8382C228.031 68.6623 227.743 68.4102 227.524 68.1022L215.34 51.2166C215.155 50.9602 215.022 50.6696 214.948 50.3614C214.874 50.0531 214.862 49.7334 214.911 49.4203C214.96 49.1072 215.07 48.8069 215.235 48.5366C215.399 48.2662 215.615 48.0312 215.871 47.8448C216.126 47.6584 216.415 47.5243 216.721 47.4502C217.028 47.3761 217.346 47.3635 217.657 47.413C217.969 47.4625 218.268 47.5732 218.536 47.7387C218.805 47.9043 219.039 48.1215 219.225 48.3779L229.512 62.6114L246.322 40.3016C246.706 39.7938 247.275 39.4596 247.903 39.3722C248.532 39.2848 249.17 39.4512 249.676 39.8351C250.173 40.2626 250.496 40.8597 250.581 41.5116C250.667 42.1635 250.51 42.8243 250.14 43.3668L231.368 68.1422Z" fill="white"/>
<path opacity="0.2" d="M192.048 114.054L282.091 114.054C288.556 114.054 293.797 108.786 293.797 102.286V11.7678C293.797 5.26858 288.556 -0.000114441 282.091 -0.000114441L192.048 -0.000114441C185.583 -0.000114441 180.342 5.26858 180.342 11.7678V102.286C180.342 108.786 185.583 114.054 192.048 114.054Z" fill="white"/>
</svg>
