<svg width="200" height="51" viewBox="0 0 200 51" fill="none" xmlns="http://www.w3.org/2000/svg">
<path d="M71.0781 31.3394V29.1969H73.2346C74.038 29.1969 74.5876 29.0708 74.8836 28.8188C75.1796 28.5667 75.3065 27.9786 75.3065 27.1384V6.59554C75.3065 5.71333 75.1796 5.1672 74.8836 4.87313C74.5876 4.62107 74.038 4.45303 73.2346 4.45303H71.0781V2.35254H96.3635L96.6172 12.2669H94.6722C93.8688 9.45221 92.6849 7.43574 91.205 6.21745C89.6828 5.04117 87.5686 4.45303 84.7779 4.45303C83.8477 4.45303 83.2557 4.57906 82.9597 4.83112C82.6637 5.08318 82.5369 5.67132 82.5369 6.55353V15.0395H87.1881C91.4587 15.0395 94.6722 15.7537 96.8286 17.182C98.9851 18.6104 100.084 20.7529 100.084 23.6095C100.084 26.1301 99.0274 28.0206 96.9555 29.3649C94.8836 30.6672 91.8392 31.3394 87.8223 31.3394H71.0781ZM82.5369 17.3081V26.3402C82.5369 27.6005 82.706 28.3567 83.0443 28.6927C83.3826 29.0288 84.2705 29.1969 85.6236 29.1969C88.2029 29.1969 89.9788 28.7347 90.9936 27.8105C92.0084 26.8863 92.5158 25.3319 92.5158 23.1474C92.5158 21.131 91.9661 19.6606 90.8244 18.7364C89.6828 17.8122 87.8646 17.3501 85.3276 17.3501H82.5369V17.3081Z" fill="#C6D4E9"/>
<path d="M122.283 26.7183V26.8443C122.283 27.4325 122.41 27.8526 122.621 28.1046C122.833 28.3567 123.213 28.4827 123.721 28.4827C123.974 28.4827 124.228 28.3987 124.524 28.2727C124.82 28.1466 124.989 28.0626 125.116 28.0626C125.285 28.0626 125.412 28.1046 125.496 28.2307C125.581 28.3147 125.623 28.4827 125.623 28.6928C125.623 29.533 125.158 30.2471 124.186 30.9193C123.213 31.5914 122.072 31.9275 120.718 31.9275C119.704 31.9275 118.858 31.6755 118.139 31.1713C117.42 30.6672 116.998 29.9951 116.913 29.1549C115.856 30.0371 114.63 30.7513 113.192 31.2554C111.754 31.7595 110.317 32.0115 108.837 32.0115C106.934 32.0115 105.412 31.5914 104.355 30.7512C103.298 29.9111 102.748 28.7348 102.748 27.2224C102.748 25.2059 103.805 23.5676 105.919 22.3493C108.033 21.131 111.416 20.2068 116.067 19.6186V17.4341C116.067 16.0058 115.771 15.0396 115.222 14.4514C114.672 13.8633 113.699 13.5692 112.389 13.5692C111.543 13.5692 110.824 13.6952 110.232 13.9893C109.64 14.2834 109.344 14.5774 109.344 14.9555C109.344 15.0816 109.513 15.3336 109.852 15.7537C110.19 16.1738 110.359 16.6779 110.359 17.2241C110.359 17.9802 110.063 18.6104 109.471 19.0725C108.879 19.5346 108.076 19.7447 107.146 19.7447C106.131 19.7447 105.327 19.4506 104.693 18.9045C104.059 18.3163 103.763 17.5601 103.763 16.6359C103.763 15.0396 104.566 13.8213 106.215 12.8971C107.864 11.9728 110.105 11.5527 112.981 11.5527C114.63 11.5527 116.11 11.7208 117.378 12.0569C118.647 12.3929 119.661 12.8971 120.507 13.5272C121.141 14.0313 121.606 14.5774 121.86 15.2076C122.114 15.8377 122.241 16.804 122.241 18.1483V26.7183H122.283ZM116.025 21.6351C113.615 22.0552 111.881 22.6013 110.909 23.3575C109.894 24.0717 109.429 25.1219 109.429 26.4662C109.429 27.2644 109.64 27.9366 110.105 28.3987C110.57 28.9028 111.162 29.1129 111.924 29.1129C113.023 29.1129 113.995 28.6928 114.799 27.8106C115.602 26.9284 116.025 25.8781 116.025 24.5758V23.9457V21.6351Z" fill="#C6D4E9"/>
<path d="M156.279 2.39453V4.49503H154.207C153.404 4.49503 152.896 4.62106 152.6 4.87311C152.304 5.12517 152.178 5.71331 152.178 6.59552V29.1968H156.237V40.3295H154.249C153.531 36.9267 152.389 34.5741 150.909 33.2718C149.429 31.9695 147.019 31.2973 143.763 31.2973H138.435C135.137 31.2973 132.77 31.9695 131.29 33.2718C129.81 34.5741 128.668 36.9267 127.949 40.3295H125.962V29.1968H129.979C131.543 26.7603 132.727 23.6935 133.615 20.0807C134.503 16.4258 134.926 12.6029 134.926 8.56998C134.926 6.80557 134.715 5.71331 134.334 5.20919C133.953 4.70507 133.192 4.49503 132.008 4.49503H130.613V2.39453H156.279ZM137.886 4.45302C137.759 10.2504 137.294 15.0815 136.533 19.0725C135.772 23.0214 134.63 26.3822 133.066 29.1968H144.947V4.45302H137.886Z" fill="#C6D4E9"/>
<path d="M164.143 5.58728V24.5758C164.143 26.2561 164.482 27.4744 165.158 28.1466C165.835 28.8187 167.019 29.1968 168.71 29.1968V31.2973H157.082V29.1968C158.689 29.1128 159.83 28.7347 160.422 28.1046C161.057 27.4324 161.353 26.1721 161.353 24.2817V24.0716V6.63753C161.353 5.75532 161.226 5.16718 160.93 4.91512C160.634 4.62106 160.126 4.49503 159.365 4.49503H157.336V2.39453H170.359L176.659 19.7026L182.621 2.39453H195.391V4.49503H193.361C192.558 4.49503 192.05 4.62106 191.754 4.91512C191.458 5.16718 191.332 5.75532 191.332 6.63753V27.1804C191.332 28.0626 191.458 28.6087 191.754 28.8608C192.05 29.1128 192.6 29.2388 193.361 29.2388H195.391V31.3814H180.338V29.2388H182.156C182.959 29.2388 183.509 29.1128 183.805 28.8608C184.101 28.6087 184.228 28.0206 184.228 27.1804V5.41924L175.475 31.3393H173.446L164.143 5.58728Z" fill="#C6D4E9"/>
<path d="M58.266 39.4892L47.1032 35.4983L5.87695 38.397L18.0545 43.5642L58.266 39.4892Z" fill="#8C98AB"/>
<path d="M9.59863 32.3897L20.0003 36.6747L53.7847 33.3139L44.2709 30.0371L9.59863 32.3897Z" fill="#8C98AB"/>
<path d="M13.3193 26.3821L21.9451 29.8269L49.3447 27.0963L41.3954 24.5757L13.3193 26.3821Z" fill="#8C98AB"/>
<path d="M17.04 20.3748L23.8899 22.9794L44.8624 20.9209L38.5622 19.1145L17.04 20.3748Z" fill="#8C98AB"/>
<path d="M20.7607 14.3674L25.8347 16.0898L40.4225 14.7455L35.729 13.6532L20.7607 14.3674Z" fill="#8C98AB"/>
<path d="M24.5244 8.35993L27.7802 9.24214L35.9409 8.56998L32.8542 8.19189L24.5244 8.35993Z" fill="#8C98AB"/>
<path d="M21.3955 12.3089L21.4801 12.1409L21.3955 12.3089Z" fill="#C6D4E9"/>
<path d="M58.2657 39.4893L18.0543 43.5222L16.4053 48.8995L61.6907 44.2364L58.2657 39.4893Z" fill="#C6D4E9"/>
<path d="M20.0003 36.6746L18.3936 41.8839L57.1251 37.9349L53.7847 33.3138L20.0003 36.6746Z" fill="#C6D4E9"/>
<path d="M21.9453 29.8271L20.3809 34.9103L52.5585 31.6335L49.3449 27.0964L21.9453 29.8271Z" fill="#C6D4E9"/>
<path d="M23.8904 22.9374L22.3682 27.9365L48.0341 25.3319L44.8629 20.9209L23.8904 22.9374Z" fill="#C6D4E9"/>
<path d="M25.8354 16.0898L24.3555 20.9209L43.4675 19.0305L40.4231 14.7455L25.8354 16.0898Z" fill="#C6D4E9"/>
<path d="M27.7804 9.24223L26.3428 13.9473L38.9009 12.729L35.9411 8.57007L27.7804 9.24223Z" fill="#C6D4E9"/>
<path d="M29.7254 2.39453L28.3301 6.97361L34.3343 6.46949L31.5013 2.39453H29.7254Z" fill="#C6D4E9"/>
<path d="M5.87722 38.397L3.00195 42.682L16.4058 48.8994L18.0548 43.5642L5.87722 38.397Z" fill="#B0C6E7"/>
<path d="M9.59832 32.3896L6.80762 36.6326L18.3932 41.8839L20 36.6747L9.59832 32.3896Z" fill="#B0C6E7"/>
<path d="M13.3194 26.3822L10.6133 30.5832L20.3807 34.9102L21.9452 29.827L13.3194 26.3822Z" fill="#B0C6E7"/>
<path d="M17.0398 20.3748L14.376 24.5757L22.3675 27.9365L23.8897 22.9794L17.0398 20.3748Z" fill="#B0C6E7"/>
<path d="M20.7609 14.3673L18.1816 18.5683L24.355 20.9209L25.8349 16.0897L20.7609 14.3673Z" fill="#B0C6E7"/>
<path d="M24.5246 8.35986L21.9453 12.5188L26.3428 13.9472L27.7804 9.24207L24.5246 8.35986Z" fill="#B0C6E7"/>
<path d="M28.2447 2.39453L25.75 6.46949L28.3293 6.97361L29.7246 2.39453H28.2447Z" fill="#B0C6E7"/>
<path d="M77.3362 45.7488L77.6744 45.9168C77.5053 46.3369 77.2516 46.673 76.9133 46.9251C76.5751 47.1771 76.1522 47.3032 75.6871 47.3032C75.0529 47.3032 74.5455 47.1351 74.1649 46.757C73.7844 46.421 73.6152 45.9168 73.6152 45.3287C73.6152 44.6985 73.8267 44.1524 74.2495 43.7323C74.6723 43.3122 75.2643 43.1022 75.9831 43.1022C76.4905 43.1022 76.9133 43.1862 77.167 43.3962C77.4207 43.6063 77.5899 43.8584 77.5899 44.1524C77.5899 44.3625 77.5476 44.5305 77.4207 44.6565C77.2939 44.7826 77.1247 44.8246 76.9556 44.8246C76.7865 44.8246 76.6596 44.7826 76.5328 44.6985C76.4482 44.6145 76.3636 44.4885 76.3636 44.3205C76.3636 44.1944 76.4059 44.0264 76.5328 43.8584C76.5751 43.7743 76.6173 43.7323 76.6173 43.6903C76.6173 43.6483 76.5751 43.6063 76.4905 43.5643C76.3636 43.4803 76.1945 43.4803 76.0254 43.4803C75.6448 43.4803 75.3911 43.6063 75.222 43.8163C75.0106 44.1104 74.8837 44.5725 74.8837 45.2027C74.8837 45.8328 75.0106 46.2529 75.222 46.505C75.4334 46.757 75.7294 46.8831 76.0677 46.8831C76.3214 46.8831 76.5751 46.799 76.8288 46.631C76.9979 46.3789 77.167 46.0849 77.3362 45.7488Z" fill="#C6D4E9"/>
<path d="M84.5664 45.2446H81.8603C81.8603 45.7907 81.9871 46.1688 82.1986 46.4209C82.41 46.6729 82.6637 46.799 83.0019 46.799C83.2556 46.799 83.4671 46.7149 83.6785 46.5889C83.8899 46.4629 84.1013 46.2108 84.3127 45.8747L84.6087 46.0428C84.355 46.4629 84.1013 46.7569 83.8053 46.925C83.5093 47.093 83.1288 47.177 82.706 47.177C82.0717 47.177 81.5643 46.967 81.1838 46.5889C80.8032 46.2108 80.5918 45.7067 80.5918 45.1186C80.5918 44.5304 80.8032 44.0263 81.1838 43.6062C81.5643 43.1861 82.0717 43.0181 82.6214 43.0181C83.0019 43.0181 83.3402 43.1021 83.6362 43.2701C83.9322 43.4382 84.1436 43.6482 84.3127 43.9843C84.4819 44.3204 84.5664 44.7405 84.5664 45.2446ZM81.8603 44.8665H83.1288C83.2556 44.8665 83.3402 44.8245 83.3825 44.7825C83.4248 44.7405 83.4671 44.6144 83.4671 44.4464C83.4671 44.1103 83.3825 43.9003 83.2556 43.7322C83.1288 43.5642 82.9174 43.4802 82.706 43.4802C82.4523 43.4802 82.2408 43.6062 82.114 43.8163C81.9449 44.0263 81.8603 44.4044 81.8603 44.8665Z" fill="#C6D4E9"/>
<path d="M87.6953 43.3122L89.2598 43.2282C89.3021 43.4802 89.3444 43.7323 89.3866 43.9843C89.5558 43.7323 89.7672 43.5222 90.0209 43.3962C90.2746 43.2702 90.5706 43.1862 90.8666 43.1862C91.374 43.1862 91.7545 43.3542 92.0928 43.7323C92.3888 44.0684 92.5579 44.5725 92.5579 45.2446C92.5579 45.7067 92.4733 46.0848 92.3465 46.3789C92.1773 46.673 92.0082 46.925 91.7122 47.0931C91.4585 47.2611 91.1203 47.3451 90.782 47.3451C90.486 47.3451 90.2323 47.2611 90.0209 47.1351C89.8095 47.0091 89.5981 46.799 89.3866 46.5049V47.8913C89.3866 48.0593 89.3866 48.1853 89.4289 48.2273C89.4712 48.2694 89.5135 48.3114 89.5981 48.3534C89.6826 48.3954 89.8095 48.3954 90.0632 48.3954V48.7735H87.7376V48.3114H87.8644C87.9913 48.3114 88.1181 48.3114 88.1604 48.2694C88.2027 48.2273 88.245 48.1853 88.2873 48.1433C88.2873 48.1013 88.3296 47.9753 88.3296 47.8072V44.1524C88.3296 43.9843 88.3296 43.8583 88.2873 43.8163C88.245 43.7743 88.2027 43.7323 88.1604 43.6903C88.1181 43.6483 87.9913 43.6483 87.7799 43.6483V43.3122H87.6953ZM90.3592 43.6903C90.1055 43.6903 89.8518 43.8163 89.6826 44.0684C89.5135 44.3204 89.3866 44.6985 89.3866 45.2026C89.3866 45.7067 89.4712 46.0428 89.6826 46.3369C89.894 46.589 90.1055 46.715 90.3592 46.715C90.6129 46.715 90.8243 46.589 90.9511 46.3789C91.1625 46.0848 91.2471 45.7067 91.2471 45.2026C91.2471 44.7405 91.1625 44.3624 90.9934 44.1104C90.8666 43.8583 90.6129 43.6903 90.3592 43.6903Z" fill="#C6D4E9"/>
<path d="M95.5605 47.135V46.757H95.8142C96.0257 46.757 96.1525 46.6729 96.1525 46.4629V43.9423C96.1525 43.7743 96.0257 43.6482 95.8142 43.6482H95.5605V43.2701H98.0553C98.4358 43.2701 98.7318 43.3122 98.9432 43.3542C99.1546 43.3962 99.3238 43.5222 99.4929 43.6902C99.6197 43.8583 99.7043 44.0263 99.7043 44.2364C99.7043 44.4884 99.5775 44.6985 99.366 44.8665C99.1546 45.0346 98.8586 45.1186 98.5627 45.1186C99.4083 45.2026 99.8312 45.5387 99.8312 46.0848C99.8312 46.3789 99.7043 46.6309 99.4929 46.799C99.2815 46.967 98.8164 47.093 98.0975 47.093H95.5605V47.135ZM97.2519 44.9925H97.6747C97.9707 44.9925 98.1821 44.9505 98.309 44.8245C98.4358 44.6985 98.5204 44.5304 98.5204 44.3204C98.5204 43.9003 98.2667 43.6902 97.7593 43.6902H97.5479C97.421 43.6902 97.3364 43.7322 97.2942 43.7743C97.2519 43.8163 97.2096 43.9003 97.2096 44.0263V44.9925H97.2519ZM97.8016 46.757C98.1821 46.757 98.3935 46.715 98.5204 46.5889C98.6472 46.4629 98.6895 46.2949 98.6895 46.0848C98.6895 45.5807 98.3935 45.3286 97.8016 45.3286H97.2519V46.4629C97.2519 46.6309 97.3787 46.757 97.5901 46.757H97.8016Z" fill="#C6D4E9"/>
<path d="M102.917 43.2702L104.651 43.1862V46.463C104.651 46.547 104.693 46.631 104.735 46.673C104.777 46.715 104.862 46.757 104.989 46.757H105.243V47.1351H102.917V46.757H103.171C103.298 46.757 103.424 46.715 103.467 46.673C103.509 46.631 103.551 46.505 103.551 46.3369V44.1104C103.551 43.9844 103.509 43.8583 103.424 43.7743C103.34 43.6903 103.213 43.6483 103.086 43.6483H102.917V43.2702ZM103.974 41.0857C104.143 41.0857 104.312 41.1277 104.439 41.2957C104.566 41.4218 104.651 41.5898 104.651 41.7579C104.651 41.9259 104.566 42.0939 104.439 42.22C104.312 42.346 104.143 42.43 103.974 42.43C103.805 42.43 103.636 42.346 103.509 42.22C103.382 42.0939 103.298 41.9259 103.298 41.7579C103.298 41.5898 103.34 41.4218 103.509 41.2957C103.636 41.1277 103.805 41.0857 103.974 41.0857Z" fill="#C6D4E9"/>
<path d="M112.051 45.7487L112.389 45.9167C112.22 46.3368 111.966 46.6729 111.628 46.9249C111.29 47.177 110.867 47.303 110.402 47.303C109.768 47.303 109.26 47.135 108.88 46.7569C108.499 46.4208 108.33 45.9167 108.33 45.3286C108.33 44.6984 108.541 44.1523 108.964 43.7322C109.387 43.3121 109.979 43.1021 110.698 43.1021C111.205 43.1021 111.628 43.1861 111.882 43.3961C112.136 43.6062 112.305 43.8582 112.305 44.1523C112.305 44.3623 112.262 44.5304 112.136 44.6564C112.009 44.7824 111.84 44.8245 111.67 44.8245C111.501 44.8245 111.374 44.7824 111.248 44.6984C111.163 44.6144 111.078 44.4884 111.078 44.3203C111.078 44.1943 111.121 44.0263 111.248 43.8582C111.29 43.7742 111.332 43.7322 111.332 43.6902C111.332 43.6482 111.29 43.6062 111.205 43.5642C111.078 43.4801 110.909 43.4801 110.74 43.4801C110.36 43.4801 110.106 43.6062 109.937 43.8162C109.725 44.1103 109.599 44.5724 109.599 45.2025C109.599 45.8327 109.725 46.2528 109.937 46.5049C110.148 46.7569 110.444 46.8829 110.783 46.8829C111.036 46.8829 111.29 46.7989 111.544 46.6309C111.67 46.3788 111.882 46.0848 112.051 45.7487Z" fill="#C6D4E9"/>
<path d="M116.871 44.9085H118.605V43.9423C118.605 43.7743 118.478 43.6482 118.266 43.6482H118.013V43.2701H120.296V43.6482H120.042C119.831 43.6482 119.704 43.7322 119.704 43.9423V46.4629C119.704 46.6309 119.831 46.757 120.042 46.757H120.296V47.135H118.013V46.757H118.266C118.478 46.757 118.605 46.6729 118.605 46.4629V45.3706H116.871V46.4629C116.871 46.6309 116.998 46.757 117.209 46.757H117.463V47.135H115.18V46.757H115.433C115.645 46.757 115.772 46.6729 115.772 46.4629V43.9423C115.772 43.7743 115.645 43.6482 115.433 43.6482H115.18V43.2701H117.463V43.6482H117.209C116.998 43.6482 116.871 43.7322 116.871 43.9423V44.9085Z" fill="#C6D4E9"/>
<path d="M127.822 46.673L127.991 46.9671C127.822 47.0931 127.653 47.1771 127.526 47.2191C127.399 47.2611 127.23 47.3031 127.103 47.3031C126.849 47.3031 126.68 47.2611 126.511 47.1351C126.384 47.0511 126.215 46.841 126.131 46.589C125.835 46.883 125.581 47.0511 125.369 47.1351C125.158 47.2191 124.904 47.3031 124.608 47.3031C124.228 47.3031 123.932 47.2191 123.678 47.0511C123.467 46.883 123.34 46.631 123.34 46.3789C123.34 45.9588 123.551 45.6227 123.932 45.3707C124.27 45.1606 124.947 44.9926 126.046 44.7826V44.2364C126.046 44.0264 125.961 43.8583 125.835 43.6903C125.708 43.5643 125.496 43.4802 125.243 43.4802C125.073 43.4802 124.904 43.5223 124.735 43.6063C124.651 43.6483 124.608 43.7323 124.608 43.7743C124.608 43.8163 124.608 43.8583 124.651 43.9003C124.735 44.0264 124.777 44.1524 124.777 44.2784C124.777 44.4465 124.735 44.5725 124.608 44.6565C124.524 44.7405 124.355 44.7826 124.186 44.7826C124.016 44.7826 123.847 44.7405 123.763 44.6145C123.636 44.5305 123.594 44.3625 123.594 44.2364C123.594 43.9844 123.72 43.7323 124.016 43.5223C124.355 43.2702 124.82 43.1442 125.369 43.1442C125.792 43.1442 126.131 43.1862 126.469 43.3542C126.68 43.4382 126.849 43.5643 126.976 43.7743C127.103 43.9844 127.145 44.2364 127.145 44.4885V46.4209C127.145 46.589 127.188 46.673 127.23 46.757C127.272 46.841 127.357 46.841 127.441 46.841C127.568 46.799 127.695 46.757 127.822 46.673ZM126.088 45.0766C125.496 45.1606 125.116 45.2867 124.904 45.4547C124.693 45.6227 124.608 45.8328 124.608 46.1269C124.608 46.3369 124.651 46.4629 124.735 46.589C124.82 46.673 124.989 46.757 125.158 46.757C125.412 46.757 125.665 46.673 125.835 46.4629C126.004 46.2529 126.088 46.0008 126.088 45.6648V45.0766Z" fill="#C6D4E9"/>
<path d="M137.759 46.757V47.1351H135.476V46.757H135.729C135.941 46.757 136.068 46.673 136.068 46.4629V43.9424C136.068 43.7743 135.941 43.6483 135.729 43.6483H135.476V43.2702H137.759V43.6483H137.505C137.378 43.6483 137.294 43.6903 137.251 43.7323C137.209 43.7743 137.167 43.9003 137.167 44.0264V44.9926H137.59C137.886 44.9926 138.097 44.9506 138.182 44.8246C138.266 44.7405 138.351 44.5305 138.435 44.1524C138.52 43.7743 138.647 43.4802 138.816 43.3542C138.985 43.2282 139.154 43.1442 139.366 43.1442C139.619 43.1442 139.788 43.2282 139.958 43.3542C140.084 43.4802 140.169 43.6483 140.169 43.8583C140.169 44.0264 140.127 44.1524 140.042 44.2784C139.958 44.4045 139.788 44.4465 139.619 44.4465C139.45 44.4465 139.323 44.4045 139.239 44.3204C139.112 44.2364 139.07 44.1104 139.07 43.9844C139.07 43.9003 139.112 43.8163 139.154 43.7323C139.197 43.6903 139.197 43.6483 139.197 43.6483C139.197 43.6063 139.197 43.6063 139.154 43.6063C139.112 43.6063 139.027 43.6483 138.985 43.7323C138.901 43.8163 138.816 44.0684 138.731 44.5725C138.689 44.7826 138.647 44.9086 138.562 44.9926C138.52 45.0766 138.393 45.1186 138.224 45.2026C138.858 45.2867 139.239 45.4967 139.366 45.9168L139.577 46.505C139.662 46.715 139.704 46.799 139.831 46.799C139.958 46.799 140.042 46.631 140.084 46.3369H140.38C140.296 46.799 140.169 47.0511 139.958 47.1351C139.788 47.2191 139.577 47.3031 139.323 47.3031C138.858 47.3031 138.562 47.0931 138.435 46.631L138.266 46.0849C138.139 45.6648 137.886 45.4547 137.463 45.4547H137.167V46.631C137.167 46.799 137.294 46.9251 137.505 46.9251H137.759V46.757Z" fill="#C6D4E9"/>
<path d="M145.328 43.0601C145.751 43.0601 146.174 43.1441 146.512 43.3541C146.892 43.5222 147.146 43.7742 147.315 44.0683C147.484 44.3624 147.569 44.7405 147.569 45.1606C147.569 45.8327 147.358 46.3368 146.892 46.7149C146.427 47.093 145.92 47.261 145.328 47.261C144.905 47.261 144.525 47.177 144.186 46.967C143.848 46.7989 143.594 46.5469 143.383 46.2108C143.214 45.9167 143.087 45.5386 143.087 45.1606C143.087 44.5724 143.298 44.0683 143.721 43.6482C144.186 43.2701 144.694 43.0601 145.328 43.0601ZM145.37 43.4802C145.074 43.4802 144.863 43.6062 144.694 43.8582C144.525 44.1103 144.44 44.5304 144.44 45.1606C144.44 45.8327 144.525 46.2528 144.694 46.5049C144.863 46.7569 145.074 46.883 145.37 46.883C145.666 46.883 145.878 46.7569 146.089 46.5049C146.258 46.2528 146.343 45.8327 146.343 45.2026C146.343 44.5724 146.258 44.1103 146.089 43.8582C145.878 43.6062 145.666 43.4802 145.37 43.4802Z" fill="#C6D4E9"/>
<path d="M153.573 45.8748L154.503 43.2701H156.533V43.6482H156.279C156.067 43.6482 155.941 43.7323 155.941 43.9003V46.4209C155.941 46.5889 156.067 46.6729 156.279 46.6729H156.533V47.051H154.249V46.6729H154.503C154.714 46.6729 154.841 46.5889 154.841 46.4209V43.4382L153.53 47.093H152.938L151.628 43.4382V46.3369C151.628 46.4629 151.67 46.5469 151.712 46.6309C151.755 46.6729 151.881 46.715 152.051 46.715H152.22V47.093H150.571V46.715H150.782C151.036 46.715 151.205 46.5889 151.205 46.3369V44.1103C151.205 43.9423 151.163 43.8163 151.12 43.7322C151.078 43.6902 150.951 43.6482 150.824 43.6482H150.528V43.2701H152.642L153.573 45.8748Z" fill="#C6D4E9"/>
<path d="M164.524 43.2701V43.6482H164.27C164.059 43.6482 163.932 43.7322 163.932 43.9423V46.4629C163.932 46.6309 164.059 46.757 164.27 46.757H164.524V47.135H162.241V46.757H162.494C162.706 46.757 162.833 46.6729 162.833 46.4629V43.7322H161.184V46.4629C161.184 46.6309 161.31 46.757 161.522 46.757H161.775V47.135H159.492V46.757H159.746C159.957 46.757 160.084 46.6729 160.084 46.4629V43.9423C160.084 43.7743 159.957 43.6482 159.746 43.6482H159.492V43.2701H164.524Z" fill="#C6D4E9"/>
<path d="M172.008 46.673L172.178 46.9671C172.008 47.0931 171.839 47.1771 171.712 47.2191C171.586 47.2611 171.416 47.3031 171.29 47.3031C171.036 47.3031 170.867 47.2611 170.698 47.1351C170.571 47.0511 170.402 46.841 170.317 46.589C170.021 46.883 169.767 47.0511 169.556 47.1351C169.345 47.2191 169.091 47.3031 168.795 47.3031C168.414 47.3031 168.118 47.2191 167.865 47.0511C167.653 46.883 167.526 46.631 167.526 46.3789C167.526 45.9588 167.738 45.6227 168.118 45.3707C168.457 45.1606 169.133 44.9926 170.232 44.7826V44.2364C170.232 44.0264 170.148 43.8583 170.021 43.6903C169.894 43.5643 169.683 43.4802 169.429 43.4802C169.26 43.4802 169.091 43.5223 168.922 43.6063C168.837 43.6483 168.795 43.7323 168.795 43.7743C168.795 43.8163 168.795 43.8583 168.837 43.9003C168.922 44.0264 168.964 44.1524 168.964 44.2784C168.964 44.4465 168.922 44.5725 168.795 44.6565C168.71 44.7405 168.541 44.7826 168.372 44.7826C168.203 44.7826 168.034 44.7405 167.949 44.6145C167.822 44.5305 167.78 44.3625 167.78 44.2364C167.78 43.9844 167.907 43.7323 168.203 43.5223C168.583 43.2702 169.006 43.1442 169.556 43.1442C169.979 43.1442 170.317 43.1862 170.655 43.3542C170.867 43.4382 171.036 43.5643 171.163 43.7743C171.29 43.9844 171.332 44.2364 171.332 44.4885V46.4209C171.332 46.589 171.374 46.673 171.416 46.757C171.459 46.841 171.543 46.841 171.628 46.841C171.755 46.799 171.882 46.757 172.008 46.673ZM170.275 45.0766C169.683 45.1606 169.302 45.2867 169.091 45.4547C168.879 45.6227 168.795 45.8328 168.795 46.1269C168.795 46.3369 168.837 46.4629 168.922 46.589C169.006 46.673 169.175 46.757 169.345 46.757C169.598 46.757 169.852 46.673 170.021 46.4629C170.19 46.2529 170.275 46.0008 170.275 45.6648V45.0766Z" fill="#C6D4E9"/>
<path d="M176.617 44.9085H178.351V43.9423C178.351 43.7743 178.224 43.6482 178.012 43.6482H177.759V43.2701H180.042V43.6482H179.788C179.577 43.6482 179.45 43.7322 179.45 43.9423V46.4629C179.45 46.6309 179.577 46.757 179.788 46.757H180.042V47.135H177.759V46.757H178.012C178.224 46.757 178.351 46.6729 178.351 46.4629V45.3706H176.617V46.4629C176.617 46.6309 176.744 46.757 176.955 46.757H177.209V47.135H174.926V46.757H175.179C175.391 46.757 175.518 46.6729 175.518 46.4629V43.9423C175.518 43.7743 175.391 43.6482 175.179 43.6482H174.926V43.2701H177.209V43.6482H176.955C176.744 43.6482 176.617 43.7322 176.617 43.9423V44.9085Z" fill="#C6D4E9"/>
<path d="M183.171 43.2702L184.905 43.1862V46.463C184.905 46.547 184.947 46.631 184.989 46.673C185.031 46.715 185.116 46.757 185.243 46.757H185.496V47.1351H183.171V46.757H183.425C183.551 46.757 183.678 46.715 183.721 46.673C183.763 46.631 183.805 46.505 183.805 46.3369V44.1104C183.805 43.9844 183.763 43.8583 183.678 43.7743C183.594 43.6903 183.467 43.6483 183.34 43.6483H183.171V43.2702ZM184.228 41.0857C184.397 41.0857 184.566 41.1277 184.693 41.2957C184.82 41.4218 184.905 41.5898 184.905 41.7579C184.905 41.9259 184.82 42.0939 184.693 42.22C184.566 42.346 184.397 42.43 184.228 42.43C184.059 42.43 183.89 42.346 183.763 42.22C183.636 42.0939 183.551 41.9259 183.551 41.7579C183.551 41.5898 183.636 41.4218 183.763 41.2957C183.89 41.1277 184.017 41.0857 184.228 41.0857Z" fill="#C6D4E9"/>
<path d="M190.402 45.3286C189.387 45.2446 188.879 44.8665 188.879 44.2784C188.879 43.9843 189.006 43.7743 189.218 43.5642C189.429 43.3542 189.894 43.2701 190.528 43.2701H193.023V43.6482H192.769C192.558 43.6482 192.431 43.7322 192.431 43.9423V46.4629C192.431 46.6309 192.558 46.757 192.769 46.757H193.023V47.135H190.698V46.757H190.951C191.163 46.757 191.29 46.6729 191.29 46.4629V45.4126H191.12C190.655 45.4126 190.402 45.6227 190.275 46.0848L190.148 46.5469C190.063 46.841 189.979 47.009 189.81 47.093C189.683 47.1771 189.471 47.2191 189.26 47.2191C188.964 47.2191 188.753 47.1351 188.583 47.009C188.414 46.883 188.287 46.6309 188.245 46.2108H188.541C188.583 46.4209 188.626 46.5889 188.668 46.6309C188.71 46.6729 188.753 46.715 188.795 46.715C188.837 46.715 188.879 46.715 188.922 46.6729C188.964 46.6309 189.006 46.5469 189.048 46.3789L189.175 45.9588C189.26 45.7487 189.344 45.6227 189.514 45.4967C189.725 45.4547 190.021 45.3706 190.402 45.3286ZM191.29 45.0346V44.0263C191.29 43.9003 191.29 43.8163 191.247 43.7743C191.205 43.7322 191.12 43.6902 190.951 43.6902H190.74C190.232 43.6902 189.979 43.9423 189.979 44.4044C189.979 44.5724 190.021 44.6985 190.063 44.7825C190.148 44.8665 190.19 44.9505 190.317 44.9925C190.402 45.0346 190.571 45.0346 190.824 45.0346H191.29Z" fill="#C6D4E9"/>
</svg>
