<svg width="154" height="34" viewBox="0 0 154 34" fill="none" xmlns="http://www.w3.org/2000/svg">
<g clip-path="url(#clip0_108_76)">
<mask id="mask0_108_76" style="mask-type:luminance" maskUnits="userSpaceOnUse" x="0" y="0" width="154" height="34">
<path d="M0 0H154V34H0V0Z" fill="white"/>
</mask>
<g mask="url(#mask0_108_76)">
<path d="M41.0866 23.4847C41.0864 22.9291 41.4688 22.4444 42.0148 22.3085C42.1818 22.259 49.2298 20.1669 49.9511 19.9363C52.1079 19.2378 53.193 17.5312 53.193 15.6796C53.193 13.1987 51.4702 11.189 48.3084 11.189H37.5809V14.5528H47.9311C48.8527 14.5528 49.29 15.0899 49.29 15.7652C49.3089 16.2906 48.9591 16.7599 48.4453 16.8986C48.2817 16.9513 41.4339 18.994 40.7428 19.2444C38.2353 20.1439 37.1836 21.7089 37.1836 23.5605C37.1836 26.038 38.8229 28.051 42.0682 28.051H52.7957V24.6839H42.4788C41.6375 24.6839 41.0866 24.1436 41.0866 23.4847Z" fill="#C6D4E9"/>
<path d="M57.8877 5.61762C57.8864 4.69912 58.446 3.8704 59.3055 3.51802C60.165 3.16565 61.1551 3.35908 61.8136 4.00806C62.4722 4.65704 62.6696 5.63368 62.3137 6.48233C61.9579 7.33097 61.1188 7.88438 60.1881 7.88435C58.9188 7.88435 57.8895 6.87004 57.8877 5.61762Z" fill="#C6D4E9"/>
<path fill-rule="evenodd" clip-rule="evenodd" d="M58.2373 11.189H62.137V28.0643H58.2373V11.189Z" fill="#C6D4E9"/>
<path d="M27.8984 5.61762C27.8971 4.69882 28.4571 3.86989 29.317 3.51771C30.177 3.16553 31.1672 3.35956 31.8255 4.00922C32.4839 4.65889 32.6804 5.63607 32.3235 6.48461C31.9666 7.33315 31.1265 7.88571 30.1955 7.88435C28.9268 7.88432 27.8984 6.86948 27.8984 5.61762Z" fill="#C6D4E9"/>
<path fill-rule="evenodd" clip-rule="evenodd" d="M28.2324 11.1888H32.1321V28.0642H28.2324V11.1888Z" fill="#C6D4E9"/>
<path fill-rule="evenodd" clip-rule="evenodd" d="M74.4539 27.7611C73.4523 27.3427 72.7845 26.921 72.4105 26.4828L71.8497 25.8634H71.6794V28.0609H67.7764V3.96045H71.6794V13.4063H71.8497C72.0924 13.0585 72.3912 12.7524 72.7344 12.5002C73.0836 12.1996 73.4667 11.9398 73.8763 11.726C75.0929 11.1486 76.426 10.8501 77.776 10.8529C80.1643 10.7942 82.4835 11.6475 84.2499 13.2349C86.0027 14.8328 86.8909 16.9678 86.8909 19.6398C86.8909 22.3117 85.9927 24.4368 84.2499 26.0314C82.4799 27.6105 80.1611 28.4553 77.776 28.3904C76.6348 28.4163 75.5016 28.1983 74.4539 27.7513M82.8342 19.6167C82.8916 18.1996 82.3413 16.8241 81.3184 15.8279C80.2968 14.8526 78.9512 14.365 77.2818 14.365C75.5958 14.365 74.2503 14.8526 73.2285 15.8279C71.1853 17.9654 71.1853 21.3043 73.2285 23.4419C74.2503 24.4302 75.5958 24.9046 77.2818 24.9046C78.9679 24.9046 80.2867 24.417 81.3184 23.4419C82.3502 22.4394 82.9065 21.0544 82.851 19.6266" fill="#C6D4E9"/>
<path fill-rule="evenodd" clip-rule="evenodd" d="M92.7377 26.0314C90.9815 24.45 90.1012 22.315 90.0967 19.6265C90.0923 16.9381 90.9726 14.8076 92.7377 13.2349C94.4982 11.6523 96.811 10.8034 99.1915 10.866C100.337 10.8496 101.474 11.0672 102.53 11.5052C103.3 11.7831 103.997 12.2252 104.574 12.8L105.121 13.4194H105.308V11.2021H109.208V28.0609H105.308V25.86H105.121C104.888 26.2065 104.593 26.5079 104.25 26.7496C103.899 27.0465 103.517 27.306 103.111 27.5239C101.887 28.0999 100.548 28.3961 99.1916 28.3904C96.811 28.4531 94.4982 27.6041 92.7377 26.0216M94.1334 19.6166C94.0757 21.0516 94.636 22.4436 95.676 23.4484C96.6976 24.4368 98.0431 24.9113 99.7292 24.9113C101.415 24.9113 102.734 24.4236 103.786 23.4484C105.829 21.3108 105.829 17.9719 103.786 15.8344C102.744 14.846 101.399 14.3716 99.7292 14.3716C98.0598 14.3716 96.6775 14.8526 95.676 15.8278C94.6443 16.8236 94.0875 18.2036 94.1434 19.6265" fill="#C6D4E9"/>
<path d="M128.012 28.0609V19.5245C128.012 17.7947 127.551 16.4999 126.613 15.6433C125.675 14.7866 124.453 14.365 122.917 14.365C121.301 14.365 120.039 14.8361 119.171 15.7948C118.271 16.8295 117.802 18.1622 117.859 19.5245V28.0609H113.959V11.1889H117.859V13.9103H118.099C118.182 13.7258 118.253 13.5413 118.934 12.8527C119.274 12.4952 119.656 12.1789 120.072 11.9104C121.394 11.1939 122.882 10.8294 124.389 10.8529C126.586 10.8529 128.391 11.4909 129.805 12.7671C131.22 14.0619 131.918 15.9793 131.918 18.5328V28.0609H128.012Z" fill="#C6D4E9"/>
<path d="M144.355 20.2065L140.836 23.6329C140.64 23.8257 140.528 24.0876 140.528 24.3611C140.528 25.0694 140.528 26.8123 140.528 27.682V28.094H136.639V3.98352H140.531V19.1884L148.471 11.4987C148.71 11.2944 149.017 11.1861 149.333 11.1956C150.632 11.2153 151.887 11.1956 153.19 11.1956H153.543C153.56 11.2351 153.56 11.2384 153.577 11.2746L146.969 17.6696C147.74 19.2346 148.919 21.2641 150.107 22.5391C150.627 23.0821 151.185 23.5886 151.777 24.0546C152.755 24.8453 153.884 24.9574 155.116 24.651V28.061C152.779 28.6572 150.592 28.486 148.772 26.4927C147.296 25.0134 144.628 20.648 144.371 20.1932" fill="#C6D4E9"/>
<path d="M144.355 20.2065L140.836 23.6329C140.64 23.8257 140.528 24.0876 140.528 24.3611C140.528 25.0694 140.528 26.8123 140.528 27.682V28.094H136.639V3.98352H140.531V19.1884L148.471 11.4987C148.71 11.2944 149.017 11.1861 149.333 11.1956C150.632 11.2153 151.887 11.1956 153.19 11.1956H153.543C153.56 11.2351 153.56 11.2384 153.577 11.2746L146.969 17.6696C147.74 19.2346 148.919 21.2641 150.107 22.5391C150.627 23.0821 151.185 23.5886 151.777 24.0546C152.755 24.8453 153.884 24.9574 155.116 24.651V28.061C152.779 28.6572 150.592 28.486 148.772 26.4927C147.296 25.0134 144.628 20.648 144.371 20.1932" fill="#C6D4E9"/>
<path d="M8.65008 1.91576e-08C3.87361 -1.68918e-06 0.00153127 3.78946 0.00153127 8.46399V25.377C-0.0572135 28.4383 1.57793 31.2919 4.27748 32.8394C6.97704 34.3868 10.3201 34.3868 13.0196 32.8394C15.7192 31.2919 17.3543 28.4383 17.2955 25.377V8.45504C17.2919 3.78392 13.4225 -0.000310898 8.65008 1.91576e-08Z" fill="white" fill-opacity="0.4"/>
<path d="M17.2903 8.63008C17.2938 12.1266 15.1885 15.28 11.9572 16.6193C8.7258 17.9586 5.00527 17.2197 2.53183 14.7475C0.0583901 12.2754 -0.680358 8.55724 0.660335 5.32827C2.00103 2.09929 5.15688 -0.00397523 8.65512 5.64112e-06C10.9476 5.05989e-06 13.1462 0.910303 14.767 2.53056C16.3878 4.15082 17.2979 6.34825 17.2971 8.63922" fill="#C6D4E9"/>
</g>
</g>
<defs>
<clipPath id="clip0_108_76">
<rect width="154" height="34" fill="white"/>
</clipPath>
</defs>
</svg>
