<svg width="175" height="70" viewBox="0 0 175 70" fill="none" xmlns="http://www.w3.org/2000/svg">
<g clip-path="url(#clip0_108_30)">
<path fill-rule="evenodd" clip-rule="evenodd" d="M15.9536 55.2129H26.0517V58.8785H11.1963V36.7921H15.9536V55.2129ZM38.504 57.2165C37.3727 58.5316 35.8088 59.1894 33.8119 59.1894C31.9718 59.1894 30.5701 58.6816 29.6018 57.6725C28.633 56.6627 28.1403 55.1818 28.1188 53.2301V42.4766H32.7024V53.085C32.7024 54.7934 33.5143 55.6482 35.1434 55.6482C36.6962 55.6482 37.7624 55.1304 38.3472 54.0998V42.4766H42.9412V58.8785H38.6283L38.504 57.2165ZM50.6047 42.4766L50.7509 44.372C51.9739 42.9011 53.6187 42.1661 55.6808 42.1661C57.499 42.1661 58.852 42.6789 59.7398 43.6984C60.6269 44.7186 61.0813 46.2459 61.1032 48.2755V58.8785H56.5195V48.3634C56.5195 47.4365 56.3082 46.7583 55.8864 46.3391C55.4641 45.9196 54.7608 45.7073 53.7759 45.7073C52.4878 45.7073 51.519 46.2355 50.8751 47.2864V58.8785H46.2915V42.4766H50.6047ZM71.6994 55.6482C72.5435 55.6482 73.2311 55.4252 73.7611 54.9803C74.2919 54.5401 74.5622 53.9501 74.5841 53.2097H78.8809C78.8698 54.3224 78.5561 55.3427 77.9283 56.2692C77.3058 57.1958 76.4564 57.9105 75.3687 58.4229C74.2861 58.9357 73.09 59.1894 71.7807 59.1894C69.329 59.1894 67.3919 58.444 65.9737 56.9528C64.5612 55.4616 63.8525 53.4009 63.8525 50.7708V50.4807C63.8525 47.9493 64.5559 45.9353 65.9629 44.4284C67.3646 42.9219 69.2967 42.1661 71.7481 42.1661C73.8915 42.1661 75.6119 42.7514 76.9055 43.916C78.2044 45.0863 78.859 46.6393 78.8809 48.5861H74.5841C74.5622 47.732 74.2919 47.0381 73.7611 46.5049C73.2311 45.9714 72.5327 45.7073 71.6672 45.7073C70.601 45.7073 69.7945 46.0804 69.2477 46.8205C68.7069 47.5662 68.4362 48.7722 68.4362 50.4446V50.8952C68.4362 52.5883 68.7012 53.7997 69.2426 54.5401C69.7838 55.2805 70.601 55.6482 71.6994 55.6482ZM85.9861 44.2576C87.1983 42.8651 88.73 42.1661 90.5647 42.1661C94.2881 42.1661 96.1765 44.2319 96.2249 48.3688V58.8785H91.647V48.4724C91.647 47.5298 91.4357 46.8362 91.0084 46.3856C90.5862 45.9353 89.8825 45.7073 88.9034 45.7073C87.5611 45.7073 86.5867 46.2044 85.9861 47.1985V58.8785H81.4024V35.5807H85.9861V44.2576Z" fill="#C6D4E9"/>
<path fill-rule="evenodd" clip-rule="evenodd" d="M141.206 0.857198C141.303 1.37248 141.538 2.21973 141.634 3.17133C141.732 4.12257 141.692 5.17851 141.528 6.16405C141.365 7.14959 141.077 8.06474 140.83 8.76048C140.582 9.45622 140.376 9.93148 140.071 10.4214C139.766 10.9102 139.362 11.4127 138.987 12.2006C138.612 12.9885 138.266 14.0616 138.063 14.8839C137.86 15.7068 137.799 16.28 137.773 16.8274C137.747 17.3745 137.756 17.8962 137.834 18.3325C137.912 18.7681 138.059 19.1187 138.208 19.3935C138.357 19.6683 138.509 19.867 138.703 20.0853C138.898 20.3036 139.135 20.542 139.384 20.7707C139.634 20.999 139.896 21.2184 140.131 21.421C140.367 21.624 140.577 21.812 140.796 21.9763C141.014 22.1414 141.24 22.2826 141.38 22.3512C141.519 22.4198 141.573 22.413 141.671 22.3215C141.769 22.23 141.911 22.0524 142.087 21.7909C142.264 21.5289 142.474 21.1823 142.672 20.8075C142.872 20.4323 143.059 20.0285 143.244 19.6043C143.43 19.1794 143.613 18.7335 143.828 18.211C144.043 17.689 144.29 17.0904 144.432 16.6652C144.574 16.24 144.611 15.9877 144.673 15.6386C144.734 15.2898 144.82 14.8435 144.903 14.479C144.987 14.1138 145.069 13.8297 145.125 13.5245C145.18 13.219 145.208 12.8924 145.232 12.6208C145.257 12.3482 145.275 12.1306 145.301 11.9419C145.326 11.7532 145.357 11.5935 145.387 11.5306C145.418 11.4677 145.449 11.5023 145.458 11.5577C145.467 11.6135 145.454 11.6907 145.47 11.8879C145.487 12.0859 145.532 12.4039 145.588 12.8074C145.643 13.2111 145.709 13.6996 145.733 14.1177C145.758 14.5354 145.742 14.8821 145.706 15.3387C145.67 15.7954 145.614 16.3625 145.559 17.0072C145.503 17.6522 145.448 18.3751 145.343 19.1062C145.237 19.8377 145.08 20.577 144.954 21.1652C144.828 21.753 144.73 22.1897 144.649 22.5327C144.568 22.8761 144.504 23.1252 144.498 23.3628C144.492 23.6012 144.544 23.827 144.626 24.0282C144.707 24.2297 144.819 24.4062 144.986 24.5252C145.153 24.6442 145.376 24.7057 145.667 24.7007C145.958 24.6957 146.317 24.6239 146.873 24.393C147.428 24.1618 148.179 23.7716 148.949 23.3146C149.72 22.8582 150.51 22.3347 151.448 21.8212C152.385 21.3085 153.469 20.8064 154.695 20.3161C155.921 19.8248 157.289 19.3456 158.441 18.995C159.594 18.6441 160.53 18.4226 161.142 18.2557C161.752 18.0885 162.037 17.9759 162.253 17.8333C162.47 17.6911 162.619 17.5185 162.708 17.3334C162.799 17.1483 162.831 16.9507 162.778 16.6173C162.725 16.2832 162.586 15.8133 162.371 15.3845C162.157 14.9553 161.865 14.5669 161.509 14.2049C161.153 13.8426 160.732 13.506 160.322 13.2708C159.913 13.0353 159.514 12.9013 159.057 12.9138C158.599 12.9267 158.082 13.0861 157.46 13.3755C156.838 13.665 156.113 14.0845 155.426 14.5455C154.739 15.0068 154.093 15.5092 153.335 16.0831C152.578 16.657 151.709 17.3027 151.031 17.8923C150.354 18.4812 149.867 19.0151 149.586 19.3288C149.305 19.6429 149.229 19.7372 149.169 19.7326C149.109 19.729 149.065 19.6258 149.15 19.4171C149.235 19.2084 149.449 18.8936 149.677 18.3672C149.905 17.8408 150.148 17.1029 150.262 16.0634C150.376 15.0239 150.363 13.6828 150.259 12.5461C150.155 11.4098 149.96 10.4771 149.62 9.54984C149.28 8.62219 148.794 7.70025 148.279 6.88123C147.764 6.06185 147.22 5.34539 146.499 4.58425C145.777 3.82276 144.878 3.01589 144.231 2.44593C143.585 1.87562 143.191 1.5415 142.885 1.28708C142.578 1.03229 142.359 0.856841 142.155 0.693536C141.95 0.530232 141.761 0.37872 141.625 0.269731C141.488 0.160743 141.405 0.0942775 141.341 0.0524688C141.277 0.0113747 141.232 -0.00506291 141.189 0.0774826C141.148 0.160028 141.109 0.342629 141.206 0.857198ZM110.737 35.457V44.1561C112.189 42.424 113.929 41.5553 115.947 41.5553C116.985 41.5553 117.92 41.7462 118.753 42.1289C119.584 42.5169 120.209 43.0029 120.634 43.6043C121.058 44.1997 121.346 44.8607 121.498 45.5876C121.656 46.3144 121.733 47.44 121.733 48.9648V58.9313H117.262V49.9589C117.262 48.1779 117.176 47.0466 117.007 46.5656C116.833 46.085 116.529 45.7023 116.093 45.4239C115.658 45.1395 115.115 44.9976 114.457 44.9976C113.706 44.9976 113.038 45.1781 112.445 45.544C111.852 45.9049 111.422 46.4509 111.15 47.1831C110.873 47.9099 110.737 48.9919 110.737 50.4181V58.9313H106.268V35.457H110.737ZM135.549 58.9313V56.3849C134.929 57.2922 134.119 58.0133 133.113 58.5543C132.107 59.09 131.047 59.3576 129.932 59.3576C128.79 59.3576 127.767 59.1061 126.865 58.6037C125.957 58.1009 125.304 57.3905 124.902 56.4836C124.494 55.5709 124.293 54.3142 124.293 52.7076V41.9155H128.763V49.7516C128.763 52.1501 128.845 53.6148 129.013 54.1559C129.176 54.6965 129.475 55.1285 129.915 55.4398C130.35 55.7567 130.905 55.9154 131.579 55.9154C132.346 55.9154 133.031 55.7021 133.64 55.2811C134.249 54.8605 134.663 54.336 134.885 53.7077C135.108 53.0792 135.223 51.5491 135.223 49.1066V41.9155H139.692V58.9313H135.549ZM142.188 58.9313V35.457H146.657V43.9266C148.039 42.3476 149.67 41.5553 151.562 41.5553C153.623 41.5553 155.325 42.3036 156.674 43.8062C158.022 45.3088 158.696 47.4672 158.696 50.2816C158.696 53.1882 158.011 55.4287 156.635 57.0024C155.26 58.5708 153.585 59.3576 151.622 59.3576C150.654 59.3576 149.702 59.1061 148.762 58.609C147.821 58.1062 147.011 57.3851 146.331 56.4343V58.9313H142.188ZM146.592 50.0958C146.592 51.8607 146.87 53.1721 147.424 54.0136C148.202 55.2157 149.229 55.8168 150.518 55.8168C151.508 55.8168 152.35 55.3905 153.052 54.5382C153.748 53.6856 154.096 52.3413 154.096 50.511C154.096 48.5603 153.743 47.1559 153.041 46.2926C152.34 45.4293 151.443 44.9976 150.344 44.9976C149.267 44.9976 148.376 45.4182 147.664 46.2597C146.951 47.1013 146.592 48.3798 146.592 50.0958ZM130.916 25.0891C148.348 25.2206 162.404 35.3844 162.31 47.7913C162.28 51.7474 160.813 55.4537 158.266 58.6626C156.711 59.7689 154.609 60.6827 152.489 61.6686C150.369 62.6545 149.009 63.0372 147.392 63.6857C145.775 64.334 144.597 64.6248 143.69 64.816C142.783 65.0072 141.843 65.099 140.858 65.1737C139.873 65.248 138.844 65.3056 137.948 65.3134C137.052 65.3216 136.29 65.2802 135.641 65.2248C134.992 65.1701 134.458 65.1012 134.18 65.059C133.902 65.0172 133.88 65.0015 133.856 64.9068C133.831 64.8117 133.803 64.6373 133.703 64.3733C133.602 64.1092 133.429 63.7554 133.206 63.4395C132.984 63.1236 132.712 62.846 132.435 62.6194C132.158 62.3925 131.876 62.2171 131.524 62.047C131.172 61.8769 130.752 61.7125 130.184 61.5099C129.617 61.3077 128.903 61.0672 128.166 60.8145C127.428 60.5622 126.668 60.2982 126.17 60.1266C125.672 59.9551 125.436 59.8758 125.217 59.864C124.998 59.8518 124.795 59.9062 124.649 59.9851C124.503 60.0645 124.413 60.1681 124.394 60.3428C124.375 60.5172 124.427 60.7631 124.558 60.9768C124.689 61.1908 124.898 61.3734 125.298 61.5724C125.697 61.7722 126.286 61.9887 127.043 62.2385C127.801 62.4887 128.726 62.7724 129.261 62.9518C129.796 63.1315 129.939 63.2069 130.044 63.337C130.147 63.4671 130.212 63.6518 130.2 63.8147C130.187 63.9781 130.096 64.1192 129.825 64.1782C129.553 64.2371 129.1 64.2139 128.164 63.9505C127.228 63.6872 125.809 63.183 125.026 62.9196C124.242 62.6555 124.093 62.6316 123.941 62.6534C123.788 62.6748 123.631 62.742 123.518 62.8478C123.405 62.9536 123.335 63.0976 123.325 63.2534C123.315 63.4088 123.365 63.5753 123.516 63.7565C123.667 63.938 123.92 64.1339 124.295 64.33C124.671 64.5259 125.168 64.7217 125.661 64.905C126.154 65.089 126.642 65.2602 127.168 65.4435C127.694 65.6272 128.258 65.8226 128.587 65.9634C128.917 66.1046 129.013 66.1911 129.038 66.3372C129.062 66.4834 129.015 66.6888 128.908 66.8461C128.801 67.0036 128.634 67.1133 128.28 67.0873C127.926 67.0615 127.384 66.9 126.614 66.6331C125.845 66.3661 124.846 65.9931 124.199 65.768C123.551 65.5425 123.254 65.4646 123.01 65.5128C122.765 65.5611 122.573 65.7351 122.473 65.8544C122.374 65.9742 122.367 66.0388 122.424 66.1735C122.48 66.3079 122.6 66.5123 122.955 66.7553C123.31 66.9979 123.9 67.2795 124.776 67.5922C125.653 67.9052 126.816 68.2497 127.776 68.4598C128.735 68.6696 129.491 68.7446 130.056 68.7289C130.621 68.7139 130.996 68.6085 131.389 68.4151C131.783 68.2215 132.197 67.9399 132.444 67.7687C132.691 67.5979 132.772 67.5375 132.84 67.5046C132.909 67.4718 132.964 67.466 133.336 67.565C133.708 67.664 134.395 67.868 135.8 68.0785C137.205 68.2894 139.326 68.507 141.23 68.6292L141.733 68.6596C138.26 69.5647 134.5 70.0478 130.576 70.0182C113.144 69.8867 99.0886 59.7225 99.1821 47.3153C99.2766 34.9088 113.484 24.9576 130.916 25.0891Z" fill="#C6D4E9"/>
</g>
<defs>
<clipPath id="clip0_108_30">
<rect width="175" height="70" fill="white"/>
</clipPath>
</defs>
</svg>
