<svg width="146" height="45" viewBox="0 0 146 45" fill="none" xmlns="http://www.w3.org/2000/svg">
<path d="M121.25 9L128.19 23.62L115.75 39H108.76L121.08 23.77L114.06 9H121.25ZM51.25 15.7C51.16 18.3 50.84 20.89 50.31 23.44C49.91 26.07 49.29 28.66 48.47 31.19C47.9574 32.6545 46.8961 33.8628 45.51 34.56C44.11 35.26 41.95 35.61 39.02 35.61C36.1 35.61 34.07 35.26 32.94 34.56C32.3783 34.197 31.9218 33.6928 31.6164 33.0978C31.3111 32.5028 31.1674 31.838 31.2 31.17C31.28 28.58 31.58 26 32.11 23.46C32.5109 20.8332 33.1297 18.2442 33.96 15.72C34.4783 14.2539 35.5372 13.0413 36.92 12.33C38.3 11.63 40.46 11.28 43.41 11.28C46.35 11.28 48.39 11.63 49.51 12.33C50.0702 12.6915 50.5251 13.1943 50.8288 13.7877C51.1325 14.3812 51.2744 15.0442 51.24 15.71L51.25 15.7ZM45.29 17.96L45.25 17.98C45.3 17.04 45.14 16.43 44.75 16.18C43.9703 15.8522 43.1228 15.7184 42.28 15.79C41.39 15.73 40.5 15.86 39.67 16.18C39.07 16.61 38.66 17.25 38.52 17.98C38.23 18.93 37.85 20.78 37.36 23.52C36.86 26.26 36.61 28.1 36.55 29.05C36.49 30 36.66 30.6 37.05 30.85C37.83 31.17 38.68 31.3 39.53 31.23C40.42 31.29 41.31 31.16 42.14 30.85C42.74 30.42 43.15 29.77 43.29 29.05C43.56 28.12 43.96 26.27 44.49 23.5C44.85 21.67 45.13 19.82 45.3 17.96H45.29ZM65.2 23.17L70.01 35.61H64.03L60.41 25.8H58.95L57.21 35.61H51.82L56.04 11.84H61.43L59.76 21.27H61.22L68.35 11.84H74.16L65.19 23.18L65.2 23.17ZM91.79 35.6H85.81L82.19 25.79H80.73L78.99 35.6H73.6L77.82 11.83H83.21L81.54 21.26H83L90.13 11.83H95.94L86.97 23.17L91.79 35.6ZM29.74 19.54C29.5 21.03 29.05 22.48 28.41 23.84C27.8412 25.0119 26.8681 25.9387 25.67 26.45L27.39 35.61H21.69L20.38 27.28H16.89L15.42 35.61H10L12.27 22.86H20.41C21.1545 22.8902 21.8993 22.8093 22.62 22.62C23.06 22.48 23.43 22.16 23.64 21.74C23.93 21.04 24.13 20.31 24.23 19.55C24.39 18.83 24.45 18.1 24.43 17.36C24.4 16.96 24.13 16.62 23.75 16.49C23.0518 16.3089 22.3308 16.2314 21.61 16.26H13.45L14.25 11.83H24.14C26.11 11.83 27.56 12.12 28.45 12.71C28.8829 12.9808 29.2484 13.3467 29.5187 13.7799C29.789 14.213 29.957 14.7021 30.01 15.21C30.14 16.66 30.05 18.11 29.75 19.53L29.74 19.54ZM103.17 16.28L102.25 21.36H110.09L109.28 25.82H101.44L100.49 31.14H109.63L108.83 35.6H94.21L98.49 11.83H113.11L112.31 16.28H103.17Z" fill="#C6D4E9"/>
<path d="M130.77 20.05L140 9H133.02L128.18 14.79L130.77 20.05ZM125.03 32.89L127.71 39H134.49L129.3 27.16L125.03 32.89Z" fill="#C6D4E9"/>
</svg>
