<svg width="129" height="25" viewBox="0 0 129 25" fill="none" xmlns="http://www.w3.org/2000/svg">
<g clip-path="url(#clip0_108_96)">
<path fill-rule="evenodd" clip-rule="evenodd" d="M128.244 4.34236V0.0668945H110.599V4.34236H128.244Z" fill="#C6D4E9"/>
<path fill-rule="evenodd" clip-rule="evenodd" d="M121.382 14.0353V9.75879H110.619V14.0353H121.382Z" fill="#C6D4E9"/>
<path fill-rule="evenodd" clip-rule="evenodd" d="M112.98 18.9438C114.598 18.9438 115.911 20.2499 115.911 21.8621C115.911 23.4733 114.599 24.7805 112.98 24.7805C111.362 24.7805 110.049 23.4742 110.049 21.8621C110.049 20.2507 111.362 18.9438 112.98 18.9438Z" fill="#C6D4E9"/>
<path d="M11.0426 19.7694C11.0426 19.3683 10.942 19.0063 10.7406 18.6831C10.5392 18.349 10.1532 18.0481 9.58261 17.7807C9.0232 17.5133 8.19529 17.2682 7.09885 17.0454C6.13668 16.8337 5.25281 16.5831 4.44726 16.2934C3.65292 15.9926 2.97044 15.6305 2.39985 15.2072C1.82925 14.7839 1.38732 14.2825 1.07406 13.7032C0.760791 13.1239 0.604157 12.4554 0.604157 11.6978C0.604157 10.9626 0.766385 10.2663 1.09084 9.60896C1.4153 8.95165 1.8796 8.37232 2.48376 7.87099C3.08792 7.36966 3.82074 6.97416 4.68222 6.68449C5.55489 6.39483 6.52825 6.25 7.60231 6.25C9.1239 6.25 10.4273 6.50624 11.5125 7.01872C12.609 7.52005 13.4481 8.20522 14.0299 9.0742C14.6116 9.93204 14.9025 10.9012 14.9025 11.982H10.8581C10.8581 11.5029 10.735 11.0573 10.4888 10.6451C10.2539 10.2217 9.89587 9.88191 9.41478 9.62567C8.9337 9.35829 8.32954 9.22459 7.60231 9.22459C6.90865 9.22459 6.33246 9.33601 5.87375 9.55882C5.42623 9.7705 5.09059 10.049 4.86683 10.3944C4.65425 10.7398 4.54796 11.1185 4.54796 11.5307C4.54796 11.8316 4.60391 12.1045 4.71578 12.3496C4.83885 12.5835 5.04024 12.8008 5.31994 13.0014C5.59964 13.1907 5.98003 13.369 6.46113 13.5361C6.9534 13.7032 7.56875 13.8648 8.30716 14.0207C9.69448 14.3104 10.886 14.6836 11.8817 15.1404C12.8887 15.586 13.6607 16.1653 14.1977 16.8783C14.7347 17.5802 15.0032 18.4715 15.0032 19.5522C15.0032 20.3543 14.8298 21.0896 14.483 21.758C14.1473 22.4153 13.6551 22.9891 13.0061 23.4793C12.3573 23.9583 11.5797 24.3316 10.6734 24.599C9.7784 24.8664 8.77147 25 7.65265 25C6.00801 25 4.61509 24.7103 3.47391 24.131C2.33272 23.5405 1.46564 22.7885 0.872671 21.875C0.290891 20.9503 0 19.9922 0 19.0006H3.91024C3.95499 19.7471 4.16198 20.3431 4.53118 20.7887C4.91157 21.2232 5.38147 21.5407 5.94088 21.7414C6.51147 21.9307 7.09885 22.0254 7.70301 22.0254C8.43023 22.0254 9.03999 21.9307 9.53226 21.7414C10.0245 21.5407 10.3993 21.2734 10.6566 20.9392C10.914 20.5939 11.0426 20.2039 11.0426 19.7694Z" fill="#C6D4E9"/>
<path d="M22.5884 10.2607V24.6657H18.5439V6.58423H22.3535L22.5884 10.2607ZM21.9339 14.9566L20.5578 14.9398C20.5578 13.6921 20.7145 12.539 21.0277 11.4806C21.341 10.4222 21.7996 9.50311 22.4039 8.72326C23.008 7.93226 23.7576 7.32509 24.6526 6.90174C25.5588 6.46725 26.605 6.25 27.791 6.25C28.6188 6.25 29.374 6.37255 30.0565 6.61765C30.7502 6.8516 31.3488 7.22482 31.8522 7.7373C32.3668 8.24978 32.7584 8.90708 33.0269 9.70923C33.3066 10.5114 33.4465 11.4806 33.4465 12.617V24.6657H29.402V12.9679C29.402 12.0878 29.2677 11.3971 28.9992 10.8957C28.7419 10.3944 28.3671 10.0379 27.8748 9.82621C27.3938 9.60339 26.8175 9.49198 26.1463 9.49198C25.3854 9.49198 24.7366 9.63681 24.1996 9.92647C23.6737 10.2161 23.243 10.6117 22.9073 11.1129C22.5717 11.6143 22.3255 12.1936 22.1688 12.8509C22.0123 13.5082 21.9339 14.2101 21.9339 14.9566ZM33.1948 13.8871L31.2984 14.3048C31.2984 13.213 31.4495 12.1825 31.7515 11.2132C32.0648 10.2328 32.5179 9.375 33.1109 8.63971C33.715 7.89327 34.459 7.30838 35.3429 6.88503C36.2267 6.46168 37.2393 6.25 38.3804 6.25C39.3091 6.25 40.137 6.37811 40.8642 6.63435C41.6026 6.87946 42.2292 7.26939 42.7438 7.80415C43.2585 8.33891 43.65 9.03521 43.9186 9.89305C44.1871 10.7398 44.3214 11.7647 44.3214 12.9679V24.6657H40.2601V12.9512C40.2601 12.0376 40.1257 11.3302 39.8572 10.8289C39.6 10.3275 39.2308 9.98218 38.7496 9.79278C38.2686 9.59225 37.6923 9.49198 37.0211 9.49198C36.3945 9.49198 35.8408 9.60896 35.3596 9.84292C34.8898 10.0657 34.4926 10.3832 34.1681 10.7954C33.8437 11.1966 33.5975 11.6589 33.4297 12.1825C33.273 12.7061 33.1948 13.2743 33.1948 13.8871Z" fill="#C6D4E9"/>
<path d="M56.4884 25C55.1458 25 53.9319 24.7827 52.8466 24.3482C51.7726 23.9026 50.8552 23.2843 50.0944 22.4933C49.3448 21.7023 48.7686 20.7721 48.3658 19.7025C47.963 18.633 47.7617 17.4799 47.7617 16.2433V15.5749C47.7617 14.16 47.9686 12.8787 48.3826 11.7312C48.7965 10.5837 49.3728 9.60339 50.1112 8.7901C50.8496 7.96569 51.7222 7.33623 52.7292 6.90174C53.7361 6.46725 54.827 6.25 56.0017 6.25C57.2995 6.25 58.4351 6.46725 59.4084 6.90174C60.3819 7.33623 61.1874 7.94898 61.8251 8.73997C62.4741 9.51983 62.9551 10.4501 63.2683 11.5307C63.5928 12.6115 63.755 13.8034 63.755 15.107V16.8282H49.7252V13.9372H59.7609V13.6197C59.7385 12.8955 59.5931 12.2159 59.3246 11.5808C59.0672 10.9458 58.67 10.4333 58.133 10.0434C57.596 9.65352 56.8799 9.45855 55.9849 9.45855C55.3136 9.45855 54.715 9.60338 54.1892 9.89305C53.6746 10.1716 53.2438 10.5782 52.897 11.1129C52.5502 11.6477 52.2817 12.2939 52.0914 13.0515C51.9125 13.7979 51.8229 14.6391 51.8229 15.5749V16.2433C51.8229 17.0343 51.9293 17.7696 52.1418 18.4492C52.3656 19.1176 52.69 19.7025 53.1152 20.2039C53.5403 20.7052 54.0549 21.1007 54.6592 21.3904C55.2633 21.6689 55.9513 21.8081 56.7234 21.8081C57.6967 21.8081 58.5638 21.6132 59.3246 21.2232C60.0854 20.8333 60.7455 20.2819 61.3048 19.5689L63.4362 21.6244C63.0446 22.1925 62.5355 22.7384 61.9091 23.2621C61.2825 23.7745 60.5161 24.1923 59.6098 24.5154C58.7149 24.8384 57.6743 25 56.4884 25Z" fill="#C6D4E9"/>
<path d="M86.0755 12.2326V21.5241C85.7287 21.9808 85.186 22.4822 84.4476 23.0281C83.7204 23.5628 82.7526 24.0252 81.5443 24.4151C80.3359 24.805 78.8312 25 77.0299 25C75.4971 25 74.0931 24.7437 72.8175 24.2312C71.5421 23.7077 70.4401 22.9445 69.5115 21.9419C68.594 20.9392 67.8836 19.7193 67.3802 18.2821C66.8767 16.8337 66.625 15.1849 66.625 13.3355V11.6477C66.625 9.80949 66.8543 8.17179 67.3131 6.73462C67.7829 5.28632 68.4542 4.06083 69.3269 3.05816C70.1995 2.05548 71.2512 1.29791 72.4819 0.785428C73.7238 0.261809 75.1279 0 76.6943 0C78.6969 0 80.3528 0.334225 81.6617 1.00267C82.982 1.65998 84.0001 2.57353 84.7161 3.74331C85.4322 4.9131 85.8852 6.25 86.0755 7.75401H81.9471C81.8128 6.90731 81.5499 6.14973 81.1583 5.48128C80.7779 4.81283 80.2297 4.28922 79.5137 3.91043C78.8088 3.5205 77.8914 3.32553 76.7614 3.32553C75.7881 3.32553 74.9321 3.50935 74.1937 3.87701C73.4553 4.24466 72.84 4.78498 72.3477 5.49799C71.8666 6.21101 71.503 7.07999 71.2568 8.10495C71.0107 9.12991 70.8876 10.2997 70.8876 11.6143V13.3355C70.8876 14.6725 71.0274 15.859 71.3072 16.8951C71.5981 17.9311 72.012 18.8057 72.549 19.5187C73.0973 20.2318 73.763 20.7721 74.5461 21.1397C75.3293 21.4962 76.2131 21.6745 77.1977 21.6745C78.1599 21.6745 78.9487 21.5965 79.564 21.4405C80.1794 21.2734 80.666 21.0784 81.024 20.8556C81.3932 20.6217 81.6786 20.3989 81.88 20.1872V15.3576H76.795V12.2326H86.0755Z" fill="#C6D4E9"/>
<path d="M89.5664 15.8255V15.4411C89.5664 14.1377 89.7566 12.929 90.1369 11.8148C90.5174 10.6896 91.0656 9.71479 91.7816 8.89038C92.5089 8.05481 93.3927 7.40865 94.4331 6.95187C95.4849 6.48396 96.6708 6.25 97.991 6.25C99.3223 6.25 100.508 6.48396 101.549 6.95187C102.601 7.40865 103.49 8.05481 104.217 8.89038C104.945 9.71479 105.498 10.6896 105.879 11.8148C106.259 12.929 106.449 14.1377 106.449 15.4411V15.8255C106.449 17.129 106.259 18.3378 105.879 19.4519C105.498 20.5659 104.945 21.5407 104.217 22.3764C103.49 23.2007 102.606 23.8469 101.566 24.3148C100.525 24.7716 99.3447 25 98.0245 25C96.6931 25 95.5017 24.7716 94.45 24.3148C93.4095 23.8469 92.5256 23.2007 91.7984 22.3764C91.0711 21.5407 90.5174 20.5659 90.1369 19.4519C89.7566 18.3378 89.5664 17.129 89.5664 15.8255ZM93.6109 15.4411V15.8255C93.6109 16.6389 93.6947 17.4075 93.8626 18.1317C94.0304 18.8558 94.2933 19.4908 94.6514 20.0368C95.0094 20.5827 95.468 21.0116 96.0275 21.3235C96.5869 21.6355 97.2526 21.7915 98.0245 21.7915C98.7742 21.7915 99.423 21.6355 99.9713 21.3235C100.531 21.0116 100.989 20.5827 101.347 20.0368C101.705 19.4908 101.968 18.8558 102.136 18.1317C102.315 17.4075 102.405 16.6389 102.405 15.8255V15.4411C102.405 14.6391 102.315 13.8815 102.136 13.1684C101.968 12.4443 101.7 11.8037 101.331 11.2467C100.973 10.6896 100.514 10.2551 99.9545 9.94318C99.4063 9.62009 98.7518 9.45855 97.991 9.45855C97.2303 9.45855 96.5701 9.62009 96.0107 9.94318C95.4625 10.2551 95.0094 10.6896 94.6514 11.2467C94.2933 11.8037 94.0304 12.4443 93.8626 13.1684C93.6947 13.8815 93.6109 14.6391 93.6109 15.4411Z" fill="#C6D4E9"/>
</g>
<defs>
<clipPath id="clip0_108_96">
<rect width="129" height="25" fill="white"/>
</clipPath>
</defs>
</svg>
