<svg width="64" height="64" viewBox="0 0 64 64" fill="none" xmlns="http://www.w3.org/2000/svg">
<path fill-rule="evenodd" clip-rule="evenodd" d="M53.3333 10.6667V53.3333H10.6667V10.6667H53.3333ZM28.6249 21.3333H24.4696L16.5807 42.6667H20.3294L21.8188 38.4962H31.2625L32.7199 42.6667H36.6945L28.6249 21.3333ZM43.349 21.3333H39.6153V42.6667H43.349V21.3333ZM26.5158 24.9125L30.2348 35.5555H22.8558L26.5158 24.9125ZM56.8889 42.6667H64V49.7778H56.8889V42.6667ZM14.2222 56.8889H21.3333V64H14.2222V56.8889ZM28.4444 56.8889H35.5556V64H28.4444V56.8889ZM14.2222 0H21.3333V7.11111H14.2222V0ZM42.6667 56.8889H49.7778V64H42.6667V56.8889ZM28.4444 0H35.5556V7.11111H28.4444V0ZM42.6667 0H49.7778V7.11111H42.6667V0ZM56.8889 28.4444H64V35.5556H56.8889V28.4444ZM0 42.6667H7.11111V49.7778H0V42.6667ZM56.8889 14.2222H64V21.3333H56.8889V14.2222ZM0 28.4444H7.11111V35.5556H0V28.4444ZM0 14.2222H7.11111V21.3333H0V14.2222Z" fill="url(#paint0_linear_112_238)"/>
<defs>
<linearGradient id="paint0_linear_112_238" x1="32" y1="0" x2="32" y2="64" gradientUnits="userSpaceOnUse">
<stop stop-color="#459BDD"/>
<stop offset="1" stop-color="#0079BA"/>
</linearGradient>
</defs>
</svg>
