<svg width="64" height="64" viewBox="0 0 64 64" fill="none" xmlns="http://www.w3.org/2000/svg">
<path fill-rule="evenodd" clip-rule="evenodd" d="M64 0H50.2857V13.7143H64V0ZM13.7143 13.7143H0V27.4286H13.7143V13.7143ZM0 32H13.7143V45.7143H0V32ZM0 50.2857H13.7143V64H0V50.2857ZM18.2857 50.2857H32V64H18.2857V50.2857ZM32 32H18.2857V45.7143H32V32ZM18.2857 13.7143H32V27.4286H18.2857V13.7143ZM50.2857 50.2857H36.5714V64H50.2857V50.2857ZM36.5714 32H50.2857V45.7143H36.5714V32Z" fill="url(#paint0_linear_112_239)"/>
<defs>
<linearGradient id="paint0_linear_112_239" x1="32" y1="0" x2="32" y2="64" gradientUnits="userSpaceOnUse">
<stop stop-color="#459BDD"/>
<stop offset="1" stop-color="#0079BA"/>
</linearGradient>
</defs>
</svg>
