<svg width="79" height="63" viewBox="0 0 79 63" fill="none" xmlns="http://www.w3.org/2000/svg">
<path d="M61.1264 20.0265L61.3038 21.5997L62.8018 22.112C70.6483 24.7951 76.25 32.1488 76.25 40.7645C76.25 51.6363 67.3236 60.5 56.2499 60.5H16.875C8.90793 60.5 2.5 54.1252 2.5 46.3235C2.5 38.5218 8.90793 32.147 16.875 32.147C17.8332 32.147 18.7669 32.2391 19.6681 32.4142L24.0543 33.2664L22.4858 29.0824C21.6872 26.9522 21.25 24.6469 21.25 22.2353C21.25 11.3636 30.1763 2.5 41.25 2.5C51.5619 2.5 60.0178 10.1912 61.1264 20.0265Z" stroke="url(#paint0_linear_112_261)" stroke-width="5"/>
<defs>
<linearGradient id="paint0_linear_112_261" x1="39.375" y1="0" x2="39.375" y2="63" gradientUnits="userSpaceOnUse">
<stop stop-color="#459BDD"/>
<stop offset="1" stop-color="#0079BA"/>
</linearGradient>
</defs>
</svg>
