<svg width="64" height="64" viewBox="0 0 64 64" fill="none" xmlns="http://www.w3.org/2000/svg">
<path fill-rule="evenodd" clip-rule="evenodd" d="M31.9995 29.7141C46.4955 28.713 47.8635 22.721 47.987 21.817C47.8075 21.273 46.7299 18.7792 41.7928 17.2387L41.4979 19.3141C41.22 21.2419 40.2219 22.9931 38.7048 24.2146L36.7802 25.7496C33.985 27.9882 30.0109 27.9882 27.2155 25.7496L25.299 24.2205C23.7789 22.9982 22.7794 21.2448 22.5024 19.3142L22.2053 17.2274C17.2189 18.7794 16.1698 21.3027 16.0098 21.8069C16.1195 22.649 17.42 28.705 31.9995 29.7141Z" fill="url(#paint0_linear_111_168)"/>
<path fill-rule="evenodd" clip-rule="evenodd" d="M47.535 17.6056C45.3716 8.11422 36.1795 2.07653 33.1075 0.297053C32.4223 -0.0990177 31.5777 -0.0990177 30.8926 0.297053C27.8217 2.07536 18.6435 8.10502 16.4688 17.6C18.9007 15.6571 23.4619 13.7142 32.0001 13.7142C40.5385 13.7142 45.103 15.657 47.535 17.6056Z" fill="url(#paint1_linear_111_168)"/>
<path fill-rule="evenodd" clip-rule="evenodd" d="M48.0003 61.7141H16.0003C15.3691 61.7141 14.8574 62.2257 14.8574 62.8569C14.8574 63.4881 15.3691 63.9998 16.0003 63.9998H48.0003C48.6316 63.9998 49.1431 63.4881 49.1431 62.8569C49.1431 62.2257 48.6315 61.7141 48.0003 61.7141Z" fill="url(#paint2_linear_111_168)"/>
<path fill-rule="evenodd" clip-rule="evenodd" d="M24.4346 16.6673L24.7661 18.9929C24.9608 20.3473 25.6621 21.5776 26.7283 22.4353L28.6437 23.9633C30.6221 25.4833 33.3751 25.4833 35.3535 23.9633L37.277 22.4296C38.3416 21.571 39.0415 20.3411 39.2359 18.9873L39.5661 16.6673C37.0728 16.1934 34.5383 15.9699 32.0003 15.9999C29.4626 15.9706 26.9282 16.1942 24.4346 16.6673Z" fill="url(#paint3_linear_111_168)"/>
<path d="M32.0005 42.2854C29.0066 42.1395 26.4553 44.4356 26.2861 47.4284C26.3301 49.3104 27.4156 51.012 29.1033 51.8456C29.4793 52.043 29.7146 52.4324 29.7148 52.8569V53.7142C29.7148 54.3454 30.2265 54.8569 30.8577 54.8569H33.1434C33.7746 54.8569 34.2861 54.3454 34.2861 53.7142V52.8569C34.2863 52.4324 34.5218 52.043 34.8977 51.8456C36.5855 51.012 37.6708 49.3104 37.7148 47.4284C37.5457 44.4355 34.9945 42.1395 32.0005 42.2854ZM29.7148 49.1425C29.0836 49.1425 28.5719 48.631 28.5719 47.9998C28.5719 47.3686 29.0836 46.8569 29.7148 46.8569C30.346 46.8569 30.8577 47.3686 30.8577 47.9998C30.8577 48.631 30.346 49.1425 29.7148 49.1425ZM34.2861 49.1425C33.6549 49.1425 33.1434 48.631 33.1434 47.9998C33.1434 47.3686 33.6549 46.8569 34.2861 46.8569C34.9175 46.8569 35.429 47.3686 35.429 47.9998C35.429 48.631 34.9175 49.1425 34.2861 49.1425Z" fill="#459BDD"/>
<path fill-rule="evenodd" clip-rule="evenodd" d="M59.3066 52.6582L55.6392 35.5885C55.3853 34.3256 54.6946 33.1926 53.6883 32.3885C51.3559 30.6237 48.8013 29.1731 46.0908 28.0742C43.4427 29.8949 39.1295 31.5198 32.077 32C32.0261 32.0033 31.9749 32.0033 31.9239 32C24.8712 31.5222 20.5581 29.8969 17.9103 28.0753C15.2003 29.1734 12.6466 30.6233 10.3148 32.3873C9.30798 33.1912 8.61682 34.3243 8.36274 35.5873L4.6929 52.6629C4.3941 54.0603 4.64192 55.5192 5.38544 56.7395C6.42774 58.4469 8.92142 61.9097 12.6209 63.3464C12.593 63.1846 12.5765 63.0213 12.5717 62.8573C12.5752 61.8464 13.0273 60.8893 13.806 60.2446C13.0155 59.4053 12.5741 58.2961 12.5717 57.143V38.8571C12.5717 36.3325 14.6184 34.2857 17.1431 34.2857H46.8575C49.3823 34.2857 51.4288 36.3325 51.4288 38.8571V57.143C51.4264 58.2961 50.9851 59.4051 50.1946 60.2446C50.9731 60.8893 51.4255 61.8464 51.4288 62.8573C51.4242 63.0213 51.4077 63.1846 51.3797 63.3464C55.0792 61.9097 57.5728 58.4469 58.6139 56.7417C59.3589 55.5193 59.6069 54.0579 59.3066 52.6582Z" fill="url(#paint4_linear_111_168)"/>
<path d="M46.8575 36.5715H17.1431C15.8808 36.5715 14.8574 37.5948 14.8574 38.8571V57.143C14.8574 58.4052 15.8808 59.4286 17.1431 59.4286H46.8575C48.1198 59.4286 49.1431 58.4052 49.1431 57.143V38.8571C49.1431 37.5947 48.1198 36.5715 46.8575 36.5715ZM36.5716 53.5132V53.7142C36.5716 55.6078 35.0367 57.1428 33.1431 57.1428H30.8574C28.9638 57.1428 27.4289 55.6078 27.4289 53.7142V53.5132C25.3235 52.202 24.031 49.9086 24.0003 47.4286C24.1687 43.1731 27.7439 39.8534 32.0003 40C36.2566 39.8532 39.8318 43.1731 40.0003 47.4286C39.9695 49.9086 38.6771 52.202 36.5716 53.5132Z" fill="url(#paint5_linear_111_168)"/>
<defs>
<linearGradient id="paint0_linear_111_168" x1="31.9984" y1="17.2274" x2="31.9984" y2="29.7141" gradientUnits="userSpaceOnUse">
<stop stop-color="#459BDD"/>
<stop offset="1" stop-color="#0079BA"/>
</linearGradient>
<linearGradient id="paint1_linear_111_168" x1="32.0019" y1="0" x2="32.0019" y2="17.6056" gradientUnits="userSpaceOnUse">
<stop stop-color="#459BDD"/>
<stop offset="1" stop-color="#0079BA"/>
</linearGradient>
<linearGradient id="paint2_linear_111_168" x1="32.0003" y1="61.7141" x2="32.0003" y2="63.9998" gradientUnits="userSpaceOnUse">
<stop stop-color="#459BDD"/>
<stop offset="1" stop-color="#0079BA"/>
</linearGradient>
<linearGradient id="paint3_linear_111_168" x1="32.0003" y1="15.9973" x2="32.0003" y2="25.1033" gradientUnits="userSpaceOnUse">
<stop stop-color="#459BDD"/>
<stop offset="1" stop-color="#0079BA"/>
</linearGradient>
<linearGradient id="paint4_linear_111_168" x1="32.0002" y1="28.0742" x2="32.0002" y2="63.3464" gradientUnits="userSpaceOnUse">
<stop stop-color="#459BDD"/>
<stop offset="1" stop-color="#0079BA"/>
</linearGradient>
<linearGradient id="paint5_linear_111_168" x1="32.0003" y1="36.5715" x2="32.0003" y2="59.4286" gradientUnits="userSpaceOnUse">
<stop stop-color="#459BDD"/>
<stop offset="1" stop-color="#0079BA"/>
</linearGradient>
</defs>
</svg>
