<svg width="64" height="64" viewBox="0 0 64 64" fill="none" xmlns="http://www.w3.org/2000/svg">
<path d="M32 4C21.75 8.6325 15.1725 10.8075 4 12C4 21.6987 4.65875 28.67 7.16125 35.0638C9.20752 40.2774 12.239 45.0481 16.09 49.115C22.29 55.6975 29.1112 59.165 32 60C34.8888 59.165 41.71 55.6975 47.91 49.115C51.761 45.0481 54.7925 40.2774 56.8387 35.0638C59.3412 28.67 60 21.6987 60 12C48.8275 10.8075 42.25 8.6325 32 4ZM52.1838 33.2412C50.3691 37.8591 47.6823 42.0844 44.27 45.6862C39.5 50.75 34.5812 53.5387 32 54.67V9.475C36.8438 11.6 40.5912 13.0125 44.2412 14.0863C47.7482 15.112 51.324 15.8856 54.9412 16.4013C54.7262 23.9288 53.8963 28.8625 52.1838 33.2412Z" fill="url(#paint0_linear_112_257)"/>
<defs>
<linearGradient id="paint0_linear_112_257" x1="32" y1="4" x2="32" y2="60" gradientUnits="userSpaceOnUse">
<stop stop-color="#459BDD"/>
<stop offset="1" stop-color="#0079BA"/>
</linearGradient>
</defs>
</svg>
