<svg width="44" height="44" viewBox="0 0 44 44" fill="none" xmlns="http://www.w3.org/2000/svg">
<g filter="url(#filter0_d_224_1055)">
<rect x="7" y="5" width="30" height="30" rx="15" fill="#459BDD" shape-rendering="crispEdges"/>
<rect x="9" y="7" width="26" height="26" rx="13" stroke="white" stroke-width="4" shape-rendering="crispEdges"/>
<path d="M18.5572 25.5V24.1676L22.092 20.7024C22.43 20.361 22.7118 20.0578 22.9371 19.7926C23.1625 19.5275 23.3316 19.2706 23.4442 19.022C23.5569 18.7734 23.6133 18.5083 23.6133 18.2266C23.6133 17.9051 23.5404 17.63 23.3945 17.4013C23.2487 17.1693 23.0482 16.9903 22.793 16.8643C22.5378 16.7384 22.2478 16.6754 21.9229 16.6754C21.5882 16.6754 21.2949 16.745 21.043 16.8842C20.7911 17.0201 20.5955 17.214 20.4563 17.4659C20.3204 17.7178 20.2525 18.0178 20.2525 18.3658H18.4975C18.4975 17.7195 18.645 17.1577 18.94 16.6804C19.235 16.2031 19.641 15.8336 20.158 15.5717C20.6784 15.3099 21.275 15.179 21.9478 15.179C22.6306 15.179 23.2305 15.3066 23.7475 15.5618C24.2646 15.817 24.6656 16.1667 24.9506 16.6108C25.239 17.0549 25.3832 17.562 25.3832 18.1321C25.3832 18.5133 25.3103 18.8878 25.1644 19.2557C25.0186 19.6236 24.7617 20.0312 24.3938 20.4787C24.0292 20.9261 23.5172 21.468 22.8576 22.1044L21.1026 23.8892V23.9588H25.5373V25.5H18.5572Z" fill="white"/>
</g>
<defs>
<filter id="filter0_d_224_1055" x="0" y="0" width="44" height="44" filterUnits="userSpaceOnUse" color-interpolation-filters="sRGB">
<feFlood flood-opacity="0" result="BackgroundImageFix"/>
<feColorMatrix in="SourceAlpha" type="matrix" values="0 0 0 0 0 0 0 0 0 0 0 0 0 0 0 0 0 0 127 0" result="hardAlpha"/>
<feOffset dy="2"/>
<feGaussianBlur stdDeviation="3.5"/>
<feComposite in2="hardAlpha" operator="out"/>
<feColorMatrix type="matrix" values="0 0 0 0 0 0 0 0 0 0 0 0 0 0 0 0 0 0 0.25 0"/>
<feBlend mode="normal" in2="BackgroundImageFix" result="effect1_dropShadow_224_1055"/>
<feBlend mode="normal" in="SourceGraphic" in2="effect1_dropShadow_224_1055" result="shape"/>
</filter>
</defs>
</svg>
