<svg width="44" height="44" viewBox="0 0 44 44" fill="none" xmlns="http://www.w3.org/2000/svg">
<g filter="url(#filter0_d_224_1063)">
<rect x="7" y="5" width="30" height="30" rx="15" fill="#459BDD" shape-rendering="crispEdges"/>
<rect x="9" y="7" width="26" height="26" rx="13" stroke="white" stroke-width="4" shape-rendering="crispEdges"/>
<path d="M21.9994 25.6392C21.2835 25.6392 20.6471 25.5166 20.0903 25.2713C19.5368 25.026 19.0993 24.6847 18.7778 24.2472C18.4563 23.8097 18.2856 23.3042 18.2657 22.7308H20.135C20.1516 23.0059 20.2427 23.2462 20.4085 23.4517C20.5742 23.6539 20.7946 23.8113 21.0697 23.924C21.3448 24.0367 21.653 24.093 21.9944 24.093C22.359 24.093 22.6821 24.0301 22.9639 23.9041C23.2456 23.7749 23.466 23.5959 23.6251 23.3672C23.7842 23.1385 23.8621 22.875 23.8588 22.5767C23.8621 22.2685 23.7825 21.9967 23.6201 21.7614C23.4577 21.526 23.2224 21.3421 22.9142 21.2095C22.6092 21.0769 22.2413 21.0107 21.8105 21.0107H20.9106V19.5888H21.8105C22.1651 19.5888 22.475 19.5275 22.7401 19.4048C23.0086 19.2822 23.2191 19.1098 23.3715 18.8878C23.524 18.6624 23.5986 18.4022 23.5953 18.1072C23.5986 17.8189 23.5339 17.5687 23.4014 17.3565C23.2721 17.1411 23.0882 16.9737 22.8495 16.8544C22.6142 16.7351 22.3374 16.6754 22.0193 16.6754C21.7077 16.6754 21.4194 16.7318 21.1542 16.8445C20.8891 16.9571 20.6753 17.1179 20.5129 17.3267C20.3505 17.5322 20.2643 17.7775 20.2544 18.0625H18.4795C18.4927 17.4924 18.6568 16.992 18.9717 16.5611C19.2899 16.1269 19.7141 15.7888 20.2444 15.5469C20.7747 15.3016 21.3696 15.179 22.0292 15.179C22.7087 15.179 23.2986 15.3066 23.7991 15.5618C24.3029 15.8137 24.6923 16.1534 24.9674 16.581C25.2425 17.0085 25.3801 17.4808 25.3801 17.9979C25.3834 18.5713 25.2143 19.0518 24.873 19.4396C24.5349 19.8274 24.0908 20.081 23.5406 20.2003V20.2798C24.2565 20.3793 24.805 20.6444 25.1862 21.0753C25.5706 21.5028 25.7612 22.0348 25.7579 22.6712C25.7579 23.2412 25.5955 23.7517 25.2707 24.2024C24.9492 24.6499 24.5051 25.0012 23.9383 25.2564C23.3749 25.5116 22.7285 25.6392 21.9994 25.6392Z" fill="white"/>
</g>
<defs>
<filter id="filter0_d_224_1063" x="0" y="0" width="44" height="44" filterUnits="userSpaceOnUse" color-interpolation-filters="sRGB">
<feFlood flood-opacity="0" result="BackgroundImageFix"/>
<feColorMatrix in="SourceAlpha" type="matrix" values="0 0 0 0 0 0 0 0 0 0 0 0 0 0 0 0 0 0 127 0" result="hardAlpha"/>
<feOffset dy="2"/>
<feGaussianBlur stdDeviation="3.5"/>
<feComposite in2="hardAlpha" operator="out"/>
<feColorMatrix type="matrix" values="0 0 0 0 0 0 0 0 0 0 0 0 0 0 0 0 0 0 0.25 0"/>
<feBlend mode="normal" in2="BackgroundImageFix" result="effect1_dropShadow_224_1063"/>
<feBlend mode="normal" in="SourceGraphic" in2="effect1_dropShadow_224_1063" result="shape"/>
</filter>
</defs>
</svg>
