<svg width="63" height="63" viewBox="0 0 63 63" fill="none" xmlns="http://www.w3.org/2000/svg">
<circle cx="31.5" cy="31.5" r="31.5" fill="#E0F2FF"/>
<path d="M44.2406 20.6156C44.7531 20.103 44.7531 19.272 44.2406 18.7594C43.728 18.2469 42.897 18.2469 42.3844 18.7594L18.7594 42.3844C18.2469 42.897 18.2469 43.728 18.7594 44.2406C19.272 44.7531 20.103 44.7531 20.6156 44.2406L44.2406 20.6156Z" fill="#459BDD"/>
<path fill-rule="evenodd" clip-rule="evenodd" d="M30.1875 24.2812C30.1875 27.5432 27.5432 30.1875 24.2812 30.1875C21.0193 30.1875 18.375 27.5432 18.375 24.2812C18.375 21.0193 21.0193 18.375 24.2812 18.375C27.5432 18.375 30.1875 21.0193 30.1875 24.2812ZM21.0091 24.2812C21.0091 26.0884 22.4741 27.5534 24.2812 27.5534C26.0884 27.5534 27.5534 26.0884 27.5534 24.2812C27.5534 22.4741 26.0884 21.0091 24.2812 21.0091C22.4741 21.0091 21.0091 22.4741 21.0091 24.2812Z" fill="#459BDD"/>
<path fill-rule="evenodd" clip-rule="evenodd" d="M44.625 38.7188C44.625 41.9807 41.9807 44.625 38.7188 44.625C35.4568 44.625 32.8125 41.9807 32.8125 38.7188C32.8125 35.4568 35.4568 32.8125 38.7188 32.8125C41.9807 32.8125 44.625 35.4568 44.625 38.7188ZM35.4466 38.7188C35.4466 40.5259 36.9116 41.9909 38.7188 41.9909C40.5259 41.9909 41.9909 40.5259 41.9909 38.7188C41.9909 36.9116 40.5259 35.4466 38.7188 35.4466C36.9116 35.4466 35.4466 36.9116 35.4466 38.7188Z" fill="#459BDD"/>
</svg>
